<?xml version="1.0" standalone="no"?>
<!DOCTYPE svg PUBLIC "-//W3C//DTD SVG 1.1//EN" "http://www.w3.org/Graphics/SVG/1.1/DTD/svg11.dtd" >
<svg xmlns="http://www.w3.org/2000/svg">
<metadata></metadata>
<defs>
<font id="patua_oneregular" horiz-adv-x="1085" >
<font-face units-per-em="2048" ascent="1638" descent="-410" />
<missing-glyph horiz-adv-x="460" />
<glyph unicode=" "  horiz-adv-x="460" />
<glyph unicode="&#x09;" horiz-adv-x="460" />
<glyph unicode="&#xa0;" horiz-adv-x="460" />
<glyph unicode="!" horiz-adv-x="571" d="M123 131q0 81 41.5 116.5t120.5 35.5q164 0 164 -152q0 -82 -42 -116.5t-122 -34.5t-121 34.5t-41 116.5zM131.5 863q-13.5 257 9.5 550h291q42 -607 -55 -999h-184q-48 192 -61.5 449z" />
<glyph unicode="&#x22;" horiz-adv-x="790" d="M78 1225q4 313 80 440q28 46 88 51.5t107.5 -31t41.5 -96.5q-14 -142 -213 -403zM500 1225q4 313 80 440q28 46 88 51.5t107.5 -31t41.5 -96.5q-14 -142 -213 -403z" />
<glyph unicode="#" horiz-adv-x="1624" d="M45 295q7 8 21 20t61.5 32t101.5 20h150l129 391h-250l-20 119q3 3 8 7.5t22 17t37 22t51.5 17t65.5 7.5h149l177 527l135 -23q2 -4 5 -10.5t9 -28t8.5 -44.5t-0.5 -57t-14 -67l-100 -297h299l176 527l135 -23q2 -4 5 -10.5t9 -28t8.5 -44.5t-0.5 -57t-14 -67l-100 -297 h252l20 -119q-2 -3 -7 -7.5t-22.5 -17t-37 -22t-51.5 -17t-66 -7.5h-152l-129 -391h248l20 -119q-7 -8 -20.5 -20t-61 -32t-102.5 -20h-147l-195 -586l-135 23q-2 4 -5 10.5t-9 28.5t-8.5 44.5t0.5 56t14 65.5l119 358h-299l-195 -586l-135 23q-2 4 -5 10.5t-9 28.5 t-8.5 44.5t0.5 56t14 65.5l118 358h-249zM598 367h299l129 391h-299z" />
<glyph unicode="$" horiz-adv-x="1107" d="M63 104q-4 64 13 157t43 147h194q32 -67 39 -170q71 -31 170 -31q93 0 154 45t61 129q0 29 -3.5 48.5t-16 43.5t-41.5 43t-74 33l-211 61q-321 92 -321 410q0 163 105 269.5t280 131.5q-58 186 -49 355h245q6 -172 -47 -349q193 -9 381 -96q5 -65 -12 -157t-43 -146h-195 q-33 58 -41 162q-70 18 -147 18q-73 0 -119.5 -38t-46.5 -103q0 -71 35 -109.5t137 -68.5l182 -53q54 -16 97.5 -36t87 -53t72.5 -75t47 -103t18 -135q0 -186 -120.5 -303t-309.5 -141q55 -174 49 -348h-246q-9 167 45 344q-113 6 -225 36.5t-187 81.5z" />
<glyph unicode="%" horiz-adv-x="1732" d="M51 1038q0 198 102.5 299t268.5 101q172 0 266 -89t94 -296q0 -198 -103.5 -303t-270.5 -105q-357 0 -357 393zM301 1047q0 -133 27 -181.5t90 -48.5q44 0 67.5 17.5t35 65.5t11.5 140q0 93 -13 142t-37 65.5t-68 16.5t-66.5 -15t-34.5 -62t-12 -140zM437.5 20 q-3.5 19 3 72.5t32.5 100.5l680 1282l129 -45q3 -11 6.5 -29.5t-3 -72.5t-32.5 -103l-680 -1280l-129 45q-3 11 -6.5 30zM950 377q0 198 102.5 298.5t268.5 100.5q172 0 266 -89t94 -296q0 -198 -103.5 -302.5t-270.5 -104.5q-357 0 -357 393zM1200 385q0 -133 27 -181 t90 -48q44 0 67.5 17.5t35.5 65.5t12 140t-13.5 141.5t-37.5 65.5t-68 16t-66.5 -15t-34.5 -62t-12 -140z" />
<glyph unicode="&#x26;" horiz-adv-x="1210" d="M59 340q0 199 242 379q-67 87 -110.5 186t-43.5 189q0 154 104 245t308 91q93 0 160.5 -27t104.5 -75t54 -105t17 -125q0 -57 -20 -107t-66 -100t-90.5 -87t-124.5 -97q95 -140 291 -291q59 62 90 170l184 -66q-36 -135 -123 -246q27 -25 86 -66t70 -50l-115 -174 q-119 63 -207 137q-89 -64 -180.5 -100.5t-222.5 -36.5q-177 0 -292.5 92t-115.5 264zM340 365q0 -90 61.5 -132.5t159.5 -42.5q45 0 88 16t68 46q-75 66 -116.5 105t-94 95t-86.5 105q-39 -39 -59.5 -93.5t-20.5 -98.5zM397 1085q0 -61 19 -117t69 -124q90 61 139.5 124.5 t49.5 116.5q0 88 -31 125t-92 37q-154 0 -154 -162z" />
<glyph unicode="'" horiz-adv-x="368" d="M78 1225q4 313 80 440q28 46 88 51.5t107.5 -31t41.5 -96.5q-14 -142 -213 -403z" />
<glyph unicode="(" horiz-adv-x="583" d="M59 553q0 132 21 252t54.5 206.5t73.5 160.5t80.5 121.5t74 81.5t54.5 49l21 14l99 -86q-8 -12 -20.5 -35t-44.5 -101.5t-57 -164.5t-45 -221t-20 -275q0 -142 20 -279.5t48 -233t56.5 -170.5t48.5 -112l20 -36l-105 -80q-8 6 -21.5 18t-53 54.5t-75.5 91.5t-79.5 129 t-75 166.5t-53 205t-21.5 244.5z" />
<glyph unicode=")" horiz-adv-x="583" d="M41 -276q8 13 21 38t46 108.5t58 174t46 229.5t21 281q0 140 -19 273.5t-46.5 224.5t-55 161.5t-46.5 103.5l-19 34l98 86q8 -5 21.5 -15t53 -47.5t75.5 -82t79.5 -120.5t75 -161.5t53 -206t21.5 -252.5q0 -126 -21 -244t-54.5 -206t-73.5 -165.5t-80.5 -130t-74 -90.5 t-54.5 -55l-21 -18z" />
<glyph unicode="*" horiz-adv-x="849" d="M57 1200l41 107q3 1 9 2.5t24.5 3.5t37.5 0.5t47 -10t54 -23.5l64 -37v219l115 17q7 -6 18 -18t29 -54t18 -90v-74l186 109l74 -90q-1 -3 -2.5 -9t-9 -23.5t-18.5 -33t-31.5 -35.5t-46.5 -35l-64 -36l189 -107l-43 -109q-9 -3 -25 -6t-61.5 2t-86.5 29l-61 35v-217 l-115 -17q-7 6 -18 18.5t-29 54.5t-18 89v72l-189 -109l-71 90q1 3 2.5 9.5t9 24t18.5 33.5t31.5 36t46.5 35l64 37z" />
<glyph unicode="+" horiz-adv-x="1038" d="M49 580q3 3 8 7.5t22 17t37 22t51.5 17t65.5 7.5h177v342l143 21q3 -3 8 -7.5t17 -22t21.5 -37t17.5 -52t8 -66.5v-178h344l20 -127q-2 -3 -7 -7.5t-22.5 -17t-37 -22t-51.5 -17t-66 -7.5h-180v-342l-144 -21q-3 3 -7.5 8t-17 22t-22 37t-17 51.5t-7.5 65.5v179h-340z " />
<glyph unicode="," horiz-adv-x="499" d="M74 133q0 84 43.5 120t126.5 36q178 0 178 -156q0 -137 -69.5 -254.5t-168.5 -187.5l-86 53q33 55 51.5 126t14.5 126q-39 12 -64.5 49.5t-25.5 87.5z" />
<glyph unicode="-" horiz-adv-x="862" d="M94 582q3 3 8 7.5t22.5 17t37 22t51.5 17t66 7.5h471l20 -131q-2 -3 -7 -7.5t-22.5 -17t-37 -22t-51.5 -17t-66 -7.5h-471z" />
<glyph unicode="." horiz-adv-x="491" d="M76 133q0 84 43.5 120t126.5 36t127.5 -36t44.5 -120q0 -83 -44 -118t-128 -35q-83 0 -126.5 34.5t-43.5 118.5z" />
<glyph unicode="/" horiz-adv-x="845" d="M61.5 -303.5q-2.5 22.5 0.5 56t14 65.5l551 1657l135 -23q2 -4 5 -10.5t9 -28t8.5 -44.5t-0.5 -57t-14 -67l-551 -1655l-135 23q-2 4 -5 10.5t-9 28.5t-8.5 44.5z" />
<glyph unicode="0" horiz-adv-x="1179" d="M84 702q0 379 123.5 553.5t394.5 174.5q140 0 232.5 -35t152.5 -118.5t85.5 -215.5t25.5 -332q0 -380 -126 -562.5t-399 -182.5q-137 0 -229 38t-151 125t-84 221t-25 334zM391 721q0 -98 3.5 -170.5t12 -136.5t22.5 -107t36.5 -74t53 -45t71.5 -14q43 0 75 13t54.5 43.5 t36.5 70.5t21.5 104t10.5 133.5t3 168.5q0 295 -41 413.5t-164 118.5q-42 0 -72.5 -11.5t-52.5 -40t-35.5 -66.5t-21 -100t-10.5 -131t-3 -169z" />
<glyph unicode="1" horiz-adv-x="710" d="M57 1188v155q101 44 229 63.5t249 6.5v-2l2 2v-1175q80 -31 112 -68l-20 -170h-533l-20 170q38 47 166 78v897q-117 12 -185 43z" />
<glyph unicode="2" horiz-adv-x="1112" d="M45 254l510 553q143 154 143 299q0 73 -37 108t-120 35q-104 0 -172 -26q-18 -148 -47 -199l-183 10q-39 66 -43 228q0 35 2 49q84 54 208.5 86.5t256.5 32.5q73 0 133.5 -8.5t120 -33t99.5 -63.5t65 -103.5t25 -150.5q0 -78 -39 -164t-93 -151l-296 -357 q-31 -36 -79.5 -81.5t-80.5 -73.5l-33 -27l10 -22q95 18 201 18h162q6 48 21 98.5t30 77.5l195 -12q30 -54 40.5 -172.5t-10.5 -204.5h-940z" />
<glyph unicode="3" horiz-adv-x="1048" d="M49 59l47 177q139 -52 260 -52q140 0 220.5 52.5t80.5 164.5q0 63 -16 110t-40 72.5t-58 40.5t-62.5 19t-62.5 4q-96 0 -182 -8l-19 172l182 16q232 22 232 224q0 104 -49 151t-148 47q-36 0 -74 -6q-6 -47 -21 -97t-30 -75l-182 10q-22 35 -34.5 111t-10.5 156 q0 2 1 7.5t1 8.5q51 25 172.5 45.5t210.5 20.5q69 0 129.5 -9t122 -34t105 -64.5t71 -105t27.5 -150.5q0 -82 -55 -163t-132 -122v-18q242 -85 242 -320q0 -119 -46 -209t-128 -144t-186 -80.5t-228 -26.5q-83 0 -184 23t-156 52z" />
<glyph unicode="4" horiz-adv-x="1140" d="M12 535l437 927l208 -90l-264 -622q-18 -44 -45 -87.5t-45 -65.5l-18 -22l10 -22q70 25 176 25h186v292q0 259 70 371l213 -22v-641h152v-205h-152v-142q80 -31 113 -69l-21 -162h-520l-20 162q19 23 64 44.5t101 35.5v131h-591z" />
<glyph unicode="5" horiz-adv-x="1021" d="M57 66l66 178q115 -45 248 -45q138 0 206 55t68 178q0 68 -14.5 117.5t-36.5 77t-54.5 43t-60 20t-61.5 4.5q-84 0 -221 -20l-82 151h-2v588h755v-233h-499v-287q66 12 170 12q201 0 314.5 -107.5t113.5 -320.5q0 -252 -149 -372.5t-415 -120.5q-85 0 -187.5 25 t-158.5 57z" />
<glyph unicode="6" horiz-adv-x="1073" d="M74 547q0 204 74 386t213.5 314.5t322.5 190.5l86 -170q-300 -130 -375 -447q94 51 217 51q202 0 313 -110t111 -318q0 -219 -139.5 -339.5t-372.5 -120.5q-242 0 -346 138t-104 425zM369 559q0 -198 40.5 -290.5t129.5 -92.5q202 0 202 256q0 122 -36 182t-119 60 q-125 0 -217 -60v-55z" />
<glyph unicode="7" horiz-adv-x="1028" d="M37 1212q-11 114 10 201h942l27 -162l-522 -1251h-310l404 965q18 44 50 103.5t54 97.5l23 38l-10 23q-95 -19 -201 -19h-180q-6 -48 -21 -98.5t-31 -77.5l-194 12q-30 54 -41 168z" />
<glyph unicode="8" horiz-adv-x="1138" d="M70 393q0 111 57.5 204.5t155.5 152.5q-73 66 -109.5 133t-36.5 174q0 181 115.5 277t327.5 96q213 0 317 -85t104 -266q0 -81 -45 -165t-108 -142q53 -36 87 -64.5t68 -70.5t50 -94.5t16 -118.5q0 -204 -135.5 -322t-378.5 -118q-245 0 -365 100t-120 309zM369 418 q0 -116 53 -172t147 -56q98 0 149.5 48.5t51.5 144.5q0 45 -16 82.5t-39 61t-57.5 45t-62.5 33.5t-63.5 26.5t-52.5 23.5q-110 -94 -110 -237zM395 1090q0 -37 13 -68t30.5 -50.5t47.5 -38t53 -28t58 -23.5t52 -22q21 21 33 35t28.5 39.5t24.5 57t8 69.5q0 101 -45.5 142.5 t-132.5 41.5q-81 0 -125.5 -40.5t-44.5 -114.5z" />
<glyph unicode="9" horiz-adv-x="1060" d="M35 997q0 209 126 322t355 113q224 0 348.5 -154.5t124.5 -429.5q0 -294 -168 -534.5t-434 -338.5l-94 170q134 62 231.5 180t141.5 287q-64 -34 -181 -34q-89 0 -169 26.5t-143 77t-100.5 132t-37.5 183.5zM330 1010q0 -112 52 -173t130 -61q122 0 180 37q2 14 2 41 q0 210 -48.5 297.5t-143.5 87.5q-94 0 -133 -55t-39 -174z" />
<glyph unicode=":" horiz-adv-x="522" d="M98 295q0 83 41.5 118.5t120.5 35.5t121.5 -36t42.5 -118t-42 -117t-122 -35t-121 35t-41 117zM98 758q0 83 41.5 118t120.5 35q80 0 122 -35.5t42 -117.5t-42 -117t-122 -35t-121 35t-41 117z" />
<glyph unicode=";" horiz-adv-x="555" d="M109 236q0 81 41.5 115t119.5 34q170 0 170 -149q0 -129 -66 -242.5t-159 -179.5l-84 51q32 51 50.5 118.5t13.5 120.5q-37 12 -61.5 48.5t-24.5 83.5zM111 752q0 83 41 118t120 35q80 0 122 -35.5t42 -117.5t-42 -117t-122 -35q-79 0 -120 34.5t-41 117.5z" />
<glyph unicode="&#x3c;" horiz-adv-x="798" d="M47 694q89 157 277 338.5t305 233.5l90 -76q-44 -114 -134.5 -245.5t-195.5 -250.5q249 -284 330 -493l-90 -78q-117 52 -305 233t-277 338z" />
<glyph unicode="=" horiz-adv-x="1153" d="M106 348l8 8t22.5 17t37 21.5t51.5 17.5t66 8h735l21 -127q-3 -3 -7.5 -8t-22 -17t-37 -21.5t-52 -17.5t-66.5 -8h-735zM106 752q3 3 8 7.5t22.5 17t37 22t51.5 17t66 7.5h735l21 -127l-7.5 -7.5t-22 -17t-37 -22t-52 -17t-66.5 -7.5h-735z" />
<glyph unicode="&#x3e;" horiz-adv-x="800" d="M82 201q75 200 328 493q-248 284 -328 496l90 76q117 -52 305 -233.5t277 -338.5q-89 -157 -277 -338t-305 -233z" />
<glyph unicode="?" d="M53 1305q87 59 215 92t248 33q147 0 262 -43t185.5 -135t70.5 -222q0 -73 -26.5 -134.5t-68 -105t-92 -82t-99.5 -72.5t-89 -68.5t-62 -78.5t-17 -94h-238q-25 64 -22 120t25 97t57.5 79.5t76.5 68.5t83 64t76 66t55.5 74.5t21.5 88.5q0 153 -209 153q-90 0 -164 -32 q-7 -103 -39 -170h-194q-26 54 -43 145.5t-13 155.5zM285 137q0 84 43.5 120t126.5 36t127.5 -36t44.5 -120q0 -83 -44 -118t-128 -35q-83 0 -126.5 34.5t-43.5 118.5z" />
<glyph unicode="@" horiz-adv-x="1918" d="M74 371q0 528 259 793.5t736 265.5q403 0 600 -180t197 -552q0 -138 -34.5 -257t-100.5 -211t-170.5 -144.5t-235.5 -52.5q-108 0 -175 39.5t-81 91.5q-48 -37 -117.5 -61.5t-117.5 -24.5q-156 0 -230 79t-74 255q0 125 27.5 223.5t71 158.5t101.5 99.5t113 54.5t111 15 q119 0 193 -64q29 51 100 51h111l-64 -655q-7 -78 76 -78q281 0 281 436q0 137 -32.5 244.5t-88 177t-135.5 114.5t-168.5 64t-192.5 19q-84 0 -159.5 -11.5t-152 -39.5t-139.5 -71.5t-118.5 -111.5t-93.5 -155.5t-60 -206.5t-22 -262q0 -115 22 -209t63 -161t95.5 -116 t124 -78.5t144 -43t159.5 -13.5q103 0 217.5 18.5t202.5 49.5l35 -142q-222 -102 -488 -102q-790 0 -790 754zM776 434q0 -97 29.5 -138.5t89.5 -41.5q93 0 164 65l41 441q-63 28 -135 28q-98 0 -143.5 -94.5t-45.5 -259.5z" />
<glyph unicode="A" horiz-adv-x="1320" d="M-12 170q39 48 137 78l393 1175h281l407 -1181q85 -30 121 -72l-20 -170h-480l-20 170q24 34 98 61l-55 172h-410l-51 -165q70 -28 107 -68l-21 -170h-467zM498 592h293l-78 250q-24 76 -38 149.5t-16 109.5l-2 36h-28q0 -125 -51 -291z" />
<glyph unicode="B" horiz-adv-x="1263" d="M66 170q27 37 112 68v936q-84 31 -112 69l20 170h465q88 0 153.5 -3.5t133 -13t114 -26.5t89 -45.5t68 -68t40 -94.5t14.5 -126q0 -139 -149 -264q190 -96 190 -358q0 -205 -134.5 -305t-399.5 -109h-584zM473 223h141q67 0 113.5 7.5t87.5 28t61.5 61t20.5 102.5 q0 97 -57 143.5t-185 46.5h-182v-389zM473 836h168q104 0 159.5 53t55.5 131q0 46 -14 78t-35.5 50t-60.5 27.5t-74.5 12t-91.5 2.5h-107v-354z" />
<glyph unicode="C" horiz-adv-x="1167" d="M61 702q0 367 161 547.5t452 180.5q133 0 235 -32.5t209 -97.5q1 -15 1 -31q0 -55 -13 -126q-17 -92 -43 -146h-195q-30 57 -41 174q-65 27 -170 27q-53 0 -95 -13.5t-79 -46.5t-61.5 -86.5t-38.5 -137t-14 -193.5q0 -138 19 -234t57 -152t89.5 -81t122.5 -25 q218 0 394 66l73 -182q-218 -129 -516 -129q-191 0 -309.5 70t-178 228.5t-59.5 419.5z" />
<glyph unicode="D" horiz-adv-x="1316" d="M66 170q27 37 112 68v936q-84 31 -112 69l20 170h457q161 0 292 -45t226 -133.5t147 -228t52 -320.5q0 -147 -32 -263t-89 -194.5t-139 -130.5t-179 -75t-213 -23h-522zM473 223h148q57 0 102 10t89.5 39t74 76.5t47.5 127.5t18 188q0 145 -27.5 248.5t-80 163.5t-121 87 t-158.5 27h-92v-967z" />
<glyph unicode="E" horiz-adv-x="1103" d="M66 170q27 37 112 68v936q-84 31 -112 69l20 170h934v-356l-152 -19q-47 41 -75 152h-320v-352h285q23 61 51 86l129 -15v-364l-129 -17q-26 21 -51 86h-285v-391h336q27 106 76 152l151 -19v-356h-950z" />
<glyph unicode="F" horiz-adv-x="1071" d="M66 170q27 37 112 68v936q-84 31 -112 69l20 170h934v-356l-152 -19q-47 41 -75 152h-320v-373h285q23 61 51 86l129 -14v-365l-129 -16q-26 21 -51 86h-285v-340q137 -31 199 -84l-21 -170h-565z" />
<glyph unicode="G" horiz-adv-x="1269" d="M61 702q0 367 163 547.5t454 180.5q275 0 457 -130q1 -12 1 -25q0 -57 -14 -131q-17 -93 -43 -147h-188q-31 60 -41 170q-91 31 -188 31q-67 0 -117.5 -22.5t-91.5 -74.5t-62.5 -147.5t-21.5 -232.5q0 -506 278 -506q113 0 197 35v231q-92 30 -129 76l20 162h479l21 -162 q-26 -32 -96 -63v-379q-98 -72 -216 -101.5t-294 -29.5q-196 0 -319 70t-186 229t-63 419z" />
<glyph unicode="H" horiz-adv-x="1396" d="M66 170q27 37 112 68v936q-84 31 -112 69l20 170h479l21 -170q-33 -38 -113 -69v-322h451v322q-85 31 -113 69l20 170h480l20 -170q-33 -39 -112 -69v-936q80 -31 112 -68l-20 -170h-480l-20 170q27 36 113 68v409h-451v-409q82 -31 113 -68l-21 -170h-479z" />
<glyph unicode="I" horiz-adv-x="651" d="M66 170q27 37 112 68v936q-84 31 -112 69l20 170h479l21 -170q-33 -38 -113 -69v-936q82 -31 113 -68l-21 -170h-479z" />
<glyph unicode="J" horiz-adv-x="614" d="M-283 -319q-1 12 -1 25q0 51 12 114q16 81 41 131h184q30 -47 41 -154q10 -2 31 -2q73 0 104 37.5t31 149.5v1192q-85 31 -113 69l21 170h479l20 -170q-33 -39 -112 -69l-2 -1174q0 -237 -92 -331.5t-302 -94.5q-99 0 -190.5 31.5t-151.5 75.5z" />
<glyph unicode="K" horiz-adv-x="1284" d="M66 170q27 37 112 68v936q-84 31 -112 69l20 170h479l21 -170q-33 -38 -113 -69v-936q82 -31 113 -68l-21 -170h-479zM485 737l342 455q-55 25 -79 55l20 166h467l20 -166q-27 -33 -106 -65l-354 -437l323 -487q58 -12 108 -36t74 -52l-20 -170h-340z" />
<glyph unicode="L" horiz-adv-x="1028" d="M66 170q27 37 112 68v936q-84 31 -112 69l20 170h479l21 -170q-33 -38 -113 -69v-951h324q27 107 75 152l152 -19v-356h-938z" />
<glyph unicode="M" horiz-adv-x="1857" d="M61 1255l21 158h467l299 -825q30 -72 50 -142.5t25 -105.5l5 -35h28q8 125 74 283l285 825h459l20 -158q-33 -44 -117 -75v-938q79 -30 113 -72l-21 -170h-466l-21 168q34 42 113 72v532q0 54 4.5 129.5t8.5 124.5l5 49l-20 2q-47 -174 -82 -276l-273 -801h-272l-287 801 q-18 44 -38.5 113t-32.5 116l-11 47l-20 -2q18 -182 18 -303v-539q76 -29 113 -75l-21 -158h-401l-20 158q37 46 112 75v947q-84 31 -117 75z" />
<glyph unicode="N" horiz-adv-x="1384" d="M61 1255l21 158h422l407 -795q22 -43 47.5 -112.5t40.5 -117.5l15 -48l22 8q-28 178 -28 299v531q-74 28 -113 77l20 158h402l20 -158q-40 -49 -112 -77v-1178h-322l-411 801q-22 43 -47.5 112.5t-40.5 117.5l-15 48l-22 -8q28 -178 28 -299v-539q76 -29 113 -75 l-21 -158h-401l-20 158q37 46 112 75v947q-84 31 -117 75z" />
<glyph unicode="O" horiz-adv-x="1316" d="M61 702q0 368 159.5 548t449.5 180q146 0 252 -36t182 -117t113.5 -217t37.5 -331q0 -369 -161.5 -557t-452.5 -188q-144 0 -249.5 39t-180.5 123.5t-112.5 223t-37.5 332.5zM369 721q0 -265 77.5 -385.5t210.5 -120.5q140 0 215.5 113.5t75.5 378.5q0 137 -21.5 234.5 t-62.5 152.5t-92.5 79.5t-118.5 24.5q-53 0 -94.5 -13.5t-78 -46.5t-60.5 -86.5t-37.5 -137t-13.5 -193.5z" />
<glyph unicode="P" horiz-adv-x="1241" d="M66 170q27 37 112 68v936q-84 31 -112 69l20 170h543q111 -2 194.5 -15.5t155.5 -45t118 -82.5t71.5 -129.5t25.5 -184.5q0 -126 -44 -217t-129 -144.5t-197 -78t-259 -24.5h-92v-242q147 -32 186 -80l-20 -170h-553zM473 715h137q138 0 207.5 55.5t69.5 190.5 q0 58 -15.5 100t-40 66.5t-63.5 39t-78.5 19t-93.5 4.5h-123v-475z" />
<glyph unicode="Q" horiz-adv-x="1316" d="M61 702q0 368 159.5 548t449.5 180q146 0 252 -36t182 -117t113.5 -217t37.5 -331q0 -318 -120.5 -502t-341.5 -229q104 -132 342 -172l-21 -186h-14q-136 0 -258 36q-129 39 -225.5 122t-124.5 198q-216 38 -323.5 206.5t-107.5 499.5zM369 721q0 -265 77.5 -385.5 t210.5 -120.5q140 0 215.5 113.5t75.5 378.5q0 137 -21.5 234.5t-62.5 152.5t-92.5 79.5t-118.5 24.5q-53 0 -94.5 -13.5t-78 -46.5t-60.5 -86.5t-37.5 -137t-13.5 -193.5z" />
<glyph unicode="R" horiz-adv-x="1286" d="M66 170q27 37 112 68v936q-84 31 -112 69l20 170h522q112 -2 195 -13.5t155.5 -39.5t118 -74t71.5 -118t26 -169q0 -73 -26 -135.5t-71 -108t-96.5 -77.5t-112.5 -55q101 -41 136 -105l149 -285q96 -31 131 -75l-20 -158h-346l-236 502q-12 29 -31.5 52.5t-44.5 23.5 h-133v-328q147 -32 186 -80l-20 -170h-553zM473 801h117q139 0 207.5 42.5t68.5 147.5q0 111 -69.5 155t-202.5 44h-121v-389z" />
<glyph unicode="S" horiz-adv-x="1101" d="M66 104q-1 15 -1 31q0 55 13 127q17 92 43 146h194q32 -67 39 -170q71 -31 170 -31q93 0 154 45t61 129q0 29 -3.5 48.5t-16 43.5t-41.5 43t-74 33l-211 61q-321 92 -321 410q0 187 134.5 298.5t348.5 111.5q220 0 432 -99q1 -15 1 -31q0 -55 -13 -126q-17 -92 -43 -146 h-195q-17 23 -28 74.5t-13 87.5q-70 18 -147 18q-73 0 -119.5 -38t-46.5 -103q0 -71 35 -109.5t137 -68.5l182 -53q54 -16 97.5 -36t87 -53t72.5 -75t47 -103t18 -135q0 -106 -41.5 -192t-113 -142t-166.5 -86t-203 -30q-123 0 -253 31t-216 89z" />
<glyph unicode="T" horiz-adv-x="1179" d="M16 1118v293h1147v-293l-129 -16q-26 21 -51 86h-246v-950q82 -31 113 -68l-21 -170h-479l-20 170q27 37 112 68v950h-245q-24 -64 -52 -86z" />
<glyph unicode="U" horiz-adv-x="1298" d="M33 1243l20 170h479l21 -170q-33 -38 -113 -69v-670q0 -148 49 -218.5t175 -70.5q122 0 173.5 73t51.5 216v670q-85 31 -113 69l21 170h448l21 -170q-33 -38 -113 -69v-662q0 -269 -121.5 -398.5t-392.5 -129.5q-141 0 -237 33t-152.5 102t-80.5 164t-24 229v662 q-77 28 -112 69z" />
<glyph unicode="V" horiz-adv-x="1290" d="M0 1243l20 170h480l20 -170q-28 -38 -104 -65l174 -607q22 -76 35.5 -149.5t16.5 -109.5l3 -36h29q2 125 51 291l182 609q-78 27 -108 67l20 170h467l21 -170q-38 -46 -138 -78l-385 -1175h-280l-389 1184q-90 33 -115 69z" />
<glyph unicode="W" horiz-adv-x="2004" d="M6 1243l21 170h473l20 -170q-35 -42 -110 -67l145 -605q18 -76 32 -150t19 -109l4 -36h29q2 121 39 291l184 832h314l184 -828q17 -76 29.5 -150.5t16.5 -110.5l3 -36h29q4 125 49 293l162 600q-85 30 -119 76l20 170h453l20 -170q-41 -50 -137 -80l-344 -1173h-321 l-166 774q-16 77 -28 155.5t-15 118.5l-4 39h-29q-8 -141 -45 -311l-172 -776h-316l-327 1184q-85 31 -113 69z" />
<glyph unicode="X" horiz-adv-x="1220" d="M2 170q38 47 137 78l279 489l-266 432q-95 31 -127 74l20 170h479l21 -170q-26 -33 -82 -55l82 -154q27 -51 45.5 -93t23.5 -59l4 -16h31q13 49 74 164l78 148q-74 31 -101 65l21 170h467l20 -170q-38 -47 -137 -78l-266 -430l276 -493q89 -30 125 -72l-20 -170h-479 l-21 170q24 30 86 57l-94 201q-24 51 -42.5 98.5t-25.5 69.5l-6 22h-31q-18 -69 -73 -186l-92 -196q74 -31 102 -66l-21 -170h-466z" />
<glyph unicode="Y" horiz-adv-x="1204" d="M-8 1243l18 160v2l2 8h480l20 -170q-24 -34 -94 -61l69 -158q32 -73 61.5 -150t42.5 -118l13 -41h31q43 149 113 309l65 150q-84 32 -111 69l21 170h467l20 -170q-42 -49 -135 -78l-323 -692v-235q80 -31 112 -68l-20 -170h-479l-21 170q27 36 113 68v235l-334 694 q-95 31 -131 76z" />
<glyph unicode="Z" horiz-adv-x="1167" d="M31 162l594 891q26 40 60.5 77.5t55.5 55.5l21 18l-10 23q-95 -19 -201 -19h-191q-6 -48 -21 -98.5t-30 -77.5l-194 12q-30 54 -41 168q-4 39 -4 75q0 69 14 126h997l21 -162l-594 -891q-26 -40 -60.5 -78t-55.5 -56l-21 -17l10 -23q95 19 201 19h249q6 48 21 98.5 t31 77.5l194 -12q30 -54 41 -168q4 -39 4 -75q0 -69 -14 -126h-1057z" />
<glyph unicode="[" horiz-adv-x="669" d="M137 -410v1885h492l20 -105q-8 -8 -22.5 -20t-64.5 -32t-105 -20h-113v-1531h113q55 0 103 -18t68 -36l21 -18l-20 -105h-492z" />
<glyph unicode="\" horiz-adv-x="913" d="M57 1411l123 62q4 -2 10 -5.5t24 -17t33.5 -30.5t33 -45.5t28.5 -61.5l547 -1657l-121 -64q-4 2 -10.5 5.5t-24 17.5t-33.5 31t-33.5 45.5t-27.5 60.5z" />
<glyph unicode="]" horiz-adv-x="669" d="M20 -305q8 8 23 20t65 32t105 20h113v1531h-113q-55 0 -103 18t-69 36l-21 18l21 105h491v-1885h-491z" />
<glyph unicode="^" horiz-adv-x="1073" d="M195 1237q16 55 71 151t132 193t139 133q62 -36 139 -133t132 -193t71 -151l-88 -72q-66 43 -136.5 115.5t-117.5 142.5q-47 -70 -117.5 -142.5t-136.5 -115.5z" />
<glyph unicode="_" horiz-adv-x="1296" d="M190 -133l8 8t22.5 17t37 21.5t51.5 17.5t66 8h712l21 -123q-7 -8 -20.5 -20t-61 -32t-102.5 -20h-713z" />
<glyph unicode="`" horiz-adv-x="1705" d="M272 1499l213 131q61 -61 117.5 -186.5t69.5 -214.5l-111 -64q-84 54 -172.5 153.5t-116.5 180.5z" />
<glyph unicode="a" horiz-adv-x="1048" d="M43 285q0 133 91 211.5t272 78.5h223v99q0 160 -170 160q-59 0 -105 -13q-4 -85 -24 -133h-201q-21 40 -30 108q-5 40 -5 83q0 29 2 59q82 44 198 73t236 29q194 0 289.5 -83t95.5 -275v-436q68 -13 113 -35v-178q-12 -5 -34.5 -13.5t-100 -22t-164.5 -13.5 q-21 53 -35 129q-89 -129 -319 -129q-89 0 -162.5 33t-121.5 102.5t-48 165.5zM338 309q0 -52 32 -84t93 -32q105 0 166 61v168h-144q-147 0 -147 -113z" />
<glyph unicode="b" horiz-adv-x="1099" d="M-10 1296l20 158q77 18 186 24q44 2 85 2q59 0 108 -5v-512q42 31 114.5 54t137.5 23q224 0 313.5 -114t89.5 -391q0 -123 -28 -220.5t-74 -158t-109 -100.5t-128 -56t-136 -16q-140 0 -274 69q-37 -53 -90 -53h-103v1227q-70 24 -112 69zM389 227q84 -34 164 -34 q197 0 197 329q0 119 -15.5 184t-47 90t-89.5 25q-128 0 -209 -67v-527z" />
<glyph unicode="c" horiz-adv-x="921" d="M51 496q0 121 28 216t73.5 155.5t109.5 100.5t131 56t142 16q201 0 331 -73q1 -12 1 -26q0 -49 -12 -109q-15 -76 -40 -125h-180q-29 53 -35 122q-25 2 -65 2q-189 0 -189 -323q0 -163 52 -228t151 -65q152 0 274 29l62 -158q-66 -42 -176.5 -72t-214.5 -30 q-210 0 -326.5 123.5t-116.5 388.5z" />
<glyph unicode="d" horiz-adv-x="1136" d="M53 496q0 124 27 220t72 156t108 98.5t129.5 54t142.5 15.5q88 0 173 -20v203q-96 26 -140 73l21 158q76 18 199 24q50 2 94 2q63 0 112 -5v-1229q58 -9 113 -35v-162q-122 -65 -311 -65q-20 9 -39.5 36t-22.5 52q-44 -38 -116 -63t-142 -25q-221 0 -320.5 119.5 t-99.5 392.5zM348 508q0 -173 41 -244t127 -71q117 0 189 69v549q-84 20 -168 20q-104 0 -146.5 -82.5t-42.5 -240.5z" />
<glyph unicode="e" horiz-adv-x="989" d="M51 496q0 122 29 217.5t76 156t113 99.5t134 55t144 16q72 0 128.5 -12t107 -42.5t83.5 -80t52.5 -128t19.5 -183.5q0 -148 -145 -148h-445q9 -128 67 -181.5t185 -53.5q69 0 132.5 16.5t92.5 32.5l29 16l61 -163q-4 -5 -12.5 -14t-40 -31t-70.5 -39t-105 -31t-142 -14 q-245 0 -369.5 131t-124.5 381zM350 616l324 13q5 29 5 53q0 57 -27 95q-39 54 -122 54q-80 0 -123.5 -48.5t-56.5 -166.5z" />
<glyph unicode="f" horiz-adv-x="782" d="M53 158q28 38 113 69v590h-90l-23 141q45 42 113 48v57q0 212 91.5 320t303.5 108q188 0 338 -109q2 -13 2 -29q0 -39 -12 -93q-17 -75 -41 -113h-172q-37 72 -39 131q-24 4 -41 4q-77 0 -110 -42.5t-33 -156.5v-77h313v-189h-313v-579q154 -30 209 -80l-21 -158h-567z " />
<glyph unicode="g" horiz-adv-x="1095" d="M55 518q0 522 480 522q125 0 229 -53q8 14 25.5 25.5t35.5 11.5h168v-1008q0 -226 -111.5 -334t-344.5 -108q-123 0 -254 28.5t-199 71.5q-1 12 -1 25q0 49 12 106q15 72 40 123h180q24 -46 33 -114q81 -31 176 -31t139 59.5t44 159.5v90q-99 -61 -252 -61q-94 0 -165 25 t-125 80.5t-82 151t-28 230.5zM338 530q0 -154 42 -215t130 -61q117 0 197 57v486q-78 34 -168 34q-107 0 -154 -75t-47 -226z" />
<glyph unicode="h" horiz-adv-x="1193" d="M29 158q28 38 112 69v1000q-70 24 -112 69l20 158q77 18 186 24q44 2 85 2q59 0 108 -5v-512q49 32 131 54.5t146 22.5q105 0 176.5 -26.5t110.5 -80t55 -123t16 -167.5v-416q80 -31 113 -69l-21 -158h-471l-20 158q28 38 112 69v406q0 111 -36 148.5t-117 37.5 q-109 0 -195 -65v-527q80 -31 113 -69l-21 -158h-471z" />
<glyph unicode="i" horiz-adv-x="598" d="M57 158q28 38 113 69v570q-71 24 -113 69l21 158q76 18 186 23q42 2 81 2q61 0 112 -5v-817q79 -30 112 -69l-20 -158h-471zM139 1319q0 84 43.5 120t126.5 36t127.5 -36t44.5 -120q0 -83 -44.5 -118.5t-127.5 -35.5t-126.5 35t-43.5 119z" />
<glyph unicode="j" horiz-adv-x="532" d="M-74 -416l25 201q14 -2 57 -2q72 0 103.5 43t31.5 156v815q-70 24 -112 69l20 158q76 18 186 23q42 2 81 2q61 0 112 -5v-1044q0 -238 -89 -332t-298 -94q-62 0 -117 10zM113 1319q0 84 43.5 120t126.5 36t127.5 -36t44.5 -120q0 -83 -44.5 -118.5t-127.5 -35.5 t-126.5 35t-43.5 119z" />
<glyph unicode="k" horiz-adv-x="1161" d="M29 158q28 38 112 69v1000q-70 24 -112 69l20 158q77 18 186 24q44 2 85 2q59 0 108 -5v-1248q80 -31 113 -69l-21 -158h-471zM446 530l226 293q-35 21 -49 43l20 158h451l20 -158q-46 -58 -170 -90l-196 -225l231 -305q57 -12 105.5 -35.5t72.5 -52.5l-20 -158h-328z " />
<glyph unicode="l" horiz-adv-x="571" d="M29 158q28 38 112 69v1000q-70 24 -112 69l20 158q77 18 186 24q44 2 85 2q59 0 108 -5v-1248q80 -31 113 -69l-21 -158h-471z" />
<glyph unicode="m" horiz-adv-x="1794" d="M53 158q28 38 113 69v570q-71 24 -113 69l21 158q108 25 233 25q58 0 119 -5v-102q48 41 122 69.5t134 28.5q122 0 196 -27t115 -89q52 50 135.5 83t155.5 33q116 0 188 -22.5t116 -81t60.5 -147t16.5 -230.5v-332q80 -31 113 -69l-21 -158h-471l-20 158q28 38 112 69 v406q0 112 -31 149t-110 37q-47 0 -97.5 -18.5t-86.5 -48.5q10 -69 10 -193v-332q80 -31 113 -69l-21 -158h-471l-20 158q28 38 112 69v406q0 112 -31 149t-110 37q-48 0 -98 -18.5t-84 -46.5v-527q79 -30 112 -69l-20 -158h-471z" />
<glyph unicode="n" horiz-adv-x="1218" d="M53 158q28 38 113 69v570q-71 24 -113 69l21 158q108 25 233 25q58 0 119 -5v-102q52 43 137 70.5t162 27.5q200 0 281 -94t81 -325v-394q80 -31 113 -69l-20 -158h-471l-21 158q28 38 113 69v406q0 76 -18.5 117.5t-50 55t-85.5 13.5q-103 0 -194 -65v-527 q79 -30 112 -69l-20 -158h-471z" />
<glyph unicode="o" d="M51 508q0 257 129.5 394.5t372.5 137.5q246 0 363.5 -123t117.5 -389q0 -257 -131.5 -400.5t-374.5 -143.5t-360 128.5t-117 395.5zM346 520q0 -327 197 -327q99 0 147.5 75t48.5 244t-51 244t-149 75t-145.5 -71t-47.5 -240z" />
<glyph unicode="p" horiz-adv-x="1138" d="M31 -252q27 39 112 70v979q-70 24 -112 69l20 158q108 25 233 25q58 0 119 -5v-100q63 44 141 70t152 26q204 0 296.5 -116.5t92.5 -388.5q0 -118 -28.5 -213t-76 -157t-112.5 -103.5t-134 -59.5t-144 -18q-85 0 -160 16v-176q120 -32 156 -76l-21 -158h-514zM430 209 q63 -16 139 -16q103 0 162.5 90.5t59.5 238.5q0 119 -15.5 182.5t-47 87t-89.5 23.5q-132 0 -209 -61v-545z" />
<glyph unicode="q" horiz-adv-x="1093" d="M53 496q0 124 27 220t72 156t108 98.5t129.5 54t142.5 15.5q115 0 218 -47q48 31 86 31h155v-1217q60 -26 86 -59l-20 -158h-475l-21 158q40 49 144 80v231q-48 -32 -109.5 -53.5t-114.5 -21.5q-227 0 -327.5 119t-100.5 393zM348 508q0 -173 41 -244t127 -71 q109 0 189 77v527q-78 34 -168 34q-104 0 -146.5 -82.5t-42.5 -240.5z" />
<glyph unicode="r" horiz-adv-x="794" d="M53 158q28 38 113 69v570q-71 24 -113 69l21 158q108 25 233 25q58 0 119 -5v-129q47 56 120 91.5t148 35.5q48 0 70 -10l-6 -266q-40 6 -90 6q-68 0 -127 -15t-88 -44v-469q71 -13 134 -36t93 -50l-21 -158h-585z" />
<glyph unicode="s" horiz-adv-x="923" d="M63 729q0 140 108.5 225.5t295.5 85.5q219 0 356 -59q2 -21 2 -41q0 -108 -45 -197h-168q-26 47 -34 99q-58 14 -115 14q-62 0 -98.5 -20.5t-36.5 -59.5q0 -35 30.5 -62.5t110.5 -49.5l162 -43q123 -32 186.5 -100.5t63.5 -188.5q0 -73 -25 -134t-76 -110t-137 -76.5 t-199 -27.5q-108 0 -212 17t-166 48q-1 18 -1 37q0 45 8 93q12 69 36 118h170q26 -51 34 -102q46 -13 117 -13q39 0 68.5 4t56 15t41 32t14.5 52q0 33 -24.5 54t-96.5 42l-161 47q-59 17 -103.5 39t-83 56.5t-58.5 86.5t-20 119z" />
<glyph unicode="t" horiz-adv-x="761" d="M25 977q35 40 135 78q24 169 116 227h150v-258h293v-172h-293v-518q0 -65 19 -95t71 -30q84 0 166 31l61 -160q-159 -80 -344 -80q-144 0 -202 70t-58 206v576h-92z" />
<glyph unicode="u" horiz-adv-x="1204" d="M20 866l21 158q76 18 186 23q42 2 81 2q61 0 112 -5v-653q0 -111 33 -146.5t114 -35.5q52 0 110.5 18t96.5 47v523q-70 24 -112 69l20 158q76 18 186 23q42 2 81 2q61 0 112 -5v-798q68 -13 113 -35v-162q-122 -65 -310 -65q-22 15 -37.5 44.5t-17.5 57.5 q-61 -44 -152 -73t-188 -29q-185 0 -260.5 80.5t-75.5 259.5v473q-71 24 -113 69z" />
<glyph unicode="v" horiz-adv-x="1200" d="M14 866l21 158h471l20 -158q-25 -32 -88 -59l111 -309q18 -50 32.5 -105t19.5 -85l5 -29h29q16 102 57 215l109 303q-78 30 -107 69l21 158h450l21 -158q-37 -49 -135 -80l-338 -798h-226l-335 798q-102 32 -138 80z" />
<glyph unicode="w" horiz-adv-x="1667" d="M2 866l21 158h479l20 -158q-37 -43 -125 -73l15 -60l104 -463h29q22 109 53 224l139 526h230l137 -522q14 -51 26.5 -108t18.5 -88l6 -32h29q75 346 102 465l12 58q-91 31 -122 73l20 158h455l20 -158q-36 -48 -129 -78l-256 -800h-266l-105 323q-16 50 -30.5 124 t-20.5 123l-6 48h-29q-20 -160 -61 -293l-96 -325h-291l-258 805q-88 31 -121 73z" />
<glyph unicode="x" horiz-adv-x="1134" d="M27 158q41 54 153 84l195 284l-180 252q-54 14 -99.5 37.5t-66.5 50.5l20 158h471l21 -158q-29 -32 -70 -51l43 -61q22 -32 36.5 -64.5t18.5 -49.5l4 -17h29q15 55 60 127l36 57q-61 27 -84 59l21 158h450l21 -158q-42 -56 -166 -88l-180 -252l192 -284q112 -30 156 -84 l-21 -158h-471l-20 158q21 26 76 53l-51 84q-18 30 -33 65.5t-21 55.5l-6 20h-29q-18 -71 -59 -137l-49 -78q71 -31 94 -63l-20 -158h-451z" />
<glyph unicode="y" horiz-adv-x="1163" d="M-4 866l20 158h471l21 -158q-25 -33 -90 -59l112 -309q18 -50 32.5 -105t19.5 -85l6 -29h28q17 102 58 215l108 303q-77 29 -106 69l20 158h451l20 -158q-37 -49 -135 -80l-338 -798q-80 -187 -115 -246q-70 -117 -165 -150q-50 -18 -113 -18q-166 0 -250 84q-1 14 -1 29 q0 47 10 103q13 72 36 122h170q32 -58 35 -150h29q37 0 78.5 69t58.5 163l-336 794q-100 32 -135 78z" />
<glyph unicode="z" horiz-adv-x="980" d="M43 168l401 516q29 38 59.5 70t46.5 44l15 13l-10 23q-60 -19 -166 -19h-80q-29 -68 -65 -102l-158 20q-22 101 -22 214q0 38 2 77h829l20 -172l-399 -510q-29 -38 -59.5 -70t-46.5 -44l-15 -13l11 -22q59 18 165 18h113q29 72 68 108l157 -20q23 -106 23 -223 q0 -38 -2 -76h-867z" />
<glyph unicode="{" horiz-adv-x="880" d="M4 432v199q153 0 238.5 54t85.5 163q0 50 -18.5 161t-18.5 162q0 153 84 236.5t205 83.5q78 0 152.5 -15.5t115.5 -41.5l-21 -164q-63 -25 -161 -25q-42 0 -60 -37t-18 -118q0 -56 14 -141.5t14 -125.5q0 -124 -68.5 -196t-160.5 -86v-17q92 -14 160.5 -87t68.5 -197 q0 -40 -14 -126t-14 -141q0 -81 18 -118t60 -37q98 0 161 -25l21 -164q-41 -26 -115.5 -41.5t-152.5 -15.5q-121 0 -205 83t-84 236q0 51 18.5 162.5t18.5 161.5q0 109 -85.5 163t-238.5 54z" />
<glyph unicode="|" horiz-adv-x="473" d="M133 -217v1671l135 21q8 -8 20 -23t32 -65t20 -105v-1671l-135 -21q-8 8 -20 23.5t-32 65.5t-20 104z" />
<glyph unicode="}" horiz-adv-x="880" d="M33 -371l20 164q62 25 162 25q42 0 60 37t18 118q0 55 -14.5 140.5t-14.5 126.5q0 124 69 197t161 87v17q-58 9 -108 40t-86 94.5t-36 147.5q0 41 14.5 126t14.5 141q0 81 -18 118t-60 37q-99 0 -162 25l-20 164q41 26 115.5 41.5t152.5 15.5q121 0 205 -83.5t84 -236.5 q0 -51 -18.5 -162t-18.5 -161q0 -109 85.5 -163t238.5 -54v-199q-153 0 -238.5 -54t-85.5 -163q0 -50 18.5 -161.5t18.5 -162.5q0 -153 -84 -236t-205 -83q-78 0 -152.5 15.5t-115.5 41.5z" />
<glyph unicode="~" horiz-adv-x="1232" d="M61 571q5 6 14 16.5t40 37t66 47t90 37t112 16.5q72 0 139 -23t136 -46t147 -23q67 0 135 20t102 40l35 20l97 -138q-6 -7 -17.5 -17.5t-49 -38.5t-79 -49t-104.5 -38.5t-127 -17.5q-76 0 -201.5 46t-202.5 46q-56 0 -116 -17.5t-93 -34.5l-32 -18z" />
<glyph unicode="&#xa1;" horiz-adv-x="569" d="M121 1282q0 82 42 117t122 35q79 0 120 -34.5t41 -117.5q0 -81 -41 -116.5t-120 -35.5q-164 0 -164 152zM137 0h291q48 600 -51 999h-184q-98 -395 -56 -999z" />
<glyph unicode="&#xa2;" horiz-adv-x="940" d="M53 496q0 132 30 232t84.5 161.5t119.5 95.5t145 47q-58 186 -49 357h246q6 -176 -49 -351q168 -6 288 -71q4 -59 -11 -134.5t-40 -125.5h-180q-29 53 -35 122q-25 2 -65 2q-104 0 -146.5 -82.5t-42.5 -240.5q0 -169 51.5 -237t149.5 -68q147 0 272 41l66 -158 q-106 -69 -281 -94q55 -177 49 -354h-245q-9 171 47 348q-219 7 -311.5 125.5t-92.5 384.5z" />
<glyph unicode="&#xa3;" horiz-adv-x="1101" d="M74 170q27 37 112 68v432h-90l-20 131q38 43 110 61v84q0 120 28.5 209.5t72.5 141t110.5 82.5t130 41t142.5 10q199 0 331 -74q4 -59 -11 -134.5t-40 -125.5h-180q-29 53 -35 123q-25 2 -65 2q-104 0 -146.5 -58.5t-42.5 -204.5v-86h250l21 -131l-7.5 -7.5t-22 -17 t-37 -22t-52 -17t-66.5 -7.5h-86v-447h324q27 106 76 152l151 -19v-356h-938z" />
<glyph unicode="&#xa4;" horiz-adv-x="1290" d="M78 1133l72 102q10 1 26.5 -0.5t60.5 -19.5t80 -54l39 -39q119 72 303 72q168 0 277 -59l143 143l105 -72q1 -10 -0.5 -27t-19.5 -61t-54 -80l-37 -37q62 -112 62 -288q0 -179 -68 -297l150 -148l-72 -104q-10 0 -27 1.5t-61 20.5t-80 54l-39 36q-119 -73 -301 -73 q-177 0 -287 67l-139 -139l-105 72v10.5t3.5 26t10.5 39t22.5 45t37.5 47.5l39 39q-57 111 -57 286q0 178 63 289zM356 707q0 -92 23.5 -159t65.5 -104.5t92 -55t110 -17.5q295 0 295 331q0 74 -16 131t-43 93.5t-66 59.5t-81 32.5t-91 9.5q-62 0 -111 -14.5t-90.5 -48.5 t-64.5 -99.5t-23 -158.5z" />
<glyph unicode="&#xa5;" horiz-adv-x="1275" d="M51 1243l21 170h313l156 -332q34 -73 59 -140t33 -97l8 -31h31q20 112 98 268l156 332h278l21 -170q-38 -50 -148 -82l-198 -389h208l21 -106q-7 -8 -20.5 -20t-61 -32t-102.5 -20h-136v-98h299l21 -107q-7 -8 -20.5 -20t-61 -32t-102.5 -20h-136v-79q82 -31 113 -68 l-20 -170h-480l-20 170q27 36 113 68v79h-299l-21 107q7 8 21 20t61.5 32t101.5 20h136v98h-299l-21 106q7 8 21 20t61.5 32t101.5 20h41l-204 391q-104 31 -144 80z" />
<glyph unicode="&#xa6;" horiz-adv-x="473" d="M133 -217v539h207v-711l-135 -21q-8 8 -20 23.5t-32 65.5t-20 104zM133 778v676l135 21q8 -8 20 -23t32 -65t20 -105v-504h-207z" />
<glyph unicode="&#xa7;" horiz-adv-x="995" d="M92 1139q0 131 108.5 211t295.5 80q219 0 356 -56q10 -125 -43 -223h-168q-28 47 -35 92q-58 14 -114 14q-62 0 -99 -19t-37 -56q0 -33 31 -59t111 -46l161 -41q123 -31 186.5 -94.5t63.5 -175.5q0 -153 -114 -240q116 -71 116 -217q0 -143 -108 -234t-328 -91 q-109 0 -213 16t-166 45q-5 57 7 121.5t36 109.5h170q29 -61 35 -96q44 -10 117 -10q39 0 68.5 3.5t56.5 13.5t41 29.5t14 49.5t-24.5 50.5t-96.5 39.5l-162 43q-59 16 -103 37t-82.5 53.5t-58.5 81t-20 111.5q0 145 129 223q-131 79 -131 234zM358 725q0 -11 5.5 -21 t18.5 -19t25 -15.5t35 -15.5t38.5 -14t45 -15t45.5 -15q29 18 48.5 49t19.5 62q0 13 -15 25.5t-42.5 24t-53.5 21t-62 21t-54 18.5q-23 -17 -38.5 -47.5t-15.5 -58.5z" />
<glyph unicode="&#xa8;" horiz-adv-x="1122" d="M162 1432q0 84 42.5 119.5t123.5 35.5t124.5 -35.5t43.5 -119.5t-43 -119t-125 -35q-81 0 -123.5 35t-42.5 119zM653 1432q0 84 42.5 119.5t123.5 35.5t124.5 -35.5t43.5 -119.5t-43 -119t-125 -35q-81 0 -123.5 35t-42.5 119z" />
<glyph unicode="&#xa9;" horiz-adv-x="1568" d="M76 707q0 363 184 543t537 180q352 0 524 -172.5t172 -530.5q0 -364 -186.5 -553.5t-538.5 -189.5q-692 0 -692 723zM289 719q0 -122 26.5 -218t72 -158.5t109 -103.5t134 -58t151.5 -17q498 0 498 547q0 122 -27 216.5t-72 154.5t-110.5 98t-136 53.5t-154.5 15.5 q-70 0 -129 -10t-116 -33t-100.5 -63.5t-77 -97.5t-51 -139.5t-17.5 -186.5zM418 702q0 206 101 307t284 101q85 0 149.5 -18.5t137.5 -57.5q3 -38 -8.5 -91.5t-28.5 -86.5h-148q-25 35 -28 96q-38 17 -84 17q-71 0 -110.5 -57.5t-39.5 -198.5q0 -143 37 -202.5t113 -59.5 q130 0 249 41l52 -113q-140 -80 -328 -80q-181 0 -264.5 93.5t-83.5 309.5z" />
<glyph unicode="&#xaa;" horiz-adv-x="862" d="M63 860q0 135 97.5 184t343.5 46v69q0 69 -25.5 96t-79.5 27q-61 0 -102 -12q-6 -55 -27 -96h-135q-38 75 -31 186q58 33 150.5 55.5t175.5 22.5q149 0 219 -55t70 -197v-342q53 -10 84 -25v-125q-87 -49 -234 -49q-32 10 -55 47q-86 -47 -215 -47q-100 0 -168 54.5 t-68 160.5zM287 874q0 -37 19.5 -54t62.5 -17q69 0 135 35v110q-99 0 -143.5 -6.5t-59 -20.5t-14.5 -47z" />
<glyph unicode="&#xab;" horiz-adv-x="1101" d="M49 506q69 122 200 257.5t216 172.5l96 -72q-19 -65 -77.5 -166.5t-129.5 -191.5q71 -88 129.5 -189t77.5 -167l-96 -72q-84 35 -215 170.5t-201 257.5zM520 506q69 122 200 257.5t216 172.5l96 -72q-19 -65 -77.5 -166.5t-129.5 -191.5q71 -88 129.5 -189t77.5 -167 l-96 -72q-84 35 -215 170.5t-201 257.5z" />
<glyph unicode="&#xac;" horiz-adv-x="1300" d="M47 893l21 131h1093v-547q0 -34 -7.5 -65.5t-17.5 -52t-20.5 -36.5t-17.5 -23l-8 -7l-132 20v508h-727q-34 0 -66 7.5t-52.5 18t-36 21t-22.5 18.5z" />
<glyph unicode="&#xad;" horiz-adv-x="862" d="M94 582q3 3 8 7.5t22.5 17t37 22t51.5 17t66 7.5h471l20 -131q-2 -3 -7 -7.5t-22.5 -17t-37 -22t-51.5 -17t-66 -7.5h-471z" />
<glyph unicode="&#xae;" horiz-adv-x="1568" d="M76 707q0 363 184 543t537 180q352 0 524 -172.5t172 -530.5q0 -364 -186.5 -553.5t-538.5 -189.5q-692 0 -692 723zM289 719q0 -122 26.5 -218t72 -158.5t109 -103.5t134 -58t151.5 -17q498 0 498 547q0 122 -27 216.5t-72 154.5t-110.5 98t-136 53.5t-154.5 15.5 q-70 0 -129 -10t-116 -33t-100.5 -63.5t-77 -97.5t-51 -139.5t-17.5 -186.5zM438 434q21 21 64 37v492q-48 19 -64 38l13 99h309q167 0 249.5 -50t82.5 -178q0 -126 -152 -192v-10q46 -22 66 -60l73 -139q45 -10 76 -41l-10 -94h-217l-135 270q-17 35 -37 35h-51v-162 q32 -6 61 -19.5t41 -27.5l-10 -96h-346zM705 776h45q68 0 100.5 20t32.5 70q0 56 -33.5 78.5t-97.5 22.5h-47v-191z" />
<glyph unicode="&#xaf;" horiz-adv-x="860" d="M82 1321q7 8 21 20t61.5 32t101.5 20h496l20 -123q-7 -8 -20.5 -20t-61 -32t-102.5 -20h-496z" />
<glyph unicode="&#xb0;" horiz-adv-x="768" d="M61 1147q0 154 86 225.5t234 71.5q149 0 237.5 -72t88.5 -225q0 -151 -88.5 -222t-237.5 -71q-148 0 -234 71t-86 222zM233 1149q0 -152 150 -152q149 0 149 152q0 78 -38.5 117t-110.5 39q-150 0 -150 -156z" />
<glyph unicode="&#xb1;" horiz-adv-x="1087" d="M72 127q7 8 21 20t61.5 32t101.5 20h735l21 -127q-3 -3 -7.5 -8t-22 -17t-37 -21.5t-52 -17.5t-66.5 -8h-735zM72 694q7 8 21 20t61.5 32t101.5 20h176v268l143 21q3 -3 8 -7.5t17 -22t21.5 -37t17.5 -52t8 -66.5v-104h344l21 -127q-3 -3 -7.5 -8t-22 -17t-37 -21.5 t-52 -17.5t-66.5 -8h-180v-264l-143 -20q-8 7 -20 21t-32 61.5t-20 101.5v100h-340z" />
<glyph unicode="&#xb2;" horiz-adv-x="823" d="M70 836l329 288q4 3 22 19t24.5 22t18 19t15.5 24t4 23q0 28 -25.5 41.5t-62.5 13.5q-72 0 -104 -12q-8 -64 -39 -103l-117 9q-20 33 -30 87.5t-7 100.5q53 32 151 54t177 22q61 0 111 -10t92.5 -33t66 -64.5t23.5 -99.5q0 -88 -105 -180l-194 -172q-15 -13 -36.5 -25.5 t-35.5 -19.5l-14 -6l6 -13q62 13 113 13h94q20 59 41 90l131 -11q36 -125 12 -243h-620z" />
<glyph unicode="&#xb3;" horiz-adv-x="776" d="M70 696l45 140q107 -29 207 -29q79 0 123 20t44 74q0 29 -13 47.5t-37.5 27t-48 11t-56.5 2.5l-154 -6l-16 127l143 10q64 3 107 27t43 67q0 78 -95 78q-18 0 -37.5 -2.5t-29.5 -5.5l-10 -2q-3 -45 -27 -90l-125 2q-23 44 -37 102t-8 103q127 45 303 45q289 0 289 -189 q0 -52 -29.5 -97t-79.5 -68v-11q61 -13 101.5 -61.5t40.5 -128.5q0 -120 -102 -182t-271 -62q-71 0 -150 14.5t-120 36.5z" />
<glyph unicode="&#xb4;" horiz-adv-x="993" d="M377 1229q13 89 69.5 215t116.5 186l213 -131q-28 -81 -116.5 -180.5t-172.5 -153.5z" />
<glyph unicode="&#xb5;" horiz-adv-x="1259" d="M49 866l21 158q76 18 186 23t193 -3v-665q0 -111 35 -148.5t116 -37.5q124 0 211 77v527q-71 24 -113 69l21 158q76 18 186 23t193 -3v-794q67 -13 112 -35v-166q-122 -65 -311 -65q-22 15 -37.5 44.5t-17.5 57.5q-47 -41 -131 -71.5t-148 -30.5q-90 0 -145 8 q38 -242 31 -402q-54 -29 -142 -29t-129 29q-5 83 8.5 234.5t38.5 261.5q-65 87 -65 320v391q-71 24 -113 69z" />
<glyph unicode="&#xb6;" horiz-adv-x="1185" d="M55 977q0 107 25 186t67 126.5t107 75.5t134 38t159 10h84v-858h-137q-219 0 -329 96.5t-110 325.5zM113 -330q-9 118 51 238h180q24 -46 33 -115q76 -26 176 -26q53 0 90 16t56.5 47t27.5 68.5t8 87.5v1427h379l21 -170q-33 -38 -113 -69v-1160q0 -101 -26 -179 t-69.5 -126.5t-105.5 -79.5t-127 -43t-141 -12q-123 0 -248 26.5t-192 69.5z" />
<glyph unicode="&#xb7;" horiz-adv-x="507" d="M84 563q0 84 43.5 120t126.5 36t127.5 -36t44.5 -120q0 -83 -44 -118t-128 -35q-83 0 -126.5 34.5t-43.5 118.5z" />
<glyph unicode="&#xb8;" horiz-adv-x="460" d="M61 -334q35 13 52 21t36 21t26 29t7 38q0 35 -24.5 55.5t-61.5 22.5q-12 87 33 161h162q-25 -45 -25 -86q65 -6 99 -42.5t34 -112.5q0 -57 -23.5 -98t-67 -65t-95.5 -36.5t-119 -17.5z" />
<glyph unicode="&#xb9;" horiz-adv-x="516" d="M84 797q30 33 84 55v383q-50 10 -82 25v129q141 60 297 45v-590q46 -20 61 -47l-10 -127h-334z" />
<glyph unicode="&#xba;" horiz-adv-x="864" d="M63 1038q0 192 98 296t279 104q186 0 274.5 -92t88.5 -293q0 -192 -99 -300t-282 -108q-182 0 -270.5 96.5t-88.5 296.5zM287 1047q0 -246 147 -246q74 0 111 56.5t37 182.5q0 240 -152 240q-73 0 -108 -52.5t-35 -180.5z" />
<glyph unicode="&#xbb;" horiz-adv-x="1101" d="M70 150q19 66 77 167.5t129 188.5q-71 89 -129 190.5t-77 167.5l96 72q85 -37 216 -172.5t200 -257.5q-70 -122 -201 -257.5t-215 -170.5zM541 150q19 66 77.5 167t129.5 189q-71 90 -129.5 191.5t-77.5 166.5l96 72q85 -37 216 -172.5t200 -257.5q-70 -122 -201 -257.5 t-215 -170.5z" />
<glyph unicode="&#xbc;" horiz-adv-x="1470" d="M55 1260v129q61 26 159.5 39.5t176.5 5.5v-582q54 -22 84 -55l-16 -127h-350l-17 127q30 33 84 55v383q-64 7 -121 25zM260 27.5q-3 18.5 3.5 72t31.5 101.5l676 1274l129 -45q3 -11 6.5 -29.5t-3 -72.5t-32.5 -103l-676 -1272l-129 45q-3 11 -6 29.5zM680 299l143 279 q29 56 76 108.5t96 79.5l107 -70l-125 -266q-9 -20 -22 -39.5t-22 -28.5l-9 -10l6 -12q45 14 94 14h109v109q0 119 67 219l156 -14v-314h57v-151h-57v-31q41 -16 61 -45l-16 -127h-338l-19 123q28 36 89 49v31h-414z" />
<glyph unicode="&#xbd;" horiz-adv-x="1566" d="M53 1260v129q61 26 159.5 39.5t176.5 5.5v-582q54 -22 84 -55l-16 -127h-351l-16 127q30 33 84 55v383q-64 7 -121 25zM262 27.5q-3 18.5 3.5 72t31.5 101.5l676 1274l129 -45q3 -11 6.5 -29.5t-3 -72.5t-32.5 -103l-676 -1272l-129 45q-3 11 -6 29.5zM844 166l41 -166 h620q24 118 -12 244l-131 10q-21 -31 -41 -90h-94q-23 0 -51 -3t-45 -6l-17 -3l-6 12q53 22 86 51l195 172q104 91 104 180q0 58 -23.5 99.5t-66 64.5t-92.5 33t-111 10q-79 0 -177 -22t-151 -54q-3 -46 7 -100.5t30 -87.5l117 -8q31 39 39 102q32 12 104 12 q37 0 62.5 -13.5t25.5 -41.5q0 -12 -4 -23t-15.5 -23.5t-17.5 -19t-24 -21.5t-22 -19z" />
<glyph unicode="&#xbe;" horiz-adv-x="1609" d="M53 696q41 -22 120.5 -36.5t150.5 -14.5q34 0 68 3t79 11.5t82.5 26t71 43t52.5 66.5t19 92v2q0 80 -40 128.5t-101 61.5v11q50 23 79.5 68t29.5 97q0 189 -289 189q-176 0 -303 -45q-6 -45 8 -103t37 -102l125 -2q23 43 26 90q37 10 78 10q94 0 94 -78q0 -43 -42.5 -67 t-106.5 -27l-144 -10l17 -127q110 6 153 6q33 0 56.5 -2.5t48.5 -11t38 -27t13 -47.5q0 -54 -44.5 -74t-123.5 -20q-100 0 -207 29zM407.5 27.5q-3.5 18.5 3 72t31.5 101.5l676 1274l129 -45q1 -4 3 -11t4 -29t0.5 -45t-10 -56t-25.5 -64l-676 -1272l-129 45 q-3 11 -6.5 29.5zM819 299l144 279q29 56 76 108.5t96 79.5l106 -70l-125 -266q-9 -20 -22 -39.5t-22 -28.5l-9 -10l6 -12q45 14 94 14h109v109q0 119 67 219l156 -14v-314h57v-151h-57v-31q41 -16 61 -45l-16 -127h-338l-18 123q28 36 88 49v31h-414z" />
<glyph unicode="&#xbf;" d="M51 383q0 73 26.5 134.5t68 105t92 82t100 72.5t89 68.5t62 78.5t17.5 94h237q25 -64 22 -120t-24.5 -97t-57.5 -79.5t-77 -68.5t-83 -64t-75.5 -66t-55 -74.5t-21.5 -88.5q0 -153 209 -153q87 0 163 33q7 103 39 170h195q26 -54 43 -145t12 -156q-87 -59 -215 -92 t-248 -33q-147 0 -262 43t-185.5 134.5t-70.5 221.5zM459 1276q0 83 44.5 118.5t127.5 35.5t126.5 -35t43.5 -119t-43.5 -120t-126.5 -36t-127.5 36t-44.5 120z" />
<glyph unicode="&#xc0;" horiz-adv-x="1320" d="M-12 170q39 48 137 78l393 1175h281l407 -1181q85 -30 121 -72l-20 -170h-480l-20 170q24 34 98 61l-55 172h-410l-51 -165q70 -28 107 -68l-21 -170h-467zM391 1860l213 131q60 -60 109.5 -174t62.5 -205q0 -2 -27.5 -18t-54.5 -31l-28 -15q-86 55 -166.5 143.5 t-108.5 168.5zM498 592h293l-78 250q-24 76 -38 149.5t-16 109.5l-2 36h-28q0 -125 -51 -291z" />
<glyph unicode="&#xc1;" horiz-adv-x="1320" d="M-12 170q39 48 137 78l393 1175h281l407 -1181q85 -30 121 -72l-20 -170h-480l-20 170q24 34 98 61l-55 172h-410l-51 -165q70 -28 107 -68l-21 -170h-467zM498 592h293l-78 250q-24 76 -38 149.5t-16 109.5l-2 36h-28q0 -125 -51 -291zM539 1612q13 91 62.5 205 t109.5 174l213 -131q-28 -80 -108.5 -168.5t-166.5 -143.5q-110 60 -110 64z" />
<glyph unicode="&#xc2;" horiz-adv-x="1320" d="M-12 170q39 48 137 78l393 1175h281l407 -1181q85 -30 121 -72l-20 -170h-480l-20 170q24 34 98 61l-55 172h-410l-51 -165q70 -28 107 -68l-21 -170h-467zM340 1632q28 71 131.5 184t196.5 173q93 -60 196 -172.5t131 -184.5l-73 -84q-45 13 -115.5 59t-138.5 105 q-68 -59 -138.5 -105t-115.5 -59zM498 592h293l-78 250q-24 76 -38 149.5t-16 109.5l-2 36h-28q0 -125 -51 -291z" />
<glyph unicode="&#xc3;" horiz-adv-x="1320" d="M-12 170q39 48 137 78l393 1175h281l407 -1181q85 -30 121 -72l-20 -170h-480l-20 170q24 34 98 61l-55 172h-410l-51 -165q70 -28 107 -68l-21 -170h-467zM236 1712q4 5 11 14t30.5 32t50 40.5t69 32t86.5 14.5q67 0 160 -28.5t166 -28.5q52 0 102.5 14t75.5 28l25 15 l82 -129q-5 -6 -13.5 -15.5t-37.5 -33.5t-60.5 -43t-80.5 -34t-99 -15q-58 0 -154.5 28.5t-156.5 28.5q-43 0 -87.5 -14t-68.5 -28l-23 -13zM498 592h293l-78 250q-24 76 -38 149.5t-16 109.5l-2 36h-28q0 -125 -51 -291z" />
<glyph unicode="&#xc4;" horiz-adv-x="1320" d="M-12 170q39 48 137 78l393 1175h281l407 -1181q85 -30 121 -72l-20 -170h-480l-20 170q24 34 98 61l-55 172h-410l-51 -165q70 -28 107 -68l-21 -170h-467zM258 1675q0 84 42.5 120t123.5 36t124.5 -36t43.5 -120q0 -83 -43 -118t-125 -35t-124 34.5t-42 118.5zM498 592 h293l-78 250q-24 76 -38 149.5t-16 109.5l-2 36h-28q0 -125 -51 -291zM750 1675q0 84 42 120t123 36t124.5 -36t43.5 -120q0 -83 -43 -118t-125 -35q-81 0 -123 34.5t-42 118.5z" />
<glyph unicode="&#xc5;" horiz-adv-x="1320" d="M-12 170q39 48 137 78l393 1175h281l407 -1181q85 -30 121 -72l-20 -170h-480l-20 170q24 34 98 61l-55 172h-410l-51 -165q70 -28 107 -68l-21 -170h-467zM408 1724q0 122 65 173t184 51q122 0 189 -51t67 -173q0 -119 -67 -168t-189 -49q-120 0 -184.5 49t-64.5 168z M498 592h293l-78 250q-24 76 -38 149.5t-16 109.5l-2 36h-28q0 -125 -51 -291zM541 1726q0 -57 30 -80.5t88 -23.5t89.5 23.5t31.5 80.5q0 109 -121 109q-57 0 -87.5 -25t-30.5 -84z" />
<glyph unicode="&#xc6;" horiz-adv-x="1855" d="M-37 170q34 43 125 74l727 1169h957v-356l-152 -19q-48 42 -76 152h-319v-361h284q18 55 52 86l129 -14v-360l-129 -17q-33 26 -52 86h-284v-387h336q27 107 75 152l152 -19v-356h-950l-21 170q27 36 113 68v213h-422l-129 -222q67 -28 92 -59l-20 -170h-467zM627 653 h303v543h-19q-37 -120 -125 -270z" />
<glyph unicode="&#xc7;" horiz-adv-x="1167" d="M61 702q0 367 161 547.5t452 180.5q133 0 235 -32.5t209 -97.5q5 -65 -12 -157t-43 -146h-195q-30 57 -41 174q-65 27 -170 27q-53 0 -95 -13.5t-79 -46.5t-61.5 -86.5t-38.5 -137t-14 -193.5q0 -138 19 -234t57 -152t89.5 -81t122.5 -25q218 0 394 66l73 -182 q-179 -107 -407 -123q-12 -30 -12 -62q65 -6 99 -42.5t34 -112.5q0 -57 -23.5 -98t-67.5 -65t-96 -36.5t-119 -17.5l-32 110q35 13 52 21t36 21t26 29t7 38q0 35 -24.5 55.5t-61.5 22.5q-9 64 16 133q-171 9 -277.5 83.5t-159.5 229.5t-53 403z" />
<glyph unicode="&#xc8;" horiz-adv-x="1103" d="M66 170q27 37 112 68v936q-84 31 -112 69l20 170h934v-356l-152 -19q-47 41 -75 152h-320v-352h285q23 61 51 86l129 -15v-364l-129 -17q-26 21 -51 86h-285v-391h336q27 106 76 152l151 -19v-356h-950zM311 1860l213 131q60 -60 109.5 -174t62.5 -205l-110 -64 q-86 55 -166.5 143.5t-108.5 168.5z" />
<glyph unicode="&#xc9;" horiz-adv-x="1103" d="M66 170l20 -170h950v356l-151 19q-49 -46 -76 -152h-336v391h285q25 -65 51 -86l129 17v364l-129 15q-28 -25 -51 -86h-285v352h320q28 -111 75 -152l152 19v356h-934l-20 -170q28 -38 112 -69v-936q-85 -31 -112 -68zM434 1612q13 91 62.5 205t109.5 174l213 -131 q-28 -80 -108.5 -168.5t-165.5 -143.5z" />
<glyph unicode="&#xca;" horiz-adv-x="1103" d="M66 170l20 -170h950v356l-151 19q-49 -46 -76 -152h-336v391h285q25 -65 51 -86l129 17v364l-129 15q-28 -25 -51 -86h-285v352h320q28 -111 75 -152l152 19v356h-934l-20 -170q28 -38 112 -69v-936q-85 -31 -112 -68zM246 1632q28 72 131 184.5t196 172.5 q93 -60 196.5 -173t131.5 -184l-74 -84q-45 13 -115.5 59t-138.5 105q-68 -59 -138.5 -105t-115.5 -59z" />
<glyph unicode="&#xcb;" horiz-adv-x="1103" d="M66 170l20 -170h950v356l-151 19q-49 -46 -76 -152h-336v391h285q25 -65 51 -86l129 17v364l-129 15q-28 -25 -51 -86h-285v352h320q28 -111 75 -152l152 19v356h-934l-20 -170q28 -38 112 -69v-936q-85 -31 -112 -68zM152 1675q0 84 42 120t123 36t124.5 -36t43.5 -120 q0 -83 -43 -118t-125 -35q-81 0 -123 34.5t-42 118.5zM643 1675q0 84 42.5 120t123.5 36t124.5 -36t43.5 -120q0 -83 -43 -118t-125 -35t-124 34.5t-42 118.5z" />
<glyph unicode="&#xcc;" horiz-adv-x="651" d="M66 170q27 37 112 68v936q-84 31 -112 69l20 170h479l21 -170q-33 -38 -113 -69v-936q82 -31 113 -68l-21 -170h-479zM96 1860l213 131q60 -60 109.5 -174t62.5 -205l-110 -64q-86 55 -166.5 143.5t-108.5 168.5z" />
<glyph unicode="&#xcd;" horiz-adv-x="651" d="M66 170q27 37 112 68v936q-84 31 -112 69l20 170h479l21 -170q-33 -38 -113 -69v-936q82 -31 113 -68l-21 -170h-479zM213 1612q13 91 62.5 205t109.5 174l213 -131q-28 -80 -108.5 -168.5t-165.5 -143.5z" />
<glyph unicode="&#xce;" horiz-adv-x="651" d="M2 1632q28 71 131.5 184t196.5 173q93 -60 196 -172.5t131 -184.5l-73 -84q-45 13 -115.5 59t-138.5 105q-68 -59 -138.5 -105t-115.5 -59zM66 170q27 37 112 68v936q-84 31 -112 69l20 170h479l21 -170q-33 -38 -113 -69v-936q82 -31 113 -68l-21 -170h-479z" />
<glyph unicode="&#xcf;" horiz-adv-x="651" d="M-55 1675q0 84 42.5 120t123.5 36t124.5 -36t43.5 -120q0 -83 -43 -118t-125 -35t-124 34.5t-42 118.5zM66 170q27 37 112 68v936q-84 31 -112 69l20 170h479l21 -170q-33 -38 -113 -69v-936q82 -31 113 -68l-21 -170h-479zM395 1675q0 84 42.5 120t123.5 36t124.5 -36 t43.5 -120q0 -83 -43 -118t-125 -35t-124 34.5t-42 118.5z" />
<glyph unicode="&#xd0;" horiz-adv-x="1349" d="M27 778q7 8 21 20t61.5 32t101.5 20v324q-85 31 -113 69l21 170h456q161 0 292 -45t226 -133.5t147 -228t52 -320.5q0 -183 -48 -317.5t-137 -214t-204.5 -117t-261.5 -37.5h-522l-21 170q27 36 113 68v409h-164zM506 223h147q57 0 102 10t89.5 39t74 76.5t48 127.5 t18.5 188q0 145 -27.5 248.5t-80 163.5t-121 87t-158.5 27h-92v-340h307l21 -131q-3 -3 -7.5 -8t-22 -17t-37 -21.5t-52 -17.5t-66.5 -8h-143v-424z" />
<glyph unicode="&#xd1;" horiz-adv-x="1384" d="M61 1255l21 158h422l407 -795q22 -43 47.5 -112.5t40.5 -117.5l15 -48l22 8q-28 178 -28 299v531q-74 28 -113 77l20 158h402l20 -158q-40 -49 -112 -77v-1178h-322l-411 801q-22 43 -47.5 112.5t-40.5 117.5l-15 48l-22 -8q28 -178 28 -299v-539q76 -29 113 -75 l-21 -158h-401l-20 158q37 46 112 75v947q-84 31 -117 75zM268 1712q4 5 11 14t31 32t50.5 40.5t69 32t86.5 14.5q66 0 160 -28.5t166 -28.5q52 0 102.5 14t75.5 28l24 15l82 -129q-5 -6 -13.5 -15.5t-37.5 -33.5t-60.5 -43t-80 -34t-98.5 -15q-58 0 -155 28.5t-157 28.5 q-43 0 -87.5 -14t-67.5 -28l-23 -13z" />
<glyph unicode="&#xd2;" horiz-adv-x="1316" d="M61 702q0 368 159.5 548t449.5 180q146 0 252 -36t182 -117t113.5 -217t37.5 -331q0 -369 -161.5 -557t-452.5 -188q-144 0 -249.5 39t-180.5 123.5t-112.5 223t-37.5 332.5zM369 721q0 -265 77.5 -385.5t210.5 -120.5q140 0 215.5 113.5t75.5 378.5q0 137 -21.5 234.5 t-62.5 152.5t-92.5 79.5t-118.5 24.5q-53 0 -94.5 -13.5t-78 -46.5t-60.5 -86.5t-37.5 -137t-13.5 -193.5zM414 1860l213 131q60 -60 109.5 -174t62.5 -205q0 -2 -27.5 -18t-55.5 -31l-28 -15q-85 55 -165.5 143.5t-108.5 168.5z" />
<glyph unicode="&#xd3;" horiz-adv-x="1316" d="M61 702q0 368 159.5 548t449.5 180q146 0 252 -36t182 -117t113.5 -217t37.5 -331q0 -369 -161.5 -557t-452.5 -188q-144 0 -249.5 39t-180.5 123.5t-112.5 223t-37.5 332.5zM369 721q0 -265 77.5 -385.5t210.5 -120.5q140 0 215.5 113.5t75.5 378.5q0 137 -21.5 234.5 t-62.5 152.5t-92.5 79.5t-118.5 24.5q-53 0 -94.5 -13.5t-78 -46.5t-60.5 -86.5t-37.5 -137t-13.5 -193.5zM504 1612q13 91 62.5 205t109.5 174l213 -131q-28 -80 -108.5 -168.5t-166.5 -143.5z" />
<glyph unicode="&#xd4;" horiz-adv-x="1316" d="M61 702q0 368 159.5 548t449.5 180q146 0 252 -36t182 -117t113.5 -217t37.5 -331q0 -369 -161.5 -557t-452.5 -188q-144 0 -249.5 39t-180.5 123.5t-112.5 223t-37.5 332.5zM332 1632q28 72 131 184.5t196 172.5q93 -60 196.5 -173t131.5 -184l-74 -84q-45 13 -115.5 59 t-138.5 105q-160 -137 -253 -164zM369 721q0 -265 77.5 -385.5t210.5 -120.5q140 0 215.5 113.5t75.5 378.5q0 137 -21.5 234.5t-62.5 152.5t-92.5 79.5t-118.5 24.5q-53 0 -94.5 -13.5t-78 -46.5t-60.5 -86.5t-37.5 -137t-13.5 -193.5z" />
<glyph unicode="&#xd5;" horiz-adv-x="1316" d="M61 702q0 368 159.5 548t449.5 180q146 0 252 -36t182 -117t113.5 -217t37.5 -331q0 -369 -161.5 -557t-452.5 -188q-144 0 -249.5 39t-180.5 123.5t-112.5 223t-37.5 332.5zM233 1712q4 5 11 14t31 32t50.5 40.5t69 32t86.5 14.5q67 0 160 -28.5t166 -28.5 q52 0 102.5 14t75.5 28l25 15l82 -129q-5 -6 -13.5 -15.5t-37.5 -33.5t-60.5 -43t-80.5 -34t-99 -15q-58 0 -155 28.5t-157 28.5q-43 0 -87.5 -14t-67.5 -28l-23 -13zM369 721q0 -265 77.5 -385.5t210.5 -120.5q140 0 215.5 113.5t75.5 378.5q0 137 -21.5 234.5t-62.5 152.5 t-92.5 79.5t-118.5 24.5q-53 0 -94.5 -13.5t-78 -46.5t-60.5 -86.5t-37.5 -137t-13.5 -193.5z" />
<glyph unicode="&#xd6;" horiz-adv-x="1316" d="M61 702q0 368 159.5 548t449.5 180q146 0 252 -36t182 -117t113.5 -217t37.5 -331q0 -369 -161.5 -557t-452.5 -188q-144 0 -249.5 39t-180.5 123.5t-112.5 223t-37.5 332.5zM262 1675q0 84 42.5 120t123.5 36t124.5 -36t43.5 -120q0 -83 -43 -118t-125 -35t-124 34.5 t-42 118.5zM369 721q0 -265 77.5 -385.5t210.5 -120.5q140 0 215.5 113.5t75.5 378.5q0 137 -21.5 234.5t-62.5 152.5t-92.5 79.5t-118.5 24.5q-53 0 -94.5 -13.5t-78 -46.5t-60.5 -86.5t-37.5 -137t-13.5 -193.5zM754 1675q0 84 42.5 120t123.5 36t124 -36t43 -120 t-42.5 -118.5t-124.5 -34.5t-124 34.5t-42 118.5z" />
<glyph unicode="&#xd7;" horiz-adv-x="1112" d="M53 942l76 111q11 1 29 -0.5t65.5 -21.5t85.5 -58l246 -246l360 360l111 -75q1 -11 -0.5 -29t-21.5 -66t-58 -86l-248 -247l363 -361l-76 -110h-11t-28 4t-41.5 11.5t-48 24t-51.5 40.5l-250 247l-358 -360l-111 76v11t4 28t11.5 41.5t24 48t40.5 51.5l246 248z" />
<glyph unicode="&#xd8;" horiz-adv-x="1357" d="M-8 61q0 4 0.5 11.5t5.5 30t13.5 44t26.5 49.5t42 52l76 74q-45 145 -45 380q0 372 146.5 550t432.5 178q307 0 432 -168l170 163l72 -49q0 -4 -0.5 -11.5t-5.5 -29t-13 -43t-26 -50t-43 -52.5l-80 -76q51 -155 51 -385q0 -373 -149 -559t-436 -186q-307 0 -435 186 l-161 -158zM418 721q0 -55 4 -141l473 460q-59 158 -221 158q-88 0 -142 -40t-84 -146.5t-30 -290.5zM457 393q60 -178 221 -178q90 0 146 45t86 154.5t30 292.5q0 81 -6 149z" />
<glyph unicode="&#xd9;" horiz-adv-x="1298" d="M33 1243l20 170h479l21 -170q-33 -38 -113 -69v-670q0 -148 49 -218.5t175 -70.5q122 0 173.5 73t51.5 216v670q-85 31 -113 69l21 170h448l21 -170q-33 -38 -113 -69v-662q0 -269 -121.5 -398.5t-392.5 -129.5q-141 0 -237 33t-152.5 102t-80.5 164t-24 229v662 q-77 28 -112 69zM401 1860l213 131q60 -60 109.5 -174t62.5 -205l-110 -64q-86 55 -166.5 143.5t-108.5 168.5z" />
<glyph unicode="&#xda;" horiz-adv-x="1298" d="M33 1243l20 170h479l21 -170q-33 -38 -113 -69v-670q0 -148 49 -218.5t175 -70.5q122 0 173.5 73t51.5 216v670q-85 31 -113 69l21 170h448l21 -170q-33 -38 -113 -69v-662q0 -269 -121.5 -398.5t-392.5 -129.5q-141 0 -237 33t-152.5 102t-80.5 164t-24 229v662 q-77 28 -112 69zM520 1612q13 91 62.5 205t109.5 174l213 -131q-28 -80 -108.5 -168.5t-165.5 -143.5q-111 60 -111 64z" />
<glyph unicode="&#xdb;" horiz-adv-x="1298" d="M33 1243l20 170h479l21 -170q-33 -38 -113 -69v-670q0 -148 49 -218.5t175 -70.5q122 0 173.5 73t51.5 216v670q-85 31 -113 69l21 170h448l21 -170q-33 -38 -113 -69v-662q0 -269 -121.5 -398.5t-392.5 -129.5q-141 0 -237 33t-152.5 102t-80.5 164t-24 229v662 q-77 28 -112 69zM332 1632q28 72 131 184.5t196 172.5q93 -60 196.5 -173t131.5 -184l-74 -84q-45 13 -115.5 59t-138.5 105q-160 -137 -253 -164z" />
<glyph unicode="&#xdc;" horiz-adv-x="1298" d="M33 1243l20 170h479l21 -170q-33 -38 -113 -69v-670q0 -148 49 -218.5t175 -70.5q122 0 173.5 73t51.5 216v670q-85 31 -113 69l21 170h448l21 -170q-33 -38 -113 -69v-662q0 -269 -121.5 -398.5t-392.5 -129.5q-141 0 -237 33t-152.5 102t-80.5 164t-24 229v662 q-77 28 -112 69zM252 1675q0 84 42.5 120t123.5 36t124.5 -36t43.5 -120q0 -83 -43 -118t-125 -35t-124 34.5t-42 118.5zM743 1675q0 84 42.5 120t123.5 36t124.5 -36t43.5 -120q0 -83 -43 -118t-125 -35t-124 34.5t-42 118.5z" />
<glyph unicode="&#xdd;" horiz-adv-x="1204" d="M-8 1243l18 160v2l2 8h480l20 -170q-24 -34 -94 -61l69 -158q32 -73 61.5 -150t42.5 -118l13 -41h31q43 149 113 309l65 150q-84 32 -111 69l21 170h467l20 -170q-42 -49 -135 -78l-323 -692v-235q80 -31 112 -68l-20 -170h-479l-21 170q27 36 113 68v235l-334 694 q-95 31 -131 76zM479 1612q13 91 62.5 205t109.5 174l213 -131q-28 -80 -108.5 -168.5t-165.5 -143.5z" />
<glyph unicode="&#xde;" horiz-adv-x="1251" d="M66 170q27 37 112 68v936q-84 31 -112 69l20 170h553l20 -170q-41 -50 -186 -82v-63h205q264 0 390 -86t126 -297q0 -198 -138.5 -294.5t-398.5 -96.5h-184v-74q147 -32 186 -80l-20 -170h-553zM473 530h137q141 0 209 40.5t68 148.5q0 46 -15.5 78.5t-39.5 50.5 t-64.5 28t-78 12.5t-93.5 2.5h-123v-361z" />
<glyph unicode="&#xdf;" horiz-adv-x="1177" d="M29 158q28 38 112 69v836q0 212 92 320t304 108q189 0 315.5 -88t126.5 -236q0 -63 -28.5 -127.5t-62.5 -107t-62.5 -87.5t-28.5 -73q0 -22 27 -51.5t67.5 -59t87.5 -70t87.5 -82.5t67.5 -99t27 -117q0 -147 -109.5 -232.5t-314.5 -76.5q-121 4 -202 16l30 201 q67 -19 158 -19q78 0 123 25.5t45 68.5q0 37 -26.5 72.5t-66.5 63.5t-86.5 63.5t-86.5 69t-66.5 82.5t-26.5 104q0 42 20.5 83.5t50 77.5t59.5 74t50.5 86.5t20.5 100.5q0 53 -46 91t-116 38q-77 0 -110 -42.5t-33 -156.5v-1083h-379z" />
<glyph unicode="&#xe0;" horiz-adv-x="1048" d="M43 285q0 133 91 211.5t272 78.5h223v99q0 160 -170 160q-59 0 -105 -13q-4 -85 -24 -133h-201q-21 40 -30 107.5t-3 142.5q82 44 198 73t236 29q194 0 289.5 -83t95.5 -275v-436q68 -13 113 -35v-178q-12 -5 -34.5 -13.5t-100 -22t-164.5 -13.5q-21 53 -35 129 q-89 -129 -319 -129q-89 0 -162.5 33t-121.5 102.5t-48 165.5zM242 1499l213 131q60 -60 116.5 -186t69.5 -215q0 -2 -27.5 -18t-55.5 -31l-28 -15q-84 54 -172 153.5t-116 180.5zM338 309q0 -52 32 -84t93 -32q105 0 166 61v168h-144q-147 0 -147 -113z" />
<glyph unicode="&#xe1;" horiz-adv-x="1048" d="M43 285q0 133 91 211.5t272 78.5h223v99q0 160 -170 160q-59 0 -105 -13q-4 -85 -24 -133h-201q-21 40 -30 107.5t-3 142.5q82 44 198 73t236 29q194 0 289.5 -83t95.5 -275v-436q68 -13 113 -35v-178q-12 -5 -34.5 -13.5t-100 -22t-164.5 -13.5q-21 53 -35 129 q-89 -129 -319 -129q-89 0 -162.5 33t-121.5 102.5t-48 165.5zM338 309q0 -52 32 -84t93 -32q105 0 166 61v168h-144q-147 0 -147 -113zM346 1229q13 89 69.5 215t116.5 186l213 -131q-28 -81 -116 -180.5t-172 -153.5z" />
<glyph unicode="&#xe2;" horiz-adv-x="1048" d="M43 285q0 133 91 211.5t272 78.5h223v99q0 160 -170 160q-59 0 -105 -13q-4 -85 -24 -133h-201q-21 40 -30 107.5t-3 142.5q82 44 198 73t236 29q194 0 289.5 -83t95.5 -275v-436q68 -13 113 -35v-178q-12 -5 -34.5 -13.5t-100 -22t-164.5 -13.5q-21 53 -35 129 q-89 -129 -319 -129q-89 0 -162.5 33t-121.5 102.5t-48 165.5zM219 1249q28 71 131.5 184t196.5 173q93 -60 196 -172.5t131 -184.5l-73 -84q-45 13 -115.5 59t-138.5 105q-68 -59 -138.5 -105t-115.5 -59zM338 309q0 -52 32 -84t93 -32q105 0 166 61v168h-144 q-147 0 -147 -113z" />
<glyph unicode="&#xe3;" horiz-adv-x="1048" d="M43 285q0 133 91 211.5t272 78.5h223v99q0 160 -170 160q-59 0 -105 -13q-4 -85 -24 -133h-201q-21 40 -30 107.5t-3 142.5q82 44 198 73t236 29q194 0 289.5 -83t95.5 -275v-436q68 -13 113 -35v-178q-12 -5 -34.5 -13.5t-100 -22t-164.5 -13.5q-21 53 -35 129 q-89 -129 -319 -129q-89 0 -162.5 33t-121.5 102.5t-48 165.5zM90 1329q4 5 11 14t31 32t50.5 40.5t69 32t86.5 14.5q66 0 160 -28.5t166 -28.5q52 0 102.5 14.5t75.5 28.5l24 14l82 -129q-5 -6 -13.5 -15.5t-37.5 -33.5t-60.5 -43t-80.5 -34t-99 -15q-58 0 -154.5 28.5 t-156.5 28.5q-43 0 -87.5 -13.5t-67.5 -27.5l-23 -14zM338 309q0 -52 32 -84t93 -32q105 0 166 61v168h-144q-147 0 -147 -113z" />
<glyph unicode="&#xe4;" horiz-adv-x="1048" d="M43 285q0 133 91 211.5t272 78.5h223v99q0 160 -170 160q-59 0 -105 -13q-4 -85 -24 -133h-201q-21 40 -30 107.5t-3 142.5q82 44 198 73t236 29q194 0 289.5 -83t95.5 -275v-436q68 -13 113 -35v-178q-12 -5 -34.5 -13.5t-100 -22t-164.5 -13.5q-21 53 -35 129 q-89 -129 -319 -129q-89 0 -162.5 33t-121.5 102.5t-48 165.5zM96 1432q0 84 42.5 119.5t123.5 35.5t124.5 -35.5t43.5 -119.5t-43 -119t-125 -35q-81 0 -123.5 35t-42.5 119zM338 309q0 -52 32 -84t93 -32q105 0 166 61v168h-144q-147 0 -147 -113zM588 1432 q0 84 42.5 119.5t123.5 35.5t124.5 -35.5t43.5 -119.5t-43 -119t-125 -35q-81 0 -123.5 35t-42.5 119z" />
<glyph unicode="&#xe5;" horiz-adv-x="1048" d="M43 285q0 133 91 211.5t272 78.5h223v99q0 160 -170 160q-59 0 -105 -13q-4 -85 -24 -133h-201q-21 40 -30 107.5t-3 142.5q82 44 198 73t236 29q194 0 289.5 -83t95.5 -275v-436q68 -13 113 -35v-178q-12 -5 -34.5 -13.5t-100 -22t-164.5 -13.5q-21 53 -35 129 q-89 -129 -319 -129q-89 0 -162.5 33t-121.5 102.5t-48 165.5zM264 1407q0 122 65 172.5t185 50.5q122 0 189 -50.5t67 -172.5q0 -119 -67 -168t-189 -49q-120 0 -185 49t-65 168zM338 309q0 -52 32 -84t93 -32q105 0 166 61v168h-144q-147 0 -147 -113zM397 1409 q0 -57 30.5 -80.5t88.5 -23.5t89.5 23.5t31.5 80.5q0 109 -121 109q-119 0 -119 -109z" />
<glyph unicode="&#xe6;" horiz-adv-x="1570" d="M45 270q0 74 20.5 124.5t61 84.5t113 52.5t164.5 25t227 4.5v45q0 134 -39.5 181t-130.5 47q-47 0 -107 -17q-6 -72 -35 -129h-180q-24 48 -35 118t-6 132q79 43 202 72.5t232 29.5q197 0 293 -86q124 86 305 86q74 0 129.5 -11t105.5 -40t81 -78.5t49 -128.5t18 -188 v-49q0 -42 -23.5 -68t-62.5 -26h-499q10 -136 66 -192t149 -56q67 0 151 15t142 38l69 -150q-163 -122 -397 -122t-352 118q-153 -118 -398 -118q-133 0 -223 72.5t-90 213.5zM340 291q0 -49 27 -72.5t84 -23.5q95 0 180 47v151q-128 1 -190 -8.5t-81.5 -30t-19.5 -63.5z M934 621l297 18q0 94 -25 143t-84 49q-85 0 -130.5 -52.5t-57.5 -157.5z" />
<glyph unicode="&#xe7;" horiz-adv-x="923" d="M53 496q0 121 28 216t73.5 155.5t109.5 100.5t131 56t142 16q201 0 331 -73q4 -59 -11 -134.5t-40 -125.5h-180q-29 53 -35 122q-25 2 -65 2q-189 0 -189 -323q0 -163 52 -228t151 -65q152 0 274 29l62 -158q-55 -35 -143.5 -62t-180.5 -36q-10 -33 -10 -60 q65 -6 99 -42.5t34 -112.5q0 -57 -23.5 -98t-67 -65t-95.5 -36.5t-119 -17.5l-33 110q35 13 52 21t36 21t26 29t7 38q0 35 -24.5 55.5t-61.5 22.5q-11 67 20 139q-350 50 -350 504z" />
<glyph unicode="&#xe8;" horiz-adv-x="989" d="M51 496q0 122 29 217.5t76 156t113 99.5t134 55t144 16q72 0 128.5 -12t107 -42.5t83.5 -80t52.5 -128t19.5 -183.5q0 -148 -145 -148h-445q9 -128 67 -181.5t185 -53.5q69 0 132.5 16.5t92.5 32.5l29 16l61 -163q-4 -5 -12.5 -14t-40 -31t-70.5 -39t-105 -31t-142 -14 q-245 0 -369.5 131t-124.5 381zM260 1499l213 131q60 -60 116.5 -186t69.5 -215l-110 -64q-84 54 -172.5 153.5t-116.5 180.5zM350 616l324 13q17 94 -22 148t-122 54q-80 0 -123.5 -48.5t-56.5 -166.5z" />
<glyph unicode="&#xe9;" horiz-adv-x="989" d="M51 496q0 122 29 217.5t76 156t113 99.5t134 55t144 16q72 0 128.5 -12t107 -42.5t83.5 -80t52.5 -128t19.5 -183.5q0 -148 -145 -148h-445q9 -128 67 -181.5t185 -53.5q69 0 132.5 16.5t92.5 32.5l29 16l61 -163q-4 -5 -12.5 -14t-40 -31t-70.5 -39t-105 -31t-142 -14 q-245 0 -369.5 131t-124.5 381zM350 616l324 13q17 94 -22 148t-122 54q-80 0 -123.5 -48.5t-56.5 -166.5zM436 1229q13 89 69.5 214.5t117.5 186.5l213 -131q-28 -81 -116.5 -180.5t-172.5 -153.5z" />
<glyph unicode="&#xea;" horiz-adv-x="989" d="M51 496q0 122 29 217.5t76 156t113 99.5t134 55t144 16q72 0 128.5 -12t107 -42.5t83.5 -80t52.5 -128t19.5 -183.5q0 -148 -145 -148h-445q9 -128 67 -181.5t185 -53.5q69 0 132.5 16.5t92.5 32.5l29 16l61 -163q-4 -5 -12.5 -14t-40 -31t-70.5 -39t-105 -31t-142 -14 q-245 0 -369.5 131t-124.5 381zM188 1249q28 71 131.5 184t196.5 173q93 -60 196.5 -173t131.5 -184l-74 -84q-45 13 -115.5 59t-138.5 105q-68 -59 -138.5 -105t-115.5 -59zM350 616l324 13q17 94 -22 148t-122 54q-80 0 -123.5 -48.5t-56.5 -166.5z" />
<glyph unicode="&#xeb;" horiz-adv-x="989" d="M51 496q0 122 29 217.5t76 156t113 99.5t134 55t144 16q72 0 128.5 -12t107 -42.5t83.5 -80t52.5 -128t19.5 -183.5q0 -148 -145 -148h-445q9 -128 67 -181.5t185 -53.5q69 0 132.5 16.5t92.5 32.5l29 16l61 -163q-4 -5 -12.5 -14t-40 -31t-70.5 -39t-105 -31t-142 -14 q-245 0 -369.5 131t-124.5 381zM98 1432q0 84 42.5 119.5t123.5 35.5t124.5 -35.5t43.5 -119.5t-43 -119t-125 -35q-81 0 -123.5 35t-42.5 119zM350 616l324 13q17 94 -22 148t-122 54q-80 0 -123.5 -48.5t-56.5 -166.5zM528 1432q0 84 42.5 119.5t123.5 35.5t124.5 -35.5 t43.5 -119.5t-43 -119t-125 -35q-81 0 -123.5 35t-42.5 119z" />
<glyph unicode="&#xec;" horiz-adv-x="598" d="M45 1499l213 131q60 -60 116.5 -186t69.5 -215l-110 -64q-84 54 -172.5 153.5t-116.5 180.5zM57 158q28 38 113 69v570q-71 24 -113 69l21 158q76 18 186 23t193 -3v-817q79 -30 112 -69l-20 -158h-471z" />
<glyph unicode="&#xed;" horiz-adv-x="598" d="M57 158q28 38 113 69v570q-71 24 -113 69l21 158q76 18 186 23t193 -3v-817q79 -30 112 -69l-20 -158h-471zM125 1229q13 89 69.5 215t116.5 186l213 -131q-28 -81 -116 -180.5t-172 -153.5z" />
<glyph unicode="&#xee;" horiz-adv-x="598" d="M-27 1249q28 71 131.5 184t196.5 173q93 -60 196.5 -173t131.5 -184l-74 -84q-45 13 -115.5 59t-138.5 105q-68 -59 -138.5 -105t-115.5 -59zM57 158q28 38 113 69v570q-71 24 -113 69l21 158q76 18 186 23t193 -3v-817q79 -30 112 -69l-20 -158h-471z" />
<glyph unicode="&#xef;" horiz-adv-x="598" d="M-55 1432q0 80 39.5 113.5t117.5 33.5q77 0 118.5 -34t41.5 -113t-41.5 -112.5t-118.5 -33.5q-78 0 -117.5 33t-39.5 113zM57 158q28 38 113 69v570q-71 24 -113 69l21 158q76 18 186 23t193 -3v-817q79 -30 112 -69l-20 -158h-471zM334 1432q0 79 40.5 113t117.5 34 q78 0 118.5 -33.5t40.5 -113.5q0 -79 -40.5 -112.5t-118.5 -33.5q-77 0 -117.5 33.5t-40.5 112.5z" />
<glyph unicode="&#xf0;" horiz-adv-x="1075" d="M55 457q0 220 119.5 350.5t310.5 130.5q112 0 205 -35q-25 105 -78 189l-90 -80l-110 73q0 7 2.5 19.5t18.5 43.5t42 54l31 27q-12 12 -100 90l137 172q73 -44 143 -102l100 90l111 -74q0 -7 -2 -19t-18 -43t-43 -55l-27 -24q211 -267 211 -678q0 -266 -123.5 -434 t-339.5 -168q-259 0 -379.5 110t-120.5 363zM350 473q0 -141 43.5 -217t147.5 -76q55 0 91.5 27.5t56 84.5t27 129t7.5 177q0 38 -4 104q-74 35 -197 35q-172 0 -172 -264z" />
<glyph unicode="&#xf1;" horiz-adv-x="1218" d="M53 158q28 38 113 69v570q-71 24 -113 69l21 158q157 37 352 20v-102q52 43 137 70.5t162 27.5q200 0 281 -94t81 -325v-394q80 -31 113 -69l-20 -158h-471l-21 158q28 38 113 69v406q0 76 -18.5 117.5t-50 55t-85.5 13.5q-103 0 -194 -65v-527q79 -30 112 -69l-20 -158 h-471zM166 1329q4 5 11 14t31 32t50.5 40.5t69 32t86.5 14.5q66 0 159 -28.5t166 -28.5q52 0 102.5 14.5t75.5 28.5l25 14l82 -129q-5 -6 -13.5 -15.5t-37.5 -33.5t-60.5 -43t-80.5 -34t-99 -15q-58 0 -154.5 28.5t-156.5 28.5q-43 0 -87.5 -13.5t-67.5 -27.5l-23 -14z" />
<glyph unicode="&#xf2;" d="M51 508q0 257 129.5 394.5t372.5 137.5q246 0 363.5 -123t117.5 -389q0 -257 -131.5 -400.5t-374.5 -143.5t-360 128.5t-117 395.5zM266 1499l213 131q61 -61 117.5 -186.5t69.5 -214.5q0 -2 -28 -18t-56 -31l-27 -15q-84 54 -172.5 153.5t-116.5 180.5zM346 520 q0 -327 197 -327q99 0 147.5 75t48.5 244t-51 244t-149 75t-145.5 -71t-47.5 -240z" />
<glyph unicode="&#xf3;" d="M51 508q0 257 129.5 394.5t372.5 137.5q246 0 363.5 -123t117.5 -389q0 -257 -131.5 -400.5t-374.5 -143.5t-360 128.5t-117 395.5zM346 520q0 -327 197 -327q99 0 147.5 75t48.5 244t-51 244t-149 75t-145.5 -71t-47.5 -240zM442 1229q13 89 69.5 214.5t117.5 186.5 l213 -131q-28 -81 -116.5 -180.5t-172.5 -153.5q-111 60 -111 64z" />
<glyph unicode="&#xf4;" d="M51 508q0 257 129.5 394.5t372.5 137.5q246 0 363.5 -123t117.5 -389q0 -257 -131.5 -400.5t-374.5 -143.5t-360 128.5t-117 395.5zM215 1249q28 71 131.5 184t196.5 173q93 -60 196 -172.5t131 -184.5l-73 -84q-45 13 -115.5 59t-138.5 105q-68 -59 -138.5 -105 t-115.5 -59zM346 520q0 -327 197 -327q99 0 147.5 75t48.5 244t-51 244t-149 75t-145.5 -71t-47.5 -240z" />
<glyph unicode="&#xf5;" d="M51 508q0 257 129.5 394.5t372.5 137.5q246 0 363.5 -123t117.5 -389q0 -257 -131.5 -400.5t-374.5 -143.5t-360 128.5t-117 395.5zM111 1329q4 5 11 14t30.5 32t50 40.5t69 32t86.5 14.5q67 0 160.5 -28.5t165.5 -28.5q52 0 103 14.5t75 28.5l25 14l82 -129 q-5 -6 -13.5 -15.5t-37.5 -33.5t-60.5 -43t-80.5 -34t-99 -15q-58 0 -154.5 28.5t-156.5 28.5q-43 0 -87.5 -13.5t-67.5 -27.5l-24 -14zM346 520q0 -327 197 -327q99 0 147.5 75t48.5 244t-51 244t-149 75t-145.5 -71t-47.5 -240z" />
<glyph unicode="&#xf6;" d="M51 508q0 257 129.5 394.5t372.5 137.5q246 0 363.5 -123t117.5 -389q0 -257 -131.5 -400.5t-374.5 -143.5t-360 128.5t-117 395.5zM133 1432q0 84 42.5 119.5t123.5 35.5t124.5 -35.5t43.5 -119.5t-43 -119t-125 -35q-81 0 -123.5 35t-42.5 119zM346 520 q0 -327 197 -327q99 0 147.5 75t48.5 244t-51 244t-149 75t-145.5 -71t-47.5 -240zM625 1432q0 84 42.5 119.5t123.5 35.5t124 -35.5t43 -119.5t-42.5 -119t-124.5 -35q-81 0 -123.5 35t-42.5 119z" />
<glyph unicode="&#xf7;" horiz-adv-x="1042" d="M51 545q3 3 8 7.5t22.5 17t37 22t51.5 17t66 7.5h735l20 -118q-7 -8 -20.5 -20t-61 -32t-102.5 -20h-735zM362 176q0 80 40 114t118 34t119 -34t41 -114q0 -81 -40.5 -114t-119.5 -33q-78 0 -118 33t-40 114zM362 864q0 81 40 115.5t118 34.5t119 -34.5t41 -115.5 q0 -79 -41 -112t-119 -33t-118 33t-40 112z" />
<glyph unicode="&#xf8;" horiz-adv-x="1153" d="M-10 -47q0 4 0.5 11.5t5.5 29.5t13.5 43.5t26.5 49.5t42 52l65 64q-57 114 -57 305q0 257 129.5 394.5t372.5 137.5q212 0 327 -90l179 174l71 -49q0 -4 -0.5 -11.5t-5.5 -29t-13 -43t-26 -50t-43 -52.5l-63 -62q55 -116 55 -299q0 -257 -131.5 -400.5t-374.5 -143.5 q-205 0 -323 92l-177 -172zM381 520q0 -59 2 -84l336 326q-49 69 -146 69q-98 0 -145 -71t-47 -240zM436 266q47 -73 142 -73q99 0 147.5 75t48.5 244q0 30 -4 80z" />
<glyph unicode="&#xf9;" horiz-adv-x="1204" d="M20 866l21 158q76 18 186 23t193 -3v-653q0 -111 33 -146.5t114 -35.5q52 0 110.5 18t96.5 47v523q-70 24 -112 69l20 158q76 18 186 23t193 -3v-798q68 -13 113 -35v-162q-122 -65 -310 -65q-22 15 -37.5 44.5t-17.5 57.5q-61 -44 -152 -73t-188 -29q-185 0 -260.5 80.5 t-75.5 259.5v473q-71 24 -113 69zM311 1499l213 131q61 -61 117.5 -186.5t69.5 -214.5q0 -2 -27.5 -18t-55.5 -31l-28 -15q-84 54 -172.5 153.5t-116.5 180.5z" />
<glyph unicode="&#xfa;" horiz-adv-x="1204" d="M20 866l21 158q76 18 186 23t193 -3v-653q0 -111 33 -146.5t114 -35.5q52 0 110.5 18t96.5 47v523q-70 24 -112 69l20 158q76 18 186 23t193 -3v-798q68 -13 113 -35v-162q-122 -65 -310 -65q-22 15 -37.5 44.5t-17.5 57.5q-61 -44 -152 -73t-188 -29q-185 0 -260.5 80.5 t-75.5 259.5v473q-71 24 -113 69zM428 1229q13 89 69.5 215t116.5 186l213 -131q-28 -81 -116 -180.5t-172 -153.5z" />
<glyph unicode="&#xfb;" horiz-adv-x="1204" d="M20 866l21 158q76 18 186 23t193 -3v-653q0 -111 33 -146.5t114 -35.5q52 0 110.5 18t96.5 47v523q-70 24 -112 69l20 158q76 18 186 23t193 -3v-798q68 -13 113 -35v-162q-122 -65 -310 -65q-22 15 -37.5 44.5t-17.5 57.5q-61 -44 -152 -73t-188 -29q-185 0 -260.5 80.5 t-75.5 259.5v473q-71 24 -113 69zM274 1249q28 71 131.5 184t196.5 173q93 -60 196.5 -173t131.5 -184l-74 -84q-45 13 -115.5 59t-138.5 105q-68 -59 -138.5 -105t-115.5 -59z" />
<glyph unicode="&#xfc;" horiz-adv-x="1204" d="M20 866l21 158q76 18 186 23t193 -3v-653q0 -111 33 -146.5t114 -35.5q52 0 110.5 18t96.5 47v523q-70 24 -112 69l20 158q76 18 186 23t193 -3v-798q68 -13 113 -35v-162q-122 -65 -310 -65q-22 15 -37.5 44.5t-17.5 57.5q-61 -44 -152 -73t-188 -29q-185 0 -260.5 80.5 t-75.5 259.5v473q-71 24 -113 69zM150 1432q0 84 42 119.5t123 35.5t124.5 -35.5t43.5 -119.5t-43 -119t-125 -35q-81 0 -123 35t-42 119zM641 1432q0 84 42.5 119.5t123.5 35.5t124.5 -35.5t43.5 -119.5t-43 -119t-125 -35q-81 0 -123.5 35t-42.5 119z" />
<glyph unicode="&#xfd;" horiz-adv-x="1163" d="M-4 866l20 158h471l21 -158q-25 -33 -90 -59l112 -309q18 -50 32.5 -105t19.5 -85l6 -29h28q17 102 58 215l108 303q-77 29 -106 69l20 158h451l20 -158q-37 -49 -135 -80l-338 -798q-80 -187 -115 -246q-70 -117 -165 -150q-50 -18 -113 -18q-166 0 -250 84 q-4 59 9 131.5t36 122.5h170q32 -58 35 -150h29q37 0 78.5 69t58.5 163l-336 794q-100 32 -135 78zM453 1229q13 89 69.5 215t116.5 186l213 -131q-28 -81 -116.5 -180.5t-172.5 -153.5z" />
<glyph unicode="&#xfe;" horiz-adv-x="1097" d="M-10 -252q27 39 112 70v1409q-70 24 -112 69l20 158q77 18 186 23.5t193 -2.5v-512q46 33 117 55t127 22q225 0 318 -114.5t93 -390.5q0 -124 -28 -220.5t-74 -157.5t-110.5 -101t-131.5 -56t-143 -16q-97 0 -168 18v-178q120 -32 156 -76l-21 -158h-514zM389 211 q73 -18 164 -18q197 0 197 329q0 176 -34 242.5t-118 66.5q-121 0 -209 -77v-543z" />
<glyph unicode="&#xff;" horiz-adv-x="1163" d="M-4 866l20 158h471l21 -158q-25 -33 -90 -59l112 -309q18 -50 32.5 -105t19.5 -85l6 -29h28q17 102 58 215l108 303q-77 29 -106 69l20 158h451l20 -158q-37 -49 -135 -80l-338 -798q-80 -187 -115 -246q-70 -117 -165 -150q-50 -18 -113 -18q-166 0 -250 84 q-4 59 9 131.5t36 122.5h170q32 -58 35 -150h29q37 0 78.5 69t58.5 163l-336 794q-100 32 -135 78zM188 1432q0 84 42.5 119.5t123.5 35.5t124.5 -35.5t43.5 -119.5t-43 -119t-125 -35q-81 0 -123.5 35t-42.5 119zM680 1432q0 84 42.5 119.5t123.5 35.5t124.5 -35.5 t43.5 -119.5t-43 -119t-125 -35q-81 0 -123.5 35t-42.5 119z" />
<glyph unicode="&#x131;" horiz-adv-x="598" d="M57 158q28 38 113 69v570q-71 24 -113 69l21 158q76 18 186 23t193 -3v-817q79 -30 112 -69l-20 -158h-471z" />
<glyph unicode="&#x141;" horiz-adv-x="1032" d="M-6 627q2 4 5.5 10.5t17.5 24.5t30.5 34t44.5 34.5t60 29.5l30 10v404q-84 31 -112 69l20 170h479l21 -170q-33 -38 -113 -69v-300l271 97l45 -76q-2 -4 -5.5 -10t-16.5 -24t-29.5 -33.5t-44.5 -34t-60 -29.5l-160 -57v-484h324q27 106 76 152l151 -19v-356h-938l-20 170 q27 37 112 68v364l-141 -51z" />
<glyph unicode="&#x142;" horiz-adv-x="604" d="M-33 653q2 4 5.5 10.5t17.5 25t30.5 34.5t44.5 34t60 29l35 11v430q-71 24 -113 69l21 158q77 18 185.5 23.5t192.5 -2.5v-578l146 51l45 -76q-2 -4 -5.5 -10t-16.5 -24t-29.5 -33.5t-44.5 -34t-60 -29.5l-35 -12v-502q80 -31 113 -69l-20 -158h-471l-21 158 q28 38 113 69v402l-146 -51z" />
<glyph unicode="&#x152;" horiz-adv-x="1783" d="M63 702q0 372 147 550t433 178q111 0 201 -17h856v-356l-152 -19q-47 41 -75 152h-316v-352h281q23 61 51 86l129 -15v-364l-129 -17q-26 21 -51 86h-281v-391h332q27 106 76 152l151 -19v-356h-893q-106 -16 -209 -16q-191 0 -310.5 70t-180 228.5t-60.5 419.5zM371 721 q0 -183 31.5 -296.5t87.5 -161.5t141 -48q124 0 235 25v919q-103 39 -239 39q-88 0 -142 -40t-84 -146.5t-30 -290.5z" />
<glyph unicode="&#x153;" horiz-adv-x="1679" d="M51 508q0 257 129.5 394.5t372.5 137.5q264 0 350 -135q102 135 336 135q74 0 129.5 -11t105.5 -40t81 -78.5t49 -128.5t18 -188v-49q0 -42 -23.5 -68t-62.5 -26h-500q10 -136 66 -192t149 -56q67 0 151 15t142 38l70 -150q-163 -122 -397 -122q-116 0 -212.5 34 t-134.5 97q-41 -63 -135 -97t-207 -34q-243 0 -360 128.5t-117 395.5zM346 520q0 -327 197 -327q97 0 146.5 72.5t49.5 242.5q0 175 -51.5 249t-148.5 74q-98 0 -145.5 -71t-47.5 -240zM1042 637l297 18q0 92 -24 134t-84 42q-84 0 -129.5 -49t-59.5 -145z" />
<glyph unicode="&#x160;" horiz-adv-x="1101" d="M66 104q-5 65 12 157.5t43 146.5h194q32 -67 39 -170q71 -31 170 -31q93 0 154 45t61 129q0 29 -3.5 48.5t-16 43.5t-41.5 43t-74 33l-211 61q-321 92 -321 410q0 187 134.5 298.5t348.5 111.5q220 0 432 -99q5 -65 -12 -157t-43 -146h-195q-17 23 -28 74.5t-13 87.5 q-70 18 -147 18q-73 0 -119.5 -38t-46.5 -103q0 -71 35 -109.5t137 -68.5l182 -53q54 -16 97.5 -36t87 -53t72.5 -75t47 -103t18 -135q0 -106 -41.5 -192t-113 -142t-166.5 -86t-203 -30q-123 0 -253 31t-216 89zM223 1874l74 84q46 -15 117 -61t137 -103q66 57 137 103 t117 61l74 -84q-27 -71 -131 -183t-197 -173q-93 61 -197 173t-131 183z" />
<glyph unicode="&#x161;" horiz-adv-x="923" d="M63 729q0 140 108.5 225.5t295.5 85.5q219 0 356 -59q10 -132 -43 -238h-168q-26 47 -34 99q-58 14 -115 14q-62 0 -98.5 -20.5t-36.5 -59.5q0 -35 30.5 -62.5t110.5 -49.5l162 -43q123 -32 186.5 -100.5t63.5 -188.5q0 -73 -25 -134t-76 -110t-137 -76.5t-199 -27.5 q-108 0 -212 17t-166 48q-5 61 7 130t36 118h170q26 -51 34 -102q46 -13 117 -13q39 0 68.5 4t56 15t41 32t14.5 52q0 33 -24.5 54t-96.5 42l-161 47q-59 17 -103.5 39t-83 56.5t-58.5 86.5t-20 119zM117 1524l73 84q46 -15 117 -61t137 -103q66 57 137 103t117 61l74 -84 q-28 -71 -131.5 -184t-196.5 -173q-93 60 -196 172.5t-131 184.5z" />
<glyph unicode="&#x178;" horiz-adv-x="1204" d="M-8 1243l18 160v2l2 8h480l20 -170q-24 -34 -94 -61l69 -158q32 -73 61.5 -150t42.5 -118l13 -41h31q43 149 113 309l65 150q-84 32 -111 69l21 170h467l20 -170q-42 -49 -135 -78l-323 -692v-235q80 -31 112 -68l-20 -170h-479l-21 170q27 36 113 68v235l-334 694 q-95 31 -131 76zM199 1675q0 84 42.5 120t123.5 36t124 -36t43 -120t-42.5 -118.5t-124.5 -34.5t-124 34.5t-42 118.5zM690 1675q0 84 42.5 120t123.5 36t124.5 -36t43.5 -120q0 -83 -43 -118t-125 -35t-124 34.5t-42 118.5z" />
<glyph unicode="&#x17d;" horiz-adv-x="1167" d="M31 162l594 891q26 40 60.5 77.5t55.5 55.5l21 18l-10 23q-95 -19 -201 -19h-191q-6 -48 -21 -98.5t-30 -77.5l-194 12q-30 54 -41 168t10 201h997l21 -162l-594 -891q-26 -40 -60.5 -78t-55.5 -56l-21 -17l10 -23q95 19 201 19h249q6 48 21 98.5t31 77.5l194 -12 q30 -54 41 -168t-10 -201h-1057zM285 1874l73 84q46 -15 117 -61t137 -103q66 57 137 103t117 61l74 -84q-27 -71 -131 -183t-197 -173q-93 60 -196 172.5t-131 183.5z" />
<glyph unicode="&#x17e;" horiz-adv-x="980" d="M43 168l401 516q29 38 59.5 70t46.5 44l15 13l-10 23q-60 -19 -166 -19h-80q-29 -68 -65 -102l-158 20q-30 135 -20 291h829l20 -172l-399 -510q-29 -38 -59.5 -70t-46.5 -44l-15 -13l11 -22q59 18 165 18h113q29 72 68 108l157 -20q31 -140 21 -299h-867zM160 1524 l73 84q46 -15 117 -61t137 -103q66 57 137 103t117 61l74 -84q-28 -71 -131.5 -184t-196.5 -173q-93 60 -196 172.5t-131 184.5z" />
<glyph unicode="&#x192;" horiz-adv-x="1304" d="M59 -319q-4 58 11 128.5t41 122.5h176q38 -63 41 -147q12 -2 34 -2q72 0 104 43t32 156v741h-90l-23 141q44 41 113 47v152q0 211 93.5 319.5t305.5 108.5q108 0 200 -32t154 -77q4 -59 -11 -133t-40 -125h-180q-36 70 -39 154q-32 4 -49 4q-78 0 -113 -43t-35 -156v-172 h314v-188h-314v-723q0 -238 -89 -332t-298 -94q-99 0 -188.5 31.5t-149.5 75.5z" />
<glyph unicode="&#x2c6;" horiz-adv-x="1024" d="M209 1249q28 71 131.5 184t196.5 173q93 -60 196 -172.5t131 -184.5l-73 -84q-45 13 -115.5 59t-138.5 105q-68 -59 -138.5 -105t-115.5 -59z" />
<glyph unicode="&#x2c7;" horiz-adv-x="1024" d="M209 1524l74 84q46 -15 117 -61t137 -103q66 57 137 103t117 61l73 -84q-28 -72 -131 -184.5t-196 -172.5q-93 60 -196.5 173t-131.5 184z" />
<glyph unicode="&#x2d8;" horiz-adv-x="1026" d="M166 1487h186q0 -79 46 -118.5t126 -39.5q78 0 127 40t49 118h185q0 -88 -26.5 -152.5t-76 -103t-114 -56.5t-146.5 -18q-356 0 -356 330z" />
<glyph unicode="&#x2d9;" horiz-adv-x="546" d="M102 1376q0 84 43.5 120t126.5 36t127.5 -36t44.5 -120q0 -83 -44 -118t-128 -35q-83 0 -126.5 34.5t-43.5 118.5z" />
<glyph unicode="&#x2da;" horiz-adv-x="1026" d="M254 1407q0 122 65 172.5t185 50.5q122 0 189 -50.5t67 -172.5q0 -119 -67 -168t-189 -49q-120 0 -185 49t-65 168zM387 1409q0 -57 30.5 -80.5t88.5 -23.5t89.5 23.5t31.5 80.5q0 109 -121 109q-119 0 -119 -109z" />
<glyph unicode="&#x2db;" horiz-adv-x="565" d="M61 -291q0 68 31.5 131.5t82.5 110t113 79.5t126 48l90 -78q-78 -36 -134.5 -89t-56.5 -106q0 -51 36 -76.5t116 -33.5l-10 -199q-187 -11 -290.5 42.5t-103.5 170.5z" />
<glyph unicode="&#x2dc;" horiz-adv-x="1114" d="M145 1329q4 5 11 14t31 32t50.5 40.5t69 32t86.5 14.5q67 0 160 -28.5t166 -28.5q52 0 102.5 14.5t75.5 28.5l25 14l82 -129q-5 -6 -13.5 -15.5t-37.5 -33.5t-60.5 -43t-80.5 -34t-99 -15q-58 0 -155 28.5t-157 28.5q-43 0 -87.5 -13.5t-67.5 -27.5l-23 -14z" />
<glyph unicode="&#x2dd;" horiz-adv-x="884" d="M12 1325l244 356q29 23 67 18t63.5 -30.5t36.5 -62t-13 -76.5q-40 -71 -133.5 -146.5t-198.5 -132.5zM426 1325l244 356q29 23 67 18t63.5 -30.5t36 -62t-13.5 -76.5q-40 -71 -133 -146.5t-198 -132.5z" />
<glyph unicode="&#x2000;" horiz-adv-x="995" />
<glyph unicode="&#x2001;" horiz-adv-x="1991" />
<glyph unicode="&#x2002;" horiz-adv-x="995" />
<glyph unicode="&#x2003;" horiz-adv-x="1991" />
<glyph unicode="&#x2004;" horiz-adv-x="663" />
<glyph unicode="&#x2005;" horiz-adv-x="497" />
<glyph unicode="&#x2006;" horiz-adv-x="331" />
<glyph unicode="&#x2007;" horiz-adv-x="331" />
<glyph unicode="&#x2008;" horiz-adv-x="248" />
<glyph unicode="&#x2009;" horiz-adv-x="398" />
<glyph unicode="&#x200a;" horiz-adv-x="110" />
<glyph unicode="&#x2010;" horiz-adv-x="862" d="M94 582q3 3 8 7.5t22.5 17t37 22t51.5 17t66 7.5h471l20 -131q-2 -3 -7 -7.5t-22.5 -17t-37 -22t-51.5 -17t-66 -7.5h-471z" />
<glyph unicode="&#x2011;" horiz-adv-x="862" d="M94 582q3 3 8 7.5t22.5 17t37 22t51.5 17t66 7.5h471l20 -131q-2 -3 -7 -7.5t-22.5 -17t-37 -22t-51.5 -17t-66 -7.5h-471z" />
<glyph unicode="&#x2012;" horiz-adv-x="862" d="M94 582q3 3 8 7.5t22.5 17t37 22t51.5 17t66 7.5h471l20 -131q-2 -3 -7 -7.5t-22.5 -17t-37 -22t-51.5 -17t-66 -7.5h-471z" />
<glyph unicode="&#x2013;" horiz-adv-x="1081" d="M94 582q3 3 8 7.5t22.5 17t37 22t51.5 17t66 7.5h690l20 -131q-2 -3 -7 -7.5t-22.5 -17t-37 -22t-51.5 -17t-66 -7.5h-690z" />
<glyph unicode="&#x2014;" horiz-adv-x="1544" d="M94 582q3 3 8 7.5t22.5 17t37 22t51.5 17t66 7.5h1153l20 -131q-2 -3 -7 -7.5t-22.5 -17t-37 -22t-51.5 -17t-66 -7.5h-1153z" />
<glyph unicode="&#x2018;" horiz-adv-x="477" d="M61 989q0 137 69.5 255t168.5 188l86 -54q-33 -55 -51.5 -126t-14.5 -126q39 -12 65 -49.5t26 -87.5q0 -84 -43.5 -119.5t-126.5 -35.5q-179 0 -179 155z" />
<glyph unicode="&#x2019;" horiz-adv-x="473" d="M70 1276q0 84 43.5 120t126.5 36q178 0 178 -156q0 -137 -69.5 -254.5t-168.5 -187.5l-86 53q33 55 51.5 126t14.5 126q-39 12 -64.5 49.5t-25.5 87.5z" />
<glyph unicode="&#x201a;" horiz-adv-x="499" d="M74 133q0 84 43.5 120t126.5 36q178 0 178 -156q0 -137 -69.5 -254.5t-168.5 -187.5l-86 53q33 55 51.5 126t14.5 126q-39 12 -64.5 49.5t-25.5 87.5z" />
<glyph unicode="&#x201c;" horiz-adv-x="921" d="M61 989q0 137 69.5 255t168.5 188l86 -54q-33 -55 -51.5 -126t-14.5 -126q39 -12 65 -49.5t26 -87.5q0 -84 -43.5 -119.5t-126.5 -35.5q-179 0 -179 155zM506 989q0 137 69 255t168 188l86 -54q-32 -54 -50.5 -125.5t-14.5 -126.5q39 -12 64.5 -49.5t25.5 -87.5 q0 -84 -43.5 -119.5t-126.5 -35.5q-178 0 -178 155z" />
<glyph unicode="&#x201d;" horiz-adv-x="917" d="M70 1276q0 84 43.5 120t126.5 36q178 0 178 -156q0 -137 -69.5 -254.5t-168.5 -187.5l-86 53q33 55 51.5 126t14.5 126q-39 12 -64.5 49.5t-25.5 87.5zM514 1276q0 84 43.5 120t126.5 36q178 0 178 -156q0 -137 -69 -254.5t-168 -187.5l-86 53q32 54 50.5 125.5 t14.5 126.5q-39 12 -64.5 49.5t-25.5 87.5z" />
<glyph unicode="&#x201e;" horiz-adv-x="978" d="M74 133q0 84 43.5 120t126.5 36q178 0 178 -156q0 -137 -69.5 -254.5t-168.5 -187.5l-86 53q33 55 51.5 126t14.5 126q-39 12 -64.5 49.5t-25.5 87.5zM553 133q0 84 43.5 120t126.5 36q178 0 178 -156q0 -137 -69 -254.5t-168 -187.5l-86 53q32 54 50.5 125.5t14.5 126.5 q-39 12 -64.5 49.5t-25.5 87.5z" />
<glyph unicode="&#x2020;" horiz-adv-x="1056" d="M49 801v227q142 21 367 -35q-41 265 -21 420h267q18 -157 -23 -420q228 56 369 35v-227q-152 -22 -371 35q31 -193 26.5 -417.5t-23 -400.5t-42.5 -276h-139q-25 98 -44 275.5t-23 400.5t26 418q-218 -57 -369 -35z" />
<glyph unicode="&#x2021;" d="M63 358v228q139 21 363 -35q-32 155 2 326q-217 -57 -365 -35v227q142 21 367 -35q-38 243 -20 379h266q15 -133 -23 -379q228 56 369 35v-227q-149 -22 -367 35q34 -171 2 -326q225 56 365 35v-228q-157 -23 -369 33q42 -312 -41 -649h-139q-87 336 -43 649 q-215 -56 -367 -33z" />
<glyph unicode="&#x2022;" horiz-adv-x="739" d="M127 539q0 119 61.5 170t180.5 51q117 0 180 -51t63 -170q0 -117 -62.5 -167t-180.5 -50q-119 0 -180.5 49.5t-61.5 167.5z" />
<glyph unicode="&#x2026;" horiz-adv-x="1662" d="M76 133q0 84 43.5 120t126.5 36t127.5 -36t44.5 -120q0 -83 -44 -118t-128 -35q-83 0 -126.5 34.5t-43.5 118.5zM662 133q0 84 43 120t126 36q173 0 173 -156q0 -83 -44.5 -118t-128.5 -35q-83 0 -126 34.5t-43 118.5zM1247 133q0 84 43.5 120t126.5 36t127.5 -36 t44.5 -120q0 -83 -44 -118t-128 -35q-83 0 -126.5 34.5t-43.5 118.5z" />
<glyph unicode="&#x202f;" horiz-adv-x="398" />
<glyph unicode="&#x2030;" horiz-adv-x="2551" d="M53 1038q0 198 102.5 299t268.5 101q172 0 266 -89t94 -296q0 -198 -103.5 -303t-270.5 -105q-357 0 -357 393zM303 1047q0 -133 27 -181.5t90 -48.5q44 0 67.5 17.5t35.5 65.5t12 140t-13.5 141.5t-37.5 66t-68 16.5t-66.5 -15t-34.5 -62t-12 -140zM439.5 20 q-3.5 19 3 72.5t32.5 100.5l680 1282l129 -45q3 -11 6.5 -29.5t-3 -72.5t-32.5 -103l-680 -1280l-129 45q-3 11 -6.5 30zM952 377q0 198 102.5 298.5t268.5 100.5q172 0 266 -89t94 -296q0 -198 -103.5 -302.5t-270.5 -104.5q-357 0 -357 393zM1202 385q0 -133 27 -181 t90 -48q44 0 67.5 17.5t35.5 65.5t12 140t-13.5 141.5t-37.5 65.5t-68 16t-66.5 -15t-34.5 -62t-12 -140zM1769 377q0 198 102.5 298.5t268.5 100.5q172 0 266.5 -89t94.5 -296q0 -198 -104 -302.5t-271 -104.5q-357 0 -357 393zM2019 385q0 -133 27 -181t90 -48 q44 0 67.5 17.5t35.5 65.5t12 140t-13.5 141.5t-37.5 65.5t-68 16t-66.5 -15t-34.5 -62t-12 -140z" />
<glyph unicode="&#x2039;" horiz-adv-x="630" d="M49 506q69 122 200 257.5t216 172.5l96 -72q-19 -65 -77.5 -166.5t-129.5 -191.5q71 -88 129.5 -189t77.5 -167l-96 -72q-84 35 -215 170.5t-201 257.5z" />
<glyph unicode="&#x203a;" horiz-adv-x="630" d="M70 150q19 66 77 167.5t129 188.5q-71 89 -129 190.5t-77 167.5l96 72q85 -37 216 -172.5t200 -257.5q-70 -122 -201 -257.5t-215 -170.5z" />
<glyph unicode="&#x2044;" horiz-adv-x="849" d="M1.5 28q-3.5 19 3 72.5t32.5 100.5l676 1274l129 -45q3 -11 6.5 -29.5t-3 -72.5t-32.5 -103l-676 -1272l-129 45q-3 11 -6.5 30z" />
<glyph unicode="&#x205f;" horiz-adv-x="497" />
<glyph unicode="&#x20ac;" horiz-adv-x="1327" d="M53 557l8 8t22.5 17t37 21.5t51.5 17.5t66 8h12v125h-176l-21 106l8 8t22.5 17t37 21.5t51.5 17.5t66 8h30q43 251 188.5 374.5t372.5 123.5q127 0 223 -32t199 -98q5 -65 -10.5 -157t-40.5 -146h-184q-29 55 -39 162q-31 15 -47.5 21.5t-46 12t-68.5 5.5 q-101 0 -166.5 -60.5t-91.5 -205.5h416l20 -107q-2 -3 -7 -7.5t-22.5 -17t-37 -22t-51.5 -17t-66 -7.5h-268q0 -96 2 -125h430l20 -107q-2 -3 -7 -7.5t-22.5 -17t-37 -22t-51.5 -17t-66 -7.5h-242q30 -119 91 -170.5t157 -51.5q205 0 373 66l69 -182q-205 -129 -489 -129 q-222 0 -344 109.5t-158 357.5h-192z" />
<glyph unicode="&#x2122;" horiz-adv-x="1835" d="M100 1196v240l101 12q26 -14 43 -45h350q12 27 33 45l108 -12v-240l-104 -10q-24 17 -35 43h-74v-389q38 -15 60 -47l-19 -123h-293l-18 123q27 33 61 47v389h-69q-15 -28 -43 -43zM807 1292l18 121h275l145 -364q9 -24 15 -49.5t8 -39.5l2 -14h16q5 50 25 103l139 364 h276l13 -121q-19 -28 -60 -49v-403q39 -16 58 -43l-13 -127h-292l-13 127q23 29 60 45v102q0 24 1.5 47.5t3.5 34.5l1 12l-17 2q-6 -43 -24 -94l-94 -276h-181l-96 272q-8 22 -14 45t-8 35l-2 12l-17 -2q8 -45 8 -98v-98q37 -17 54 -50l-11 -116h-260l-12 118q19 31 55 50 v407q-34 15 -59 47z" />
<glyph unicode="&#x2212;" horiz-adv-x="1081" d="M94 582q3 3 8 7.5t22.5 17t37 22t51.5 17t66 7.5h690l20 -131q-2 -3 -7 -7.5t-22.5 -17t-37 -22t-51.5 -17t-66 -7.5h-690z" />
<glyph unicode="&#xe000;" horiz-adv-x="1024" d="M0 0v1024h1024v-1024h-1024z" />
<glyph unicode="&#xfb01;" horiz-adv-x="1267" d="M53 158q28 38 113 69v578h-90l-23 141q44 41 113 47v109q0 202 103 295.5t323 93.5q109 0 201.5 -8.5t177 -28.5t132.5 -58.5t48 -92.5q0 -73 -41 -111.5t-119 -38.5q-40 0 -73 10.5t-56 30t-35.5 33.5t-25.5 33q-3 4 -4 6q-79 16 -197 16q-78 0 -112.5 -43t-34.5 -156 v-90h295q77 18 185.5 23.5t192.5 -2.5v-787q80 -31 113 -69l-20 -158h-471l-21 158q28 38 113 69v578h-387v-574q87 -31 135 -73l-21 -158h-493z" />
<glyph unicode="&#xfb02;" horiz-adv-x="1304" d="M51 158q28 38 113 69v496h-90l-23 141q44 41 113 47v152q0 211 93.5 319.5t305.5 108.5q102 0 215 -37q82 15 191.5 21t191.5 0v-1248q80 -31 113 -69l-21 -158h-471l-20 158q28 38 112 69v992q-149 63 -264 63q-86 0 -122.5 -42.5t-36.5 -156.5v-172h313v-188h-313v-485 q152 -30 208 -80l-20 -158h-567z" />
<glyph horiz-adv-x="532" d="M-295 -319q-4 58 10.5 129t40.5 122h176q38 -63 41 -147q10 -2 35 -2q72 0 103.5 43t31.5 156v815q-70 24 -112 69l20 158q76 18 186 23t193 -3v-1044h-2q-7 -240 -92.5 -333t-292.5 -93q-99 0 -188.5 31.5t-149.5 75.5zM113 1319q0 84 43.5 120t126.5 36t127.5 -36 t44.5 -120q0 -83 -44.5 -118.5t-127.5 -35.5t-126.5 35t-43.5 119z" />
<glyph horiz-adv-x="946" d="M49 158q28 38 113 69v592q-2 0 -6 4l-107 43l21 158q157 37 352 20v-139q37 62 106 98.5t150 36.5q175 0 250 -100q4 -60 -10 -137t-39 -127h-177q-29 54 -36 149q-20 4 -31 4q-67 0 -109 -30t-77 -84v-471q71 -13 134 -36t93 -50l-21 -158h-585z" />
</font>
</defs>
</svg>
