<?xml version="1.0" encoding="utf-8"?>
<!-- Generator: Adobe Illustrator 16.0.0, SVG Export Plug-In . SVG Version: 6.00 Build 0)  -->
<!DOCTYPE svg PUBLIC "-//W3C//DTD SVG 1.1//EN" "http://www.w3.org/Graphics/SVG/1.1/DTD/svg11.dtd">
<svg version="1.1" id="Layer_1" xmlns="http://www.w3.org/2000/svg" xmlns:xlink="http://www.w3.org/1999/xlink" x="0px" y="0px"
	 width="182.609px" height="67.391px" viewBox="0 0 182.609 67.391" enable-background="new 0 0 182.609 67.391"
	 xml:space="preserve">
<g>
	<g>
		<path fill="#033F5E" d="M5.605,55.538h2.461c0.361,0,0.685,0.05,0.967,0.149c0.283,0.102,0.526,0.242,0.725,0.426
			c0.196,0.184,0.349,0.403,0.455,0.658c0.105,0.255,0.158,0.538,0.158,0.848v0.018c0,0.35-0.062,0.656-0.188,0.919
			c-0.125,0.264-0.3,0.486-0.521,0.663c-0.22,0.177-0.479,0.312-0.772,0.399c-0.296,0.09-0.612,0.134-0.951,0.134H6.932v1.807H5.605
			V55.538z M7.98,58.573c0.333,0,0.591-0.087,0.775-0.261c0.183-0.176,0.273-0.392,0.273-0.648v-0.02
			c0-0.297-0.095-0.523-0.288-0.677c-0.191-0.156-0.454-0.234-0.786-0.234H6.932v1.841L7.98,58.573L7.98,58.573z"/>
		<path fill="#033F5E" d="M18.389,55.494h1.223l2.581,6.065h-1.386l-0.55-1.351H17.71l-0.55,1.351h-1.352L18.389,55.494z
			 M19.783,59.038l-0.8-1.951l-0.801,1.951H19.783z M19.423,53.542l1.127,0.49l-1.101,1.032H18.45L19.423,53.542z"/>
		<path fill="#033F5E" d="M29.495,56.758h-1.833v-1.221h4.99v1.221H30.82v4.801h-1.325V56.758L29.495,56.758z"/>
		<path fill="#033F5E" d="M38.641,55.538h2.752c0.764,0,1.349,0.202,1.756,0.609c0.344,0.344,0.518,0.802,0.518,1.375v0.019
			c0,0.488-0.12,0.884-0.359,1.19c-0.237,0.308-0.547,0.533-0.934,0.678l1.472,2.149h-1.548l-1.291-1.927h-0.018h-1.022v1.927
			h-1.325V55.538z M41.307,58.463c0.328,0,0.579-0.078,0.754-0.234c0.174-0.152,0.261-0.36,0.261-0.619v-0.018
			c0-0.287-0.092-0.502-0.272-0.646c-0.187-0.143-0.438-0.215-0.767-0.215h-1.315v1.731H41.307z"/>
		<path fill="#033F5E" d="M49.893,55.538h1.325v6.021h-1.325V55.538z"/>
		<path fill="#033F5E" d="M59.761,55.494h1.222l2.58,6.065h-1.386l-0.55-1.351h-2.548l-0.55,1.351h-1.351L59.761,55.494z
			 M61.153,59.038l-0.798-1.951l-0.801,1.951H61.153z"/>
		<path fill="#033F5E" d="M79.926,55.538h4.533v1.178h-3.227v1.222h2.838v1.179h-2.838v1.265h3.27v1.179h-4.576V55.538z"/>
		<path fill="#033F5E" d="M90.66,55.538h2.351c0.469,0,0.902,0.075,1.296,0.228c0.39,0.151,0.73,0.363,1.015,0.632
			c0.282,0.271,0.504,0.586,0.657,0.951s0.232,0.759,0.232,1.184v0.017c0,0.424-0.079,0.821-0.232,1.187
			c-0.153,0.368-0.375,0.687-0.657,0.957c-0.283,0.271-0.625,0.481-1.015,0.636c-0.394,0.155-0.827,0.232-1.296,0.232H90.66V55.538z
			 M93.011,60.363c0.271,0,0.516-0.043,0.739-0.129c0.224-0.087,0.414-0.21,0.57-0.37c0.158-0.16,0.281-0.351,0.371-0.567
			c0.088-0.218,0.133-0.462,0.133-0.731v-0.019c0-0.265-0.045-0.507-0.133-0.73c-0.09-0.224-0.213-0.416-0.371-0.577
			c-0.156-0.159-0.348-0.283-0.57-0.373c-0.225-0.088-0.469-0.135-0.739-0.135h-1.024v3.631L93.011,60.363L93.011,60.363z"/>
		<path fill="#033F5E" d="M104.871,61.653c-0.807,0-1.443-0.223-1.906-0.671c-0.464-0.447-0.697-1.116-0.697-2.004v-3.44h1.323
			v3.404c0,0.494,0.117,0.866,0.347,1.115c0.229,0.25,0.548,0.375,0.954,0.375c0.405,0,0.726-0.121,0.954-0.362
			c0.229-0.241,0.343-0.601,0.343-1.082v-3.45h1.328v3.397c0,0.458-0.062,0.857-0.186,1.195c-0.125,0.339-0.304,0.621-0.53,0.847
			c-0.229,0.228-0.509,0.397-0.832,0.508C105.639,61.597,105.275,61.653,104.871,61.653z"/>
		<path fill="#033F5E" d="M116.66,61.663c-0.441,0-0.851-0.082-1.23-0.242c-0.378-0.16-0.705-0.38-0.979-0.658
			c-0.275-0.278-0.491-0.606-0.646-0.984c-0.151-0.378-0.229-0.781-0.229-1.212v-0.019c0-0.43,0.078-0.832,0.229-1.208
			c0.155-0.376,0.371-0.706,0.646-0.989c0.274-0.284,0.604-0.507,0.989-0.673c0.385-0.162,0.809-0.243,1.271-0.243
			c0.283,0,0.538,0.022,0.771,0.068c0.232,0.045,0.443,0.108,0.63,0.188c0.193,0.079,0.365,0.18,0.527,0.292
			c0.159,0.114,0.309,0.24,0.447,0.378l-0.842,0.974c-0.236-0.213-0.478-0.379-0.72-0.499c-0.246-0.121-0.521-0.181-0.823-0.181
			c-0.252,0-0.483,0.048-0.701,0.145c-0.216,0.097-0.399,0.234-0.555,0.406c-0.154,0.171-0.273,0.371-0.36,0.596
			c-0.088,0.227-0.127,0.47-0.127,0.729v0.017c0,0.259,0.039,0.502,0.127,0.731c0.087,0.23,0.204,0.431,0.358,0.604
			c0.149,0.171,0.332,0.307,0.55,0.408c0.215,0.1,0.448,0.149,0.708,0.149c0.347,0,0.637-0.062,0.875-0.188
			c0.235-0.127,0.475-0.298,0.71-0.519l0.841,0.854c-0.152,0.167-0.315,0.313-0.482,0.447c-0.166,0.133-0.346,0.245-0.545,0.341
			c-0.196,0.094-0.413,0.165-0.649,0.214C117.216,61.638,116.953,61.663,116.66,61.663z"/>
		<path fill="#033F5E" d="M127.223,55.494h1.222l2.583,6.065h-1.387l-0.551-1.351h-2.546l-0.551,1.351h-1.351L127.223,55.494z
			 M128.618,59.038l-0.802-1.951l-0.8,1.951H128.618z"/>
		<path fill="#033F5E" d="M136.928,55.538h2.348c0.473,0,0.902,0.075,1.296,0.228c0.393,0.151,0.731,0.363,1.015,0.632
			c0.284,0.271,0.502,0.586,0.659,0.951c0.152,0.365,0.231,0.759,0.231,1.184v0.017c0,0.424-0.079,0.821-0.231,1.187
			c-0.157,0.368-0.375,0.687-0.659,0.957c-0.282,0.271-0.622,0.481-1.015,0.636c-0.394,0.155-0.823,0.232-1.296,0.232h-2.348V55.538
			z M139.275,60.363c0.271,0,0.519-0.043,0.741-0.129c0.222-0.087,0.413-0.21,0.57-0.37c0.158-0.16,0.281-0.351,0.371-0.567
			c0.088-0.218,0.134-0.462,0.134-0.731v-0.019c0-0.265-0.046-0.507-0.134-0.73c-0.09-0.224-0.213-0.416-0.371-0.577
			c-0.157-0.159-0.35-0.283-0.57-0.373c-0.224-0.088-0.47-0.135-0.741-0.135h-1.024v3.631L139.275,60.363L139.275,60.363z"/>
		<path fill="#033F5E" d="M151.552,61.663c-0.465,0-0.891-0.083-1.282-0.246c-0.391-0.162-0.727-0.383-1.011-0.662
			c-0.282-0.276-0.505-0.605-0.662-0.979c-0.157-0.376-0.238-0.778-0.238-1.209v-0.019c0-0.43,0.083-0.832,0.24-1.208
			c0.163-0.376,0.386-0.706,0.67-0.989c0.284-0.284,0.62-0.507,1.017-0.673c0.392-0.162,0.818-0.243,1.284-0.243
			s0.894,0.081,1.282,0.243c0.391,0.166,0.728,0.386,1.011,0.663c0.284,0.279,0.504,0.604,0.662,0.981
			c0.156,0.374,0.238,0.777,0.238,1.209v0.017c0,0.432-0.082,0.833-0.244,1.208c-0.159,0.377-0.381,0.707-0.666,0.991
			c-0.284,0.282-0.62,0.509-1.016,0.67C152.445,61.581,152.017,61.663,151.552,61.663z M151.569,60.44
			c0.262,0,0.507-0.049,0.729-0.146c0.224-0.096,0.415-0.23,0.574-0.403c0.155-0.173,0.28-0.372,0.368-0.598
			c0.091-0.229,0.135-0.471,0.135-0.728v-0.019c0-0.256-0.044-0.501-0.135-0.73c-0.088-0.229-0.215-0.431-0.38-0.603
			c-0.161-0.171-0.354-0.308-0.579-0.407c-0.225-0.103-0.469-0.15-0.73-0.15c-0.271,0-0.517,0.048-0.735,0.145
			c-0.222,0.097-0.41,0.234-0.567,0.406c-0.158,0.171-0.279,0.371-0.369,0.596c-0.09,0.227-0.134,0.47-0.134,0.729v0.017
			c0,0.259,0.044,0.502,0.134,0.731c0.09,0.23,0.215,0.431,0.379,0.604c0.163,0.171,0.355,0.307,0.575,0.408
			C151.053,60.39,151.302,60.44,151.569,60.44z"/>
		<path fill="#033F5E" d="M160.91,55.538h2.755c0.762,0,1.347,0.202,1.757,0.609c0.342,0.344,0.515,0.802,0.515,1.375v0.019
			c0,0.488-0.119,0.884-0.356,1.19c-0.238,0.308-0.549,0.533-0.934,0.678l1.471,2.149h-1.548l-1.291-1.927h-0.017h-1.023v1.927
			h-1.327L160.91,55.538L160.91,55.538z M163.579,58.463c0.327,0,0.579-0.078,0.754-0.234c0.174-0.152,0.261-0.36,0.261-0.619
			v-0.018c0-0.287-0.091-0.502-0.276-0.646c-0.182-0.143-0.438-0.215-0.763-0.215h-1.316v1.731H163.579z"/>
		<path fill="#033F5E" d="M174.168,55.494h1.224l2.581,6.065h-1.385l-0.553-1.351h-2.547l-0.549,1.351h-1.353L174.168,55.494z
			 M175.563,59.038l-0.801-1.951l-0.8,1.951H175.563z"/>
	</g>
	<g>
		<path fill="#010101" d="M8.771,14.219c-0.47,0-0.898-0.077-1.286-0.232c-0.387-0.154-0.719-0.368-0.998-0.645
			c-0.277-0.274-0.495-0.604-0.647-0.981c-0.155-0.378-0.234-0.791-0.234-1.237v-0.018c0-0.431,0.08-0.835,0.237-1.208
			C6.001,9.522,6.22,9.191,6.501,8.907c0.279-0.283,0.613-0.508,0.998-0.67c0.384-0.164,0.806-0.246,1.265-0.246
			c0.269,0,0.514,0.02,0.735,0.057c0.221,0.038,0.426,0.091,0.615,0.16c0.188,0.068,0.367,0.154,0.533,0.258
			c0.166,0.102,0.327,0.22,0.48,0.352l-0.834,1.007c-0.115-0.097-0.229-0.183-0.345-0.258C9.836,9.49,9.717,9.429,9.593,9.376
			c-0.124-0.051-0.256-0.092-0.4-0.119c-0.143-0.03-0.3-0.044-0.472-0.044c-0.242,0-0.465,0.05-0.675,0.15
			C7.837,9.466,7.653,9.6,7.494,9.768c-0.156,0.17-0.281,0.368-0.369,0.596c-0.089,0.228-0.133,0.472-0.133,0.729v0.017
			c0,0.277,0.043,0.531,0.133,0.764c0.088,0.232,0.215,0.437,0.379,0.606c0.165,0.173,0.354,0.308,0.575,0.403
			c0.222,0.093,0.468,0.142,0.736,0.142c0.492,0,0.909-0.123,1.246-0.364v-0.867H8.729v-1.145h2.616v2.615
			c-0.311,0.266-0.68,0.491-1.106,0.675C9.812,14.127,9.322,14.219,8.771,14.219z"/>
		<path fill="#010101" d="M21.356,14.219c-0.464,0-0.891-0.082-1.28-0.245c-0.391-0.164-0.728-0.382-1.012-0.662
			c-0.284-0.277-0.504-0.605-0.662-0.979c-0.158-0.376-0.236-0.78-0.236-1.209v-0.018c0-0.431,0.08-0.835,0.241-1.208
			c0.16-0.376,0.382-0.707,0.667-0.991c0.283-0.283,0.62-0.508,1.016-0.67c0.392-0.164,0.82-0.246,1.286-0.246
			c0.464,0,0.891,0.082,1.281,0.246c0.391,0.162,0.728,0.385,1.011,0.663s0.504,0.605,0.663,0.98
			c0.157,0.375,0.235,0.779,0.235,1.209v0.018c0,0.431-0.08,0.833-0.241,1.208c-0.16,0.376-0.381,0.706-0.667,0.99
			c-0.282,0.284-0.623,0.507-1.015,0.67S21.822,14.219,21.356,14.219z M21.375,13c0.263,0,0.508-0.051,0.731-0.147
			c0.223-0.097,0.415-0.231,0.571-0.405c0.159-0.171,0.281-0.369,0.371-0.598c0.088-0.226,0.133-0.469,0.133-0.726v-0.018
			c0-0.259-0.045-0.503-0.133-0.731c-0.089-0.229-0.215-0.431-0.379-0.603c-0.163-0.172-0.358-0.309-0.581-0.408
			c-0.225-0.101-0.468-0.15-0.732-0.15c-0.27,0-0.514,0.05-0.735,0.146c-0.22,0.1-0.409,0.233-0.566,0.404
			c-0.158,0.173-0.281,0.372-0.37,0.599c-0.089,0.228-0.133,0.47-0.133,0.728v0.018c0,0.257,0.043,0.501,0.133,0.729
			c0.089,0.23,0.214,0.431,0.378,0.604c0.163,0.17,0.356,0.309,0.576,0.408C20.859,12.948,21.105,13,21.375,13z"/>
		<path fill="#010101" d="M31.045,8.095h1.462l1.573,4.241l1.574-4.241h1.431l-2.437,6.064h-1.172L31.045,8.095z"/>
		<path fill="#010101" d="M43.827,8.095h4.533v1.18h-3.225v1.221h2.839v1.178h-2.839v1.265h3.268v1.181h-4.576V8.095z"/>
		<path fill="#010101" d="M55.408,8.095h2.751c0.764,0,1.351,0.204,1.757,0.61c0.344,0.344,0.517,0.804,0.517,1.377v0.017
			c0,0.487-0.119,0.884-0.357,1.191c-0.239,0.307-0.55,0.53-0.934,0.675l1.471,2.152h-1.548l-1.29-1.929h-0.018h-1.023v1.929h-1.324
			L55.408,8.095L55.408,8.095z M58.073,11.02c0.327,0,0.578-0.078,0.753-0.231c0.175-0.155,0.263-0.362,0.263-0.619v-0.019
			c0-0.286-0.092-0.502-0.275-0.644c-0.184-0.146-0.438-0.215-0.764-0.215h-1.317v1.729L58.073,11.02L58.073,11.02z"/>
		<path fill="#010101" d="M67.443,8.095h1.22l2.823,3.707V8.095h1.308v6.022h-1.127l-2.917-3.829v3.829h-1.308L67.443,8.095
			L67.443,8.095z"/>
		<path fill="#010101" d="M82.979,14.219c-0.464,0-0.892-0.082-1.282-0.245c-0.39-0.164-0.727-0.382-1.011-0.662
			c-0.284-0.277-0.503-0.605-0.661-0.979c-0.159-0.376-0.237-0.78-0.237-1.209v-0.018c0-0.431,0.08-0.835,0.24-1.208
			c0.162-0.376,0.384-0.707,0.668-0.991c0.283-0.283,0.621-0.508,1.015-0.67c0.394-0.164,0.821-0.246,1.286-0.246
			s0.892,0.082,1.281,0.246c0.392,0.162,0.728,0.385,1.011,0.663c0.284,0.278,0.506,0.605,0.662,0.98
			c0.159,0.375,0.237,0.779,0.237,1.209v0.018c0,0.431-0.081,0.833-0.242,1.208c-0.16,0.376-0.381,0.706-0.666,0.99
			c-0.284,0.284-0.622,0.507-1.014,0.67C83.872,14.138,83.443,14.219,82.979,14.219z M82.996,13c0.263,0,0.507-0.051,0.731-0.147
			c0.224-0.097,0.414-0.231,0.571-0.405c0.156-0.171,0.28-0.369,0.37-0.598c0.09-0.226,0.133-0.469,0.133-0.726v-0.018
			c0-0.259-0.043-0.503-0.133-0.731c-0.09-0.229-0.216-0.431-0.379-0.603s-0.356-0.309-0.579-0.408
			c-0.226-0.101-0.469-0.15-0.732-0.15c-0.27,0-0.515,0.05-0.736,0.146c-0.221,0.1-0.409,0.233-0.567,0.404
			c-0.157,0.173-0.281,0.372-0.371,0.599c-0.087,0.228-0.131,0.47-0.131,0.728v0.018c0,0.257,0.043,0.501,0.131,0.729
			c0.09,0.23,0.216,0.431,0.379,0.604c0.164,0.17,0.355,0.309,0.577,0.408S82.727,13,82.996,13z"/>
		<path fill="#010101" d="M101.58,8.095h4.585v1.196h-3.262v1.298h2.873v1.196h-2.873v2.332h-1.323V8.095z"/>
		<path fill="#010101" d="M113.039,8.095h4.533v1.18h-3.228v1.221h2.838v1.178h-2.838v1.265h3.267v1.181h-4.572V8.095z"/>
		<path fill="#010101" d="M124.613,8.095h2.354c0.469,0,0.902,0.076,1.293,0.228c0.393,0.153,0.732,0.362,1.015,0.632
			c0.284,0.27,0.505,0.587,0.658,0.951c0.155,0.363,0.233,0.759,0.233,1.184v0.018c0,0.424-0.078,0.821-0.233,1.187
			c-0.153,0.367-0.374,0.686-0.658,0.956c-0.281,0.269-0.622,0.481-1.015,0.635c-0.391,0.155-0.824,0.234-1.293,0.234h-2.354V8.095z
			 M126.967,12.92c0.268,0,0.514-0.042,0.739-0.13c0.226-0.084,0.414-0.208,0.57-0.369c0.157-0.161,0.28-0.351,0.371-0.568
			c0.087-0.216,0.134-0.461,0.134-0.729v-0.018c0-0.264-0.047-0.508-0.134-0.731c-0.091-0.225-0.214-0.415-0.371-0.576
			c-0.156-0.162-0.346-0.286-0.57-0.375c-0.227-0.089-0.473-0.133-0.739-0.133h-1.022v3.629L126.967,12.92L126.967,12.92z"/>
		<path fill="#010101" d="M137.159,8.095h4.532v1.18h-3.224v1.221h2.838v1.178h-2.838v1.265h3.27v1.181h-4.578V8.095L137.159,8.095z
			"/>
		<path fill="#010101" d="M148.738,8.095h2.754c0.763,0,1.347,0.204,1.754,0.61c0.346,0.344,0.517,0.804,0.517,1.377v0.017
			c0,0.487-0.119,0.884-0.356,1.191c-0.239,0.307-0.55,0.53-0.932,0.675l1.47,2.152h-1.546l-1.294-1.929h-0.016h-1.025v1.929h-1.323
			V8.095H148.738z M151.406,11.02c0.327,0,0.579-0.078,0.754-0.231c0.175-0.155,0.261-0.362,0.261-0.619v-0.019
			c0-0.286-0.092-0.502-0.273-0.644c-0.186-0.146-0.438-0.215-0.767-0.215h-1.317v1.729L151.406,11.02L151.406,11.02z"/>
		<path fill="#010101" d="M162.84,8.051h1.222l2.579,6.066h-1.383l-0.551-1.352h-2.547l-0.551,1.352h-1.353L162.84,8.051z
			 M164.232,11.595l-0.802-1.951l-0.798,1.951H164.232z"/>
		<path fill="#010101" d="M173.385,8.095h1.326v4.826h3.003v1.197h-4.329V8.095L173.385,8.095z"/>
	</g>
	<g>
		<path fill="#FEDC00" d="M177.872,50.168c0,0.899-0.737,1.636-1.642,1.636H7.266c-0.903,0-1.64-0.736-1.64-1.636V19.357
			c0-0.901,0.736-1.638,1.64-1.638H176.23c0.903,0,1.642,0.736,1.642,1.638V50.168z"/>
		<g>
			<g>
				
					<linearGradient id="SVGID_1_" gradientUnits="userSpaceOnUse" x1="6.0654" y1="18.6577" x2="32.2713" y2="51.0193" gradientTransform="matrix(1 0 0 -1 -0.0552 69.9893)">
					<stop  offset="0" style="stop-color:#1E4F27"/>
					<stop  offset="0.2268" style="stop-color:#266533"/>
					<stop  offset="0.5738" style="stop-color:#2D8641"/>
					<stop  offset="0.8431" style="stop-color:#2E9A47"/>
					<stop  offset="1" style="stop-color:#2FA549"/>
				</linearGradient>
				<path id="SVGID_545_" fill="url(#SVGID_1_)" d="M16.698,38.131h5.745c2.482,0,3.701,1.022,3.701,2.482v0.098
					c0,1.459-1.267,2.484-3.75,2.484h-5.696V38.131L16.698,38.131z M16.698,26.35h4.917c2.436,0,3.651,0.828,3.651,2.338v0.097
					c0,1.509-1.167,2.339-3.603,2.339h-4.966V26.35z M8.588,17.719l-0.004,0.007H7.146c-0.847,0-1.541,0.692-1.541,1.54v31.005
					c0,0.848,0.694,1.54,1.541,1.54h17.352l-0.001-0.007h0.001c8.62,0,13.102-3.993,13.102-9.445V42.26
					c0-4.676-2.827-7.012-7.208-8.277c3.649-1.266,6.084-3.75,6.084-7.79v-0.099c0-2.338-0.875-4.091-2.093-5.308
					c-1.995-1.997-4.966-3.067-9.689-3.067H8.588z"/>
			</g>
		</g>
		<g>
			<g>
				
					<linearGradient id="SVGID_2_" gradientUnits="userSpaceOnUse" x1="41.8135" y1="16.2964" x2="65.2607" y2="49.7824" gradientTransform="matrix(1 0 0 -1 -0.0552 69.9893)">
					<stop  offset="0" style="stop-color:#1E4F27"/>
					<stop  offset="0.2268" style="stop-color:#266533"/>
					<stop  offset="0.5738" style="stop-color:#2D8641"/>
					<stop  offset="0.8431" style="stop-color:#2E9A47"/>
					<stop  offset="1" style="stop-color:#2FA549"/>
				</linearGradient>
				<path id="SVGID_548_" fill="url(#SVGID_2_)" d="M49.411,27.264h4.968c2.628,0,4.334,1.072,4.334,3.262v0.1
					c0,2.093-1.656,3.311-4.385,3.311h-4.917V27.264L49.411,27.264z M41.14,17.719l-0.001,0.007h-1.584
					c-0.848,0-1.539,0.692-1.539,1.54v31.005c0,0.848,0.691,1.54,1.539,1.54h8.313c0.849,0,1.54-0.692,1.54-1.54V43.61
					c0-0.846,0.524-1.538,1.168-1.538h1.218c0.027,0,0.43,0.577,0.896,1.285l4.732,7.167c0.466,0.708,1.541,1.286,2.387,1.286h9.921
					c0.054,0,0.106-0.003,0.155-0.007h1.384l-7.934-11.588c4.138-1.998,6.719-5.455,6.719-10.421v-0.098
					c0-3.504-1.071-6.037-3.117-8.084c-2.386-2.385-6.232-3.895-12.27-3.895L41.14,17.719L41.14,17.719z"/>
			</g>
		</g>
		<g>
			<g>
				
					<linearGradient id="SVGID_3_" gradientUnits="userSpaceOnUse" x1="137.459" y1="18.5112" x2="148.3165" y2="51.9273" gradientTransform="matrix(1 0 0 -1 -0.0552 69.9893)">
					<stop  offset="0" style="stop-color:#1E4F27"/>
					<stop  offset="0.2268" style="stop-color:#266533"/>
					<stop  offset="0.5738" style="stop-color:#2D8641"/>
					<stop  offset="0.8431" style="stop-color:#2E9A47"/>
					<stop  offset="1" style="stop-color:#2FA549"/>
				</linearGradient>
				<path id="SVGID_551_" fill="url(#SVGID_3_)" d="M138.675,17.727c-0.846,0-1.539,0.692-1.539,1.54v31.005
					c0,0.848,0.693,1.54,1.539,1.54h8.313c0.849,0,1.541-0.692,1.541-1.54V19.267c0-0.847-0.692-1.54-1.541-1.54H138.675z"/>
			</g>
		</g>
		<g>
			<g>
				
					<linearGradient id="SVGID_4_" gradientUnits="userSpaceOnUse" x1="152.6895" y1="17.4678" x2="170.9945" y2="45.6549" gradientTransform="matrix(1 0 0 -1 -0.0552 69.9893)">
					<stop  offset="0" style="stop-color:#1E4F27"/>
					<stop  offset="0.2268" style="stop-color:#266533"/>
					<stop  offset="0.5738" style="stop-color:#2D8641"/>
					<stop  offset="0.8431" style="stop-color:#2E9A47"/>
					<stop  offset="1" style="stop-color:#2FA549"/>
				</linearGradient>
				<path id="SVGID_554_" fill="url(#SVGID_4_)" d="M151.997,17.727c-0.851,0-1.539,0.692-1.539,1.54v31.005
					c0,0.848,0.688,1.54,1.539,1.54h24.334c0.848,0,1.537-0.692,1.537-1.54v-6.661c0-0.846-0.689-1.538-1.537-1.538H163.39
					c-0.846,0-1.537-0.693-1.537-1.541V19.266c0-0.847-0.694-1.54-1.543-1.54L151.997,17.727L151.997,17.727z"/>
			</g>
		</g>
		<g>
			<g>
				
					<linearGradient id="SVGID_5_" gradientUnits="userSpaceOnUse" x1="110.4502" y1="18.7124" x2="130.7574" y2="51.2107" gradientTransform="matrix(1 0 0 -1 -0.0552 69.9893)">
					<stop  offset="0" style="stop-color:#1E4F27"/>
					<stop  offset="0.2268" style="stop-color:#266533"/>
					<stop  offset="0.5738" style="stop-color:#2D8641"/>
					<stop  offset="0.8431" style="stop-color:#2E9A47"/>
					<stop  offset="1" style="stop-color:#2FA549"/>
				</linearGradient>
				<path id="SVGID_557_" fill="url(#SVGID_5_)" d="M114.566,17.715c-5.987,1.532-9.179,5.732-9.179,10.862v0.105
					c0,7.206,6.719,9.398,14.364,10.953c0.501,0.102,0.935,0.194,1.313,0.274c2.602,0.599,3.409,1.114,3.409,1.959v0.098
					c0,0.924-0.876,1.459-2.922,1.459c-0.148,0-0.298-0.004-0.449-0.006c-0.123-0.004-0.248-0.006-0.369-0.014
					c-0.074-0.002-0.147-0.006-0.224-0.01c-0.265-0.016-0.527-0.03-0.787-0.055c-0.007,0-0.013,0-0.021-0.001
					c-0.262-0.024-0.518-0.052-0.768-0.084c-2.619-0.339-5.271-1.211-7.749-2.744c-0.005-0.006-0.015-0.008-0.026-0.016
					c-0.049-0.027-0.1-0.061-0.146-0.092c-0.836-0.55-1.954-0.312-2.499,0.334l-2.815,3.37l-2.163,2.579
					c0,0.002,0,0.002,0.002,0.003l-0.002,0.001c2.901,2.549,6.661,4.257,10.902,5.111h12.098c5.927-1.443,9.524-5.324,9.524-10.91
					v-0.099c0-6.865-5.84-9.398-14.558-11.003c-3.604-0.682-4.527-1.267-4.527-2.192v-0.088c0-0.829,0.777-1.412,2.48-1.412
					c3.166,0,6.975,1.224,9.079,2.608c0.967,0.635,1.552,0.188,2.047-0.499l4.65-6.444c-0.002-0.001-0.004-0.003-0.004-0.003
					l0.004-0.005c-2.499-1.974-5.372-3.323-8.811-4.045h-11.856V17.715z"/>
			</g>
		</g>
		<g>
			<g>
				
					<linearGradient id="SVGID_6_" gradientUnits="userSpaceOnUse" x1="74.9746" y1="12.8745" x2="102.542" y2="43.9462" gradientTransform="matrix(1 0 0 -1 -0.0552 69.9893)">
					<stop  offset="0" style="stop-color:#1E4F27"/>
					<stop  offset="0.2268" style="stop-color:#266533"/>
					<stop  offset="0.5738" style="stop-color:#2D8641"/>
					<stop  offset="0.8431" style="stop-color:#2E9A47"/>
					<stop  offset="1" style="stop-color:#2FA549"/>
				</linearGradient>
				<path id="SVGID_560_" fill="url(#SVGID_6_)" d="M82.854,17.715c-0.525,0.255-0.991,0.693-1.197,1.188L68.482,50.392
					c-0.328,0.781,0.099,1.42,0.944,1.42h9.095c0.848,0,1.787-0.648,2.09-1.438L81.47,48c0.301-0.791,1.244-1.439,2.089-1.439h8.402
					c0.845,0,1.793,0.646,2.102,1.432l0.919,2.388c0.312,0.79,1.256,1.433,2.104,1.433h9.289c0.846,0,1.27-0.639,0.943-1.42
					L94.144,18.903c-0.208-0.493-0.67-0.932-1.194-1.188H82.854L82.854,17.715z"/>
			</g>
		</g>
		<g>
			<g>
				<g>
					<polygon fill="#AAB0B2" points="88.068,42.559 70.646,32.673 87.647,43.869 105.068,32.667 					"/>
				</g>
			</g>
		</g>
		<g>
			<g>
				
					<linearGradient id="SVGID_7_" gradientUnits="userSpaceOnUse" x1="70.6743" y1="37.3228" x2="105.124" y2="37.3228" gradientTransform="matrix(1 0 0 -1 -0.0552 69.9893)">
					<stop  offset="0" style="stop-color:#F47A20"/>
					<stop  offset="1" style="stop-color:#FCB918"/>
				</linearGradient>
				<polygon id="SVGID_563_" fill="url(#SVGID_7_)" points="70.619,32.667 87.845,43.01 105.068,32.667 87.845,22.322 				"/>
			</g>
		</g>
		<g>
			<g>
				
					<linearGradient id="SVGID_8_" gradientUnits="userSpaceOnUse" x1="81.7046" y1="37.3228" x2="94.0967" y2="37.3228" gradientTransform="matrix(1 0 0 -1 -0.0552 69.9893)">
					<stop  offset="0" style="stop-color:#1F4483"/>
					<stop  offset="0.0061" style="stop-color:#1F4483"/>
					<stop  offset="1" style="stop-color:#2576B4"/>
				</linearGradient>
				<path id="SVGID_566_" fill="url(#SVGID_8_)" d="M81.649,32.667c0,3.42,2.774,6.194,6.195,6.194c3.422,0,6.196-2.773,6.196-6.194
					c0-3.426-2.774-6.195-6.196-6.195C84.424,26.47,81.649,29.241,81.649,32.667"/>
			</g>
		</g>
		<g>
			<path fill="#FFFFFF" d="M81.928,30.822c-0.114,0.371-0.196,0.76-0.24,1.158c3.901-1.12,8.619-0.164,12.093,2.461
				c0.111-0.37,0.189-0.753,0.229-1.145C90.479,30.815,85.876,29.879,81.928,30.822"/>
		</g>
	</g>
</g>
</svg>
