<?xml version="1.0" standalone="no"?>
<!DOCTYPE svg PUBLIC "-//W3C//DTD SVG 1.1//EN" "http://www.w3.org/Graphics/SVG/1.1/DTD/svg11.dtd" >
<svg xmlns="http://www.w3.org/2000/svg">
<metadata></metadata>
<defs>
<font id="teuton_24_proregular" horiz-adv-x="956" >
<font-face units-per-em="2048" ascent="1638" descent="-410" />
<missing-glyph horiz-adv-x="538" />
<glyph horiz-adv-x="2048" />
<glyph horiz-adv-x="2048" />
<glyph unicode="&#xd;" horiz-adv-x="2048" />
<glyph unicode=" "  horiz-adv-x="538" />
<glyph unicode="&#x09;" horiz-adv-x="538" />
<glyph unicode="&#xa0;" horiz-adv-x="538" />
<glyph unicode="!" horiz-adv-x="428" d="M117 0v205h198v-205h-198zM117 1434h196l-4 -1100h-188z" />
<glyph unicode="&#x22;" horiz-adv-x="649" d="M123 1434h158l-17 -361h-125zM369 1434h159l-16 -361h-127z" />
<glyph unicode="#" horiz-adv-x="1091" d="M51 340v156h137l66 372h-115v156h144l73 410h185l-74 -410h281l73 410h185l-74 -410h106v-156h-135l-65 -372h112v-156h-143l-59 -340h-183l60 340h-283l-59 -340h-183l60 340h-109zM373 496h280l66 372h-281z" />
<glyph unicode="$" horiz-adv-x="849" d="M111 209v184q30 -18 88 -18h303q21 0 36 16.5t15 40.5v90q0 45 -31 62l-295 186q-63 28 -89.5 75t-26.5 136v68q0 92 43.5 138t121.5 46h78v201h162v-201h225v-184q-30 18 -88 18h-303q-21 0 -36 -16t-15 -39v-37q0 -36 31 -55l305 -193q58 -27 82 -71.5t24 -120.5v-158 q0 -81 -42 -124.5t-115 -43.5h-68v-209h-162v209h-243z" />
<glyph unicode="%" horiz-adv-x="1302" d="M92 932v303q0 87 48.5 143t150.5 56h76q97 0 145.5 -55.5t48.5 -143.5v-301q0 -100 -51 -153.5t-152 -53.5h-75q-89 0 -140 52.5t-51 152.5zM201 0l714 1434h187l-715 -1434h-186zM233 950q0 -40 19.5 -61t54.5 -21h41q74 0 74 82v262q0 82 -74 82h-41q-74 0 -74 -82 v-262zM739 205v303q0 87 48.5 143t150.5 56h76q97 0 145.5 -55.5t48.5 -143.5v-301q0 -100 -50.5 -153.5t-151.5 -53.5h-76q-89 0 -140 52.5t-51 152.5zM881 223q0 -82 73 -82h41q74 0 74 82v262q0 82 -74 82h-41q-73 0 -73 -82v-262z" />
<glyph unicode="&#x26;" horiz-adv-x="1374" d="M141 229v410q0 99 56 152t161 53q-110 2 -163.5 51.5t-53.5 165.5v143q0 230 221 230h533v-189q-29 10 -61 10h-426q-66 0 -66 -77v-181q0 -37 17.5 -58t48.5 -21h460l193 153v-153h221v-166h-221v-516q0 -64 55 -64h78q58 0 88 18v-190h-209q-107 0 -156 56t-49 153v543 h-460q-31 0 -48.5 -21t-17.5 -57v-424q0 -78 68 -78h276q34 0 59 10v-182h-383q-221 0 -221 229z" />
<glyph unicode="'" horiz-adv-x="417" d="M123 1434h158l-17 -340h-125z" />
<glyph unicode="(" horiz-adv-x="651" d="M145 -55v1116q0 209 95 291t331 82v-174q-75 0 -119.5 -9t-68.5 -32.5t-31.5 -54t-7.5 -83.5v-1138q0 -70 16 -107t65.5 -56.5t145.5 -19.5v-170q-232 0 -329 80t-97 275z" />
<glyph unicode=")" horiz-adv-x="651" d="M82 -240q96 0 145.5 19.5t65.5 56.5t16 107v1138q0 53 -7.5 83.5t-31.5 54t-68.5 32.5t-119.5 9v174q236 0 331 -82t95 -291v-1116q0 -195 -97 -275t-329 -80v170z" />
<glyph unicode="*" horiz-adv-x="894" d="M115 1141l47 137l231 -94l-18 250h145l-18 -250l229 96l47 -139l-243 -60l161 -190l-118 -86l-132 213l-129 -213l-118 86l161 190z" />
<glyph unicode="+" horiz-adv-x="960" d="M117 514v156h286v286h156v-286h285v-156h-285v-285h-156v285h-286z" />
<glyph unicode="," horiz-adv-x="442" d="M61 -303l78 334v174h185v-180l-99 -328h-164z" />
<glyph unicode="-" horiz-adv-x="624" d="M111 512v162h401v-162h-401z" />
<glyph unicode="." horiz-adv-x="417" d="M111 0v205h198v-205h-198z" />
<glyph unicode="/" horiz-adv-x="927" d="M8 -410l705 1844h213l-703 -1844h-215z" />
<glyph unicode="0" horiz-adv-x="1064" d="M150 229v975q0 107 54 168.5t167 61.5h323q114 0 169 -61.5t55 -168.5v-975q0 -106 -55 -167.5t-169 -61.5h-323q-114 0 -167.5 61t-53.5 168zM348 266q0 -86 76 -86h217q78 0 78 86v901q0 42 -20 64t-56 22h-219q-76 0 -76 -86v-901z" />
<glyph unicode="1" horiz-adv-x="1064" d="M190 979v209l476 293v-1301h233v-180h-661v180h235v985z" />
<glyph unicode="2" horiz-adv-x="1064" d="M164 0v397q0 79 25.5 130.5t82.5 99.5l416 364q39 33 39 88v88q0 86 -78 86h-375q-58 0 -88 -18v199h519q113 0 167 -61t54 -169v-121q0 -80 -25.5 -133.5t-97.5 -113.5l-402 -349q-39 -33 -39 -88v-219h467q55 0 86 19v-199h-751z" />
<glyph unicode="3" horiz-adv-x="1064" d="M137 0v190q25 -10 60 -10h444q37 0 57.5 22.5t20.5 63.5v307q0 97 -80 97h-338q-31 0 -61 -6v178q30 -6 61 -6h338q80 0 80 96v235q0 42 -20 64t-56 22h-444q-33 0 -62 -10v191h557q114 0 169 -61.5t55 -168.5v-219q0 -113 -51 -171.5t-162 -61.5q112 -4 162.5 -63.5 t50.5 -176.5v-283q0 -106 -55 -167.5t-169 -61.5h-557z" />
<glyph unicode="4" horiz-adv-x="1064" d="M90 360v138l504 936h211v-904h143q25 0 60 7v-183q-30 6 -60 6h-143v-360h-189v360h-526zM264 530h352v637z" />
<glyph unicode="5" horiz-adv-x="1064" d="M150 0v199q27 -19 83 -19h410q36 0 56 22t20 64v320q0 41 -20 62.5t-56 21.5h-493v764h743v-191q-29 10 -62 10h-483v-417h346q114 0 169 -61.5t55 -166.5v-381q0 -107 -53 -167t-167 -60h-548z" />
<glyph unicode="6" horiz-adv-x="1064" d="M150 229v975q0 107 54 168.5t167 61.5h536v-191q-29 10 -61 10h-422q-76 0 -76 -86v-331h346q114 0 169 -61.5t55 -166.5v-379q0 -106 -55 -167.5t-169 -61.5h-323q-114 0 -167.5 61t-53.5 168zM348 266q0 -86 76 -86h219q76 0 76 86v320q0 41 -20 62.5t-56 21.5h-295 v-404z" />
<glyph unicode="7" horiz-adv-x="1064" d="M123 1253v181h829v-150l-477 -1284h-215l490 1264h-539q-56 0 -88 -11z" />
<glyph unicode="8" horiz-adv-x="1064" d="M150 229v283q0 117 50 176.5t162 63.5q-111 3 -161.5 61.5t-50.5 171.5v219q0 107 54 168.5t167 61.5h323q114 0 169 -61.5t55 -168.5v-219q0 -113 -51 -171.5t-162 -61.5q112 -4 162.5 -63.5t50.5 -176.5v-283q0 -106 -55 -167.5t-169 -61.5h-323q-114 0 -167.5 61 t-53.5 168zM344 256q0 -41 20.5 -62.5t57.5 -21.5h221q78 0 78 84v317q0 97 -80 97h-217q-80 0 -80 -97v-317zM344 932q0 -96 80 -96h217q80 0 80 96v246q0 86 -76 86h-225q-36 0 -56 -22t-20 -64v-246z" />
<glyph unicode="9" horiz-adv-x="1064" d="M145 868v336q0 107 54 168.5t168 61.5h323q114 0 168.5 -61.5t54.5 -168.5v-975q0 -107 -54.5 -168t-168.5 -61h-534v190q29 -10 61 -10h420q78 0 78 86v373h-348q-114 0 -168 61t-54 168zM344 891q0 -86 76 -86h295v362q0 42 -20 64t-56 22h-221q-74 0 -74 -86v-276z " />
<glyph unicode=":" horiz-adv-x="428" d="M117 0v205h198v-205h-198zM117 819v205h198v-205h-198z" />
<glyph unicode=";" horiz-adv-x="442" d="M61 -303l78 334v174h185v-180l-99 -328h-164zM131 819v205h199v-205h-199z" />
<glyph unicode="&#x3c;" horiz-adv-x="960" d="M117 602v133l727 383v-157l-506 -289l506 -287v-170z" />
<glyph unicode="=" horiz-adv-x="960" d="M117 313v156h727v-156h-727zM117 760v155h727v-155h-727z" />
<glyph unicode="&#x3e;" horiz-adv-x="960" d="M117 217v158l506 287l-506 288v170l727 -387v-133z" />
<glyph unicode="?" horiz-adv-x="839" d="M94 1245v189h502q89 0 135.5 -51.5t46.5 -153.5v-72q0 -74 -20.5 -122.5t-75.5 -106.5l-158 -156q-37 -34 -37 -90l-6 -348h-186l-6 342q-3 65 19.5 115.5t74.5 103.5l160 154q37 34 37 88v47q0 38 -20 59t-54 21h-326q-55 0 -86 -19zM289 0v205h198v-205h-198z" />
<glyph unicode="@" horiz-adv-x="1556" d="M160 10v971q0 105 55 166t170 61h487q105 0 162.5 -58t57.5 -177v-799h-416q-84 0 -129 48.5t-45 129.5v293q0 82 45 131t129 49h244v138q0 84 -76 84h-441q-75 0 -75 -84v-926q0 -86 75 -86h791q76 0 76 86v788h164v-817q0 -106 -57 -166.5t-167 -60.5h-829 q-221 0 -221 229zM666 414q0 -86 77 -86h177v366h-179q-75 0 -75 -84v-196z" />
<glyph unicode="A" horiz-adv-x="1026" d="M6 0l385 1434h252l377 -1434h-225l-84 336h-406l-82 -336h-217zM330 477h358l-178 719z" />
<glyph unicode="B" horiz-adv-x="1128" d="M139 0v1434h627q114 0 168.5 -61.5t54.5 -168.5v-219q0 -113 -51 -171.5t-162 -61.5q112 -4 162.5 -63.5t50.5 -174.5v-285q0 -107 -54.5 -168t-168.5 -61h-627zM338 172h375q37 0 57.5 21.5t20.5 62.5v326q0 96 -80 96h-373v-506zM338 827h373q80 0 80 97v254 q0 42 -20 64t-56 22h-377v-437z" />
<glyph unicode="C" horiz-adv-x="962" d="M143 229v975q0 106 55 168t167 62h557v-199q-30 18 -86 18h-416q-78 0 -78 -86v-901q0 -42 20 -64t56 -22h418q55 0 86 19v-199h-557q-113 0 -167.5 61.5t-54.5 167.5z" />
<glyph unicode="D" horiz-adv-x="1136" d="M143 0v1434h629q112 0 166.5 -61.5t54.5 -168.5v-975q0 -106 -54.5 -167.5t-166.5 -61.5h-629zM342 180h375q78 0 78 86v901q0 42 -20 64t-56 22h-377v-1073z" />
<glyph unicode="E" horiz-adv-x="974" d="M143 0v1434h752v-181q-32 11 -61 11h-492v-428h379q29 0 59 6v-178q-30 6 -59 6h-379v-500h526q35 0 60 10v-180h-785z" />
<glyph unicode="F" horiz-adv-x="907" d="M143 0v1434h752v-181q-32 11 -61 11h-492v-428h379q29 0 59 6v-178q-30 6 -59 6h-379v-670h-199z" />
<glyph unicode="G" horiz-adv-x="1130" d="M143 229v975q0 106 55 168t167 62h591v-199q-30 18 -88 18h-448q-78 0 -78 -86v-901q0 -42 20 -64t56 -22h299q78 0 78 86v404h-179q-29 0 -59 -6v178q30 -6 59 -6h377v-607q0 -106 -54.5 -167.5t-166.5 -61.5h-407q-113 0 -167.5 61.5t-54.5 167.5z" />
<glyph unicode="H" horiz-adv-x="1136" d="M143 0v1434h199v-598h453v598h198v-1434h-198v670h-453v-670h-199z" />
<glyph unicode="I" horiz-adv-x="485" d="M143 0v1434h199v-1434h-199z" />
<glyph unicode="J" horiz-adv-x="679" d="M31 0v190q25 -10 59 -10h172q76 0 76 86v1168h199v-1205q0 -107 -54 -168t-168 -61h-284z" />
<glyph unicode="K" horiz-adv-x="1101" d="M143 0v1434h201v-598h156q67 0 102 90l209 508h221l-244 -570q-13 -35 -43.5 -64.5t-66.5 -43.5q37 -11 68.5 -42.5t50.5 -78.5l264 -635h-230l-229 580q-19 50 -40.5 70t-59.5 20h-158v-670h-201z" />
<glyph unicode="L" horiz-adv-x="925" d="M143 0v1434h199v-1264h512q34 0 59 10v-180h-770z" />
<glyph unicode="M" horiz-adv-x="1361" d="M143 0v1434h301l242 -867l246 867h287v-1434h-187v1200l-248 -848h-206l-246 848v-1200h-189z" />
<glyph unicode="N" horiz-adv-x="1146" d="M145 0v1434h211l461 -1074v1074h184v-1434h-210l-461 1073v-1073h-185z" />
<glyph unicode="O" horiz-adv-x="1136" d="M143 229v975q0 106 55 168t167 62h407q112 0 166.5 -61.5t54.5 -168.5v-975q0 -106 -54.5 -167.5t-166.5 -61.5h-407q-113 0 -167.5 61.5t-54.5 167.5zM342 266q0 -42 20 -64t56 -22h299q78 0 78 86v901q0 42 -20 64t-56 22h-299q-78 0 -78 -86v-901z" />
<glyph unicode="P" horiz-adv-x="1075" d="M143 0v1434h629q112 0 166.5 -61.5t54.5 -168.5v-368q0 -107 -53 -167.5t-166 -60.5h-432v-608h-199zM342 786h377q36 0 56 22.5t20 63.5v295q0 42 -20 64t-56 22h-377v-467z" />
<glyph unicode="Q" horiz-adv-x="1136" d="M143 229v975q0 106 55 168t167 62h407q112 0 166.5 -61.5t54.5 -168.5v-975q0 -100 -55 -164.5t-152 -64.5h-47l154 -410h-166l-125 410h-237q-113 0 -167.5 61.5t-54.5 167.5zM342 266q0 -42 20 -64t56 -22h137l-59 174h108l64 -174h53q35 0 54.5 23t19.5 63v901 q0 42 -20 64t-56 22h-299q-78 0 -78 -86v-901z" />
<glyph unicode="R" horiz-adv-x="1155" d="M143 0v1434h629q112 0 166.5 -61.5t54.5 -168.5v-301q0 -63 -16.5 -108.5t-44.5 -69.5t-57 -34.5t-60 -10.5h-14l262 -680h-217l-232 662h-272v-662h-199zM342 836h377q36 0 56 22t20 64v245q0 42 -20 64t-56 22h-377v-417z" />
<glyph unicode="S" horiz-adv-x="1005" d="M104 0v199q31 -19 86 -19h424q78 0 78 86v123q0 58 -37 88l-424 346q-71 56 -96.5 112t-25.5 138v131q0 108 54 169t167 61h528v-199q-30 18 -88 18h-389q-35 0 -54.5 -22t-19.5 -64v-94q0 -57 39 -90l424 -344q70 -58 95.5 -113.5t25.5 -136.5v-160q0 -108 -53.5 -168.5 t-167.5 -60.5h-566z" />
<glyph unicode="T" horiz-adv-x="950" d="M51 1243v191h848v-191q-29 10 -61 10h-263v-1253h-198v1253h-264q-33 0 -62 -10z" />
<glyph unicode="U" horiz-adv-x="1136" d="M143 229v1205h199v-1168q0 -42 20 -64t56 -22h299q78 0 78 86v1168h198v-1205q0 -106 -54.5 -167.5t-166.5 -61.5h-407q-113 0 -167.5 61.5t-54.5 167.5z" />
<glyph unicode="V" horiz-adv-x="1026" d="M6 1434h213l299 -1196l301 1196h201l-383 -1434h-252z" />
<glyph unicode="W" horiz-adv-x="1560" d="M23 1434h206l240 -1162l223 1162h187l217 -1162l243 1162h197l-324 -1434h-233l-199 1069l-205 -1069h-233z" />
<glyph unicode="X" horiz-adv-x="1083" d="M10 0l408 752l-365 682h240l254 -543l254 543h229l-360 -676l407 -758h-239l-299 600l-301 -600h-228z" />
<glyph unicode="Y" horiz-adv-x="1067" d="M-6 1434h239l308 -615l303 615h229l-434 -826v-608h-199v608z" />
<glyph unicode="Z" horiz-adv-x="1007" d="M84 0v78l590 1175h-508q-41 0 -66 -10v191h834v-70l-594 -1194h520q41 0 66 10v-180h-842z" />
<glyph unicode="[" horiz-adv-x="831" d="M164 -410v1844h450v-181q-32 11 -61 11h-191v-1504h193q31 0 59 11v-181h-450z" />
<glyph unicode="\" horiz-adv-x="897" d="M0 1434h205l692 -1434h-205z" />
<glyph unicode="]" horiz-adv-x="780" d="M127 -229q28 -11 59 -11h193v1504h-191q-29 0 -61 -11v181h451v-1844h-451v181z" />
<glyph unicode="^" horiz-adv-x="768" d="M20 872l308 562h110l310 -562h-138l-231 377l-229 -377h-130z" />
<glyph unicode="_" horiz-adv-x="1484" d="M123 -139h1239v-160h-1239v160z" />
<glyph unicode="`" horiz-adv-x="731" d="M164 1434h184l219 -297h-147z" />
<glyph unicode="a" horiz-adv-x="946" d="M117 229v185q0 106 54.5 166.5t168.5 60.5h291v137q0 84 -76 84h-317q-55 0 -86 -16v178h444q115 0 169 -60.5t54 -166.5v-797h-479q-113 0 -168 61.5t-55 167.5zM305 248q0 -88 78 -88h248v344h-246q-80 0 -80 -86v-170z" />
<glyph unicode="b" d="M127 0v1434h188v-410h293q112 0 166.5 -61.5t54.5 -167.5v-566q0 -106 -54.5 -167.5t-166.5 -61.5h-481zM315 162h250q76 0 76 84v528q0 86 -76 86h-250v-698z" />
<glyph unicode="c" horiz-adv-x="776" d="M127 229v566q0 107 54.5 168t168.5 61h375v-182q-31 16 -88 16h-238q-84 0 -84 -90v-514q0 -92 84 -92h238q58 0 88 18v-180h-377q-112 0 -166.5 61.5t-54.5 167.5z" />
<glyph unicode="d" d="M127 231v564q0 107 54.5 168t168.5 61h291v410h188v-1434h-481q-113 0 -167 61.5t-54 169.5zM315 246q0 -84 76 -84h250v698h-250q-76 0 -76 -86v-528z" />
<glyph unicode="e" horiz-adv-x="933" d="M127 229v566q0 107 54.5 168t168.5 61h248q112 0 166.5 -61.5t54.5 -167.5v-293h-504v-258q0 -39 20 -60.5t56 -21.5h326q57 0 88 16v-178h-455q-115 0 -169 61t-54 168zM315 641h328v139q0 86 -78 86h-174q-37 0 -56.5 -22.5t-19.5 -63.5v-139z" />
<glyph unicode="f" horiz-adv-x="585" d="M127 0v1204q0 107 54.5 168.5t168.5 61.5h230v-183q-31 19 -88 19h-93q-84 0 -84 -92v-154h265v-164h-265v-860h-188z" />
<glyph unicode="g" d="M127 229v566q0 108 54.5 168.5t168.5 60.5h479v-1204q0 -107 -54.5 -168.5t-166.5 -61.5h-454v179q33 -17 86 -17h319q82 0 82 84v164h-293q-113 0 -167 60.5t-54 168.5zM315 248q0 -86 78 -86h248v698h-248q-78 0 -78 -88v-524z" />
<glyph unicode="h" d="M127 0v1434h188v-410h291q115 0 169 -61t54 -168v-795h-188v774q0 86 -76 86h-250v-860h-188z" />
<glyph unicode="i" horiz-adv-x="442" d="M127 0v1024h188v-1024h-188zM127 1153v201h188v-201h-188z" />
<glyph unicode="j" horiz-adv-x="442" d="M51 -410q34 83 55 193t21 217v1024h188v-1024q0 -212 -65 -410h-199zM127 1153v201h188v-201h-188z" />
<glyph unicode="k" horiz-adv-x="927" d="M127 0v1434h188v-793h127q51 0 78 61l131 322h201l-156 -365q-12 -30 -35 -55.5t-47 -34.5q22 -11 45 -38t33 -56l187 -475h-215l-144 416q-22 65 -76 65h-129v-481h-188z" />
<glyph unicode="l" horiz-adv-x="442" d="M127 0v1434h188v-1434h-188z" />
<glyph unicode="m" horiz-adv-x="1386" d="M127 0v1024h356q111 0 161 -39t58 -113q8 69 56.5 110.5t128.5 41.5h149q110 0 167 -60t57 -167v-797h-189v774q0 86 -76 86h-129q-75 0 -75 -86v-774h-189v774q0 86 -76 86h-211v-860h-188z" />
<glyph unicode="n" d="M127 0v1024h481q112 0 166.5 -61.5t54.5 -167.5v-795h-188v774q0 86 -76 86h-250v-860h-188z" />
<glyph unicode="o" d="M127 229v566q0 107 54.5 168t168.5 61h258q112 0 166.5 -61.5t54.5 -167.5v-566q0 -106 -54.5 -167.5t-166.5 -61.5h-260q-112 0 -166.5 61.5t-54.5 167.5zM315 246q0 -41 20 -62.5t56 -21.5h174q76 0 76 84v528q0 86 -76 86h-172q-78 0 -78 -86v-528z" />
<glyph unicode="p" d="M127 -410v1434h481q112 0 166.5 -62t54.5 -167v-566q0 -108 -55 -168.5t-166 -60.5h-293v-410h-188zM315 162h250q76 0 76 84v528q0 86 -76 86h-250v-698z" />
<glyph unicode="q" d="M127 229v566q0 108 54.5 168.5t168.5 60.5h479v-1434h-188v410h-293q-113 0 -167 60.5t-54 168.5zM315 246q0 -84 76 -84h250v698h-250q-76 0 -76 -86v-528z" />
<glyph unicode="r" horiz-adv-x="630" d="M127 0v1024h166v-117q9 54 48 85.5t103 31.5h166v-195q-31 19 -80 19h-102q-113 0 -113 -131v-717h-188z" />
<glyph unicode="s" horiz-adv-x="835" d="M100 0v180q30 -18 86 -18h299q33 0 52.5 21t19.5 59v34q0 37 -12 58.5t-43 40.5l-236 135q-93 53 -129.5 105t-36.5 145v35q0 108 56 168.5t166 60.5h387v-182q-30 18 -86 18h-271q-33 0 -52 -21t-19 -57v-22q0 -28 13.5 -48.5t47.5 -43.5l244 -138q84 -47 117.5 -95.5 t33.5 -139.5v-66q0 -112 -57 -170.5t-166 -58.5h-414z" />
<glyph unicode="t" horiz-adv-x="634" d="M127 229v983l188 101v-289h263v-164h-263v-604q0 -90 84 -90h90q58 0 89 16v-182h-230q-112 0 -166.5 61.5t-54.5 167.5z" />
<glyph unicode="u" d="M127 229v795h188v-778q0 -84 76 -84h250v862h188v-1024h-481q-112 0 -166.5 61.5t-54.5 167.5z" />
<glyph unicode="v" horiz-adv-x="851" d="M16 1024h213l203 -823l201 823h207l-301 -1024h-228z" />
<glyph unicode="w" horiz-adv-x="1339" d="M29 1024h213l178 -819l153 819h203l152 -819l180 819h205l-277 -1024h-223l-143 760l-146 -760h-225z" />
<glyph unicode="x" horiz-adv-x="888" d="M33 0l303 508l-303 516h219l194 -365l199 365h211l-303 -508l305 -516h-221l-195 362l-196 -362h-213z" />
<glyph unicode="y" horiz-adv-x="851" d="M16 1024h213l201 -836l203 836h207l-426 -1434h-215l141 410h-29z" />
<glyph unicode="z" horiz-adv-x="845" d="M68 0v80l460 782h-378q-41 0 -66 -10v172h694v-68l-463 -794h381q41 0 66 10v-172h-694z" />
<glyph unicode="{" horiz-adv-x="661" d="M41 481v127q49 0 82 32.5t33 88.5v332q0 209 95 291t331 82v-170q-97 0 -147 -20.5t-65.5 -59t-15.5 -113.5v-383q0 -46 -29 -85.5t-69 -55.5q40 -16 69 -55.5t29 -85.5v-449q0 -58 8 -93t32.5 -61t69.5 -36.5t118 -10.5v-166q-232 0 -329 80t-97 275v415q0 56 -33 88.5 t-82 32.5z" />
<glyph unicode="|" horiz-adv-x="475" d="M143 -410v1844h189v-1844h-189z" />
<glyph unicode="}" horiz-adv-x="661" d="M80 -244q73 0 117.5 10.5t69 36.5t32.5 61t8 93v449q0 46 29.5 85.5t69.5 55.5q-40 16 -69.5 55.5t-29.5 85.5v383q0 56 -8 89.5t-32 58.5t-68.5 35t-118.5 10v170q237 0 331.5 -81.5t94.5 -291.5v-332q0 -56 33 -88.5t82 -32.5v-127q-49 0 -82 -32.5t-33 -88.5v-415 q0 -195 -97 -275t-329 -80v166z" />
<glyph unicode="~" horiz-adv-x="976" d="M82 862v62q0 135 60 212.5t157 77.5q49 0 95 -19t81.5 -46t68 -54t66.5 -46t64 -19q54 0 75 33.5t21 142.5h125v-88q0 -264 -213 -264q-46 0 -91.5 18.5t-81.5 45.5t-69 54t-67.5 45.5t-65.5 18.5q-54 0 -75 -34t-21 -140h-129z" />
<glyph unicode="&#xa1;" horiz-adv-x="428" d="M117 819v205h198v-205h-198zM119 -410l4 1100h188l4 -1100h-196z" />
<glyph unicode="&#xa2;" horiz-adv-x="780" d="M94 438v568q0 109 56.5 168t130.5 59h73v201h162v-201h174v-182q-30 18 -86 18h-239q-40 0 -61 -23.5t-21 -66.5v-516q0 -90 82 -90h239q55 0 86 16v-180h-174v-209h-162v209h-73q-78 0 -132.5 60t-54.5 169z" />
<glyph unicode="&#xa3;" horiz-adv-x="942" d="M66 631v155h77v416q0 117 57 174.5t165 57.5h315v-199q-30 18 -86 18h-168q-41 0 -62.5 -23.5t-21.5 -66.5v-377h326v-155h-326v-457h494q55 0 86 19v-193h-779v631h-77z" />
<glyph unicode="&#xa4;" horiz-adv-x="1093" d="M31 0l192 307q-30 44 -30 109v590q0 75 32 118l-194 310h188l156 -252q30 10 65 10h215q43 0 70 -12l156 254h190l-203 -322q27 -44 27 -106v-588q0 -60 -27 -101l203 -317h-190l-156 254q-29 -16 -70 -16h-215q-38 0 -65 12l-156 -250h-188zM381 489q0 -83 78 -83h172 q76 0 76 83v449q0 84 -76 84h-172q-78 0 -78 -84v-449z" />
<glyph unicode="&#xa5;" horiz-adv-x="1067" d="M-14 1434h243l312 -615l307 615h233l-442 -826v-90h139v-141h-139v-377h-199v377h-143v141h143v90z" />
<glyph unicode="&#xa6;" horiz-adv-x="475" d="M143 350h189v-760h-189v760zM143 672v762h189v-762h-189z" />
<glyph unicode="&#xa7;" horiz-adv-x="921" d="M100 569v623q0 117 59 179.5t171 62.5h442v-183q-31 19 -86 19h-334q-33 0 -52 -21t-19 -57v-39q0 -28 13.5 -49.5t47.5 -48.5l365 -299q64 -53 90 -103t26 -139v-694q0 -230 -219 -230h-469v181q31 -19 88 -19h346q34 0 54 21t20 59v74q0 38 -12 62.5t-43 47.5l-355 295 q-74 61 -103.5 113.5t-29.5 144.5zM281 547q0 -73 65 -121l232 -180q41 -33 65 -82v356q0 87 -63 137l-234 179q-50 37 -65 84v-373z" />
<glyph unicode="&#xa8;" horiz-adv-x="784" d="M160 1188v184h145v-184h-145zM479 1188v184h148v-184h-148z" />
<glyph unicode="&#xa9;" horiz-adv-x="1388" d="M150 229v975q0 107 54 168.5t167 61.5h645q114 0 168.5 -61.5t54.5 -168.5v-975q0 -107 -54.5 -168t-168.5 -61h-645q-114 0 -167.5 61t-53.5 168zM295 217q0 -90 82 -90h635q80 0 80 90v1000q0 90 -80 90h-635q-82 0 -82 -90v-1000zM414 377v684q0 63 32.5 98t96.5 35 h440v-137q-21 12 -61 12h-304q-30 0 -46.5 -19t-16.5 -53v-557q0 -69 63 -69h304q44 0 61 12v-135h-446q-60 0 -91.5 35t-31.5 94z" />
<glyph unicode="&#xaa;" horiz-adv-x="946" d="M117 0v156h702v-156h-702zM117 639v184q0 106 54.5 167t168.5 61h291v137q0 84 -76 84h-317q-53 0 -86 -17v179h444q115 0 169 -61t54 -167v-796h-479q-113 0 -168 61.5t-55 167.5zM305 657q0 -88 78 -88h248v344h-246q-80 0 -80 -86v-170z" />
<glyph unicode="&#xab;" horiz-adv-x="1275" d="M82 526v154l561 416v-178l-377 -310l377 -307v-192zM631 526v154l563 416v-178l-379 -310l379 -307v-192z" />
<glyph unicode="&#xac;" horiz-adv-x="966" d="M117 512v160h727v-672h-193v512h-534z" />
<glyph unicode="&#xad;" horiz-adv-x="624" d="M111 512v162h401v-162h-401z" />
<glyph unicode="&#xae;" horiz-adv-x="1388" d="M150 229v975q0 107 54 168.5t167 61.5h645q114 0 168.5 -61.5t54.5 -168.5v-975q0 -107 -54.5 -168t-168.5 -61h-645q-114 0 -167.5 61t-53.5 168zM295 217q0 -90 82 -90h635q80 0 80 90v1000q0 90 -80 90h-635q-82 0 -82 -90v-1000zM414 248v946h436q58 0 90.5 -35 t32.5 -94v-252q0 -135 -115 -135h-14l182 -430h-143l-164 430h-170v-430h-135zM549 791h231q58 0 58 65v152q0 65 -58 65h-231v-282z" />
<glyph unicode="&#xaf;" horiz-adv-x="782" d="M164 1202v133h454v-133h-454z" />
<glyph unicode="&#xb0;" horiz-adv-x="690" d="M94 932v303q0 88 48 143.5t151 55.5h110q99 0 148 -55.5t49 -143.5v-301q0 -100 -52 -153.5t-153 -53.5h-112q-89 0 -139 52.5t-50 152.5zM238 952q0 -82 73 -82h72q35 0 54.5 21t19.5 61v258q0 40 -19.5 61t-54.5 21h-72q-73 0 -73 -82v-258z" />
<glyph unicode="&#xb1;" horiz-adv-x="960" d="M117 0v160h727v-160h-727zM117 600v156h286v286h156v-286h285v-156h-285v-285h-156v285h-286z" />
<glyph unicode="&#xb2;" horiz-adv-x="765" d="M96 614v160q0 95 38.5 150t121.5 90l203 86q41 16 41 74v63q0 27 -14 36t-44 9h-237q-48 0 -84 -22v174h340q217 0 217 -191v-67q0 -81 -20 -120t-78 -65l-269 -119q-45 -19 -45 -77v-29h309q59 0 89 18v-170h-568z" />
<glyph unicode="&#xb3;" horiz-adv-x="765" d="M98 618v164q24 -12 47 -12h269q63 0 63 61v56q0 78 -65 78h-183q-17 0 -49 -4v157q24 -6 49 -6h183q32 0 48.5 20t16.5 54v35q0 59 -61 59h-269q-13 0 -49 -12v166h361q196 0 196 -170v-43q0 -89 -39 -131.5t-127 -45.5q98 -4 132 -45t34 -145v-68q0 -71 -49.5 -119.5 t-146.5 -48.5h-361z" />
<glyph unicode="&#xb4;" horiz-adv-x="731" d="M164 1137l219 297h184l-256 -297h-147z" />
<glyph unicode="&#xb6;" horiz-adv-x="1075" d="M143 807v446q0 83 46.5 132t127.5 49h676v-1434h-198v616h-478q-83 0 -128.5 50t-45.5 141z" />
<glyph unicode="&#xb7;" horiz-adv-x="438" d="M104 483v215h211v-215h-211z" />
<glyph unicode="&#xb8;" horiz-adv-x="735" d="M156 -410l34 99h170q40 0 59 15.5t19 55.5v15q0 40 -17.5 55.5t-58.5 15.5h-118l57 168h115l-31 -88h43q81 0 117.5 -36t36.5 -111v-35q0 -154 -154 -154h-272z" />
<glyph unicode="&#xb9;" horiz-adv-x="765" d="M115 1122v164l377 172v-688h167v-152h-528v152h182v457z" />
<glyph unicode="&#xba;" d="M127 0v156h702v-156h-702zM127 639v565q0 107 54.5 168.5t168.5 61.5h258q112 0 166.5 -61.5t54.5 -168.5v-565q0 -106 -54.5 -167.5t-166.5 -61.5h-260q-112 0 -166.5 61.5t-54.5 167.5zM315 655q0 -41 20 -62.5t56 -21.5h174q76 0 76 84v529q0 86 -76 86h-172 q-78 0 -78 -86v-529z" />
<glyph unicode="&#xbb;" horiz-adv-x="1275" d="M82 111v178l379 309l-379 307v193l561 -418v-154zM631 111v178l379 309l-379 307v193l563 -418v-154z" />
<glyph unicode="&#xbc;" horiz-adv-x="1738" d="M82 1122v164l377 172v-688h168v-152h-529v152h183v457zM358 0l818 1434h202l-817 -1434h-203zM958 160v121l361 534h186v-508h92q30 0 60 6v-159q-30 6 -60 6h-92v-160h-166v160h-381zM1143 307h196v311z" />
<glyph unicode="&#xbd;" horiz-adv-x="1738" d="M82 1122v164l377 172v-688h168v-152h-529v152h183v457zM352 0l817 1434h203l-817 -1434h-203zM1071 0v160q0 95 38.5 149.5t121.5 89.5l203 86q41 16 41 74v64q0 27 -14 36t-44 9h-237q-46 0 -84 -23v174h340q217 0 217 -190v-68q0 -80 -20 -119t-79 -65l-268 -119 q-45 -19 -45 -78v-28h309q58 0 88 18v-170h-567z" />
<glyph unicode="&#xbe;" horiz-adv-x="1738" d="M121 618v164q24 -12 47 -12h268q64 0 64 61v56q0 38 -17.5 58t-48.5 20h-182q-17 0 -49 -4v157q24 -6 49 -6h182q33 0 49.5 20t16.5 54v35q0 59 -62 59h-268q-13 0 -49 -12v166h360q197 0 197 -170v-43q0 -89 -39 -131.5t-127 -45.5q98 -4 132 -45t34 -145v-68 q0 -70 -50 -119t-147 -49h-360zM358 0l818 1434h202l-817 -1434h-203zM958 160v121l361 534h186v-508h92q30 0 60 6v-159q-30 6 -60 6h-92v-160h-166v160h-381zM1143 307h196v311z" />
<glyph unicode="&#xbf;" horiz-adv-x="839" d="M96 -133q0 74 20.5 122.5t73.5 106.5l160 156q37 34 37 90l6 348h187l6 -342q3 -65 -19.5 -115.5t-74.5 -103.5l-160 -154q-37 -34 -37 -88v-47q0 -38 20 -59t54 -21h325q55 0 86 19v-189h-501q-89 0 -136 51.5t-47 153.5v72zM387 819v205h199v-205h-199z" />
<glyph unicode="&#xc0;" horiz-adv-x="1026" d="M6 0l385 1434h252l377 -1434h-225l-84 336h-406l-82 -336h-217zM248 1700h184l219 -209h-147zM330 477h358l-178 719z" />
<glyph unicode="&#xc1;" horiz-adv-x="1026" d="M6 0l385 1434h252l377 -1434h-225l-84 336h-406l-82 -336h-217zM330 477h358l-178 719zM379 1491l221 209h174l-258 -209h-137z" />
<glyph unicode="&#xc2;" horiz-adv-x="1026" d="M6 0l385 1434h252l377 -1434h-225l-84 336h-406l-82 -336h-217zM231 1491l201 209h148l200 -209h-145l-133 119l-131 -119h-140zM330 477h358l-178 719z" />
<glyph unicode="&#xc3;" horiz-adv-x="1026" d="M6 0l385 1434h252l377 -1434h-225l-84 336h-406l-82 -336h-217zM207 1491v41q0 172 166 172q42 0 84.5 -17.5t71.5 -38t62.5 -38t59.5 -17.5q38 0 54 21.5t16 85.5h96v-37q0 -96 -39.5 -136t-122.5 -40q-41 0 -83.5 17t-71 38t-62.5 38t-61 17q-39 0 -56.5 -22t-17.5 -84 h-96zM330 477h358l-178 719z" />
<glyph unicode="&#xc4;" horiz-adv-x="1026" d="M6 0l385 1434h252l377 -1434h-225l-84 336h-406l-82 -336h-217zM279 1526v143h145v-143h-145zM330 477h358l-178 719zM598 1526v143h147v-143h-147z" />
<glyph unicode="&#xc5;" horiz-adv-x="1026" d="M6 0l385 1434h252l377 -1434h-225l-84 336h-406l-82 -336h-217zM279 1573v51q0 44 41 74.5t116 30.5h150q74 0 116.5 -31t42.5 -76v-49q0 -46 -42 -74.5t-117 -28.5h-150q-76 0 -116.5 29.5t-40.5 73.5zM330 477h358l-178 719zM399 1589q0 -19 18 -31t52 -12h84 q70 0 70 43v15q0 47 -70 47h-84q-70 0 -70 -47v-15z" />
<glyph unicode="&#xc6;" horiz-adv-x="1558" d="M-82 0l717 1434h844v-181q-32 11 -62 11h-491v-428h379q29 0 59 6v-178q-30 6 -59 6h-379v-500h526q34 0 59 10v-180h-784v336h-414l-168 -336h-227zM362 477h365v723z" />
<glyph unicode="&#xc7;" horiz-adv-x="962" d="M143 229v975q0 106 55 168t167 62h557v-199q-30 18 -86 18h-416q-78 0 -78 -86v-901q0 -42 20 -64t56 -22h418q55 0 86 19v-199h-275l-24 -74h43q80 0 116.5 -36t36.5 -111v-35q0 -154 -153 -154h-273l35 99h170q40 0 59 15.5t19 55.5v15q0 40 -17.5 55.5t-58.5 15.5 h-119l51 154h-167q-113 0 -167.5 61.5t-54.5 167.5z" />
<glyph unicode="&#xc8;" horiz-adv-x="974" d="M143 0v1434h752v-181q-32 11 -61 11h-492v-428h379q29 0 59 6v-178q-30 6 -59 6h-379v-500h526q35 0 60 10v-180h-785zM297 1700h184l219 -209h-147z" />
<glyph unicode="&#xc9;" horiz-adv-x="974" d="M143 0v1434h752v-181q-32 11 -61 11h-492v-428h379q29 0 59 6v-178q-30 6 -59 6h-379v-500h526q35 0 60 10v-180h-785zM406 1491l221 209h174l-258 -209h-137z" />
<glyph unicode="&#xca;" horiz-adv-x="974" d="M143 0v1434h752v-181q-32 11 -61 11h-492v-428h379q29 0 59 6v-178q-30 6 -59 6h-379v-500h526q35 0 60 10v-180h-785zM266 1491l201 209h147l201 -209h-145l-133 119l-131 -119h-140z" />
<glyph unicode="&#xcb;" horiz-adv-x="974" d="M143 0v1434h752v-181q-32 11 -61 11h-492v-428h379q29 0 59 6v-178q-30 6 -59 6h-379v-500h526q35 0 60 10v-180h-785zM295 1526v143h145v-143h-145zM614 1526v143h148v-143h-148z" />
<glyph unicode="&#xcc;" horiz-adv-x="485" d="M-33 1700h185l219 -209h-148zM143 0v1434h199v-1434h-199z" />
<glyph unicode="&#xcd;" horiz-adv-x="485" d="M127 1491l221 209h174l-258 -209h-137zM143 0v1434h199v-1434h-199z" />
<glyph unicode="&#xce;" horiz-adv-x="485" d="M-33 1491l201 209h147l201 -209h-145l-133 119l-132 -119h-139zM143 0v1434h199v-1434h-199z" />
<glyph unicode="&#xcf;" horiz-adv-x="485" d="M8 1526v143h146v-143h-146zM143 0v1434h199v-1434h-199zM328 1526v143h147v-143h-147z" />
<glyph unicode="&#xd0;" horiz-adv-x="1136" d="M37 680v133h106v621h627q60 0 102.5 -17.5t65.5 -43t36 -69.5t16 -83t3 -97v-817q0 -59 -4 -99.5t-17.5 -83t-37 -67.5t-65 -41t-99.5 -16h-627v680h-106zM342 180h375q76 0 76 86v901q0 84 -76 84h-375v-438h150v-133h-150v-500z" />
<glyph unicode="&#xd1;" horiz-adv-x="1146" d="M145 0v1434h211l461 -1074v1074h184v-1434h-210l-461 1073v-1073h-185zM295 1491v41q0 172 166 172q42 0 84.5 -17.5t71.5 -38t62.5 -38t59.5 -17.5q38 0 54 21.5t16 85.5h96v-37q0 -96 -39.5 -136t-122.5 -40q-41 0 -83.5 17t-71 38t-62.5 38t-61 17q-39 0 -56.5 -22 t-17.5 -84h-96z" />
<glyph unicode="&#xd2;" horiz-adv-x="1136" d="M143 229v975q0 106 55 168t167 62h407q112 0 166.5 -61.5t54.5 -168.5v-975q0 -106 -54.5 -167.5t-166.5 -61.5h-407q-113 0 -167.5 61.5t-54.5 167.5zM307 1700h185l219 -209h-148zM342 266q0 -42 20 -64t56 -22h299q78 0 78 86v901q0 42 -20 64t-56 22h-299 q-78 0 -78 -86v-901z" />
<glyph unicode="&#xd3;" horiz-adv-x="1136" d="M143 229v975q0 106 55 168t167 62h407q112 0 166.5 -61.5t54.5 -168.5v-975q0 -106 -54.5 -167.5t-166.5 -61.5h-407q-113 0 -167.5 61.5t-54.5 167.5zM342 266q0 -42 20 -64t56 -22h299q78 0 78 86v901q0 42 -20 64t-56 22h-299q-78 0 -78 -86v-901zM440 1491l222 209 h174l-258 -209h-138z" />
<glyph unicode="&#xd4;" horiz-adv-x="1136" d="M143 229v975q0 106 55 168t167 62h407q112 0 166.5 -61.5t54.5 -168.5v-975q0 -106 -54.5 -167.5t-166.5 -61.5h-407q-113 0 -167.5 61.5t-54.5 167.5zM293 1491l201 209h147l201 -209h-146l-133 119l-131 -119h-139zM342 266q0 -42 20 -64t56 -22h299q78 0 78 86v901 q0 42 -20 64t-56 22h-299q-78 0 -78 -86v-901z" />
<glyph unicode="&#xd5;" horiz-adv-x="1136" d="M143 229v975q0 106 55 168t167 62h407q112 0 166.5 -61.5t54.5 -168.5v-975q0 -106 -54.5 -167.5t-166.5 -61.5h-407q-113 0 -167.5 61.5t-54.5 167.5zM262 1491v41q0 172 166 172q42 0 85 -17.5t71.5 -38t62.5 -38t60 -17.5q38 0 53.5 21.5t15.5 85.5h96v-37 q0 -97 -39 -136.5t-122 -39.5q-52 0 -104.5 27.5t-97 55t-77.5 27.5q-39 0 -56.5 -22t-17.5 -84h-96zM342 266q0 -42 20 -64t56 -22h299q78 0 78 86v901q0 42 -20 64t-56 22h-299q-78 0 -78 -86v-901z" />
<glyph unicode="&#xd6;" horiz-adv-x="1136" d="M143 229v975q0 106 55 168t167 62h407q112 0 166.5 -61.5t54.5 -168.5v-975q0 -106 -54.5 -167.5t-166.5 -61.5h-407q-113 0 -167.5 61.5t-54.5 167.5zM334 1526v143h145v-143h-145zM342 266q0 -42 20 -64t56 -22h299q78 0 78 86v901q0 42 -20 64t-56 22h-299 q-78 0 -78 -86v-901zM653 1526v143h148v-143h-148z" />
<glyph unicode="&#xd7;" horiz-adv-x="960" d="M168 391l201 201l-201 203l111 110l200 -203l203 203l111 -110l-203 -203l203 -201l-111 -110l-203 200l-200 -200z" />
<glyph unicode="&#xd8;" horiz-adv-x="1148" d="M-18 0l168 219v985q0 107 54 168.5t167 61.5h405q72 0 120.5 -33t59.5 -84l88 117h123l-170 -224v-981q0 -107 -53.5 -168t-167.5 -61h-405q-72 0 -120.5 32t-60.5 83l-86 -115h-122zM348 266q0 -86 76 -86h299q76 0 76 86v670l-451 -612v-58zM348 492l451 612v63 q0 86 -76 86h-299q-76 0 -76 -86v-675z" />
<glyph unicode="&#xd9;" horiz-adv-x="1136" d="M143 229v1205h199v-1168q0 -42 20 -64t56 -22h299q78 0 78 86v1168h198v-1205q0 -106 -54.5 -167.5t-166.5 -61.5h-407q-113 0 -167.5 61.5t-54.5 167.5zM299 1700h184l219 -209h-147z" />
<glyph unicode="&#xda;" horiz-adv-x="1136" d="M143 229v1205h199v-1168q0 -42 20 -64t56 -22h299q78 0 78 86v1168h198v-1205q0 -106 -54.5 -167.5t-166.5 -61.5h-407q-113 0 -167.5 61.5t-54.5 167.5zM449 1491l221 209h174l-258 -209h-137z" />
<glyph unicode="&#xdb;" horiz-adv-x="1136" d="M143 229v1205h199v-1168q0 -42 20 -64t56 -22h299q78 0 78 86v1168h198v-1205q0 -106 -54.5 -167.5t-166.5 -61.5h-407q-113 0 -167.5 61.5t-54.5 167.5zM293 1491l201 209h147l201 -209h-146l-133 119l-131 -119h-139z" />
<glyph unicode="&#xdc;" horiz-adv-x="1136" d="M143 229v1205h199v-1168q0 -42 20 -64t56 -22h299q78 0 78 86v1168h198v-1205q0 -106 -54.5 -167.5t-166.5 -61.5h-407q-113 0 -167.5 61.5t-54.5 167.5zM334 1526v143h145v-143h-145zM653 1526v143h148v-143h-148z" />
<glyph unicode="&#xdd;" horiz-adv-x="1067" d="M-6 1434h239l308 -615l303 615h229l-434 -826v-608h-199v608zM430 1491l221 209h174l-258 -209h-137z" />
<glyph unicode="&#xde;" horiz-adv-x="1075" d="M143 0v1434h199v-283h383q139 0 203.5 -55.5t64.5 -173.5v-369q0 -119 -63 -174t-201 -55h-387v-324h-199zM342 504h375q76 0 76 86v295q0 84 -76 84h-375v-465z" />
<glyph unicode="&#xdf;" horiz-adv-x="1036" d="M127 0v1206q0 106 55 167t168 61h371q112 0 167.5 -55t55.5 -158v-88q0 -88 -32 -136.5t-105 -93.5l-107 -72q-33 -24 -46 -45.5t-13 -54.5q0 -30 13 -50.5t46 -43.5l107 -68q71 -43 102 -96t31 -135v-109q0 -117 -60.5 -173t-162.5 -56h-279v180q30 -18 86 -18h162 q34 0 53 21t19 59v84q0 37 -11 57.5t-42 40.5l-101 68q-79 51 -112 101t-33 142q0 82 30.5 131t114.5 109l96 69q30 22 42 44.5t12 58.5v45q0 37 -19 57.5t-53 20.5h-283q-84 0 -84 -92v-1178h-188z" />
<glyph unicode="&#xe0;" horiz-adv-x="946" d="M117 229v185q0 106 54.5 166.5t168.5 60.5h291v137q0 84 -76 84h-317q-55 0 -86 -16v178h444q115 0 169 -60.5t54 -166.5v-797h-479q-113 0 -168 61.5t-55 167.5zM201 1434h184l219 -297h-147zM305 248q0 -88 78 -88h248v344h-246q-80 0 -80 -86v-170z" />
<glyph unicode="&#xe1;" horiz-adv-x="946" d="M117 229v185q0 106 54.5 166.5t168.5 60.5h291v137q0 84 -76 84h-317q-55 0 -86 -16v178h444q115 0 169 -60.5t54 -166.5v-797h-479q-113 0 -168 61.5t-55 167.5zM305 248q0 -88 78 -88h248v344h-246q-80 0 -80 -86v-170zM332 1137l219 297h184l-256 -297h-147z" />
<glyph unicode="&#xe2;" horiz-adv-x="946" d="M117 229v185q0 106 54.5 166.5t168.5 60.5h291v137q0 84 -76 84h-317q-55 0 -86 -16v178h444q115 0 169 -60.5t54 -166.5v-797h-479q-113 0 -168 61.5t-55 167.5zM195 1137l200 297h148l200 -297h-143l-133 180l-133 -180h-139zM305 248q0 -88 78 -88h248v344h-246 q-80 0 -80 -86v-170z" />
<glyph unicode="&#xe3;" horiz-adv-x="946" d="M117 229v185q0 106 54.5 166.5t168.5 60.5h291v137q0 84 -76 84h-317q-55 0 -86 -16v178h444q115 0 169 -60.5t54 -166.5v-797h-479q-113 0 -168 61.5t-55 167.5zM162 1141v55q0 117 42 177.5t124 60.5q42 0 84.5 -24.5t71.5 -53.5t62.5 -53.5t59.5 -24.5q38 0 54 30.5 t16 118.5h96v-51q0 -131 -40 -186t-122 -55q-34 0 -67.5 16t-60.5 38.5t-51.5 45.5t-50.5 39t-48 16q-39 0 -56.5 -32t-17.5 -117h-96zM305 248q0 -88 78 -88h248v344h-246q-80 0 -80 -86v-170z" />
<glyph unicode="&#xe4;" horiz-adv-x="946" d="M117 229v185q0 106 54.5 166.5t168.5 60.5h291v137q0 84 -76 84h-317q-55 0 -86 -16v178h444q115 0 169 -60.5t54 -166.5v-797h-479q-113 0 -168 61.5t-55 167.5zM229 1188v184h146v-184h-146zM305 248q0 -88 78 -88h248v344h-246q-80 0 -80 -86v-170zM549 1188v184h147 v-184h-147z" />
<glyph unicode="&#xe5;" horiz-adv-x="946" d="M117 229v185q0 106 54.5 166.5t168.5 60.5h291v137q0 84 -76 84h-317q-55 0 -86 -16v178h444q115 0 169 -60.5t54 -166.5v-797h-479q-113 0 -168 61.5t-55 167.5zM233 1260v73q0 137 158 137h150q76 0 117.5 -36.5t41.5 -102.5v-69q0 -140 -159 -140h-150 q-158 0 -158 138zM305 248q0 -88 78 -88h248v344h-246q-80 0 -80 -86v-170zM354 1278q0 -36 17 -51t53 -15h84q37 0 53.5 15t16.5 51v29q0 36 -16 50.5t-54 14.5h-84q-36 0 -53 -14.5t-17 -50.5v-29z" />
<glyph unicode="&#xe6;" horiz-adv-x="1437" d="M117 229v187q0 105 54.5 165t168.5 60h291v137q0 84 -76 84h-317q-55 0 -86 -16v178h428q52 0 94 -25t59 -65q21 40 63 65t97 25h207q116 0 170.5 -61t54.5 -168v-291h-506v-262q0 -38 20.5 -60t55.5 -22h328q56 0 86 18v-178h-416q-114 0 -160 90q-18 -40 -59 -65 t-94 -25h-240q-112 0 -167.5 60.5t-55.5 168.5zM305 248q0 -88 78 -88h170q78 0 78 90v254h-248q-78 0 -78 -86v-170zM819 641h328v139q0 86 -78 86h-174q-37 0 -56.5 -22.5t-19.5 -63.5v-139z" />
<glyph unicode="&#xe7;" horiz-adv-x="776" d="M127 229v566q0 107 54.5 168t168.5 61h375v-182q-31 16 -88 16h-238q-84 0 -84 -90v-514q0 -92 84 -92h238q58 0 88 18v-180h-203l-24 -74h43q80 0 116.5 -36t36.5 -111v-35q0 -154 -153 -154h-273l35 99h170q40 0 59 15.5t19 55.5v15q0 40 -17.5 55.5t-58.5 15.5h-119 l52 154h-60q-112 0 -166.5 61.5t-54.5 167.5z" />
<glyph unicode="&#xe8;" horiz-adv-x="933" d="M127 229v566q0 107 54.5 168t168.5 61h248q112 0 166.5 -61.5t54.5 -167.5v-293h-504v-258q0 -39 20 -60.5t56 -21.5h326q57 0 88 16v-178h-455q-115 0 -169 61t-54 168zM227 1434h185l219 -297h-148zM315 641h328v139q0 86 -78 86h-174q-37 0 -56.5 -22.5t-19.5 -63.5 v-139z" />
<glyph unicode="&#xe9;" horiz-adv-x="933" d="M127 229v566q0 107 54.5 168t168.5 61h248q112 0 166.5 -61.5t54.5 -167.5v-293h-504v-258q0 -39 20 -60.5t56 -21.5h326q57 0 88 16v-178h-455q-115 0 -169 61t-54 168zM315 641h328v139q0 86 -78 86h-174q-37 0 -56.5 -22.5t-19.5 -63.5v-139zM340 1137l219 297h184 l-256 -297h-147z" />
<glyph unicode="&#xea;" horiz-adv-x="933" d="M127 229v566q0 107 54.5 168t168.5 61h248q112 0 166.5 -61.5t54.5 -167.5v-293h-504v-258q0 -39 20 -60.5t56 -21.5h326q57 0 88 16v-178h-455q-115 0 -169 61t-54 168zM199 1137l200 297h148l201 -297h-144l-133 180l-133 -180h-139zM315 641h328v139q0 86 -78 86h-174 q-37 0 -56.5 -22.5t-19.5 -63.5v-139z" />
<glyph unicode="&#xeb;" horiz-adv-x="933" d="M127 229v566q0 107 54.5 168t168.5 61h248q112 0 166.5 -61.5t54.5 -167.5v-293h-504v-258q0 -39 20 -60.5t56 -21.5h326q57 0 88 16v-178h-455q-115 0 -169 61t-54 168zM248 1188v184h145v-184h-145zM315 641h328v139q0 86 -78 86h-174q-37 0 -56.5 -22.5t-19.5 -63.5 v-139zM567 1188v184h148v-184h-148z" />
<glyph unicode="&#xec;" horiz-adv-x="442" d="M-59 1434h184l219 -297h-147zM127 0v1024h188v-1024h-188z" />
<glyph unicode="&#xed;" horiz-adv-x="442" d="M80 1137l219 297h184l-256 -297h-147zM127 0v1024h188v-1024h-188z" />
<glyph unicode="&#xee;" horiz-adv-x="442" d="M-53 1137l200 297h148l201 -297h-144l-133 180l-133 -180h-139zM127 0v1024h188v-1024h-188z" />
<glyph unicode="&#xef;" horiz-adv-x="442" d="M-12 1188v184h145v-184h-145zM127 0v1024h188v-1024h-188zM307 1188v184h148v-184h-148z" />
<glyph unicode="&#xf0;" horiz-adv-x="1064" d="M150 229v379q0 106 54 167t167 61h350l-277 299l-127 -95l-75 80l127 94l-201 220h225l117 -125l123 88l76 -82l-121 -88l270 -289q33 -34 46.5 -77t13.5 -113v-519q0 -106 -55 -167.5t-169 -61.5h-323q-114 0 -167.5 61t-53.5 168zM348 266q0 -86 74 -86h221q36 0 56 22 t20 64v404h-295q-76 0 -76 -84v-320z" />
<glyph unicode="&#xf1;" d="M127 0v1024h481q112 0 166.5 -61.5t54.5 -167.5v-795h-188v774q0 86 -76 86h-250v-860h-188zM180 1141v55q0 117 42 177.5t124 60.5q42 0 85 -24.5t71.5 -53.5t62.5 -53.5t60 -24.5q37 0 53 30.5t16 118.5h97v-51q0 -131 -40 -186t-122 -55q-41 0 -83.5 24t-71.5 53.5 t-63 53.5t-61 24q-39 0 -56.5 -32t-17.5 -117h-96z" />
<glyph unicode="&#xf2;" d="M127 229v566q0 107 54.5 168t168.5 61h258q112 0 166.5 -61.5t54.5 -167.5v-566q0 -106 -54.5 -167.5t-166.5 -61.5h-260q-112 0 -166.5 61.5t-54.5 167.5zM201 1434h184l219 -297h-147zM315 246q0 -41 20 -62.5t56 -21.5h174q76 0 76 84v528q0 86 -76 86h-172 q-78 0 -78 -86v-528z" />
<glyph unicode="&#xf3;" d="M127 229v566q0 107 54.5 168t168.5 61h258q112 0 166.5 -61.5t54.5 -167.5v-566q0 -106 -54.5 -167.5t-166.5 -61.5h-260q-112 0 -166.5 61.5t-54.5 167.5zM315 246q0 -41 20 -62.5t56 -21.5h174q76 0 76 84v528q0 86 -76 86h-172q-78 0 -78 -86v-528zM354 1137l219 297 h185l-256 -297h-148z" />
<glyph unicode="&#xf4;" d="M127 229v566q0 107 54.5 168t168.5 61h258q112 0 166.5 -61.5t54.5 -167.5v-566q0 -106 -54.5 -167.5t-166.5 -61.5h-260q-112 0 -166.5 61.5t-54.5 167.5zM203 1137l200 297h148l201 -297h-144l-133 180l-133 -180h-139zM315 246q0 -41 20 -62.5t56 -21.5h174 q76 0 76 84v528q0 86 -76 86h-172q-78 0 -78 -86v-528z" />
<glyph unicode="&#xf5;" d="M127 229v566q0 107 54.5 168t168.5 61h258q112 0 166.5 -61.5t54.5 -167.5v-566q0 -106 -54.5 -167.5t-166.5 -61.5h-260q-112 0 -166.5 61.5t-54.5 167.5zM172 1141v55q0 117 42 177.5t124 60.5q42 0 84.5 -24.5t71.5 -53.5t62.5 -53.5t59.5 -24.5q38 0 54 30.5 t16 118.5h96v-51q0 -131 -39.5 -186t-121.5 -55q-41 0 -83.5 24t-71.5 53.5t-63 53.5t-61 24q-39 0 -56.5 -32t-17.5 -117h-96zM315 246q0 -41 20 -62.5t56 -21.5h174q76 0 76 84v528q0 86 -76 86h-172q-78 0 -78 -86v-528z" />
<glyph unicode="&#xf6;" d="M127 229v566q0 107 54.5 168t168.5 61h258q112 0 166.5 -61.5t54.5 -167.5v-566q0 -106 -54.5 -167.5t-166.5 -61.5h-260q-112 0 -166.5 61.5t-54.5 167.5zM244 1188v184h145v-184h-145zM315 246q0 -41 20 -62.5t56 -21.5h174q76 0 76 84v528q0 86 -76 86h-172 q-78 0 -78 -86v-528zM563 1188v184h148v-184h-148z" />
<glyph unicode="&#xf7;" horiz-adv-x="960" d="M117 512v160h727v-160h-727zM393 158v164h158v-164h-158zM393 866v164h158v-164h-158z" />
<glyph unicode="&#xf8;" d="M2 0l125 154v641q0 108 54.5 168.5t168.5 60.5h258q111 0 168 -74l58 74h127l-132 -162v-633q0 -108 -55.5 -168.5t-167.5 -60.5h-258q-117 0 -162 72l-55 -72h-129zM315 229q9 -67 76 -67h174q76 0 76 84v391zM315 377l324 409q-6 74 -74 74h-174q-76 0 -76 -86v-397z " />
<glyph unicode="&#xf9;" d="M127 229v795h188v-778q0 -84 76 -84h250v862h188v-1024h-481q-112 0 -166.5 61.5t-54.5 167.5zM215 1434h184l219 -297h-147z" />
<glyph unicode="&#xfa;" d="M127 229v795h188v-778q0 -84 76 -84h250v862h188v-1024h-481q-112 0 -166.5 61.5t-54.5 167.5zM340 1137l219 297h184l-256 -297h-147z" />
<glyph unicode="&#xfb;" d="M127 229v795h188v-778q0 -84 76 -84h250v862h188v-1024h-481q-112 0 -166.5 61.5t-54.5 167.5zM203 1137l200 297h148l201 -297h-144l-133 180l-133 -180h-139z" />
<glyph unicode="&#xfc;" d="M127 229v795h188v-778q0 -84 76 -84h250v862h188v-1024h-481q-112 0 -166.5 61.5t-54.5 167.5zM244 1188v184h145v-184h-145zM563 1188v184h148v-184h-148z" />
<glyph unicode="&#xfd;" horiz-adv-x="851" d="M16 1024h213l201 -836l203 836h207l-426 -1434h-215l141 410h-29zM328 1137l219 297h184l-256 -297h-147z" />
<glyph unicode="&#xfe;" horiz-adv-x="931" d="M127 0v1024h188v-166h258q78 0 129 -16.5t78.5 -52.5t38 -81.5t10.5 -113.5v-182q0 -117 -63 -173.5t-193 -56.5h-258v-182h-188zM315 344h250q76 0 76 86v178q0 86 -76 86h-250v-350z" />
<glyph unicode="&#xff;" horiz-adv-x="851" d="M16 1024h213l201 -836l203 836h207l-426 -1434h-215l141 410h-29zM195 1188v184h145v-184h-145zM514 1188v184h148v-184h-148z" />
<glyph unicode="&#x152;" horiz-adv-x="1626" d="M143 229v975q0 106 55 168t167 62h1181v-181q-32 11 -61 11h-492v-428h379q30 0 60 6v-178q-30 6 -60 6h-379v-500h527q34 0 59 10v-180h-1214q-113 0 -167.5 61.5t-54.5 167.5zM342 266q0 -42 20 -64t56 -22h377v1073h-375q-78 0 -78 -86v-901z" />
<glyph unicode="&#x153;" horiz-adv-x="1447" d="M127 229v566q0 108 55 168.5t168 60.5h228q118 0 165 -92q55 92 162 92h207q114 0 168.5 -60t54.5 -169v-293h-506v-258q0 -39 20 -60.5t56 -21.5h328q55 0 86 16v-178h-416q-105 0 -160 92q-48 -92 -153 -92h-242q-110 0 -165.5 61.5t-55.5 167.5zM315 246 q0 -41 20.5 -62.5t57.5 -21.5h172q76 0 76 84v528q0 86 -76 86h-172q-78 0 -78 -86v-528zM829 641h328v139q0 86 -78 86h-174q-37 0 -56.5 -22.5t-19.5 -63.5v-139z" />
<glyph unicode="&#x178;" horiz-adv-x="1067" d="M-6 1434h239l308 -615l303 615h229l-434 -826v-608h-199v608zM299 1526v143h145v-143h-145zM618 1526v143h148v-143h-148z" />
<glyph unicode="&#x2c6;" horiz-adv-x="876" d="M164 1137l201 297h147l201 -297h-144l-133 180l-133 -180h-139z" />
<glyph unicode="&#x2dc;" horiz-adv-x="937" d="M164 1141v55q0 117 42 177.5t124 60.5q42 0 84.5 -24.5t71.5 -53.5t62.5 -53.5t59.5 -24.5q38 0 54 30.5t16 118.5h96v-51q0 -131 -40 -186t-122 -55q-34 0 -67.5 16t-60.5 38.5t-51.5 45.5t-50.5 39t-48 16q-39 0 -56.5 -32t-17.5 -117h-96z" />
<glyph unicode="&#x2000;" horiz-adv-x="864" />
<glyph unicode="&#x2001;" horiz-adv-x="1729" />
<glyph unicode="&#x2002;" horiz-adv-x="864" />
<glyph unicode="&#x2003;" horiz-adv-x="1729" />
<glyph unicode="&#x2004;" horiz-adv-x="576" />
<glyph unicode="&#x2005;" horiz-adv-x="432" />
<glyph unicode="&#x2006;" horiz-adv-x="288" />
<glyph unicode="&#x2007;" horiz-adv-x="288" />
<glyph unicode="&#x2008;" horiz-adv-x="216" />
<glyph unicode="&#x2009;" horiz-adv-x="345" />
<glyph unicode="&#x200a;" horiz-adv-x="96" />
<glyph unicode="&#x2010;" horiz-adv-x="624" d="M111 512v162h401v-162h-401z" />
<glyph unicode="&#x2011;" horiz-adv-x="624" d="M111 512v162h401v-162h-401z" />
<glyph unicode="&#x2012;" horiz-adv-x="624" d="M111 512v162h401v-162h-401z" />
<glyph unicode="&#x2013;" horiz-adv-x="960" d="M117 512v160h727v-160h-727z" />
<glyph unicode="&#x2014;" horiz-adv-x="1484" d="M123 512v160h1239v-160h-1239z" />
<glyph unicode="&#x2018;" horiz-adv-x="421" d="M115 1055v176l94 262h149l-67 -268v-170h-176z" />
<glyph unicode="&#x2019;" horiz-adv-x="421" d="M63 995l68 269v170h176v-177l-94 -262h-150z" />
<glyph unicode="&#x201a;" horiz-adv-x="421" d="M63 -283l68 267v170h176v-177l-94 -260h-150z" />
<glyph unicode="&#x201c;" horiz-adv-x="772" d="M115 1055v176l94 260h149l-67 -266v-170h-176zM465 1055v176l94 260h152l-70 -266v-170h-176z" />
<glyph unicode="&#x201d;" horiz-adv-x="772" d="M63 995l68 269v170h176v-177l-94 -262h-150zM414 995l67 269v170h176v-177l-92 -262h-151z" />
<glyph unicode="&#x201e;" horiz-adv-x="772" d="M63 -283l68 267v170h176v-177l-94 -260h-150zM414 -283l67 267v170h176v-177l-92 -260h-151z" />
<glyph unicode="&#x2022;" horiz-adv-x="874" d="M137 272v486q0 100 49.5 155.5t151.5 55.5h199q200 0 200 -211v-486q0 -211 -200 -211h-201q-101 0 -150 55.5t-49 155.5z" />
<glyph unicode="&#x2026;" horiz-adv-x="1443" d="M111 0v205h198v-205h-198zM621 0v205h198v-205h-198zM1130 0v205h201v-205h-201z" />
<glyph unicode="&#x202f;" horiz-adv-x="345" />
<glyph unicode="&#x2039;" horiz-adv-x="724" d="M82 526v154l561 416v-189l-362 -299l362 -297v-202z" />
<glyph unicode="&#x203a;" horiz-adv-x="724" d="M82 111v188l362 299l-362 297v203l561 -418v-154z" />
<glyph unicode="&#x205f;" horiz-adv-x="432" />
<glyph unicode="&#x20ac;" horiz-adv-x="962" d="M80 528v113h63v199h-63v114h63v252q0 104 54.5 166t169.5 62h555v-199q-30 18 -86 18h-414q-80 0 -80 -88v-211h383v-114h-383v-199h383v-113h-383v-260q0 -88 82 -88h412q55 0 86 19v-199h-555q-114 0 -169 61t-55 170v297h-63z" />
<glyph unicode="&#x2122;" horiz-adv-x="1114" d="M113 1014v514l106 49v-143h125v-95h-125v-278q0 -45 41 -45h41q30 0 43 8v-102h-137q-42 0 -68 25t-26 67zM426 922v512h209q76 0 86 -76q3 35 26.5 55.5t63.5 20.5h109q43 0 67.5 -25.5t24.5 -69.5v-417h-109v376q0 41 -37 41h-55q-37 0 -37 -41v-376h-108v376 q0 41 -37 41h-94v-417h-109z" />
<glyph unicode="&#xe000;" horiz-adv-x="1024" d="M0 0v1024h1024v-1024h-1024z" />
<glyph unicode="&#xfb01;" horiz-adv-x="958" d="M127 0v1204q0 107 54.5 168.5t168.5 61.5h481v-183q-31 19 -86 19h-346q-84 0 -84 -92v-154h516v-1024h-188v860h-328v-860h-188z" />
<glyph unicode="&#xfb02;" horiz-adv-x="958" d="M127 0v1204q0 107 55.5 168.5t169.5 61.5h168v-174q-23 10 -59 10h-62q-84 0 -84 -92v-154h328v410h188v-1434h-188v860h-328v-860h-188z" />
</font>
</defs>
</svg>
