<?xml version="1.0" standalone="no"?>
<!DOCTYPE svg PUBLIC "-//W3C//DTD SVG 1.1//EN" "http://www.w3.org/Graphics/SVG/1.1/DTD/svg11.dtd" >
<svg xmlns="http://www.w3.org/2000/svg" xmlns:xlink="http://www.w3.org/1999/xlink" version="1.1">
<metadata></metadata>
<defs>
<font id="ek_muktaregular" horiz-adv-x="1001" >
<font-face units-per-em="2048" ascent="1638" descent="-410" />
<missing-glyph horiz-adv-x="454" />
<glyph unicode="&#xfb01;" horiz-adv-x="1075" d="M39 827v136h141v108q0 86 29 159t81 125t127 80.5t167 28.5q57 0 129.5 -16t122.5 -41l-37 -125q-41 16 -88 25.5t-88 9.5q-129 0 -197 -58.5t-68 -205.5v-90h588v-963h-180v827h-408v-827h-178v827h-141z" />
<glyph unicode="&#xfb02;" horiz-adv-x="1085" d="M39 827v136h141v108q0 86 29 159t81 125t128 80.5t168 28.5q115 0 204 -27.5t152 -62.5v-1374h-176v827h-408v-827h-178v827h-141zM358 963h408v329q-35 10 -73 17.5t-70 7.5q-129 0 -197 -58.5t-68 -205.5v-90z" />
<glyph unicode="&#xfb03;" horiz-adv-x="1671" d="M39 827v136h141v170q0 160 83 245.5t239 85.5q113 0 211 -49l-47 -125q-41 16 -66 21.5t-59 5.5q-98 0 -140.5 -55.5t-42.5 -188.5v-110h408v108q0 86 28.5 159t81 125t127 80.5t166.5 28.5q57 0 130 -16t122 -41l-37 -125q-41 16 -88 25.5t-88 9.5q-129 0 -196.5 -58.5 t-67.5 -205.5v-90h588v-963h-180v827h-408v-827h-178v827h-408v-827h-178v827h-141z" />
<glyph unicode="&#xfb04;" horiz-adv-x="1644" d="M39 827v136h141v170q0 160 83 245.5t239 85.5q113 0 211 -49l-47 -125q-41 16 -66 21.5t-59 5.5q-98 0 -140.5 -55.5t-42.5 -188.5v-110h406v108q0 86 28.5 159t81 125t128 80.5t167.5 28.5q115 0 204 -27.5t153 -62.5v-1374h-176v827h-408v-827h-178v827h-406v-827h-178 v827h-141zM942 963h408v329q-35 10 -73 17.5t-71 7.5q-129 0 -196.5 -58.5t-67.5 -205.5v-90z" />
<glyph horiz-adv-x="0" />
<glyph horiz-adv-x="0" />
<glyph unicode="&#xd;" horiz-adv-x="2097" />
<glyph unicode=" "  horiz-adv-x="454" />
<glyph unicode="&#x09;" horiz-adv-x="454" />
<glyph unicode="&#xa0;" horiz-adv-x="454" />
<glyph unicode="!" horiz-adv-x="505" d="M129 111q0 53 37 90t88 37t87 -37t36 -90q0 -59 -36 -94t-87 -35t-88 35t-37 94zM158 1454h192l-24 -1026h-148z" />
<glyph unicode="&#x22;" horiz-adv-x="663" d="M104 1321h170l-30 -444h-107zM389 1321h170l-33 -444h-106z" />
<glyph unicode="#" horiz-adv-x="1269" d="M72 438v140h262l61 383h-252v139h277l65 416h138l-68 -418h301l66 418h137l-68 -416h209v-139h-229l-64 -383h223v-140h-241l-72 -438h-139l70 438h-297l-72 -438h-137l67 438h-237zM471 578h299l61 383h-299z" />
<glyph unicode="$" horiz-adv-x="1085" d="M135 920q0 156 92 243.5t250 102.5v209h133v-211q125 -10 256 -72l-53 -139q-74 39 -139.5 55t-130.5 16q-100 0 -164 -45t-64 -137q0 -84 57.5 -123t151.5 -69l94 -31q158 -51 239 -134t81 -214q0 -78 -28.5 -138.5t-77 -104.5t-114 -70.5t-138.5 -34.5v-216h-134v216 q-88 4 -158.5 24.5t-148.5 61.5l66 139q86 -49 166 -66.5t141 -17.5q51 0 95 11t78 34.5t53.5 60.5t19.5 86q0 86 -60.5 131t-177.5 82l-94 31q-66 20 -119 48t-91 67t-59.5 89t-21.5 116z" />
<glyph unicode="%" horiz-adv-x="1679" d="M61 1155q0 78 22.5 146.5t67 121t106.5 83t142 30.5t141.5 -30.5t104.5 -83t64.5 -121t21.5 -146.5t-21.5 -147.5t-64.5 -121.5t-106.5 -83t-145.5 -31q-80 0 -142.5 31t-104.5 83t-63.5 121.5t-21.5 147.5zM209 1155q0 -55 10 -105.5t31.5 -88t57.5 -60t85 -22.5 q98 0 144.5 76.5t46.5 199.5q0 53 -9.5 102.5t-31 88t-57 61.5t-87.5 23q-49 0 -86 -23t-59.5 -59.5t-33.5 -87t-11 -105.5zM338 0l895 1536h133l-895 -1536h-133zM946 365q0 78 22.5 146.5t66.5 120.5t106.5 82.5t142.5 30.5t141.5 -30.5t104.5 -82.5t64.5 -120.5 t21.5 -146.5t-21.5 -148t-64.5 -122t-106.5 -82.5t-145.5 -30.5q-80 0 -142.5 30.5t-104.5 82.5t-63.5 122t-21.5 148zM1094 365q0 -55 10 -105.5t31.5 -88.5t57.5 -60.5t85 -22.5q98 0 144 77t46 200q0 53 -9 102t-30.5 88t-57.5 61.5t-87 22.5q-49 0 -86 -22.5 t-59.5 -59.5t-33.5 -87t-11 -105z" />
<glyph unicode="&#x26;" horiz-adv-x="1347" d="M61 381q0 76 26 137.5t69 110.5t100 86t123 63q-53 59 -93 136t-40 169q0 68 26.5 121t72.5 91t108.5 57.5t132.5 19.5t130 -20.5t104 -58.5t68.5 -91t24.5 -117q0 -109 -55 -180t-145 -117l-84 101q53 29 84.5 76t31.5 110q0 72 -46 117t-117 45q-78 0 -121 -43 t-43 -113q0 -92 51 -168.5t147 -173.5l345 -348q35 53 65.5 124t52.5 136l148 -59q-33 -92 -74 -172t-82 -141l277 -279h-222l-155 160q-29 -33 -71 -65t-97 -56.5t-124 -39.5t-151 -15q-106 0 -192 29.5t-147.5 83t-94.5 126t-33 158.5zM238 385q0 -129 85 -195.5 t226 -66.5q43 0 89 10t89 29.5t79 46.5t60 59l-401 408q-45 -23 -86 -51.5t-73 -64.5t-50 -80t-18 -95z" />
<glyph unicode="'" horiz-adv-x="378" d="M104 1321h170l-32 -444h-107z" />
<glyph unicode="(" horiz-adv-x="616" d="M102 571q0 143 30 271.5t77 240t106.5 204.5t120.5 167l99 -70q-113 -172 -183.5 -371.5t-70.5 -441.5q0 -121 17 -228t49 -206.5t79 -196t109 -194.5l-103 -59q-61 84 -120.5 179t-105.5 203.5t-75 232.5t-29 269z" />
<glyph unicode=")" horiz-adv-x="616" d="M82 -244q113 172 183.5 372t70.5 441q0 121 -17.5 228.5t-49 207t-79 195.5t-108.5 195l102 59q61 -84 121 -179t106 -203.5t74.5 -233.5t28.5 -269q0 -143 -29.5 -271t-77 -239.5t-106.5 -205t-121 -166.5z" />
<glyph unicode="*" horiz-adv-x="700" d="M29 1118l37 113l122 -37l148 -78l-37 158v127h123v-127l-35 -158l145 78l123 37l37 -113l-125 -39l-159 -20l116 -109l78 -106l-98 -72l-76 107l-68 145l-67 -145l-80 -107l-96 72l80 106l116 109l-159 20z" />
<glyph unicode="+" horiz-adv-x="1150" d="M82 561v131h428v428h131v-428h428v-131h-428v-428h-131v428h-428z" />
<glyph unicode="," horiz-adv-x="438" d="M92 -221q53 29 95 77t57 119l-37 7q-53 6 -80 45t-27 86q0 49 34 88t95 39q25 0 50.5 -7.5t47 -29t36 -59.5t14.5 -99q0 -111 -63.5 -203t-161.5 -145z" />
<glyph unicode="-" horiz-adv-x="573" d="M61 520v162h451v-162h-451z" />
<glyph unicode="." horiz-adv-x="432" d="M111 111q0 53 36.5 90t88.5 37q51 0 86.5 -37t35.5 -90q0 -59 -35.5 -94t-86.5 -35t-88 35t-37 94z" />
<glyph unicode="/" horiz-adv-x="768" d="M-2 -223l623 1759h153l-622 -1759h-154z" />
<glyph unicode="0" horiz-adv-x="1177" d="M88 645q0 168 41 293t109.5 208t160 123t191.5 40q106 0 198.5 -38t160 -118t105.5 -206t38 -302t-41 -302t-111 -206t-160 -117.5t-190 -37.5q-109 0 -200 37.5t-158.5 117.5t-105.5 206t-38 302zM276 645q0 -162 27 -263t70 -158.5t100 -79t119 -21.5q61 0 117.5 23.5 t99.5 84t68.5 161t25.5 253.5q0 160 -26.5 262.5t-69.5 159.5t-100.5 78.5t-118.5 21.5t-117.5 -23.5t-99.5 -84t-69 -160.5t-26 -254z" />
<glyph unicode="1" horiz-adv-x="745" d="M113 1145l317 145h131v-1290h-176v1102l-231 -107z" />
<glyph unicode="2" horiz-adv-x="989" d="M92 129l170 170q113 113 194 201t132 161.5t74.5 135t23.5 123.5q0 104 -56 172.5t-171 68.5q-66 0 -125.5 -22.5t-130.5 -77.5l-80 121q92 78 175 102.5t161 24.5q106 0 183 -30t128 -81t75.5 -120.5t24.5 -151.5q0 -74 -30.5 -151t-87 -157.5t-136 -168t-180.5 -183.5 l-121 -116h586v-150h-776z" />
<glyph unicode="3" horiz-adv-x="1003" d="M86 45l41 139q35 -12 65.5 -23t63.5 -18.5t68.5 -11.5t83.5 -4q51 0 101 12.5t89 41t63.5 72.5t24.5 109q0 57 -21.5 100.5t-59.5 70t-89 40t-113 13.5h-153v139h119q119 0 197.5 57.5t78.5 175.5q0 43 -17.5 81t-47 66t-69.5 44t-87 16q-66 0 -123 -16t-135 -62l-57 125 q80 53 165.5 75t163.5 22q86 0 159 -24.5t124 -69t79.5 -104.5t28.5 -132q0 -121 -62 -201t-153 -112q113 -25 186.5 -108t73.5 -200q0 -104 -40.5 -175.5t-106 -115.5t-148.5 -64.5t-169 -20.5t-172 16t-152 47z" />
<glyph unicode="4" horiz-adv-x="1097" d="M41 328v112l621 850h161v-813h203v-149h-203v-328h-168v328h-614zM244 477h411v357l11 258h-4l-101 -174z" />
<glyph unicode="5" horiz-adv-x="1058" d="M129 43l41 145q49 -25 110.5 -41t127.5 -16q156 0 240.5 70.5t84.5 212.5q0 68 -23.5 118t-65.5 82.5t-99.5 49t-124.5 16.5q-55 0 -112.5 -7t-117.5 -20l64 637l620 4v-149l-477 -4l-39 -340q25 4 55.5 7t65.5 3q76 0 155 -20.5t142.5 -66.5t104.5 -121t41 -183 q0 -92 -33 -172t-97.5 -139.5t-159.5 -93t-220 -33.5q-72 0 -148 16t-135 45z" />
<glyph unicode="6" horiz-adv-x="1073" d="M92 592q0 199 46 335t123 221t176 123t208 38q139 0 248 -41l-43 -146q-43 18 -92 29.5t-107 11.5q-90 0 -157.5 -33.5t-113.5 -93t-71.5 -143.5t-27.5 -184q57 72 138 105.5t167 33.5t161.5 -27.5t132 -82t89 -132.5t32.5 -178q0 -102 -33.5 -184t-94 -140.5t-142.5 -90 t-180 -31.5q-88 0 -170 33.5t-146.5 107.5t-103.5 189.5t-39 279.5zM281 471q0 -74 19 -137.5t56 -110.5t88.5 -74.5t112.5 -27.5q59 0 107.5 22.5t83 63.5t54 96t19.5 121q0 145 -73.5 213t-196.5 68q-92 0 -154.5 -43.5t-95.5 -100.5q-12 -23 -16 -45t-4 -45z" />
<glyph unicode="7" horiz-adv-x="1013" d="M117 1141v149h803v-127l-558 -1200l-153 68l530 1110h-622z" />
<glyph unicode="8" horiz-adv-x="1034" d="M78 332q0 125 64.5 200.5t201.5 135.5q-104 47 -163.5 123.5t-59.5 177.5q0 68 24.5 129t74.5 108t125 75t175 28t175 -27t126 -72t77 -102t26 -121q0 -92 -60.5 -174t-185.5 -131q141 -59 209.5 -136t68.5 -198q0 -90 -32.5 -157.5t-91 -114.5t-138.5 -70.5t-174 -23.5 q-92 0 -173 24.5t-140.5 69.5t-94 109.5t-34.5 146.5zM260 338q0 -86 64.5 -151.5t195.5 -65.5q59 0 107.5 17.5t81 48t50 69.5t17.5 82q0 51 -20.5 93t-57 74t-87 56.5t-107.5 40.5q-109 -35 -176.5 -95.5t-67.5 -168.5zM291 979q0 -47 19.5 -84t51 -64.5t74.5 -49 t90 -38.5q47 18 88 41t72 52.5t48.5 65.5t17.5 81q0 43 -18.5 78t-50.5 60.5t-74 39t-89 13.5q-57 0 -100 -16.5t-72 -43.5t-43 -62.5t-14 -72.5z" />
<glyph unicode="9" horiz-adv-x="1058" d="M78 862q0 100 32.5 183t92 141.5t140.5 90.5t179 32q88 0 168 -34t141.5 -107.5t98.5 -189.5t37 -280q0 -199 -42 -335t-115 -221t-172 -122.5t-216 -37.5q-92 0 -156.5 13t-111.5 36l43 145q43 -18 91 -33.5t128 -15.5q180 0 268 113.5t94 330.5q-51 -59 -130 -94 t-165 -35t-160.5 28t-129 82t-85 132t-30.5 178zM258 877q0 -145 69.5 -218t192.5 -73q86 0 145.5 38t92.5 95q12 23 16 42t4 42q0 74 -19.5 139.5t-54 116.5t-86 80.5t-112.5 29.5q-119 0 -183.5 -80.5t-64.5 -211.5z" />
<glyph unicode=":" horiz-adv-x="456" d="M104 129q0 53 37 90t88 37t87 -37t36 -90q0 -59 -35.5 -94t-87.5 -35q-51 0 -88 35t-37 94zM104 727q0 53 37 90t88 37t87 -37t36 -90q0 -59 -35.5 -94t-87.5 -35q-51 0 -88 35t-37 94z" />
<glyph unicode=";" horiz-adv-x="448" d="M92 -221q53 29 95 77t57 119l-37 7q-53 6 -80 45t-27 86q0 49 34 88t95 39q25 0 50.5 -7.5t47 -29t36 -59.5t14.5 -99q0 -111 -63.5 -203t-161.5 -145zM109 645q0 53 36.5 90t87.5 37t87 -37t36 -90q0 -59 -35.5 -94t-87.5 -35q-51 0 -87.5 35t-36.5 94z" />
<glyph unicode="&#x3c;" horiz-adv-x="1015" d="M135 461v119l746 430v-148l-613 -342l613 -342v-147z" />
<glyph unicode="=" horiz-adv-x="948" d="M82 389v129h784v-129h-784zM82 735v129h784v-129h-784z" />
<glyph unicode="&#x3e;" horiz-adv-x="1015" d="M135 31v147l613 342l-613 342v148l746 -430v-119z" />
<glyph unicode="?" horiz-adv-x="894" d="M119 1380q59 43 139 63.5t152 20.5q92 0 164.5 -25.5t124 -71.5t78 -109.5t26.5 -137.5q0 -53 -17.5 -101t-47 -93t-66.5 -85t-74 -75q-84 -76 -131 -133.5t-47 -128.5q0 -29 4 -51.5t14 -55.5l-153 -28q-27 66 -27 137q0 45 11.5 84t34 77t55 76.5t77.5 83.5l70 70 t57.5 67.5t39.5 72.5t15 81q0 37 -11 71t-36.5 60.5t-67.5 43t-104 16.5q-47 0 -99 -13.5t-103 -50.5zM254 111q0 53 37 90t88 37t87 -37t36 -90q0 -59 -36 -94t-87 -35t-88 35t-37 94z" />
<glyph unicode="@" horiz-adv-x="1976" d="M110.5 236.5q-16.5 148.5 14.5 334.5q31 199 122 356.5t223 266.5t294 166t334 57q213 0 370.5 -70.5t256 -192.5t134 -287t5.5 -353q-23 -135 -77 -232.5t-126 -160t-154 -93t-157 -30.5q-53 0 -94.5 7t-63.5 18l-37 104h-4q-35 -35 -68.5 -62.5t-72.5 -46t-83 -27.5 t-102 -9q-70 0 -124 22.5t-88.5 62t-50 94t-5.5 118.5q12 76 51 130t99.5 90t137.5 52t165 16h184l14 82q18 104 -27.5 142t-136.5 38q-49 0 -124.5 -17t-171.5 -67l-50 132q104 51 194.5 75.5t186.5 24.5q80 0 143.5 -17.5t105.5 -58.5t57.5 -107.5t0.5 -166.5l-53 -328 q-16 -100 -7 -138t58 -38q43 0 90.5 23.5t90.5 72.5t76.5 128t52.5 190q25 152 -4 286.5t-105 236t-196.5 161t-282.5 59.5q-63 0 -140 -10t-158 -39t-162 -78t-149.5 -127t-121.5 -188.5t-80 -259.5q-45 -252 1 -421t146.5 -272.5t236.5 -147.5t275 -44q131 0 223.5 23.5 t174.5 56.5l37 -127q-86 -37 -206 -66t-261 -29q-113 0 -224.5 24t-210 75t-178.5 131t-131 193.5t-67.5 262zM745 272q-12 -80 34 -118.5t116 -38.5q135 0 252 133l31 196l-154 -4q-143 -4 -205.5 -50t-73.5 -118z" />
<glyph unicode="A" horiz-adv-x="1208" d="M4 0l520 1290h168l514 -1290h-196l-142 358h-530l-139 -358h-195zM389 508h424l-86 223q-35 88 -63.5 170t-57.5 168h-4q-29 -86 -59.5 -166t-65.5 -172z" />
<glyph unicode="B" horiz-adv-x="1099" d="M164 0v1290h387q193 0 300 -83t107 -242q0 -119 -66.5 -185.5t-166.5 -93.5q57 -10 106.5 -35.5t86 -66.5t58 -97.5t21.5 -126.5q0 -80 -34.5 -146.5t-96 -113.5t-145.5 -73.5t-184 -26.5h-373zM352 152h164q57 0 108.5 11t90.5 37.5t62.5 70.5t23.5 108q0 63 -28 105 t-73 69t-102 38t-115 11h-131v-450zM352 752h154q51 0 98 8t83 30.5t57.5 60.5t21.5 99q0 98 -66.5 143.5t-177.5 45.5h-170v-387z" />
<glyph unicode="C" horiz-adv-x="1144" d="M92 645q0 158 47 282t130 209t198 129t250 44q127 0 209 -20.5t151 -55.5l-45 -148q-39 16 -72.5 29.5t-67.5 22t-70 12.5t-81 4q-90 0 -171 -27.5t-141 -89t-96 -159t-36 -234.5q0 -139 35 -235.5t93 -155.5t136 -87t166 -28q102 0 169 16.5t132 47.5l43 -152 q-72 -35 -157 -51t-207 -16q-127 0 -240 43t-196 127t-131 207.5t-48 285.5z" />
<glyph unicode="D" horiz-adv-x="1314" d="M164 0v1290h420q137 0 253.5 -39t201.5 -115.5t133.5 -192.5t48.5 -269q0 -186 -57.5 -315.5t-155 -209t-225.5 -114.5t-271 -35h-348zM352 156h142q98 0 192 21.5t167 79.5t118 158.5t45 258.5q0 111 -33 196.5t-94.5 144t-148.5 89.5t-193 31h-195v-979z" />
<glyph unicode="E" horiz-adv-x="1026" d="M164 0v1290h778v-155h-590v-387h537v-154h-537v-438h596v-156h-784z" />
<glyph unicode="F" horiz-adv-x="993" d="M164 0v1290h758v-155h-570v-418h525v-154h-525v-563h-188z" />
<glyph unicode="G" horiz-adv-x="1265" d="M92 643q0 162 48 287t132 209t201 127t254 43q113 0 204 -16.5t169 -57.5l-45 -148q-76 35 -148.5 51.5t-156.5 16.5q-90 0 -172 -26.5t-144.5 -87t-99.5 -158t-37 -240.5q0 -248 112.5 -377t317.5 -129q78 0 134.5 8.5t109.5 28.5v358h-244v148h420v-623 q-82 -33 -182.5 -54t-237.5 -21q-133 0 -249 43t-202 127t-135 206.5t-49 284.5z" />
<glyph unicode="H" horiz-adv-x="1314" d="M164 0v1290h188v-542h613v542h188v-1290h-188v588h-613v-588h-188z" />
<glyph unicode="I" horiz-adv-x="514" d="M164 0v1290h188v-1290h-188z" />
<glyph unicode="J" horiz-adv-x="550" d="M-31 -164q121 2 187 76q37 41 48 100.5t11 124.5v1153h188v-1054q0 -143 -13 -235.5t-64 -162.5q-61 -86 -159.5 -119.5t-197.5 -35.5v153z" />
<glyph unicode="K" horiz-adv-x="1179" d="M164 0v1290h188v-583l543 583h233l-532 -571l573 -719h-237l-471 590l-109 -117v-473h-188z" />
<glyph unicode="L" horiz-adv-x="933" d="M164 0v1290h188v-1130h551v-160h-739z" />
<glyph unicode="M" horiz-adv-x="1660" d="M131 0l109 1290h245l271 -823q20 -59 38.5 -115.5t34.5 -113.5h5q16 57 33.5 110t39.5 119l264 823h246l113 -1290h-189l-53 684q-8 100 -12 199.5t-8 201.5h-4q-29 -100 -58.5 -200.5t-62.5 -200.5l-228 -684h-172l-227 686q-35 104 -63.5 199.5t-57.5 199.5h-4 q-4 -100 -11 -200.5t-15 -200.5l-50 -684h-184z" />
<glyph unicode="N" horiz-adv-x="1376" d="M164 0v1290h164l587 -817q33 -45 64 -92t55 -92h4q-4 72 -6 143.5t-2 142.5v715h184v-1290h-163l-582 807q-31 43 -63.5 97t-61.5 108h-4q4 -86 6 -172t2 -172v-668h-184z" />
<glyph unicode="O" horiz-adv-x="1404" d="M94 645q0 162 47 286t129 208t194 127t243 43t241.5 -42t191.5 -125t126 -207t45 -290q0 -162 -47 -285.5t-129 -207.5t-194 -127t-243 -43t-241.5 42t-191.5 124.5t-126 206.5t-45 290zM299 645q0 -131 31.5 -227t87 -159.5t130.5 -94.5t159 -31t156.5 31t126.5 94.5 t85 159.5t31 227q0 135 -32 231.5t-87 159t-130 92t-159 29.5t-157.5 -30.5t-127 -94t-84 -160t-30.5 -227.5z" />
<glyph unicode="P" horiz-adv-x="1071" d="M164 0v1290h405q100 0 182.5 -25.5t141.5 -75.5t92 -123t33 -167q0 -102 -35 -177t-98.5 -124t-149.5 -73.5t-190 -24.5h-193v-500h-188zM352 653h117q76 0 141.5 10.5t111.5 37t72.5 74.5t26.5 122q0 68 -25.5 114t-66.5 74.5t-94 41t-109 12.5h-174v-486z" />
<glyph unicode="Q" horiz-adv-x="1396" d="M94 645q0 162 47 286t129 208t194 127t243 43t241.5 -42t191.5 -125t126 -207t45 -290q0 -215 -88 -366.5t-285 -262.5l-279 -155q61 0 113.5 -15.5t106 -34t111 -34t126.5 -15.5q41 0 87 13.5t87 42.5l74 -137q-57 -37 -126 -55.5t-128 -18.5q-72 0 -142.5 19.5t-140 43 t-137 43t-135.5 19.5q-53 0 -105.5 -16.5t-105.5 -47.5l-78 142l316 182q-109 16 -198 66.5t-153.5 131t-100.5 195.5t-36 260zM299 645q0 -131 28.5 -228.5t81 -163t124 -98t155.5 -32.5t160 33.5t133 100.5t91 164t34 224q0 135 -32 231.5t-87 159t-130 92t-159 29.5 t-157.5 -30.5t-127 -94t-84 -160t-30.5 -227.5z" />
<glyph unicode="R" horiz-adv-x="1099" d="M164 0v1290h420q100 0 177 -28.5t128 -80t77.5 -122t26.5 -154.5q0 -74 -22.5 -133t-59.5 -103t-85 -76t-97 -52l340 -541h-211l-305 506h-211v-506h-178zM342 659h156q63 0 117.5 13.5t94.5 41t63.5 72.5t23.5 109q0 125 -69 184.5t-200 59.5h-186v-480z" />
<glyph unicode="S" horiz-adv-x="1034" d="M90 940q0 170 111.5 269.5t324.5 99.5q94 0 182.5 -15.5t174.5 -56.5l-45 -156q-88 41 -159 58.5t-144 17.5q-117 0 -184.5 -51t-67.5 -143q0 -78 50 -125t165 -82l129 -41q176 -55 248.5 -150.5t72.5 -214.5q0 -84 -33.5 -152.5t-94 -116.5t-142.5 -73.5t-180 -25.5 t-199.5 17t-202.5 64l45 154q88 -43 172 -63.5t176 -20.5q111 0 189 51.5t78 151.5q0 37 -11.5 68.5t-39 60.5t-74.5 53.5t-119 46.5l-129 41q-141 45 -217 123t-76 211z" />
<glyph unicode="T" horiz-adv-x="1026" d="M20 1130v160h988v-160h-404v-1130h-188v1130h-396z" />
<glyph unicode="U" horiz-adv-x="1310" d="M147 510v780h189v-772q0 -207 75.5 -295t243.5 -88q166 0 243 98.5t77 260.5v796h188v-790q0 -264 -135 -391t-373 -127q-240 0 -374 125.5t-134 402.5z" />
<glyph unicode="V" horiz-adv-x="1175" d="M-6 1290h199l268 -729q29 -76 62.5 -167t62.5 -169h4q31 86 62.5 173t60.5 163l272 729h197l-508 -1290h-182z" />
<glyph unicode="W" horiz-adv-x="1759" d="M16 1290h193l219 -760q8 -25 17.5 -62.5t19.5 -79.5t18.5 -84t12.5 -79h4q6 37 15 79t19.5 84t19.5 79t17 63l226 760h168l233 -760q8 -27 17.5 -63.5t18.5 -77.5t18.5 -84t15.5 -80h4q6 39 15 82t19.5 85l19.5 78l15 60l211 760h191l-379 -1290h-190l-197 686 q-14 51 -27.5 96t-25 86t-22.5 83t-23 89h-5q-20 -92 -44.5 -184t-47.5 -170l-190 -686h-189z" />
<glyph unicode="X" horiz-adv-x="1116" d="M12 0l430 655l-411 635h215l309 -504l324 504h206l-423 -635l444 -655h-217l-334 524l-336 -524h-207z" />
<glyph unicode="Y" horiz-adv-x="1071" d="M20 1290h207l322 -577l323 577h199l-436 -749v-541h-189v541z" />
<glyph unicode="Z" horiz-adv-x="1046" d="M53 0v133l697 1006h-666v151h901v-112l-709 -1026h719v-152h-942z" />
<glyph unicode="[" horiz-adv-x="616" d="M166 -317v1792h389v-136h-213v-1519h213v-137h-389z" />
<glyph unicode="\" horiz-adv-x="677" d="M0 1475h154l524 -1655h-154z" />
<glyph unicode="]" horiz-adv-x="616" d="M61 -180h213v1519h-213v136h390v-1792h-390v137z" />
<glyph unicode="^" horiz-adv-x="1056" d="M125 852l342 623h121l346 -623h-156l-250 498l-245 -498h-158z" />
<glyph unicode="_" horiz-adv-x="749" d="M20 -389h709v-123h-709v123z" />
<glyph unicode="`" horiz-adv-x="430" d="M45 1475h180l164 -338h-127z" />
<glyph unicode="a" d="M74 258q0 152 119.5 230.5t316.5 78.5h184v82q0 104 -53 142t-143 38q-53 0 -122 -17t-157 -67l-69 132q49 25 92 44t86 31.5t88 18.5t98 6q80 0 146.5 -17.5t114.5 -58.5t75 -107.5t27 -166.5v-627h-150l-22 106h-5q-63 -68 -139 -96t-168 -28q-70 0 -128 19t-101 55 t-66.5 87.5t-23.5 114.5zM262 264q0 -43 14.5 -72.5t38 -46t55 -23.5t66.5 -7q68 0 137.5 31.5t122.5 101.5v196l-151 -4q-154 -4 -218.5 -54t-64.5 -122z" />
<glyph unicode="b" horiz-adv-x="1105" d="M141 0v1454h178v-612q66 70 145 102.5t165 32.5q184 0 291.5 -131.5t107.5 -364.5q0 -115 -35 -207t-94 -157.5t-139 -100t-170 -34.5q-94 0 -165 26.5t-132 81.5h-4l-19 -90h-129zM319 229q43 -49 97.5 -78.5t126.5 -29.5q57 0 111.5 20.5t95.5 64.5t65.5 111.5 t24.5 161.5q0 160 -67.5 255t-190.5 95q-78 0 -141.5 -34.5t-121.5 -98.5v-467z" />
<glyph unicode="c" horiz-adv-x="905" d="M80 479q0 115 37 207t102.5 156.5t157.5 99.5t203 35q63 0 123.5 -9.5t138.5 -43.5l-41 -138q-94 53 -203 54q-150 0 -242 -93.5t-92 -261.5q0 -104 29 -173.5t76 -111.5t106.5 -60.5t120.5 -18.5q66 0 115 14.5t96 36.5l39 -135q-111 -55 -264 -55q-104 0 -195.5 30.5 t-160 93t-107.5 155.5t-39 218z" />
<glyph unicode="d" horiz-adv-x="1097" d="M80 479q0 113 29.5 205t85 157.5t135.5 100.5t182 35q76 0 144.5 -23.5t121.5 -70.5v571h180v-1454h-151l-23 106h-6q-63 -66 -127.5 -95t-163.5 -29q-78 0 -150.5 30.5t-129.5 92t-92 154.5t-35 220zM262 485q0 -98 22.5 -166.5t60.5 -112.5t86 -64.5t97 -20.5 q154 0 250 133v477q-96 109 -227 109q-55 0 -107.5 -19.5t-92.5 -62.5t-64.5 -110.5t-24.5 -162.5z" />
<glyph unicode="e" horiz-adv-x="1032" d="M80 479q0 113 33.5 205t95 156.5t148.5 100.5t196 36q92 0 167 -31t128 -86t81.5 -133t28.5 -172v-94h-690v-8q0 -160 87 -246t237 -86q78 0 138.5 12t131.5 41l37 -133q-59 -27 -140 -43t-173 -16q-104 0 -195.5 28.5t-161 89t-109.5 154.5t-40 225zM272 586l500 4 q0 53 -13.5 99t-41 81t-70.5 55.5t-104 20.5q-113 0 -183.5 -72t-87.5 -188z" />
<glyph unicode="f" horiz-adv-x="679" d="M39 827v136h141v170q0 160 83 245.5t239 85.5q57 0 119.5 -16t111.5 -41l-37 -125q-41 16 -77.5 25.5t-77.5 9.5q-98 0 -140.5 -55.5t-42.5 -188.5v-110h293v-136h-293v-827h-178v827h-141z" />
<glyph unicode="g" horiz-adv-x="1107" d="M66 -176q0 76 48 127t126 78q-41 29 -61.5 60.5t-20.5 84.5q0 63 37.5 108.5t103.5 71.5q-82 37 -128 107.5t-46 181.5q0 80 28.5 142.5t81 105.5t124 64.5t155.5 21.5q31 0 59.5 -4t57.5 -10h416v-134h-64l-164 23q39 -41 60.5 -94t21.5 -113q0 -80 -28.5 -142.5 t-80 -105.5t-123 -64.5t-155.5 -21.5q-63 0 -111 8q-47 -16 -65.5 -41.5t-18.5 -54.5q0 -47 32 -63.5t85 -16.5h254q160 0 245 -72.5t85 -197.5q0 -80 -35 -143.5t-99.5 -108.5t-156.5 -68.5t-207 -23.5q-209 0 -332.5 74.5t-123.5 220.5zM240 -147q0 -180 290 -181 q86 0 145.5 16.5t96.5 43t54.5 59.5t17.5 68q0 86 -58.5 113.5t-146.5 27.5h-295q-104 -47 -104 -147zM309 647q0 -106 56.5 -156.5t148.5 -50.5t148.5 49.5t56.5 149.5q0 109 -56.5 160t-148.5 51t-148.5 -51t-56.5 -152z" />
<glyph unicode="h" horiz-adv-x="1105" d="M141 0v1454h181v-614q68 59 149.5 98t179.5 39q80 0 139.5 -23.5t97.5 -65.5t57.5 -99.5t19.5 -124.5v-664h-181v618q0 111 -45 161t-137 50q-70 0 -140.5 -34.5t-139.5 -98.5v-696h-181z" />
<glyph unicode="i" horiz-adv-x="503" d="M143 1321q0 47 34 80t81 33q45 0 80 -33t35 -80t-35 -79t-80 -32q-47 0 -81 32t-34 79zM168 0v963h180v-963h-180z" />
<glyph unicode="j" horiz-adv-x="503" d="M-76 -356q63 33 109.5 67.5t74 86.5t41 129t13.5 196v840h180v-818q0 -117 -13.5 -214t-50 -176t-102 -140t-168.5 -107zM135 1321q0 47 34 80t81 33q45 0 80 -33t35 -80t-35 -79t-80 -32q-47 0 -81 32t-34 79z" />
<glyph unicode="k" horiz-adv-x="956" d="M141 0v1454h178v-905l388 414h223l-395 -406l413 -557h-213l-319 449l-97 -97v-352h-178z" />
<glyph unicode="l" horiz-adv-x="471" d="M147 0v1454h177v-1454h-177z" />
<glyph unicode="m" horiz-adv-x="1687" d="M139 0v963h140l26 -134q68 68 145.5 108t186.5 40q102 0 167.5 -42t98.5 -116q72 76 158 117t190 41q147 0 222 -83t75 -230v-664h-180v631q0 96 -41 147t-135 51q-139 0 -260 -124q2 -10 2 -20.5v-20.5v-664h-180v631q0 96 -41 147t-135 51q-139 0 -259 -131v-698h-180z " />
<glyph unicode="n" horiz-adv-x="1093" d="M139 0v963h142l26 -134q72 72 151 110t181 38q147 0 231 -83t84 -230v-664h-180v637q0 88 -46 140t-140 52q-143 0 -269 -129v-700h-180z" />
<glyph unicode="o" horiz-adv-x="1101" d="M80 471q0 121 37 215t101.5 158.5t150.5 98.5t186 34t185 -31t147.5 -92t98.5 -152t36 -210q0 -121 -37 -216.5t-101.5 -161t-150.5 -99t-186 -33.5t-185.5 31.5t-147.5 94t-98 153.5t-36 210zM268 481q0 -96 24.5 -164.5t64.5 -111.5t91.5 -63.5t104.5 -20.5t104.5 17.5 t90 59.5t62.5 110.5t24 172.5q0 96 -25 164t-64.5 111t-91 62.5t-104.5 19.5t-104.5 -16.5t-90.5 -57.5t-62.5 -109.5t-23.5 -173.5z" />
<glyph unicode="p" horiz-adv-x="1087" d="M131 -471v1448h150l26 -125q55 51 125 88t164 37q193 0 303.5 -123t110.5 -352q0 -135 -40 -233.5t-106.5 -162t-151.5 -94t-173 -30.5q-66 0 -126.5 18t-103.5 49v-520h-178zM309 188q47 -35 100.5 -51t106.5 -16q55 0 110.5 19.5t98.5 64.5t69.5 116.5t26.5 176.5 q0 154 -64.5 242.5t-199.5 88.5q-86 0 -149.5 -42t-98.5 -85v-514z" />
<glyph unicode="q" horiz-adv-x="1097" d="M80 481q0 106 28.5 197.5t85 157t139.5 103.5t189 38q31 0 68 -7t72.5 -21.5t68.5 -36t57 -48.5l21 99h149v-1434h-180v541q-53 -47 -117.5 -67.5t-146.5 -20.5q-102 0 -183 35.5t-136.5 100t-85 157t-29.5 206.5zM262 487q0 -182 77 -274t200 -92q76 0 137 29.5 t102 76.5v490q-37 51 -95 87t-130 36q-59 0 -111.5 -19.5t-92.5 -62.5t-63.5 -109.5t-23.5 -161.5z" />
<glyph unicode="r" horiz-adv-x="761" d="M135 0v963h135l31 -193q35 92 115 149.5t184 57.5q53 0 88 -8t64 -21l-35 -157q-25 12 -54.5 20t-70.5 8q-59 0 -109.5 -20.5t-88.5 -61.5t-59.5 -101.5t-21.5 -137.5v-498h-178z" />
<glyph unicode="s" horiz-adv-x="833" d="M72 43l43 141q59 -29 128.5 -46t141.5 -17q92 0 146.5 32.5t54.5 108.5q0 66 -47 93.5t-136 54.5l-63 20q-133 43 -197.5 107.5t-64.5 167.5q0 61 26.5 112t72.5 86t109.5 54.5t139.5 19.5q72 0 148.5 -13.5t146.5 -43.5l-41 -138q-68 33 -123 45.5t-111 12.5 q-98 0 -145 -36t-47 -95q0 -43 32.5 -75t137.5 -63l61 -18q137 -41 208 -105.5t71 -175.5q0 -131 -97.5 -210.5t-271.5 -79.5q-92 0 -177 16t-146 45z" />
<glyph unicode="t" horiz-adv-x="745" d="M41 827v136h143v307h178v-307h283v-136h-283v-559q0 -72 36 -96.5t94 -24.5q41 0 90 9.5t86 21.5l28 -137q-41 -16 -104.5 -28.5t-132.5 -12.5q-143 0 -209 62.5t-66 181.5v583h-143z" />
<glyph unicode="u" horiz-adv-x="1103" d="M139 324v639h180v-617q0 -61 15.5 -104t41 -69t60.5 -37t76 -11q82 0 147.5 35t124.5 96v707h181v-963h-142l-24 121h-8q-53 -59 -132 -99t-184 -40q-150 0 -243 85t-93 257z" />
<glyph unicode="v" horiz-adv-x="948" d="M27 963h194l217 -662l37 -151h8l35 149l213 664h193l-359 -963h-176z" />
<glyph unicode="w" horiz-adv-x="1458" d="M23 963h192l164 -607l37 -215h8l45 215l166 607h194l170 -607l43 -215h9l45 215l159 607h185l-293 -963h-205l-164 590l-47 237l-49 -237l-168 -590h-195z" />
<glyph unicode="x" horiz-adv-x="917" d="M23 0l333 487l-317 476h203l151 -236l74 -123l72 123l141 236h197l-316 -476l338 -487h-205l-166 242l-75 125l-70 -123l-160 -244h-200z" />
<glyph unicode="y" horiz-adv-x="944" d="M18 963h193l205 -551l69 -230h4l70 230l186 551h185l-371 -1045q-61 -174 -154.5 -272.5t-222.5 -143.5l-78 144q96 37 171 106.5t116 192.5l19 55z" />
<glyph unicode="z" horiz-adv-x="841" d="M51 0v111l510 716h-475v136h696v-105l-510 -723h521v-135h-742z" />
<glyph unicode="{" horiz-adv-x="667" d="M57 504v125q92 10 136.5 51t44.5 129v328q0 66 24.5 122t72.5 97t118.5 64.5t162.5 23.5v-135q-104 0 -156 -55.5t-52 -155.5v-293q0 -94 -34 -150.5t-116 -83.5v-6q78 -35 114 -106.5t36 -182.5v-290q0 -72 52 -115t156 -47v-141q-170 4 -274 91t-104 240v303 q0 86 -43 134.5t-138 52.5z" />
<glyph unicode="|" horiz-adv-x="448" d="M147 -471v2007h154v-2007h-154z" />
<glyph unicode="}" horiz-adv-x="667" d="M51 -176q104 4 156.5 47t52.5 115v290q0 111 36 182.5t114 106.5v6q-82 27 -116 83.5t-34 150.5v293q0 100 -52 155.5t-157 55.5v145q92 0 163 -24.5t119 -67.5t72.5 -101.5t24.5 -123.5v-328q0 -88 44 -129t136 -51v-125q-94 -4 -137 -52.5t-43 -134.5v-303 q0 -154 -104.5 -240.5t-274.5 -90.5v141z" />
<glyph unicode="~" horiz-adv-x="1200" d="M98 430q0 154 80 232.5t203 78.5q61 0 119.5 -26.5t114 -59t107.5 -59.5t101 -27q76 0 117 44t41 126h121q0 -92 -25.5 -151.5t-65.5 -95t-89.5 -50t-96.5 -14.5q-61 0 -120.5 27.5t-114.5 60.5t-107.5 60.5t-103.5 27.5q-78 0 -119 -51t-41 -123h-121z" />
<glyph horiz-adv-x="1196" />
<glyph unicode="&#xa1;" horiz-adv-x="503" d="M129 842q0 59 37 94t88 35t87 -35t36 -94q0 -53 -36 -90t-87 -37q-53 0 -88 37t-37 90zM158 -502l20 1026h148l24 -1026h-192z" />
<glyph unicode="&#xa2;" horiz-adv-x="1044" d="M131 627q0 211 114.5 335.5t305.5 147.5v199h154v-199q45 -4 91 -15.5t97 -33.5l-41 -137q-43 25 -99.5 39t-117.5 14q-150 0 -235 -88t-85 -256q0 -104 29 -172t76 -109t106.5 -57t120.5 -16q66 0 115 14t96 37l39 -135q-82 -41 -192 -54v-182h-154v184q-90 10 -167 45 t-133 95.5t-88 145.5t-32 198z" />
<glyph unicode="&#xa3;" horiz-adv-x="1034" d="M113 123q125 68 178 177.5t24 262.5h-190v129h170q-8 47 -15.5 104.5t-7.5 116.5q0 90 32 164t87 125t132 79t167 28q76 0 139.5 -15.5t96.5 -36.5l-41 -135q-39 16 -87 28.5t-108 12.5q-125 0 -187.5 -70.5t-62.5 -181.5q0 -66 7.5 -118t17.5 -101h336v-129h-320 q16 -131 -10.5 -230.5t-124.5 -172.5l2 -8h594v-152h-788z" />
<glyph unicode="&#xa4;" horiz-adv-x="1050" d="M72 225l172 172q-63 94 -64 232q0 70 16.5 127t45.5 102l-168 170l84 84l168 -170q84 59 202 59q55 0 104.5 -16t90.5 -45l172 172l84 -84l-172 -172q29 -47 46 -104.5t17 -122.5q0 -72 -16 -131.5t-45 -104.5l170 -170l-84 -84l-172 170q-41 -27 -91 -41t-110 -14 q-111 0 -196 57l-170 -170zM317 629q0 -129 53.5 -199t151.5 -70q43 0 81 14.5t67.5 47.5t46 84t16.5 123q0 125 -51 195.5t-154 70.5q-98 0 -154.5 -66.5t-56.5 -199.5z" />
<glyph unicode="&#xa5;" horiz-adv-x="1040" d="M6 1290h207l311 -598l314 598h198l-307 -532h238v-127h-310l-51 -90v-90h361v-127h-361v-324h-180v324h-360v127h360v90l-51 90h-309v127h237z" />
<glyph unicode="&#xa6;" horiz-adv-x="481" d="M164 -369v754h153v-754h-153zM164 778v758h153v-758h-153z" />
<glyph unicode="&#xa7;" horiz-adv-x="1062" d="M123 633q0 78 37 138t92 101q-47 59 -47 146q0 61 24.5 114.5t72.5 92.5t116.5 61.5t154.5 22.5q80 0 153 -13.5t142 -44.5l-41 -129q-68 33 -123 45.5t-110 12.5q-113 0 -167 -40t-54 -108q0 -31 10 -53.5t31.5 -39.5t57.5 -33.5t87 -35.5l125 -47q121 -47 188.5 -115.5 t67.5 -170.5q0 -80 -37 -140.5t-92 -101.5q23 -29 35 -64.5t12 -78.5q0 -61 -24.5 -116.5t-72.5 -95.5t-117 -63.5t-155 -23.5q-111 0 -196.5 17t-155.5 48l41 129q68 -33 136.5 -49t154.5 -16q113 0 167 44t54 111q0 31 -10 53.5t-31.5 40t-57.5 34t-87 34.5l-125 47 q-121 47 -188.5 115.5t-67.5 171.5zM289 655q0 -72 44 -107.5t116 -62.5l124 -45q35 -14 69 -28.5t65 -30.5q29 25 48 56.5t19 76.5q0 72 -44 107.5t-116 62.5l-125 45q-35 12 -69.5 26.5t-65.5 32.5q-29 -25 -47 -57.5t-18 -75.5z" />
<glyph unicode="&#xa8;" horiz-adv-x="684" d="M70 1276q0 39 30.5 69.5t71.5 30.5t71.5 -30.5t30.5 -69.5q0 -41 -30.5 -73t-71.5 -32t-71.5 32t-30.5 73zM410 1276q0 39 30.5 69.5t71.5 30.5t71.5 -30.5t30.5 -69.5q0 -41 -30.5 -73t-71.5 -32t-71.5 32t-30.5 73z" />
<glyph unicode="&#xa9;" horiz-adv-x="1445" d="M74 645q0 162 53 286t143 208t208 127t249 43t248 -42t205 -125t140 -207t52 -290q0 -162 -53 -285.5t-143.5 -207.5t-208 -127t-248.5 -43t-248 42t-205 124.5t-140 206.5t-52 290zM156 645q0 -150 45 -261.5t121.5 -185t179 -110.5t217.5 -37t218 38t182 114t125 186.5 t46 255.5q0 150 -45 261.5t-121.5 185t-179 110.5t-217.5 37t-219.5 -38t-182 -113.5t-123.5 -186t-46 -256.5zM403 639q0 82 27 148.5t74 113.5t113.5 71.5t146.5 24.5q45 0 88 -7t100 -29l-28 -101q-72 39 -146 39q-111 0 -176 -66.5t-65 -189.5q0 -74 20.5 -124t54 -80.5 t76.5 -44t88 -13.5q47 0 82 10t70 27l28 -99q-84 -39 -192 -38q-74 0 -139.5 22.5t-114.5 66.5t-78 111.5t-29 157.5z" />
<glyph unicode="&#xaa;" horiz-adv-x="681" d="M68 731q0 100 78.5 151.5t207.5 51.5h123v55q0 70 -35.5 94.5t-95.5 24.5q-35 0 -80 -11.5t-104 -43.5l-45 86q66 35 118 50t123 15q51 0 95.5 -11t76 -38t49 -71t17.5 -109v-414h-98l-15 70h-2q-41 -45 -92 -63.5t-110 -18.5q-92 0 -151.5 48t-59.5 134zM190 735 q0 -59 35 -78.5t80 -19.5t91 20.5t81 65.5v131l-100 -4q-102 -4 -144.5 -36t-42.5 -79z" />
<glyph unicode="&#xab;" d="M94 483l303 330h156l-279 -330l279 -327h-156zM463 483l303 330h156l-279 -330l279 -327h-156z" />
<glyph unicode="&#xac;" horiz-adv-x="2957" />
<glyph unicode="&#xad;" horiz-adv-x="573" d="M61 520v162h451v-162h-451z" />
<glyph unicode="&#xae;" horiz-adv-x="1089" d="M82 942q0 115 34 202t95 145.5t145 87t187 28.5q100 0 186 -28.5t147.5 -85t96.5 -139.5t35 -194q0 -117 -34 -203.5t-95.5 -146t-146.5 -89.5t-185 -30q-102 0 -187.5 30t-146.5 86.5t-96 141t-35 195.5zM152 950q0 -104 28.5 -181t80.5 -127t125 -75.5t161 -25.5 q80 0 150.5 23.5t125 73.5t85 126.5t30.5 185.5q0 102 -32 178t-86 125.5t-125.5 74t-151.5 24.5t-150.5 -22.5t-125 -71t-85 -125t-30.5 -183.5zM379 692v516h203q82 0 126 -44t44 -109q0 -63 -32 -99t-73 -53l133 -211h-100l-117 197h-102v-197h-82zM461 956h86 q51 0 85 21.5t34 73.5q0 49 -28 68.5t-79 19.5h-98v-183z" />
<glyph unicode="&#xaf;" horiz-adv-x="585" d="M63 1235v117h461v-117h-461z" />
<glyph unicode="&#xb0;" horiz-adv-x="800" d="M74 956q0 80 23.5 144.5t67.5 110.5t105.5 72t137.5 26q74 0 134 -26t103 -72t66.5 -110.5t23.5 -144.5q0 -164 -87 -259t-247 -95q-147 0 -237 95.5t-90 258.5zM211 956q0 -113 46 -180t144 -67q86 0 141.5 59t55.5 188q0 111 -44 178.5t-146 67.5q-98 0 -147.5 -64.5 t-49.5 -181.5z" />
<glyph unicode="&#xb1;" horiz-adv-x="960" d="M72 635v125h346v346h125v-346h346v-125h-346v-346h-125v346h-346zM133 0v125h694v-125h-694z" />
<glyph unicode="&#xb2;" horiz-adv-x="647" d="M31 1225q61 41 124.5 59.5t135.5 18.5q141 0 218 -73t77 -186q0 -78 -50.5 -167t-187.5 -193l-141 -109h379v-118h-531l-22 102l166 141q63 53 109 97.5t76 84.5t44 78.5t14 79.5q0 63 -41.5 103.5t-113.5 40.5q-47 0 -91 -12.5t-102 -47.5z" />
<glyph unicode="&#xb3;" horiz-adv-x="606" d="M20 483l33 111q59 -18 101.5 -23.5t95.5 -5.5q66 0 117 35t51 100q0 47 -41 83t-141 36h-121v111h90q96 0 142 38t46 97q0 68 -47 95.5t-102 27.5q-39 0 -80 -8.5t-82 -26.5l-39 102q66 29 119 38.5t106 9.5q55 0 104.5 -16.5t86.5 -46.5t58.5 -71t21.5 -92 q0 -145 -162 -192v-4q86 -16 138 -66.5t52 -126.5q0 -61 -26.5 -106t-69.5 -76t-100.5 -45.5t-118.5 -14.5q-53 0 -121 10.5t-111 26.5z" />
<glyph unicode="&#xb4;" horiz-adv-x="518" d="M66 1137l163 338h181l-217 -338h-127z" />
<glyph unicode="&#xb5;" horiz-adv-x="1099" d="M139 -328v1291h180v-617q0 -61 15.5 -104t41 -69t60.5 -37t76 -11q82 0 147.5 35t124.5 96v707h181v-963h-142l-24 121h-8q-53 -59 -132 -99t-184 -40q-47 0 -88 8t-82 28l14 -168v-178h-180z" />
<glyph unicode="&#xb6;" horiz-adv-x="1130" d="M72 920q0 98 32.5 170.5t93 121t143.5 73t183 24.5h443v-1678h-125v1540h-187v-1540h-127v908q-229 0 -342.5 102t-113.5 279z" />
<glyph unicode="&#xb7;" horiz-adv-x="378" d="M70 678q0 53 34.5 91t88.5 38q47 0 81.5 -38t34.5 -91q0 -51 -34.5 -89t-81.5 -38q-53 0 -88 38t-35 89z" />
<glyph unicode="&#xb8;" horiz-adv-x="585" d="M117 -385l24 86q27 -10 55.5 -14t57.5 -4q55 0 87 17t32 56q0 41 -41 62.5t-146 21.5l76 160h107l-54 -96q92 -6 136.5 -45t44.5 -99q0 -43 -18.5 -74.5t-50.5 -53t-73 -32t-86 -10.5q-47 0 -87 7.5t-64 17.5z" />
<glyph unicode="&#xb9;" horiz-adv-x="540" d="M45 1174l254 116h104v-831h-141v680l-184 -84z" />
<glyph unicode="&#xba;" horiz-adv-x="1716" />
<glyph unicode="&#xbb;" d="M94 156l279 327l-279 330h156l303 -330l-303 -327h-156zM463 156l278 327l-278 330h155l304 -330l-304 -327h-155z" />
<glyph unicode="&#xbc;" horiz-adv-x="1691" d="M82 1174l254 116h104v-831h-141v680l-184 -84zM334 -18l835 1327h134l-836 -1327h-133zM893 209v90l401 532h156v-514h139v-108h-139v-209h-137v209h-420zM1044 317h269v265l8 114h-4l-72 -114z" />
<glyph unicode="&#xbd;" horiz-adv-x="1728" d="M82 1174l254 116h104v-831h-141v680l-184 -84zM313 -18l836 1327h133l-836 -1327h-133zM1092 768q61 41 124.5 59.5t135.5 18.5q141 0 218 -73t77 -185q0 -78 -50.5 -167t-187.5 -194l-141 -108h379v-119h-531l-22 102l166 142q63 53 109 97t76 84t44 79t14 80 q0 63 -41.5 103t-113.5 40q-47 0 -91.5 -12.5t-101.5 -46.5z" />
<glyph unicode="&#xbe;" horiz-adv-x="1798" d="M102 483l33 111q59 -18 101.5 -23.5t95.5 -5.5q66 0 117 35t51 100q0 47 -41 83t-142 36h-120v111h90q96 0 142 38t46 97q0 68 -47 95.5t-102 27.5q-39 0 -80 -8.5t-82 -26.5l-39 102q66 29 119 38.5t106 9.5q55 0 104.5 -16.5t86.5 -46.5t58.5 -71t21.5 -92 q0 -145 -162 -192v-4q86 -16 138 -66.5t52 -126.5q0 -61 -26.5 -106t-69.5 -76t-100.5 -45.5t-118.5 -14.5q-53 0 -121 10.5t-111 26.5zM440 -18l836 1327h133l-836 -1327h-133zM999 209v90l402 532h155v-514h140v-108h-140v-209h-137v209h-420zM1151 317h268v265l8 114h-4 l-71 -114z" />
<glyph unicode="&#xbf;" horiz-adv-x="901" d="M129 -168q0 51 17.5 100.5t47 94.5t66.5 85t74 74q84 76 131 133.5t47 129.5q0 29 -4 51t-14 55l153 29q12 -31 19.5 -67t7.5 -71q0 -90 -45 -161.5t-133 -159.5q-37 -37 -70 -69.5t-57.5 -67.5t-40 -73t-15.5 -81q0 -37 11.5 -70.5t37 -60.5t67.5 -43t103 -16 q47 0 99.5 13t103.5 50l78 -135q-59 -43 -139 -63.5t-152 -20.5q-92 0 -164.5 25.5t-124 71.5t-78 109.5t-26.5 137.5zM430 842q0 59 36 94t87 35t88 -35t37 -94q0 -53 -37 -90t-88 -37t-87 36.5t-36 90.5z" />
<glyph unicode="&#xc0;" horiz-adv-x="1208" d="M4 0h195l139 358h530l142 -358h196l-514 1290h-168zM313 1708h211l164 -254h-147zM389 508l88 223q35 92 65.5 172t59.5 166h4q29 -86 57.5 -168t63.5 -170l86 -223h-424z" />
<glyph unicode="&#xc1;" horiz-adv-x="1208" d="M4 0l520 1290h168l514 -1290h-196l-142 358h-530l-139 -358h-195zM389 508h424l-86 223q-35 88 -63.5 170t-57.5 168h-4q-29 -86 -59.5 -166t-65.5 -172zM522 1454l164 254h211l-227 -254h-148z" />
<glyph unicode="&#xc2;" horiz-adv-x="1208" d="M4 0l520 1290h168l514 -1290h-196l-142 358h-530l-139 -358h-195zM285 1454l250 275h141l256 -275h-164l-164 172l-164 -172h-155zM389 508h424l-86 223q-35 88 -63.5 170t-57.5 168h-4q-29 -86 -59.5 -166t-65.5 -172z" />
<glyph unicode="&#xc3;" horiz-adv-x="1208" d="M4 0h195l139 358h530l142 -358h196l-514 1290h-168zM289 1454q0 94 42 159.5t136 65.5q43 0 77 -14t63.5 -30.5t58 -31t61.5 -14.5q41 0 58.5 31t21.5 66h102q0 -43 -10 -83t-31.5 -72t-53.5 -51.5t-75 -19.5t-80.5 13.5t-70.5 31t-61.5 30.5t-53.5 13q-43 0 -60.5 -26.5 t-21.5 -67.5h-102zM389 508l88 223q35 92 65.5 172t59.5 166h4q29 -86 57.5 -168t63.5 -170l86 -223h-424z" />
<glyph unicode="&#xc4;" horiz-adv-x="1208" d="M4 0h195l139 358h530l142 -358h196l-514 1290h-168zM332 1559q0 39 30.5 69.5t71.5 30.5t72 -31t31 -69q0 -41 -31 -73t-72 -32t-71.5 32t-30.5 73zM389 508l88 223q35 92 65.5 172t59.5 166h4q29 -86 57.5 -168t63.5 -170l86 -223h-424zM672 1559q0 39 30.5 69.5 t71.5 30.5t72 -31t31 -69q0 -41 -31 -73t-72 -32t-71.5 32t-30.5 73z" />
<glyph unicode="&#xc5;" horiz-adv-x="1208" d="M4 0h195l139 358h530l142 -358h196l-514 1290h-168zM389 508l88 223q35 92 65.5 172t59.5 166h4q29 -86 57.5 -168t63.5 -170l86 -223h-424zM408 1556q0 90 57 130t141 40q86 0 142.5 -38.5t56.5 -131.5q0 -45 -16.5 -77.5t-44 -53t-63.5 -30t-75 -9.5q-80 0 -139 42 t-59 128zM508 1556q0 -47 25.5 -74.5t72.5 -27.5t73 27.5t26 74.5t-26 75t-73 28t-72.5 -28t-25.5 -75z" />
<glyph unicode="&#xc6;" horiz-adv-x="1615" d="M4 0l664 1290h852v-155h-549v-387h495v-154h-495v-438h555v-156h-735v358h-390l-174 -358h-223zM465 502h326v647z" />
<glyph unicode="&#xc7;" horiz-adv-x="1144" d="M92 645q0 158 47 282t130 209t198 129t250 44q127 0 209 -20.5t151 -55.5l-45 -148q-39 16 -72.5 29.5t-67.5 22t-70 12.5t-81 4q-90 0 -171 -27.5t-141 -89t-96 -159t-36 -234.5q0 -139 35 -235.5t93 -155.5t136 -87t166 -28q102 0 169 16.5t132 47.5l43 -152 q-72 -33 -151.5 -49t-196.5 -18l-35 -78q57 -2 96 -16.5t61.5 -38t33 -51t10.5 -58.5q0 -86 -70.5 -132t-177.5 -46q-47 0 -87 7t-65 17l25 86q27 -10 55.5 -14t57.5 -4q139 0 139 82q0 20 -7 39.5t-29.5 34t-62.5 22.5t-108 8l70 146q-115 12 -212.5 61t-170 132 t-113.5 200t-41 266z" />
<glyph unicode="&#xc8;" horiz-adv-x="1038" d="M164 0v1290h778v-155h-590v-387h537v-154h-537v-438h596v-156h-784zM348 1708h211l164 -254h-148z" />
<glyph unicode="&#xc9;" horiz-adv-x="1026" d="M164 0v1290h778v-155h-590v-387h537v-154h-537v-438h596v-156h-784zM414 1454l164 254h210l-227 -254h-147z" />
<glyph unicode="&#xca;" horiz-adv-x="1026" d="M164 0v1290h778v-155h-590v-387h537v-154h-537v-438h596v-156h-784zM217 1454l250 275h141l256 -275h-164l-163 172l-164 -172h-156z" />
<glyph unicode="&#xcb;" horiz-adv-x="1026" d="M164 0v1290h778v-155h-590v-387h537v-154h-537v-438h596v-156h-784zM285 1559q0 39 30.5 69.5t71.5 30.5t71.5 -31t30.5 -69q0 -41 -30.5 -73t-71.5 -32t-71.5 32t-30.5 73zM625 1559q0 39 30.5 69.5t71.5 30.5t71.5 -31t30.5 -69q0 -41 -30.5 -73t-71.5 -32t-71.5 32 t-30.5 73z" />
<glyph unicode="&#xcc;" horiz-adv-x="516" d="M-43 1708h211l164 -254h-148zM164 0v1290h188v-1290h-188z" />
<glyph unicode="&#xcd;" horiz-adv-x="516" d="M164 0v1290h188v-1290h-188zM182 1454l164 254h211l-227 -254h-148z" />
<glyph unicode="&#xce;" horiz-adv-x="516" d="M-63 1454l249 275h142l256 -275h-164l-164 172l-164 -172h-155zM164 0v1290h188v-1290h-188z" />
<glyph unicode="&#xcf;" horiz-adv-x="516" d="M-18 1559q0 39 30.5 69.5t71.5 30.5t71.5 -31t30.5 -69q0 -41 -30.5 -73t-71.5 -32t-71.5 32t-30.5 73zM164 0v1290h188v-1290h-188zM322 1559q0 39 30.5 69.5t71.5 30.5t71.5 -31t30.5 -69q0 -41 -30.5 -73t-71.5 -32t-71.5 32t-30.5 73z" />
<glyph unicode="&#xd0;" horiz-adv-x="1376" d="M61 610v127h164v553h420q137 0 254 -39t202 -115.5t133 -192.5t48 -269q0 -186 -57.5 -315.5t-154.5 -209t-225 -114.5t-272 -35h-348v610h-164zM414 156h141q98 0 192.5 21.5t167 79.5t117.5 158.5t45 258.5q0 111 -32.5 196.5t-94 144t-148.5 89.5t-194 31h-194v-398 h262v-127h-262v-454z" />
<glyph unicode="&#xd1;" horiz-adv-x="1355" d="M164 0v1290h287l432 -848l123 -266h6l-2 307v807h184v-1290h-287l-418 811l-137 313h-6l2 -354v-770h-184zM406 1454q0 94 41.5 159.5t136.5 65.5q43 0 76.5 -14t63.5 -30.5t58.5 -31t61.5 -14.5q41 0 58.5 31t21.5 66h102q0 -43 -10 -83t-31.5 -72t-53.5 -51.5 t-75 -19.5t-81 13.5t-70.5 31t-61.5 30.5t-53 13q-43 0 -60.5 -26.5t-21.5 -67.5h-102z" />
<glyph unicode="&#xd2;" horiz-adv-x="1404" d="M94 645q0 162 47 286t129 208t194 127t243 43t241.5 -42t191.5 -125t126 -207t45 -290q0 -162 -47 -285.5t-129 -207.5t-194 -127t-243 -43t-241.5 42t-191.5 124.5t-126 206.5t-45 290zM299 645q0 -131 31.5 -227t87 -159.5t130.5 -94.5t159 -31t156.5 31t126.5 94.5 t85 159.5t31 227q0 135 -32 231.5t-87 159t-130 92t-159 29.5t-157.5 -30.5t-127 -94t-84 -160t-30.5 -227.5zM471 1708h211l164 -254h-148z" />
<glyph unicode="&#xd3;" horiz-adv-x="1404" d="M94 645q0 162 47 286t129 208t194 127t243 43t241.5 -42t191.5 -125t126 -207t45 -290q0 -162 -47 -285.5t-129 -207.5t-194 -127t-243 -43t-241.5 42t-191.5 124.5t-126 206.5t-45 290zM299 645q0 -131 31.5 -227t87 -159.5t130.5 -94.5t159 -31t156.5 31t126.5 94.5 t85 159.5t31 227q0 135 -32 231.5t-87 159t-130 92t-159 29.5t-157.5 -30.5t-127 -94t-84 -160t-30.5 -227.5zM537 1454l163 254h211l-227 -254h-147z" />
<glyph unicode="&#xd4;" horiz-adv-x="1404" d="M94 645q0 162 47 286t129 208t194 127t243 43t241.5 -42t191.5 -125t126 -207t45 -290q0 -162 -47 -285.5t-129 -207.5t-194 -127t-243 -43t-241.5 42t-191.5 124.5t-126 206.5t-45 290zM299 645q0 -131 31.5 -227t87 -159.5t130.5 -94.5t159 -31t156.5 31t126.5 94.5 t85 159.5t31 227q0 135 -32 231.5t-87 159t-130 92t-159 29.5t-157.5 -30.5t-127 -94t-84 -160t-30.5 -227.5zM383 1454l250 275h141l256 -275h-164l-164 172l-163 -172h-156z" />
<glyph unicode="&#xd5;" horiz-adv-x="1404" d="M94 645q0 162 47 286t129 208t194 127t243 43t241.5 -42t191.5 -125t126 -207t45 -290q0 -162 -47 -285.5t-129 -207.5t-194 -127t-243 -43t-241.5 42t-191.5 124.5t-126 206.5t-45 290zM299 645q0 -131 31.5 -227t87 -159.5t130.5 -94.5t159 -31t156.5 31t126.5 94.5 t85 159.5t31 227q0 135 -32 231.5t-87 159t-130 92t-159 29.5t-157.5 -30.5t-127 -94t-84 -160t-30.5 -227.5zM383 1456q0 94 42 159.5t136 65.5q43 0 77 -14t63.5 -30.5t58 -31t61.5 -14.5q41 0 58.5 31t21.5 66h103q0 -43 -10.5 -83t-32 -72t-53 -51.5t-74.5 -19.5 t-81 13.5t-71 31t-61.5 30.5t-53.5 13q-43 0 -60.5 -26.5t-21.5 -67.5h-102z" />
<glyph unicode="&#xd6;" horiz-adv-x="1404" d="M94 645q0 162 47 286t129 208t194 127t243 43t241.5 -42t191.5 -125t126 -207t45 -290q0 -162 -47 -285.5t-129 -207.5t-194 -127t-243 -43t-241.5 42t-191.5 124.5t-126 206.5t-45 290zM299 645q0 -131 31.5 -227t87 -159.5t130.5 -94.5t159 -31t156.5 31t126.5 94.5 t85 159.5t31 227q0 135 -32 231.5t-87 159t-130 92t-159 29.5t-157.5 -30.5t-127 -94t-84 -160t-30.5 -227.5zM428 1559q0 39 30.5 69.5t71.5 30.5t72 -31t31 -69q0 -41 -31 -73t-72 -32t-71.5 32t-30.5 73zM768 1559q0 39 30.5 69.5t71.5 30.5t72 -31t31 -69q0 -41 -31 -73 t-72 -32t-71.5 32t-30.5 73z" />
<glyph unicode="&#xd7;" horiz-adv-x="819" d="M78 373l248 248l-248 247l84 84l248 -247l247 247l84 -84l-247 -247l247 -248l-84 -84l-247 248l-248 -248z" />
<glyph unicode="&#xd8;" horiz-adv-x="1404" d="M94 645q0 162 47 286t129 208t193.5 127t243.5 43q53 0 109 -8.5t106 -26.5l102 258l82 -29l-102 -260q139 -74 223 -221.5t84 -376.5q0 -162 -47 -285.5t-129 -207.5t-194 -127t-243 -43q-53 0 -106 8t-100 20l-127 -321l-82 35l125 319q-141 76 -227.5 222.5 t-86.5 379.5zM299 645q0 -166 49 -275.5t133 -168.5l371 927q-74 29 -154 29q-84 0 -157.5 -30.5t-127 -94t-84 -160t-30.5 -227.5zM561 158q68 -25 146 -25q84 0 156.5 31t126.5 94.5t85 159.5t31 227q0 166 -48 274.5t-128 167.5z" />
<glyph unicode="&#xd9;" horiz-adv-x="1310" d="M147 510v780h189v-772q0 -207 75.5 -295t243.5 -88q166 0 243 98.5t77 260.5v796h188v-790q0 -264 -135 -391t-373 -127q-240 0 -374 125.5t-134 402.5zM389 1708h211l164 -254h-148z" />
<glyph unicode="&#xda;" horiz-adv-x="1310" d="M147 510v780h189v-772q0 -207 75.5 -295t243.5 -88q166 0 243 98.5t77 260.5v796h188v-790q0 -264 -135 -391t-373 -127q-240 0 -374 125.5t-134 402.5zM516 1454l164 254h211l-227 -254h-148z" />
<glyph unicode="&#xdb;" horiz-adv-x="1310" d="M147 510v780h189v-772q0 -207 75.5 -295t243.5 -88q166 0 243 98.5t77 260.5v796h188v-790q0 -264 -135 -391t-373 -127q-240 0 -374 125.5t-134 402.5zM336 1454l250 275h141l256 -275h-164l-164 172l-163 -172h-156z" />
<glyph unicode="&#xdc;" horiz-adv-x="1310" d="M147 510v780h189v-772q0 -207 75.5 -295t243.5 -88q166 0 243 98.5t77 260.5v796h188v-790q0 -264 -135 -391t-373 -127q-240 0 -374 125.5t-134 402.5zM383 1559q0 39 30.5 69.5t71.5 30.5t72 -31t31 -69q0 -41 -31 -73t-72 -32t-71.5 32t-30.5 73zM723 1559 q0 39 30.5 69.5t71.5 30.5t72 -31t31 -69q0 -41 -31 -73t-72 -32t-71.5 32t-30.5 73z" />
<glyph unicode="&#xdd;" horiz-adv-x="1040" d="M-4 1290h207l321 -577l324 577h199l-437 -749v-541h-188v541zM455 1454l163 254h211l-227 -254h-147z" />
<glyph unicode="&#xde;" horiz-adv-x="1054" d="M147 0v1290h177v-272q41 12 87 19t97 7q94 0 177 -26.5t144.5 -76.5t96.5 -121.5t35 -162.5q0 -109 -37 -189.5t-103.5 -133.5t-157 -80t-194.5 -27q-29 0 -71 3t-74 8v-238h-177zM324 387q35 -10 68.5 -13t80.5 -3q137 0 220 69.5t83 198.5q0 68 -22.5 117t-62.5 81.5 t-92 49t-110 16.5q-47 0 -92 -6t-73 -16v-494z" />
<glyph unicode="&#xdf;" horiz-adv-x="1169" d="M152 0v983q0 106 26.5 197.5t82.5 156t145.5 101.5t211.5 37q72 0 140.5 -21.5t122 -62.5t86 -104.5t32.5 -145.5q0 -51 -12 -98.5t-29 -79.5q-109 -25 -154.5 -67t-45.5 -112q0 -63 38 -104t87 -76q80 -57 137 -129t57 -182q0 -137 -96 -224t-272 -87q-57 0 -126 11 t-108 32l41 133q86 -37 180 -37q98 0 149.5 48t51.5 120q0 61 -39 103t-108 95q-39 31 -70 61t-53.5 64.5t-34.5 74.5t-12 91q0 92 59 161t176 105q8 18 10 40t2 53q0 100 -61 147t-154 47q-66 0 -118 -19.5t-88.5 -63.5t-57 -116.5t-20.5 -177.5v-954h-176z" />
<glyph unicode="&#xe0;" d="M74 258q0 152 119.5 230.5t316.5 78.5h184v82q0 104 -53 142t-143 38q-53 0 -122 -17t-157 -67l-69 132q49 25 92 44t86 31.5t88 18.5t98 6q80 0 146.5 -17.5t114.5 -58.5t75 -107.5t27 -166.5v-627h-150l-22 106h-5q-63 -68 -139 -96t-168 -28q-70 0 -128 19t-101 55 t-66.5 87.5t-23.5 114.5zM262 264q0 -43 14.5 -72.5t38 -46t55 -23.5t66.5 -7q68 0 137.5 31.5t122.5 101.5v196l-151 -4q-154 -4 -218.5 -54t-64.5 -122zM266 1413h211l144 -274h-148z" />
<glyph unicode="&#xe1;" d="M74 258q0 152 119.5 230.5t316.5 78.5h184v82q0 104 -53 142t-143 38q-53 0 -122 -17t-157 -67l-69 132q49 25 92 44t86 31.5t88 18.5t98 6q80 0 146.5 -17.5t114.5 -58.5t75 -107.5t27 -166.5v-627h-150l-22 106h-5q-63 -68 -139 -96t-168 -28q-70 0 -128 19t-101 55 t-66.5 87.5t-23.5 114.5zM262 264q0 -43 14.5 -72.5t38 -46t55 -23.5t66.5 -7q68 0 137.5 31.5t122.5 101.5v196l-151 -4q-154 -4 -218.5 -54t-64.5 -122zM408 1139l143 274h211l-207 -274h-147z" />
<glyph unicode="&#xe2;" d="M74 258q0 152 119.5 230.5t316.5 78.5h184v82q0 104 -53 142t-143 38q-53 0 -122 -17t-157 -67l-69 132q49 25 92 44t86 31.5t88 18.5t98 6q80 0 146.5 -17.5t114.5 -58.5t75 -107.5t27 -166.5v-627h-150l-22 106h-5q-63 -68 -139 -96t-168 -28q-70 0 -128 19t-101 55 t-66.5 87.5t-23.5 114.5zM209 1139l235 274h142l229 -274h-156l-143 172l-143 -172h-164zM262 264q0 -43 14.5 -72.5t38 -46t55 -23.5t66.5 -7q68 0 137.5 31.5t122.5 101.5v196l-151 -4q-154 -4 -218.5 -54t-64.5 -122z" />
<glyph unicode="&#xe3;" d="M74 258q0 152 119.5 230.5t316.5 78.5h184v82q0 104 -53 142t-143 38q-53 0 -122 -17t-157 -67l-69 132q49 25 92 44t86 31.5t88 18.5t98 6q80 0 146.5 -17.5t114.5 -58.5t75 -107.5t27 -166.5v-627h-150l-22 106h-5q-63 -68 -139 -96t-168 -28q-70 0 -128 19t-101 55 t-66.5 87.5t-23.5 114.5zM201 1139q0 94 42 159.5t136 65.5q43 0 76.5 -14.5t63.5 -30.5t58.5 -30.5t61.5 -14.5q41 0 58.5 30.5t21.5 65.5h102q0 -43 -10 -83t-31.5 -71.5t-53.5 -51t-75 -19.5t-81 13t-70.5 30.5t-61 31t-53.5 13.5q-43 0 -60.5 -26.5t-21.5 -67.5h-102z M262 264q0 -43 14.5 -72.5t38 -46t55 -23.5t66.5 -7q68 0 137.5 31.5t122.5 101.5v196l-151 -4q-154 -4 -218.5 -54t-64.5 -122z" />
<glyph unicode="&#xe4;" d="M74 258q0 152 119.5 230.5t316.5 78.5h184v82q0 104 -53 142t-143 38q-53 0 -122 -17t-157 -67l-69 132q49 25 92 44t86 31.5t88 18.5t98 6q80 0 146.5 -17.5t114.5 -58.5t75 -107.5t27 -166.5v-627h-150l-22 106h-5q-63 -68 -139 -96t-168 -28q-70 0 -128 19t-101 55 t-66.5 87.5t-23.5 114.5zM254 1276q0 39 30.5 69.5t71.5 30.5t72 -30.5t31 -69.5q0 -41 -31 -73t-72 -32t-71.5 32t-30.5 73zM262 264q0 -43 14.5 -72.5t38 -46t55 -23.5t66.5 -7q68 0 137.5 31.5t122.5 101.5v196l-151 -4q-154 -4 -218.5 -54t-64.5 -122zM594 1276 q0 39 30.5 69.5t71.5 30.5t72 -30.5t31 -69.5q0 -41 -31 -73t-72 -32t-71.5 32t-30.5 73z" />
<glyph unicode="&#xe5;" d="M74 258q0 152 119.5 230.5t316.5 78.5h184v82q0 104 -53 142t-143 38q-53 0 -122 -17t-157 -67l-69 132q49 25 92 44t86 31.5t88 18.5t98 6q80 0 146.5 -17.5t114.5 -58.5t75 -107.5t27 -166.5v-627h-150l-22 106h-5q-63 -68 -139 -96t-168 -28q-70 0 -128 19t-101 55 t-66.5 87.5t-23.5 114.5zM262 264q0 -43 14.5 -72.5t38 -46t55 -23.5t66.5 -7q68 0 137.5 31.5t122.5 101.5v196l-151 -4q-154 -4 -218.5 -54t-64.5 -122zM328 1276q0 86 57 128t133 42q78 0 134.5 -42t56.5 -128q0 -43 -16.5 -75t-43 -53.5t-60.5 -31.5t-71 -10 q-74 0 -132 44t-58 126zM420 1276q0 -47 25.5 -74.5t72.5 -27.5t72.5 27.5t25.5 74.5t-25.5 74.5t-72.5 27.5t-72.5 -27.5t-25.5 -74.5z" />
<glyph unicode="&#xe6;" horiz-adv-x="1607" d="M74 258q0 152 119.5 230.5t316.5 78.5h190v82q0 104 -56 142t-146 38q-53 0 -122 -17t-157 -67q-16 33 -34.5 66t-34.5 66q49 25 92 44t86 31.5t88 18.5t98 6q111 0 181.5 -31t117.5 -108h4q66 78 146.5 108.5t175.5 30.5q94 0 166.5 -31t124 -87t78 -136t26.5 -178v-94 h-670v-9q0 -160 82 -240.5t232 -80.5q78 0 138 12t132 41l37 -133q-59 -27 -140 -43t-174 -16q-129 0 -229 40.5t-162 135.5h-4q-66 -86 -153.5 -131t-223.5 -45q-70 0 -129 19t-103 55t-68.5 87.5t-24.5 114.5zM262 264q0 -43 14.5 -72.5t38 -46t55 -23.5t66.5 -7 q86 0 161 36.5t128 118.5q-12 39 -19.5 81t-9.5 93l-151 -4q-154 -4 -218.5 -54t-64.5 -122zM866 571l482 2q0 53 -11.5 102.5t-38 87.5t-67.5 60.5t-103 22.5q-113 0 -182 -74t-80 -201z" />
<glyph unicode="&#xe7;" horiz-adv-x="905" d="M80 479q0 115 37 207t102.5 156.5t157.5 99.5t203 35q63 0 123.5 -9.5t138.5 -43.5l-41 -138q-94 53 -203 54q-150 0 -242 -93.5t-92 -261.5q0 -104 29 -173.5t76 -111.5t106.5 -60.5t120.5 -18.5q66 0 115 14.5t96 36.5l39 -135q-111 -55 -264 -55l-41 -78 q92 -6 136 -45t44 -99q0 -43 -18.5 -74.5t-50 -53t-72.5 -32t-86 -10.5q-47 0 -87 7.5t-65 17.5l25 86q27 -10 55.5 -14t56.5 -4q55 0 87 17t32 56q0 41 -41 62.5t-145 21.5l71 150q-86 12 -160.5 49t-128 98.5t-84 146.5t-30.5 195z" />
<glyph unicode="&#xe8;" horiz-adv-x="1032" d="M80 479q0 113 33.5 205t95 156.5t148.5 100.5t196 36q92 0 167 -31t128 -86t81.5 -133t28.5 -172v-94h-690v-8q0 -160 87 -246t237 -86q78 0 138.5 12t131.5 41l37 -133q-59 -27 -140 -43t-173 -16q-104 0 -195.5 28.5t-161 89t-109.5 154.5t-40 225zM272 586l500 4 q0 53 -13.5 99t-41 81t-70.5 55.5t-104 20.5q-113 0 -183.5 -72t-87.5 -188zM299 1413h211l143 -274h-147z" />
<glyph unicode="&#xe9;" horiz-adv-x="1032" d="M80 479q0 113 33.5 205t95 156.5t148.5 100.5t196 36q92 0 167 -31t128 -86t81.5 -133t28.5 -172v-94h-690v-8q0 -160 87 -246t237 -86q78 0 138.5 12t131.5 41l37 -133q-59 -27 -140 -43t-173 -16q-104 0 -195.5 28.5t-161 89t-109.5 154.5t-40 225zM272 586l500 4 q0 53 -13.5 99t-41 81t-70.5 55.5t-104 20.5q-113 0 -183.5 -72t-87.5 -188zM434 1139l144 274h210l-206 -274h-148z" />
<glyph unicode="&#xea;" horiz-adv-x="1032" d="M80 479q0 113 33.5 205t95 156.5t148.5 100.5t196 36q92 0 167 -31t128 -86t81.5 -133t28.5 -172v-94h-690v-8q0 -160 87 -246t237 -86q78 0 138.5 12t131.5 41l37 -133q-59 -27 -140 -43t-173 -16q-104 0 -195.5 28.5t-161 89t-109.5 154.5t-40 225zM236 1139l235 274 h141l230 -274h-156l-143 172l-144 -172h-163zM272 586l500 4q0 53 -13.5 99t-41 81t-70.5 55.5t-104 20.5q-113 0 -183.5 -72t-87.5 -188z" />
<glyph unicode="&#xeb;" horiz-adv-x="1032" d="M80 479q0 113 33.5 205t95 156.5t148.5 100.5t196 36q92 0 167 -31t128 -86t81.5 -133t28.5 -172v-94h-690v-8q0 -160 87 -246t237 -86q78 0 138.5 12t131.5 41l37 -133q-59 -27 -140 -43t-173 -16q-104 0 -195.5 28.5t-161 89t-109.5 154.5t-40 225zM272 586l500 4 q0 53 -13.5 99t-41 81t-70.5 55.5t-104 20.5q-113 0 -183.5 -72t-87.5 -188zM274 1276q0 39 31 69.5t72 30.5t71.5 -30.5t30.5 -69.5q0 -41 -30.5 -73t-71.5 -32t-72 32t-31 73zM614 1276q0 39 31 69.5t72 30.5t71.5 -30.5t30.5 -69.5q0 -41 -30.5 -73t-71.5 -32t-72 32 t-31 73z" />
<glyph unicode="&#xec;" horiz-adv-x="507" d="M-10 1413h211l143 -274h-147zM164 0v963h180v-963h-180z" />
<glyph unicode="&#xed;" horiz-adv-x="507" d="M164 0v963h180v-963h-180zM164 1139l143 274h211l-207 -274h-147z" />
<glyph unicode="&#xee;" horiz-adv-x="507" d="M-53 1139l235 274h142l227 -274h-156l-141 172l-143 -172h-164zM164 0v963h180v-963h-180z" />
<glyph unicode="&#xef;" horiz-adv-x="507" d="M-29 1276q0 39 31 69.5t72 30.5t71.5 -30.5t30.5 -69.5q0 -41 -30.5 -73t-71.5 -32t-72 32t-31 73zM164 0v963h180v-963h-180zM311 1276q0 39 31 69.5t72 30.5t71.5 -30.5t30.5 -69.5q0 -41 -30.5 -73t-71.5 -32t-72 32t-31 73z" />
<glyph unicode="&#xf0;" horiz-adv-x="1081" d="M82 459q0 113 32.5 202t91 150t135.5 93t167 32q76 0 148.5 -32t119.5 -89h6q-29 111 -94 209t-147 158l-226 -113l-47 80l191 94q-47 29 -94.5 48.5t-106.5 35.5l68 117q76 -18 152.5 -58t144.5 -90l188 97l47 -80l-160 -80q51 -55 102.5 -125t90.5 -158t63.5 -195.5 t24.5 -238.5q0 -117 -28.5 -215t-86 -169t-141.5 -110.5t-195 -39.5q-78 0 -156.5 27.5t-143 85t-105.5 147.5t-41 217zM264 465q0 -98 24.5 -163.5t63.5 -105.5t88 -57.5t99 -17.5q57 0 106 25.5t84 71.5t55.5 109.5t20.5 139.5q0 80 -22.5 141.5t-60.5 103.5t-87.5 64.5 t-102.5 22.5q-47 0 -95 -16.5t-87 -55.5t-62.5 -103.5t-23.5 -158.5z" />
<glyph unicode="&#xf1;" horiz-adv-x="1089" d="M135 0v963h141l27 -134q72 72 150.5 110t181.5 38q147 0 231 -83t84 -230v-664h-180v637q0 88 -46 140t-140 52q-143 0 -269 -129v-700h-180zM231 1139q0 94 42 159.5t137 65.5q43 0 76.5 -14.5t63.5 -30.5t58.5 -30.5t61.5 -14.5q41 0 58 30.5t22 65.5h102 q0 -43 -10.5 -83t-32 -71.5t-53 -51t-74.5 -19.5t-81 13t-70.5 30.5t-61.5 31t-53 13.5q-43 0 -60.5 -26.5t-21.5 -67.5h-103z" />
<glyph unicode="&#xf2;" horiz-adv-x="1101" d="M80 471q0 121 37 215t101.5 158.5t150.5 98.5t186 34t185 -31t147.5 -92t98.5 -152t36 -210q0 -121 -37 -216.5t-101.5 -161t-150.5 -99t-186 -33.5t-185.5 31.5t-147.5 94t-98 153.5t-36 210zM268 481q0 -96 24.5 -164.5t64.5 -111.5t91.5 -63.5t104.5 -20.5t104.5 17.5 t90 59.5t62.5 110.5t24 172.5q0 96 -25 164t-64.5 111t-91 62.5t-104.5 19.5t-104.5 -16.5t-90.5 -57.5t-62.5 -109.5t-23.5 -173.5zM324 1413h211l143 -274h-148z" />
<glyph unicode="&#xf3;" horiz-adv-x="1101" d="M80 471q0 121 37 215t101.5 158.5t150.5 98.5t186 34t185 -31t147.5 -92t98.5 -152t36 -210q0 -121 -37 -216.5t-101.5 -161t-150.5 -99t-186 -33.5t-185.5 31.5t-147.5 94t-98 153.5t-36 210zM268 481q0 -96 24.5 -164.5t64.5 -111.5t91.5 -63.5t104.5 -20.5t104.5 17.5 t90 59.5t62.5 110.5t24 172.5q0 96 -25 164t-64.5 111t-91 62.5t-104.5 19.5t-104.5 -16.5t-90.5 -57.5t-62.5 -109.5t-23.5 -173.5zM440 1139l144 274h211l-207 -274h-148z" />
<glyph unicode="&#xf4;" horiz-adv-x="1101" d="M80 471q0 121 37 215t101.5 158.5t150.5 98.5t186 34t185 -31t147.5 -92t98.5 -152t36 -210q0 -121 -37 -216.5t-101.5 -161t-150.5 -99t-186 -33.5t-185.5 31.5t-147.5 94t-98 153.5t-36 210zM242 1139l235 274h141l230 -274h-156l-143 172l-143 -172h-164zM268 481 q0 -96 24.5 -164.5t64.5 -111.5t91.5 -63.5t104.5 -20.5t104.5 17.5t90 59.5t62.5 110.5t24 172.5q0 96 -25 164t-64.5 111t-91 62.5t-104.5 19.5t-104.5 -16.5t-90.5 -57.5t-62.5 -109.5t-23.5 -173.5z" />
<glyph unicode="&#xf5;" horiz-adv-x="1101" d="M80 471q0 121 37 215t101.5 158.5t150.5 98.5t186 34t185 -31t147.5 -92t98.5 -152t36 -210q0 -121 -37 -216.5t-101.5 -161t-150.5 -99t-186 -33.5t-185.5 31.5t-147.5 94t-98 153.5t-36 210zM240 1139q0 94 42 159.5t136 65.5q43 0 76.5 -14.5t63.5 -30.5t58.5 -30.5 t61.5 -14.5q41 0 58.5 30.5t21.5 65.5h102q0 -43 -10 -83t-31.5 -71.5t-53.5 -51t-75 -19.5t-81 13t-70.5 30.5t-61 31t-53.5 13.5q-43 0 -60.5 -26.5t-21.5 -67.5h-102zM268 481q0 -96 24.5 -164.5t64.5 -111.5t91.5 -63.5t104.5 -20.5t104.5 17.5t90 59.5t62.5 110.5 t24 172.5q0 96 -25 164t-64.5 111t-91 62.5t-104.5 19.5t-104.5 -16.5t-90.5 -57.5t-62.5 -109.5t-23.5 -173.5z" />
<glyph unicode="&#xf6;" horiz-adv-x="1101" d="M80 471q0 121 37 215t101.5 158.5t150.5 98.5t186 34t185 -31t147.5 -92t98.5 -152t36 -210q0 -121 -37 -216.5t-101.5 -161t-150.5 -99t-186 -33.5t-185.5 31.5t-147.5 94t-98 153.5t-36 210zM268 481q0 -96 24.5 -164.5t64.5 -111.5t91.5 -63.5t104.5 -20.5t104.5 17.5 t90 59.5t62.5 110.5t24 172.5q0 96 -25 164t-64.5 111t-91 62.5t-104.5 19.5t-104.5 -16.5t-90.5 -57.5t-62.5 -109.5t-23.5 -173.5zM268 1276q0 39 31 69.5t72 30.5t71.5 -30.5t30.5 -69.5q0 -41 -30.5 -73t-71.5 -32t-72 32t-31 73zM608 1276q0 39 31 69.5t72 30.5 t71.5 -30.5t30.5 -69.5q0 -41 -30.5 -73t-71.5 -32t-72 32t-31 73z" />
<glyph unicode="&#xf7;" horiz-adv-x="1091" d="M82 457v125h928v-125h-928zM416 188q0 49 38 87t89 38t88 -37.5t37 -87.5q0 -53 -37 -90t-88 -37t-89 37t-38 90zM416 852q0 49 38 87t89 38t88 -38t37 -87q0 -53 -37 -90t-88 -37t-89 37t-38 90z" />
<glyph unicode="&#xf8;" horiz-adv-x="1101" d="M80 471q0 121 37 215t101.5 158.5t150.5 98.5t186 34q57 0 117 -12l61 198l86 -20l-63 -203q117 -53 191.5 -161.5t74.5 -286.5q0 -121 -37 -216.5t-101.5 -161t-150.5 -99t-186 -33.5q-29 0 -56.5 3t-52.5 7l-55 -178l-84 22l57 180q-125 53 -200.5 164t-75.5 291z M268 481q0 -127 40 -204.5t102 -116.5l208 669q-16 4 -34.5 6.5t-34.5 2.5q-53 0 -104.5 -16.5t-90.5 -57.5t-62.5 -109.5t-23.5 -173.5zM492 127q31 -6 61 -6q53 0 104.5 17.5t90 59.5t62.5 110.5t24 172.5q0 123 -38 198t-98 114z" />
<glyph unicode="&#xf9;" horiz-adv-x="1103" d="M139 324v639h180v-617q0 -61 15.5 -104t41 -69t60.5 -37t76 -11q82 0 147.5 35t124.5 96v707h181v-963h-142l-24 121h-8q-53 -59 -132 -99t-184 -40q-150 0 -243 85t-93 257zM299 1413h211l143 -274h-147z" />
<glyph unicode="&#xfa;" horiz-adv-x="1103" d="M139 324v639h180v-617q0 -61 15.5 -104t41 -69t60.5 -37t76 -11q82 0 147.5 35t124.5 96v707h181v-963h-142l-24 121h-8q-53 -59 -132 -99t-184 -40q-150 0 -243 85t-93 257zM440 1139l144 274h211l-207 -274h-148z" />
<glyph unicode="&#xfb;" horiz-adv-x="1103" d="M139 324v639h180v-617q0 -61 15.5 -104t41 -69t60.5 -37t76 -11q82 0 147.5 35t124.5 96v707h181v-963h-142l-24 121h-8q-53 -59 -132 -99t-184 -40q-150 0 -243 85t-93 257zM244 1139l235 274h142l229 -274h-156l-143 172l-143 -172h-164z" />
<glyph unicode="&#xfc;" horiz-adv-x="1103" d="M139 324v639h180v-617q0 -61 15.5 -104t41 -69t60.5 -37t76 -11q82 0 147.5 35t124.5 96v707h181v-963h-142l-24 121h-8q-53 -59 -132 -99t-184 -40q-150 0 -243 85t-93 257zM279 1276q0 39 30.5 69.5t71.5 30.5t71.5 -30.5t30.5 -69.5q0 -41 -30.5 -73t-71.5 -32 t-71.5 32t-30.5 73zM618 1276q0 39 31 69.5t72 30.5t71.5 -30.5t30.5 -69.5q0 -41 -30.5 -73t-71.5 -32t-72 32t-31 73z" />
<glyph unicode="&#xfd;" horiz-adv-x="944" d="M18 963h193l205 -551l69 -230h4l70 230l186 551h185l-371 -1045q-61 -174 -154.5 -272.5t-222.5 -143.5l-78 144q96 37 171 106.5t116 192.5l19 55zM362 1139l144 274h211l-207 -274h-148z" />
<glyph unicode="&#xfe;" horiz-adv-x="1107" d="M141 -328v1782h178v-606q66 70 145 99.5t165 29.5q184 0 291.5 -131.5t107.5 -364.5q0 -115 -35 -207t-94 -157.5t-139 -100t-170 -34.5q-86 0 -150.5 17t-120.5 62v-389h-178zM319 223q43 -49 97.5 -75.5t126.5 -26.5q57 0 111.5 20.5t95.5 64.5t65.5 111.5t24.5 161.5 q0 160 -67.5 255t-190.5 95q-78 0 -141.5 -31.5t-121.5 -95.5v-479z" />
<glyph unicode="&#xff;" horiz-adv-x="944" d="M18 963h193l205 -551l69 -230h4l70 230l186 551h185l-371 -1045q-61 -174 -154.5 -272.5t-222.5 -143.5l-78 144q96 37 171 106.5t116 192.5l19 55zM193 1276q0 39 30.5 69.5t71.5 30.5t71.5 -30.5t30.5 -69.5q0 -41 -30.5 -73t-71.5 -32t-71.5 32t-30.5 73zM532 1276 q0 39 31 69.5t72 30.5t71.5 -30.5t30.5 -69.5q0 -41 -30.5 -73t-71.5 -32t-72 32t-31 73z" />
<glyph unicode="&#x152;" horiz-adv-x="1722" d="M94 649q0 162 46 285t126 206t188.5 126t233.5 43q43 0 94.5 -4.5t89.5 -14.5h754v-155h-569v-387h516v-154h-516v-438h575v-156h-768q-41 -10 -89 -14t-87 -4q-125 0 -233.5 39.5t-188.5 121.5t-126 208t-46 298zM299 653q0 -262 105.5 -391t291.5 -129q43 0 89 10.5 t83 28.5v954q-78 31 -170 31q-184 0 -291.5 -122t-107.5 -382z" />
<glyph unicode="&#x153;" horiz-adv-x="1734" d="M80 471q0 121 35 215t96 158.5t146 98.5t186 34q236 0 358 -184q59 92 145.5 138t213.5 46q92 0 165.5 -31t123.5 -86t78 -133t28 -172v-94h-672v-8q0 -160 83 -246t232 -86q78 0 133.5 12t127.5 41l36 -133q-59 -27 -135 -43t-168 -16q-131 0 -233.5 47t-161.5 143 q-59 -98 -150.5 -144t-211.5 -46q-100 0 -183.5 31.5t-144 94t-94 153.5t-33.5 210zM268 481q0 -96 22.5 -164.5t60.5 -111.5t87 -63.5t103 -20.5q53 0 102 17.5t86 59.5t58.5 110.5t21.5 172.5q0 96 -22.5 164t-60.5 111t-87 62.5t-102 19.5t-102.5 -16.5t-86.5 -57.5 t-58.5 -109.5t-21.5 -173.5zM989 586l479 4q0 53 -11 99t-37.5 81t-67.5 55.5t-103 20.5q-113 0 -178 -72t-82 -188z" />
<glyph unicode="&#x178;" horiz-adv-x="1071" d="M20 1290h207l322 -577l323 577h199l-436 -749v-541h-189v541zM276 1559q0 39 31 69.5t72 30.5t71.5 -31t30.5 -69q0 -41 -30.5 -73t-71.5 -32t-72 32t-31 73zM616 1559q0 39 31 69.5t72 30.5t71.5 -31t30.5 -69q0 -41 -30.5 -73t-71.5 -32t-72 32t-31 73z" />
<glyph unicode="&#x2c6;" horiz-adv-x="727" d="M55 1137l256 338h121l248 -338h-156l-151 239l-160 -239h-158z" />
<glyph unicode="&#x2dc;" horiz-adv-x="817" d="M70 1221q0 98 35.5 162.5t127.5 64.5q43 0 77 -15.5t65 -33t59.5 -32.5t61.5 -15q68 0 67 102h99q0 -104 -35 -164.5t-121 -60.5q-47 0 -84 14t-68.5 31.5t-58.5 32t-51 14.5q-74 0 -74 -100h-100z" />
<glyph unicode="&#x2000;" horiz-adv-x="864" />
<glyph unicode="&#x2001;" horiz-adv-x="1729" />
<glyph unicode="&#x2002;" horiz-adv-x="864" />
<glyph unicode="&#x2003;" horiz-adv-x="1729" />
<glyph unicode="&#x2004;" horiz-adv-x="576" />
<glyph unicode="&#x2005;" horiz-adv-x="432" />
<glyph unicode="&#x2006;" horiz-adv-x="288" />
<glyph unicode="&#x2007;" horiz-adv-x="288" />
<glyph unicode="&#x2008;" horiz-adv-x="216" />
<glyph unicode="&#x2009;" horiz-adv-x="345" />
<glyph unicode="&#x200a;" horiz-adv-x="96" />
<glyph unicode="&#x2010;" horiz-adv-x="573" d="M61 520v162h451v-162h-451z" />
<glyph unicode="&#x2011;" horiz-adv-x="573" d="M61 520v162h451v-162h-451z" />
<glyph unicode="&#x2012;" horiz-adv-x="573" d="M61 520v162h451v-162h-451z" />
<glyph unicode="&#x2013;" horiz-adv-x="1067" d="M111 385v125h845v-125h-845z" />
<glyph unicode="&#x2014;" horiz-adv-x="1912" d="M111 385v123h1691v-123h-1691z" />
<glyph unicode="&#x2018;" horiz-adv-x="417" d="M61 1192q0 111 63.5 200t162.5 142l59 -82q-53 -29 -95 -77t-56 -120l36 -6q53 -6 80 -45t27 -86q0 -49 -32 -88t-93 -39q-25 0 -51.5 9.5t-49 32t-37 61.5t-14.5 98z" />
<glyph unicode="&#x2019;" horiz-adv-x="417" d="M72 1073q53 29 95 77t56 120l-37 6q-53 6 -79.5 45t-26.5 86q0 49 33.5 88t95.5 39q25 0 50.5 -8t47 -30.5t35.5 -60.5t14 -96q0 -111 -63.5 -203t-161.5 -145z" />
<glyph unicode="&#x201a;" horiz-adv-x="389" d="M43 -215q53 29 95 77t57 120l-37 6q-53 6 -80 45t-27 86q0 49 34 88t95 39q25 0 50.5 -8.5t47 -31t36 -60t14.5 -95.5q0 -111 -63.5 -203t-162.5 -145z" />
<glyph unicode="&#x201c;" horiz-adv-x="817" d="M61 1192q0 111 63.5 200t162.5 142l59 -82q-53 -29 -95 -77t-56 -120l36 -6q53 -6 80 -45t27 -86q0 -49 -32 -88t-93 -39q-25 0 -51.5 9.5t-49 32t-37 61.5t-14.5 98zM461 1192q0 111 63.5 200t161.5 142l59 -82q-53 -29 -95 -77t-56 -120l37 -6q53 -6 79.5 -45t26.5 -86 q0 -49 -31.5 -88t-93.5 -39q-25 0 -51 9.5t-49 32t-37 61.5t-14 98z" />
<glyph unicode="&#x201d;" horiz-adv-x="817" d="M72 1073q53 29 95 77t56 120l-37 6q-53 6 -79.5 45t-26.5 86q0 49 33.5 88t95.5 39q25 0 50.5 -8t47 -30.5t35.5 -60.5t14 -96q0 -111 -63.5 -203t-161.5 -145zM471 1073q53 29 95 77t57 120l-37 6q-53 6 -80 45t-27 86q0 49 34 88t95 39q25 0 50.5 -8t47 -30.5t36 -60.5 t14.5 -96q0 -111 -63.5 -203t-162.5 -145z" />
<glyph unicode="&#x201e;" horiz-adv-x="788" d="M43 -215q53 29 95 77t57 120l-37 6q-53 6 -80 45t-27 86q0 49 34 88t95 39q25 0 50.5 -8.5t47 -31t36 -60t14.5 -95.5q0 -111 -63.5 -203t-162.5 -145zM442 -215q53 29 95.5 77t56.5 120l-37 6q-53 6 -79.5 45t-26.5 86q0 49 33.5 88t95.5 39q25 0 50 -8.5t46.5 -31 t36 -60t14.5 -95.5q0 -111 -63.5 -203t-161.5 -145z" />
<glyph unicode="&#x2022;" horiz-adv-x="755" d="M123 545q0 51 20.5 98t55 82t81 55.5t99.5 20.5q51 0 98 -20.5t82 -55.5t55.5 -82t20.5 -98q0 -53 -20.5 -99.5t-55.5 -81t-82 -55t-98 -20.5q-53 0 -99.5 20.5t-81 55t-55 81t-20.5 99.5z" />
<glyph unicode="&#x2026;" horiz-adv-x="1202" d="M111 111q0 53 36.5 90t88.5 37q51 0 86.5 -37t35.5 -90q0 -59 -35.5 -94t-86.5 -35t-88 35t-37 94zM481 111q0 53 37 90t88 37t87 -37t36 -90q0 -59 -36 -94t-87 -35t-88 35t-37 94zM852 111q0 53 37 90t88 37t87 -37t36 -90q0 -59 -36 -94t-87 -35t-88 35t-37 94z" />
<glyph unicode="&#x202f;" horiz-adv-x="345" />
<glyph unicode="&#x2039;" horiz-adv-x="643" d="M94 483l303 330h156l-279 -330l279 -327h-156z" />
<glyph unicode="&#x203a;" horiz-adv-x="632" d="M94 156l279 327l-279 330h156l303 -330l-303 -327h-156z" />
<glyph unicode="&#x205f;" horiz-adv-x="432" />
<glyph unicode="&#x20ac;" horiz-adv-x="1107" d="M10 457v104h135q-2 39 -2 54.5v31.5v37h-133v104h152q35 242 180 381.5t385 139.5q63 0 111.5 -5.5t87.5 -15.5t72.5 -23.5t68.5 -31.5l-45 -148q-78 35 -137.5 51.5t-132.5 16.5q-72 0 -139.5 -23.5t-122 -69.5t-90 -114.5t-44.5 -157.5h557v-104h-573v-25v-38.5 t2 -59.5h571v-104h-555q14 -88 50 -148.5t86.5 -98.5t112.5 -55.5t130 -17.5q86 0 150.5 16.5t130.5 47.5l43 -152q-72 -35 -147.5 -51t-196.5 -16q-104 0 -196.5 29.5t-166 89t-124 148.5t-70.5 208h-150z" />
<glyph unicode="&#x2122;" horiz-adv-x="1478" d="M82 1202v88h553v-88h-225v-641h-107v641h-221zM678 561l61 729h117l154 -463q10 -35 20 -72.5t21 -72.5h4q8 29 19 67.5t24 77.5l149 463h117l63 -729h-104l-29 389q-4 49 -5 94.5t-3 108.5h-4q-16 -63 -31.5 -116.5t-25.5 -86.5l-129 -389h-88l-129 391 q-16 51 -28.5 96.5t-29.5 104.5h-4q-2 -59 -4 -112.5t-6 -90.5l-27 -389h-102z" />
<glyph unicode="&#x25fc;" horiz-adv-x="962" d="M0 0v963h963v-963h-963z" />
</font>
</defs>
</svg>
