<?xml version="1.0" encoding="UTF-8" standalone="no"?>
<svg
   xmlns:dc="http://purl.org/dc/elements/1.1/"
   xmlns:cc="http://creativecommons.org/ns#"
   xmlns:rdf="http://www.w3.org/1999/02/22-rdf-syntax-ns#"
   xmlns:svg="http://www.w3.org/2000/svg"
   xmlns="http://www.w3.org/2000/svg"
   xmlns:sodipodi="http://sodipodi.sourceforge.net/DTD/sodipodi-0.dtd"
   xmlns:inkscape="http://www.inkscape.org/namespaces/inkscape"
   width="71.329285"
   height="69.691292"
   viewBox="0 0 71.329285 69.691292"
   version="1.1"
   id="svg2"
   inkscape:version="0.48.4 r9939"
   sodipodi:docname="logo avante.svg">
  <metadata
     id="metadata44">
    <rdf:RDF>
      <cc:Work
         rdf:about="">
        <dc:format>image/svg+xml</dc:format>
        <dc:type
           rdf:resource="http://purl.org/dc/dcmitype/StillImage" />
      </cc:Work>
    </rdf:RDF>
  </metadata>
  <sodipodi:namedview
     pagecolor="#ffffff"
     bordercolor="#666666"
     borderopacity="1"
     objecttolerance="10"
     gridtolerance="10"
     guidetolerance="10"
     inkscape:pageopacity="0"
     inkscape:pageshadow="2"
     inkscape:window-width="640"
     inkscape:window-height="480"
     id="namedview42"
     showgrid="false"
     fit-margin-top="0"
     fit-margin-left="0"
     fit-margin-right="0"
     fit-margin-bottom="0"
     inkscape:zoom="2.3838384"
     inkscape:cx="37.347186"
     inkscape:cy="34.378983"
     inkscape:window-x="75"
     inkscape:window-y="336"
     inkscape:window-maximized="0"
     inkscape:current-layer="svg2" />
  <!-- Generator: Sketch 3.8.3 (29802) - http://www.bohemiancoding.com/sketch -->
  <title
     id="title4">logo avante</title>
  <desc
     id="desc6">Created with Sketch.</desc>
  <defs
     id="defs8" />
  <g
     id="Page-1"
     style="fill:none;stroke:none"
     transform="translate(-20.152814,-14.187695)">
    <g
       id="logo-avante">
      <g
         id="Group-Copy-4"
         transform="translate(20,14)">
        <path
           d="m 52.741085,50.400475 -0.0038,0.854474 -1.864847,-0.232305 -1.246475,0 c -0.478136,0 -0.623118,0.143797 -0.623118,0.621932 l 0,0.206441 c 0,0.669864 0.754813,1.036237 1.454338,1.036237 l 0.415492,0 c 0.631898,0 0.759559,-0.09468 1.241492,-0.195525 l 0.626915,0.195525 -0.06644,1.656983 0.07119,9.107831 1.026509,0.61339 1.252644,-0.395797 -0.05031,-2.073898 0.267898,-8.598848 3.728509,0.312271 c 0.234678,-0.880101 0.414305,-0.362576 0.414305,-1.036237 0,-0.673661 -0.17939,-0.156135 -0.421661,-1.089152 l -2.070102,0.260542 c -2.429119,0.320814 -1.488746,-1.437017 -2.699627,-2.48678 -0.588712,0.393424 -1.452915,0.485729 -1.452915,1.242916"
           id="Shape"
           inkscape:connector-curvature="0"
           style="fill:#010101" />
        <path
           d="M 44.434814,59.725661 C 42.602,58.501254 38.791153,51.644339 36.751898,51.644339 c -1.730779,0 -3.115118,3.051051 -3.115118,4.972373 l 0,1.658407 c 0,1.696372 0.830983,3.177762 0.813898,4.998237 l 1.677864,1.011796 c 2.148882,-1.134711 0.07498,-3.675593 0.376102,-6.222644 l 0.454881,-3.102779 c 1.595763,0.425457 5.798611,8.703254 8.306272,8.703254 l 0.207864,0 c 2.029525,0 2.282712,-10.350508 2.601153,-12.967797 l -1.979221,-1.537864 c -2.880203,1.521017 -1.660779,6.397525 -1.660779,10.568339"
           id="path14"
           inkscape:connector-curvature="0"
           style="fill:#010101" />
        <path
           d="m 16.609695,59.725661 c -0.316068,-1.350881 -1.12,-3.229254 -1.578441,-5.056136 -0.448712,-1.792237 -0.651593,-3.814406 -1.951932,-4.683593 -1.734576,0.143797 -1.347322,0.158509 -1.868644,1.244102 1.096508,2.279152 1.755458,4.521288 2.334441,7.410034 0.578983,2.888746 0.367559,6.597559 3.48505,5.027661 2.086001,-1.049763 2.436475,-4.311051 3.06956,-6.676339 0.709254,-2.645288 1.877186,-4.571593 2.919593,-6.776949 L 22.216576,49.157322 C 18.237254,51.258508 18.687152,58.338 16.609695,59.725661"
           id="path16"
           inkscape:connector-curvature="0"
           style="fill:#010101" />
        <path
           d="m 0.41240678,61.798136 0,2.279152 1.03861022,0 c 3.0251864,-2.020983 0.6048474,-4.144 5.8145084,-4.144 l 1.4529153,0 c 0.9697966,0 1.4543393,0.483119 1.4543393,1.450543 l 0.0085,2.646711 1.028881,0.254373 c 0.371356,-0.195525 1.038848,-0.461051 1.038848,-1.036237 0,-3.407695 -2.67139,-13.338915 -5.3166781,-13.983153 -4.1831526,-1.017728 -4.7215593,9.949966 -6.51996612,12.532611 l 0,0 z m 4.15372882,-4.97356 c 0.9712203,-1.395254 0.3319661,-5.180237 2.2838983,-5.180237 0.9712203,0 1.7087119,3.793525 2.0762712,4.558068 -0.2546102,0.06881 -3.7493898,1.231763 -4.1525424,0.829796 l -0.2076271,-0.207627 0,0 z"
           id="path18"
           inkscape:connector-curvature="0"
           style="fill:#010101" />
        <path
           d="m 21.178441,63.248678 0,0.206441 c 0,0.478135 0.143796,0.621932 0.622169,0.621932 l 0.207865,0 c 0.957694,0 1.951932,-1.848949 2.314745,-2.663797 0.628102,-1.409966 1.706339,-1.479966 3.70739,-1.479966 l 1.452915,0 c 0.763356,0 1.004204,0.320814 1.424678,0.624543 l 0.237288,2.276542 0.01234,1.197356 0.818645,0.253186 c 1.617593,-0.854237 1.187389,-1.569898 0.708067,-3.609152 -0.378712,-1.609051 -0.648983,-2.976068 -1.040034,-4.555695 -0.470779,-1.901627 -2.188271,-6.962746 -4.029627,-6.962746 -2.999559,0 -3.505932,3.515661 -4.229898,5.932441 -0.486678,1.622813 -2.206542,6.889186 -2.206542,8.158915 l 0,0 z m 4.360406,-6.424102 c 0.492848,-2.110678 0.356407,-5.00322 2.491763,-5.180237 l 1.823085,4.49661 c -1.507017,0.771898 -1.253831,0.68339 -2.654068,0.68339 l -1.66078,0 0,2.37e-4 z"
           id="path20"
           inkscape:connector-curvature="0"
           style="fill:#010101" />
        <path
           d="m 60.008746,54.337797 -0.0038,1.835423 -2.280339,0.237288 c -0.236101,0.878916 -0.415491,0.362577 -0.415491,1.036238 l 0,0.620746 c 0,0.813898 1.027695,1.036237 1.868644,1.036237 1.063288,0 1.255017,-0.731322 1.257627,1.025322 0.0012,0.96861 -0.01115,1.942203 -0.01115,2.912237 0.401966,0.599864 0.867763,1.244102 1.868644,1.244102 l 3.322746,0 c 1.288237,0 5.606644,-0.456068 5.606644,-1.450542 0,-1.059729 -0.628101,-1.450543 -1.661966,-1.450543 -3.09661,0 -7.059796,2.193017 -7.059796,-1.866034 0,-0.882712 5.298169,-2.218881 6.022135,-2.279152 0.07119,-0.851865 0.207864,-0.462238 0.207864,-1.244102 0,-0.399593 -0.370169,-0.82861 -0.623356,-0.82861 -1.904237,0 -3.680338,0.910949 -5.191152,1.036237 l 0,-2.693458 c 0,-0.560474 0.09966,-0.571627 0.210237,-1.020339 l 4.773288,-1.052135 c 0.132882,-0.569254 0.415492,-0.842136 0.415492,-1.242915 0,-0.586339 -0.476949,-0.800373 -0.830983,-1.036238 -1.913966,0 -3.952271,-0.236101 -5.796,0.43139 -2.158848,0.781865 -1.679288,2.569356 -1.679288,4.748848"
           id="path22"
           inkscape:connector-curvature="0"
           style="fill:#010101" />
        <polygon
           id="polygon24"
           points="25.067356,47.469491 38.311593,18.180542 49.94061,39.393152 "
           style="fill:#983f78" />
        <polygon
           id="polygon26"
           points="39.059525,18.241763 50.438915,38.966034 53.426136,26.506034 "
           style="fill:#d41676" />
        <polygon
           id="polygon28"
           points="37.788373,18.050983 32.829288,28.857559 14.902881,19.195424 "
           style="fill:#d32328" />
        <polygon
           id="polygon30"
           points="14.394373,18.368712 8.1641356,0.18769491 37.78861,17.478644 "
           style="fill:#dc7428" />
        <polygon
           id="polygon32"
           points="23.548475,8.6425085 29.714407,1.9675932 37.978915,16.970848 "
           style="fill:#eac01e" />
        <polygon
           id="polygon34"
           points="30.159797,2.0311864 38.424305,17.097322 45.161864,3.1756271 "
           style="fill:#85bc41" />
        <polygon
           id="polygon36"
           points="42.619559,9.2146102 39.059525,17.160678 54.761119,16.398508 "
           style="fill:#76bde0" />
        <polygon
           id="polygon38"
           points="39.123119,17.542475 66.839797,33.943593 55.143152,16.652407 "
           style="fill:#0779b8" />
        <path
           d="m 69.486983,69.068644 0,-2.812576 0.571627,0 0,2.33444 1.423492,0 0,0.478136 -1.995119,0 0,0 z m -1.373186,-1.122373 -0.390814,-1.052373 -0.383458,1.052373 0.774272,0 0,0 z m 1.053559,1.122373 -0.623356,0 -0.247017,-0.644237 -1.133288,0 -0.233492,0.644237 -0.60722,0 1.103864,-2.83583 0.606034,0 1.134475,2.83583 0,0 z m -3.674407,-2.83583 0.572814,0 0,2.83583 -0.572814,0 0,-2.83583 0,0 z m -1.028881,1.793423 0.554305,0.175831 c -0.08471,0.309661 -0.226136,0.538407 -0.424034,0.689559 -0.197898,0.149966 -0.449898,0.224949 -0.753627,0.224949 -0.376102,0 -0.686,-0.129084 -0.928034,-0.386068 -0.242034,-0.256983 -0.363763,-0.608406 -0.363763,-1.054745 0,-0.471966 0.121729,-0.838339 0.365187,-1.098882 0.244644,-0.261729 0.564271,-0.392237 0.961254,-0.392237 0.346678,0 0.629525,0.102034 0.845695,0.307288 0.129085,0.121729 0.224949,0.296373 0.290203,0.522509 l -0.566644,0.135254 c -0.03322,-0.146407 -0.10322,-0.263153 -0.210237,-0.347865 -0.107017,-0.08613 -0.236102,-0.127898 -0.387254,-0.127898 -0.210238,0 -0.381085,0.07498 -0.512543,0.226136 -0.130271,0.151152 -0.195525,0.39461 -0.195525,0.733932 0,0.357831 0.06383,0.61339 0.192915,0.764542 0.129085,0.152339 0.296373,0.228746 0.502814,0.228746 0.152339,0 0.282847,-0.04793 0.393423,-0.144983 0.109153,-0.09586 0.186746,-0.248203 0.235865,-0.456068 l 0,0 z m -4.421627,-0.377288 c 0,0.320814 0.0738,0.564271 0.222576,0.730136 0.14878,0.165864 0.336712,0.248203 0.564271,0.248203 0.228746,0 0.415492,-0.08115 0.561898,-0.247017 0.146407,-0.163491 0.219967,-0.410508 0.219967,-0.738915 0,-0.32461 -0.07142,-0.567831 -0.213797,-0.727763 -0.14261,-0.159932 -0.331966,-0.239661 -0.568068,-0.239661 -0.235864,0 -0.426644,0.08115 -0.57044,0.243458 -0.144034,0.161118 -0.216407,0.405763 -0.216407,0.731559 l 0,0 z m -0.590136,0.01946 c 0,-0.28878 0.04319,-0.532238 0.129085,-0.727763 0.06502,-0.143797 0.152339,-0.274068 0.264339,-0.388441 0.111763,-0.114372 0.233491,-0.200271 0.366373,-0.255796 0.177017,-0.07498 0.381084,-0.111763 0.610779,-0.111763 0.419289,0 0.752441,0.129085 1.003255,0.388441 0.250813,0.259356 0.376101,0.619559 0.376101,1.081796 0,0.457255 -0.124101,0.815085 -0.373729,1.074441 -0.24844,0.25817 -0.581593,0.387254 -0.997084,0.387254 -0.421661,0 -0.757187,-0.129084 -1.005627,-0.386068 -0.24939,-0.256745 -0.373492,-0.610779 -0.373492,-1.062101 l 0,0 z m -2.67139,0.478373 0.558102,-0.05529 c 0.03203,0.188169 0.100847,0.32461 0.202881,0.413118 0.103221,0.08732 0.240848,0.131458 0.415492,0.131458 0.184373,0 0.323186,-0.03939 0.416678,-0.117932 0.09349,-0.07736 0.14,-0.168475 0.14,-0.272882 0,-0.06763 -0.01969,-0.124102 -0.05909,-0.170847 -0.03939,-0.04793 -0.108203,-0.08851 -0.206441,-0.122915 -0.06644,-0.02468 -0.219966,-0.06526 -0.45844,-0.124102 -0.306102,-0.07617 -0.521322,-0.169661 -0.645424,-0.281424 -0.174644,-0.154949 -0.260542,-0.345491 -0.260542,-0.570441 0,-0.143796 0.04058,-0.27905 0.121728,-0.404339 0.08234,-0.125288 0.200509,-0.221152 0.354034,-0.287593 0.15495,-0.06525 0.340509,-0.09824 0.558102,-0.09824 0.356407,0 0.624542,0.07736 0.803932,0.233491 0.17939,0.156136 0.274068,0.365187 0.284034,0.625729 l -0.572814,0.02468 c -0.02468,-0.146169 -0.07735,-0.250813 -0.157322,-0.314644 -0.08115,-0.06264 -0.201694,-0.09468 -0.362576,-0.09468 -0.165864,0 -0.297559,0.03322 -0.391051,0.102034 -0.06146,0.04295 -0.09088,0.102034 -0.09088,0.175831 0,0.06644 0.02824,0.124101 0.08495,0.172033 0.07237,0.06027 0.247017,0.124102 0.526068,0.189356 0.279051,0.06644 0.484305,0.134068 0.618373,0.204068 0.132644,0.07 0.237288,0.165865 0.313458,0.28878 0.07498,0.121729 0.113186,0.271695 0.113186,0.451085 0,0.162305 -0.04556,0.314644 -0.135254,0.456067 -0.09088,0.142611 -0.21878,0.248204 -0.383458,0.315831 -0.164678,0.07 -0.371356,0.104407 -0.617186,0.104407 -0.359017,0 -0.634272,-0.08234 -0.826,-0.248204 -0.191966,-0.166339 -0.307526,-0.407423 -0.344543,-0.72444 l 0,0 z m -3.562407,-0.497831 c 0,0.320814 0.07498,0.564271 0.222577,0.730136 0.148779,0.165864 0.336712,0.248203 0.564271,0.248203 0.228508,0 0.415491,-0.08115 0.563085,-0.247017 0.144983,-0.163491 0.218779,-0.410508 0.218779,-0.738915 0,-0.32461 -0.07119,-0.567831 -0.213796,-0.727763 -0.14261,-0.159932 -0.331966,-0.239661 -0.567831,-0.239661 -0.235864,0 -0.425457,0.08115 -0.570441,0.243458 -0.144033,0.161118 -0.216644,0.405763 -0.216644,0.731559 l 0,0 z m -0.589898,0.01946 c 0,-0.28878 0.04295,-0.532238 0.130271,-0.727763 0.06383,-0.143797 0.152577,-0.274068 0.263153,-0.388441 0.111763,-0.114372 0.233491,-0.200271 0.366373,-0.255796 0.177017,-0.07498 0.381084,-0.111763 0.612203,-0.111763 0.418102,0 0.751017,0.129085 1.001831,0.388441 0.252,0.259356 0.377288,0.619559 0.377288,1.081796 0,0.457255 -0.125288,0.815085 -0.373729,1.074441 -0.249627,0.25817 -0.581356,0.387254 -0.998034,0.387254 -0.421661,0 -0.757186,-0.129084 -1.005627,-0.386068 -0.249627,-0.256745 -0.373729,-0.610779 -0.373729,-1.062101 l 0,0 z m -2.075085,-1.591729 -0.247254,0 c -0.0024,-0.02942 -0.0024,-0.05291 -0.0024,-0.07 0,-0.135254 0.03322,-0.239661 0.09824,-0.312271 0.06525,-0.07261 0.149966,-0.10939 0.253186,-0.10939 0.04556,0 0.08732,0.005 0.126712,0.01471 0.0382,0.0097 0.108203,0.03678 0.210237,0.08353 0.103221,0.04556 0.183187,0.06881 0.242034,0.06881 0.04058,0 0.07498,-0.01353 0.10322,-0.03939 0.02705,-0.02586 0.04556,-0.06881 0.05292,-0.129085 l 0.250813,0 c -0.0012,0.173221 -0.03322,0.298746 -0.09705,0.372543 -0.06383,0.07498 -0.146406,0.111762 -0.247017,0.111762 -0.04295,0 -0.08614,-0.0038 -0.129084,-0.01353 -0.02966,-0.0074 -0.104407,-0.03322 -0.222577,-0.07878 -0.117932,-0.04556 -0.205254,-0.06763 -0.259356,-0.06763 -0.04058,0 -0.07261,0.01234 -0.09586,0.0382 -0.02325,0.02468 -0.03559,0.06763 -0.03678,0.130509 l 0,0 z m 0.833356,1.869593 -0.390813,-1.052373 -0.382271,1.052373 0.773084,0 0,0 z m 1.054746,1.122373 -0.623119,0 -0.24844,-0.644237 -1.133288,0 -0.233492,0.644237 -0.60722,0 1.105288,-2.83583 0.604847,0 1.135424,2.83583 0,0 z m -4.806508,0.779492 c 0.08471,0.02088 0.210237,0.03085 0.377288,0.03085 0.232305,0 0.411695,-0.04793 0.53722,-0.144983 0.09349,-0.07119 0.138814,-0.162305 0.138814,-0.276678 0,-0.102034 -0.04176,-0.188169 -0.125289,-0.259356 -0.08353,-0.07 -0.20644,-0.10583 -0.367559,-0.10583 -0.116745,0 -0.224949,0.01708 -0.32461,0.05173 l -0.05031,0.191729 c 0.08614,-0.02586 0.170847,-0.0382 0.253186,-0.0382 0.08353,0 0.144984,0.0159 0.18556,0.04793 0.03939,0.03203 0.06027,0.07 0.06027,0.114373 0,0.04912 -0.02207,0.08851 -0.06383,0.119356 -0.05529,0.04176 -0.140237,0.06264 -0.255796,0.06264 -0.110577,0 -0.232305,-0.0074 -0.365187,-0.02207 l 0,0.228509 2.38e-4,0 z m 1.203525,-1.821899 0.554305,0.175831 c -0.08613,0.309661 -0.226135,0.538407 -0.425457,0.689559 -0.196712,0.149966 -0.448712,0.224949 -0.752441,0.224949 -0.377288,0 -0.686,-0.129084 -0.928034,-0.386068 -0.242034,-0.256983 -0.363763,-0.608406 -0.363763,-1.054745 0,-0.471966 0.121729,-0.838339 0.365187,-1.098882 0.243457,-0.261729 0.564271,-0.392237 0.961254,-0.392237 0.346678,0 0.628102,0.102034 0.845695,0.307288 0.129085,0.121729 0.224949,0.296373 0.290203,0.522509 l -0.566644,0.135254 c -0.03322,-0.146407 -0.10322,-0.263153 -0.210237,-0.347865 -0.107017,-0.08613 -0.236102,-0.127898 -0.388441,-0.127898 -0.209051,0 -0.379898,0.07498 -0.511356,0.226136 -0.130271,0.151152 -0.195525,0.39461 -0.195525,0.733932 0,0.357831 0.06383,0.61339 0.192915,0.764542 0.129085,0.152339 0.296373,0.228746 0.502814,0.228746 0.152339,0 0.282847,-0.04793 0.392237,-0.144983 0.10939,-0.09586 0.188169,-0.248203 0.237288,-0.456068 l 0,0 z m -3.17278,-0.07997 -0.390813,-1.052373 -0.382271,1.052373 0.773084,0 0,0 z m 1.054746,1.122373 -0.623119,0 -0.247254,-0.644237 -1.134474,0 -0.233492,0.644237 -0.60722,0 1.105051,-2.83583 0.604847,0 1.135661,2.83583 0,0 z m -5.223186,0 0,-0.516339 1.489932,-1.838983 -1.321458,0 0,-0.480746 2.076272,0 0,0.444916 -1.553763,1.912779 1.614034,0 0,0.478136 -2.305017,0 0,2.37e-4 z m -0.87156,-2.83583 0.572814,0 0,2.83583 -0.572814,0 0,-2.83583 0,0 z m -2.387355,2.83583 0,-2.812576 0.572813,0 0,2.33444 1.423492,0 0,0.478136 -1.996305,0 0,0 z m -1.133289,-2.83583 0.572814,0 0,2.83583 -0.572814,0 0,-2.83583 0,0 z m -2.268237,1.600508 0,0.757186 0.529864,0 c 0.206441,0 0.336712,-0.005 0.392001,-0.01732 0.08613,-0.01471 0.154949,-0.05292 0.207864,-0.113186 0.0541,-0.05908 0.08115,-0.140237 0.08115,-0.240847 0,-0.08471 -0.02088,-0.156136 -0.06264,-0.216407 -0.04058,-0.05908 -0.100847,-0.103221 -0.178203,-0.130271 -0.07736,-0.02705 -0.247017,-0.03939 -0.507797,-0.03939 l -0.462237,0 0,2.37e-4 z m 0,-1.128542 0,0.656339 0.374915,0 c 0.223763,0 0.36139,-0.0038 0.415492,-0.01115 0.09847,-0.01115 0.17583,-0.04414 0.231118,-0.100847 0.05647,-0.05529 0.08495,-0.129085 0.08495,-0.221153 0,-0.08732 -0.02468,-0.158508 -0.07261,-0.213796 -0.04912,-0.05529 -0.120543,-0.08851 -0.216407,-0.09966 -0.05647,-0.0062 -0.21878,-0.0097 -0.489289,-0.0097 l -0.328169,0 0,0 z m -0.572813,-0.471966 1.133288,0 c 0.224949,0 0.392237,0.0097 0.502813,0.02824 0.10939,0.01851 0.207865,0.05766 0.294949,0.117932 0.08732,0.05908 0.159695,0.137627 0.217594,0.236102 0.05766,0.09824 0.08732,0.209051 0.08732,0.331966 0,0.132881 -0.03583,0.254373 -0.107017,0.365186 -0.07237,0.111763 -0.169661,0.194102 -0.29139,0.249627 0.172034,0.0503 0.306102,0.136441 0.398407,0.256984 0.09349,0.121728 0.138813,0.264338 0.138813,0.42783 0,0.129085 -0.02942,0.254373 -0.08969,0.377288 -0.06027,0.120542 -0.141423,0.21878 -0.24583,0.29139 -0.103221,0.07261 -0.231119,0.116746 -0.383458,0.134068 -0.09586,0.0097 -0.325797,0.01708 -0.690746,0.01969 l -0.96505,0 0,-2.836305 0,0 z m -2.609695,1.416135 c 0,0.320814 0.07498,0.564271 0.222576,0.730136 0.148779,0.165864 0.336949,0.248203 0.565458,0.248203 0.227322,0 0.415491,-0.08115 0.561898,-0.247017 0.146169,-0.163491 0.218779,-0.410508 0.218779,-0.738915 0,-0.32461 -0.07,-0.567831 -0.21261,-0.727763 -0.14261,-0.159932 -0.331966,-0.239661 -0.56783,-0.239661 -0.235865,0 -0.426644,0.08115 -0.570441,0.243458 -0.14522,0.161118 -0.21783,0.405763 -0.21783,0.731559 l 0,0 z m -0.588712,0.01946 c 0,-0.28878 0.04295,-0.532238 0.129085,-0.727763 0.06525,-0.143797 0.152576,-0.274068 0.264338,-0.388441 0.111763,-0.114372 0.233492,-0.200271 0.366373,-0.255796 0.177017,-0.07498 0.379899,-0.111763 0.611017,-0.111763 0.418102,0 0.752441,0.129085 1.003017,0.388441 0.250814,0.259356 0.376102,0.619559 0.376102,1.081796 0,0.457255 -0.124102,0.815085 -0.373729,1.074441 -0.248203,0.25817 -0.581356,0.387254 -0.996847,0.387254 -0.421661,0 -0.757187,-0.129084 -1.006814,-0.386068 -0.248441,-0.256745 -0.372542,-0.610779 -0.372542,-1.062101 l 0,0 z m -3.191288,1.400237 0,-2.83583 0.856847,0 0.513729,1.934847 0.508983,-1.934847 0.858034,0 0,2.83583 -0.531051,0 0,-2.232407 -0.562848,2.232407 -0.550745,0 -0.561661,-2.232407 0,2.232407 -0.531288,0 0,0 z m -3.734678,0 0,-2.83583 2.102135,0 0,0.480745 -1.530508,0 0,0.628102 1.423491,0 0,0.476949 -1.423491,0 0,0.771898 1.58461,0 0,0.478136 -2.156237,0 0,0 z M 20.43122,67.648949 c 0,0.320814 0.07498,0.564271 0.222577,0.730136 0.148779,0.165864 0.336949,0.248203 0.565457,0.248203 0.227322,0 0.415492,-0.08115 0.561898,-0.247017 0.14617,-0.163491 0.21878,-0.410508 0.21878,-0.738915 0,-0.32461 -0.07119,-0.567831 -0.21261,-0.727763 -0.14261,-0.159932 -0.331966,-0.239661 -0.568068,-0.239661 -0.236102,0 -0.426644,0.08115 -0.571627,0.243458 -0.144034,0.161118 -0.216407,0.405763 -0.216407,0.731559 l 0,0 z m -0.588949,0.01946 c 0,-0.28878 0.04295,-0.532238 0.129085,-0.727763 0.06525,-0.143797 0.152576,-0.274068 0.264339,-0.388441 0.111763,-0.114372 0.233491,-0.200271 0.366373,-0.255796 0.177017,-0.07498 0.379898,-0.111763 0.611017,-0.111763 0.418101,0 0.75244,0.129085 1.003254,0.388441 0.250813,0.259356 0.376102,0.619559 0.376102,1.081796 0,0.457255 -0.125289,0.815085 -0.373729,1.074441 -0.248204,0.25817 -0.581356,0.387254 -0.996848,0.387254 -0.422847,0 -0.757186,-0.129084 -1.006813,-0.386068 -0.248678,-0.256745 -0.37278,-0.610779 -0.37278,-1.062101 l 0,0 z M 17.766,66.076678 l -0.247017,0 c -0.0012,-0.02942 -0.0024,-0.05291 -0.0024,-0.07 0,-0.135254 0.03322,-0.239661 0.09824,-0.312271 0.06644,-0.07261 0.151153,-0.10939 0.253187,-0.10939 0.04556,0 0.08732,0.005 0.126712,0.01471 0.0382,0.0097 0.10939,0.03678 0.211424,0.08353 0.10322,0.04556 0.183186,0.06881 0.240847,0.06881 0.04176,0 0.07617,-0.01353 0.10322,-0.03939 0.02824,-0.02586 0.04556,-0.06881 0.05292,-0.129085 l 0.252,0 c -0.0012,0.173221 -0.03441,0.298746 -0.09847,0.372543 -0.06264,0.07498 -0.144983,0.111762 -0.245831,0.111762 -0.04437,0 -0.08732,-0.0038 -0.130271,-0.01353 -0.02824,-0.0074 -0.10322,-0.03322 -0.221152,-0.07878 -0.119119,-0.04556 -0.205255,-0.06763 -0.259356,-0.06763 -0.04176,0 -0.0738,0.01234 -0.09705,0.0382 -0.02349,0.02468 -0.03583,0.06763 -0.03702,0.130509 l 0,0 z m 0.833593,1.869593 -0.389627,-1.052373 -0.383458,1.052373 0.773085,0 0,0 z m 1.054509,1.122373 -0.623119,0 -0.247254,-0.644237 -1.133288,0 -0.233492,0.644237 -0.608407,0 1.105288,-2.83583 0.604848,0 1.135424,2.83583 0,0 z m -4.806271,0.779492 c 0.08471,0.02088 0.211423,0.03085 0.377288,0.03085 0.233491,0 0.413118,-0.04793 0.53722,-0.144983 0.09349,-0.07119 0.14,-0.162305 0.14,-0.276678 0,-0.102034 -0.04176,-0.188169 -0.125288,-0.259356 -0.08471,-0.07 -0.206441,-0.10583 -0.368746,-0.10583 -0.115559,0 -0.223763,0.01708 -0.32461,0.05173 l -0.0503,0.191729 c 0.08613,-0.02586 0.170847,-0.0382 0.253186,-0.0382 0.08353,0 0.146407,0.0159 0.186746,0.04793 0.03939,0.03203 0.05908,0.07 0.05908,0.114373 0,0.04912 -0.02088,0.08851 -0.06383,0.119356 -0.05529,0.04176 -0.140237,0.06264 -0.255796,0.06264 -0.110577,0 -0.232305,-0.0074 -0.365187,-0.02207 l 0,0.228509 2.38e-4,0 z m 1.203288,-1.821899 0.554305,0.175831 c -0.08495,0.309661 -0.226136,0.538407 -0.424034,0.689559 -0.197898,0.149966 -0.448712,0.224949 -0.753627,0.224949 -0.376102,0 -0.686,-0.129084 -0.928034,-0.386068 -0.242034,-0.256983 -0.363763,-0.608406 -0.363763,-1.054745 0,-0.471966 0.121729,-0.838339 0.366373,-1.098882 0.243458,-0.261729 0.563085,-0.392237 0.961254,-0.392237 0.346678,0 0.628102,0.102034 0.844509,0.307288 0.129084,0.121729 0.226135,0.296373 0.290203,0.522509 l -0.566644,0.135254 c -0.03322,-0.146407 -0.10322,-0.263153 -0.210237,-0.347865 -0.105831,-0.08613 -0.236102,-0.127898 -0.387255,-0.127898 -0.210237,0 -0.381084,0.07498 -0.511355,0.226136 -0.131458,0.151152 -0.196712,0.39461 -0.196712,0.733932 0,0.357831 0.06383,0.61339 0.194101,0.764542 0.127899,0.152339 0.296373,0.228746 0.501628,0.228746 0.152576,0 0.284033,-0.04793 0.393423,-0.144983 0.10939,-0.09586 0.187932,-0.248203 0.235865,-0.456068 l 0,0 z m -3.17278,-0.07997 -0.389627,-1.052373 -0.383458,1.052373 0.773085,0 0,0 z m 1.054746,1.122373 -0.623356,0 -0.247017,-0.644237 -1.133288,0 -0.233492,0.644237 -0.60722,0 1.103864,-2.83583 0.604848,0 1.135661,2.83583 0,0 z m -3.602983,-1.042407 0.554305,0.175831 c -0.08495,0.309661 -0.226136,0.538407 -0.424034,0.689559 -0.197898,0.149966 -0.448712,0.224949 -0.7536272,0.224949 -0.3761017,0 -0.686,-0.129084 -0.9280339,-0.386068 -0.2422712,-0.256983 -0.364,-0.608406 -0.364,-1.054745 0,-0.471966 0.1217288,-0.838339 0.3663729,-1.098882 0.2434576,-0.261729 0.5630847,-0.392237 0.9600677,-0.392237 0.3466785,0 0.6292885,0.102034 0.8456945,0.307288 0.129085,0.121729 0.226136,0.296373 0.290204,0.522509 l -0.566881,0.135254 c -0.03322,-0.146407 -0.103221,-0.263153 -0.210238,-0.347865 -0.105593,-0.08613 -0.2361015,-0.127898 -0.387254,-0.127898 -0.2102373,0 -0.3810848,0.07498 -0.511356,0.226136 -0.1314576,0.151152 -0.1967118,0.39461 -0.1967118,0.733932 0,0.357831 0.06383,0.61339 0.1941017,0.764542 0.1278983,0.152339 0.2963729,0.228746 0.5016271,0.228746 0.152339,0 0.2840339,-0.04793 0.393424,-0.144983 0.109627,-0.09586 0.188407,-0.248203 0.236339,-0.456068 l 0,0 z m -4.6786105,-1.793423 0.5728136,0 0,1.535254 c 0,0.244644 0.00736,0.403152 0.020881,0.474576 0.024441,0.116746 0.082339,0.209051 0.1744068,0.279051 0.092305,0.07119 0.2187797,0.10583 0.3787119,0.10583 0.1623051,0 0.2852203,-0.03322 0.3675593,-0.09966 0.082339,-0.06644 0.1314576,-0.147593 0.1487797,-0.244644 0.017085,-0.09705 0.024441,-0.256983 0.024441,-0.481932 l 0,-1.568474 0.5728136,0 0,1.489932 c 0,0.340508 -0.015898,0.581356 -0.046746,0.721593 -0.030847,0.140237 -0.087322,0.258169 -0.1708474,0.35522 -0.082339,0.09705 -0.1941017,0.174644 -0.3331526,0.231119 -0.1388135,0.05766 -0.322,0.08614 -0.5457627,0.08614 -0.2705084,0 -0.4757627,-0.03061 -0.616,-0.09349 -0.14,-0.06264 -0.2508135,-0.143797 -0.3319661,-0.243458 C 5.7862712,68.679017 5.7333559,68.57461 5.7077288,68.46522 5.6695254,68.302915 5.6512542,68.063254 5.6512542,67.746 l 0,-1.513186 2.373e-4,0 z m -2.2865084,0.480508 0,1.877186 0.4278305,0 c 0.1596949,0 0.2752542,-0.0085 0.3466779,-0.02705 0.092305,-0.02325 0.169661,-0.06146 0.2311187,-0.117933 0.061458,-0.05529 0.1105762,-0.146169 0.1499661,-0.272881 0.038203,-0.127898 0.057661,-0.301119 0.057661,-0.519898 0,-0.21878 -0.019695,-0.387255 -0.057661,-0.504 -0.03939,-0.117932 -0.093492,-0.210238 -0.1634916,-0.275255 -0.07,-0.06525 -0.1585084,-0.110576 -0.2643389,-0.132881 -0.079966,-0.01851 -0.2372882,-0.02705 -0.4707797,-0.02705 l -0.256983,0 0,-2.37e-4 z m -0.5716272,-0.480508 1.0462034,0 c 0.2361017,0 0.4154915,0.01851 0.5395932,0.0541 0.1658644,0.04912 0.3084746,0.136441 0.4266441,0.261729 0.1191186,0.124102 0.2090509,0.277865 0.2716949,0.458441 0.061458,0.182 0.092305,0.404339 0.092305,0.671288 0,0.232305 -0.029661,0.434 -0.087322,0.603661 -0.07,0.205254 -0.1720339,0.372542 -0.3037288,0.500441 -0.099661,0.09705 -0.2334916,0.172034 -0.4019661,0.226135 -0.1267119,0.04058 -0.2949492,0.06027 -0.5063729,0.06027 l -1.0768136,0 0,-2.836067 -2.373e-4,0 z m -2.64054234,2.83583 0,-2.83583 2.10213554,0 0,0.480745 -1.52932198,0 0,0.628102 1.42230508,0 0,0.476949 -1.42230508,0 0,0.771898 1.58342378,0 0,0.478136 -2.15623734,0 0,0 z"
           id="path40"
           inkscape:connector-curvature="0"
           style="fill:#010101" />
      </g>
    </g>
  </g>
</svg>
