<?xml version="1.0" encoding="UTF-8" standalone="no"?>
<svg
   xmlns:dc="http://purl.org/dc/elements/1.1/"
   xmlns:cc="http://creativecommons.org/ns#"
   xmlns:rdf="http://www.w3.org/1999/02/22-rdf-syntax-ns#"
   xmlns:svg="http://www.w3.org/2000/svg"
   xmlns="http://www.w3.org/2000/svg"
   xmlns:sodipodi="http://sodipodi.sourceforge.net/DTD/sodipodi-0.dtd"
   xmlns:inkscape="http://www.inkscape.org/namespaces/inkscape"
   width="72.40123"
   height="69.341202"
   viewBox="0 0 72.40123 69.341202"
   version="1.1"
   id="svg2"
   inkscape:version="0.48.4 r9939"
   sodipodi:docname="logo inst C&amp;A.svg">
  <metadata
     id="metadata28">
    <rdf:RDF>
      <cc:Work
         rdf:about="">
        <dc:format>image/svg+xml</dc:format>
        <dc:type
           rdf:resource="http://purl.org/dc/dcmitype/StillImage" />
      </cc:Work>
    </rdf:RDF>
  </metadata>
  <sodipodi:namedview
     pagecolor="#ffffff"
     bordercolor="#666666"
     borderopacity="1"
     objecttolerance="10"
     gridtolerance="10"
     guidetolerance="10"
     inkscape:pageopacity="0"
     inkscape:pageshadow="2"
     inkscape:window-width="640"
     inkscape:window-height="480"
     id="namedview26"
     showgrid="false"
     fit-margin-top="0"
     fit-margin-left="0"
     fit-margin-right="0"
     fit-margin-bottom="0"
     inkscape:zoom="2.3838384"
     inkscape:cx="36.755854"
     inkscape:cy="34.33126"
     inkscape:window-x="75"
     inkscape:window-y="336"
     inkscape:window-maximized="0"
     inkscape:current-layer="svg2" />
  <!-- Generator: Sketch 3.8.3 (29802) - http://www.bohemiancoding.com/sketch -->
  <title
     id="title4">logo inst C&amp;A</title>
  <desc
     id="desc6">Created with Sketch.</desc>
  <defs
     id="defs8" />
  <g
     id="Page-1"
     style="fill:none;stroke:none"
     transform="translate(-14.244146,-14.490057)">
    <g
       id="logo-inst-C&amp;A">
      <g
         id="paralapraca_aplicacao_lettering-copy-2"
         transform="translate(14,14)">
        <path
           d="m 53.255374,9.3891057 c -1.965691,-0.3135772 -7.375041,-1.9947155 -9.414715,-2.66 -1.360732,-0.4404878 -2.578618,-0.5679675 -2.578618,-0.5679675 0,0 -11.948374,-2.2866667 -15.886017,-2.1973171 -3.938211,0.090488 -12.725772,-2.929187 -12.725772,-2.929187 0,0 -1.411951,6.0382114 -1.830244,7.7791057 -0.291382,1.2184552 -1.9207316,7.2481302 -3.0640649,12.2255282 -0.8445529,3.645691 -1.33,6.769512 -1.33,6.769512 0,0 0.4558537,-0.187235 0.9862601,-0.112113 -0.5526016,-0.03756 -0.9862601,0.112113 -0.9862601,0.112113 0,0 -0.7626016,5.230651 -0.8593496,6.104797 -0.08935,0.874147 -0.6726829,3.527317 -0.829187,4.386098 -0.1570732,0.867317 -0.4558537,2.002683 -0.7921951,2.951951 -0.3363415,0.941301 -1.1956911,3.115854 -1.3601626,3.743008 -0.1718699,0.628293 -0.7842277,3.064634 -1.0232521,4.656423 -0.2469918,1.583252 -0.8445528,5.432114 -0.8445528,5.432114 l 2.7869106,0.462683 c 0,0 0.9788618,0.09789 2.7726829,0.500813 1.793252,0.396097 4.7372356,1.001626 6.8070736,1.58439 2.069837,0.575366 1.748861,0.51561 2.735122,0.807561 0.978292,0.298211 1.232682,0.402927 2.181951,0.679512 0.949268,0.268618 3.960406,0.933903 3.960406,0.933903 l 7.830895,1.360162 c 0,0 4.393495,0.553171 7.322682,0.978862 2.936586,0.425691 5.409919,0.904309 7.315854,1.180325 1.912764,0.269187 4.76,0.874716 6.889024,1.636748 2.652602,0.956098 7.921383,2.443171 7.921383,2.443171 0,0 0.68691,-7.091057 1.210487,-10.013415 0.388131,-2.173414 1.030651,-5.551626 1.554228,-7.853089 0.768862,-3.69122 0.672683,-2.181952 2.554716,-10.633171 0,0 0.964634,-4.386097 1.487642,-6.418374 0.253821,-0.986829 1.217886,-5.686504 1.740894,-8.159837 0.492846,-2.354391 0.926504,-3.922846 1.80065,-7.435366 0.530976,-2.129594 1.090976,-4.41626 1.090976,-4.41626 0,0 -15.064228,-2.9587809 -17.425447,-3.3326833"
           id="Fill-3"
           inkscape:connector-curvature="0"
           style="fill:#fcb025" />
        <path
           d="m 53.255374,9.3891057 c -1.965691,-0.3135772 -7.375041,-1.9947155 -9.414715,-2.66 -1.360732,-0.4404878 -2.578618,-0.5679675 -2.578618,-0.5679675 0,0 -11.948374,-2.2866667 -15.886017,-2.1973171 -3.938211,0.090488 -12.725772,-2.929187 -12.725772,-2.929187 0,0 -1.411951,6.0382114 -1.830244,7.7791057 -0.291382,1.2184552 -1.9207316,7.2481302 -3.0640649,12.2255282 -0.8445529,3.645691 -1.33,6.769512 -1.33,6.769512 0,0 0.4558537,-0.187235 0.9862601,-0.112113 -0.5526016,-0.03756 -0.9862601,0.112113 -0.9862601,0.112113 0,0 -0.7626016,5.230651 -0.8593496,6.104797 -0.08935,0.874147 -0.6726829,3.527317 -0.829187,4.386098 -0.1570732,0.867317 -0.4558537,2.002683 -0.7921951,2.951951 -0.3363415,0.941301 -1.1956911,3.115854 -1.3601626,3.743008 -0.1718699,0.628293 -0.7842277,3.064634 -1.0232521,4.656423 -0.2469918,1.583252 -0.8445528,5.432114 -0.8445528,5.432114 l 2.7869106,0.462683 c 0,0 0.9788618,0.09789 2.7726829,0.500813 1.793252,0.396097 4.7372356,1.001626 6.8070736,1.58439 2.069837,0.575366 1.748861,0.51561 2.735122,0.807561 0.978292,0.298211 1.232682,0.402927 2.181951,0.679512 0.949268,0.268618 3.960406,0.933903 3.960406,0.933903 l 7.830895,1.360162 c 0,0 4.393495,0.553171 7.322682,0.978862 2.936586,0.425691 5.409919,0.904309 7.315854,1.180325 1.912764,0.269187 4.76,0.874716 6.889024,1.636748 2.652602,0.956098 7.921383,2.443171 7.921383,2.443171 0,0 0.68691,-7.091057 1.210487,-10.013415 0.388131,-2.173414 1.030651,-5.551626 1.554228,-7.853089 0.768862,-3.69122 0.672683,-2.181952 2.554716,-10.633171 0,0 0.964634,-4.386097 1.487642,-6.418374 0.253821,-0.986829 1.217886,-5.686504 1.740894,-8.159837 0.492846,-2.354391 0.926504,-3.922846 1.80065,-7.435366 0.530976,-2.129594 1.090976,-4.41626 1.090976,-4.41626 0,0 -15.064228,-2.9587809 -17.425447,-3.3326833"
           id="Fill-5"
           inkscape:connector-curvature="0"
           style="fill:#fba619" />
        <path
           d="M 41.111,6.0866423 40.948805,5.8037967 c 0,0 -2.480732,-0.4871544 -5.881138,-1.0545528 C 31.667829,4.1881057 27.759781,3.6201382 25.622219,3.6201382 l -0.425691,0 C 23.283764,3.6281057 20.145146,2.8808699 17.529537,2.133065 16.222301,1.7597317 15.034008,1.3863984 14.174659,1.109813 13.315878,0.82582927 12.79287,0.6391626 12.79287,0.6391626 L 12.351244,0.49005691 12.247098,0.93737398 c 0,0.007967 -0.351139,1.54739842 -0.762602,3.31845532 -0.402927,1.7710569 -0.85935,3.7663414 -1.068211,4.6552845 C 10.132301,10.136398 8.4955528,16.338512 7.3448211,21.434854 6.5008374,25.193228 6.0489675,28.172496 6.0489675,28.172496 l 0.1849593,0.15878 c 0,0 0.9162602,-0.289105 1.4165041,-0.223089 0.3938211,0.05293 1.2856098,0.616911 1.2856098,0.616911 l 0.220813,-0.07171 4.0986993,-17.71 1.468292,-6.226016 c 0.470651,0.2088618 1.261139,0.5429268 2.208131,0.8838211 1.546829,0.5452033 3.504553,1.1131707 5.23065,1.1427642 1.105772,0.022195 5.603984,0.365935 9.595122,1.1211383 3.489187,0.6641463 2.166585,0.366504 8.263984,1.3004065 L 40.337016,9.0118455 41.111,6.0866423 z"
           id="Fill-7"
           inkscape:connector-curvature="0"
           style="fill:#042f5e" />
        <path
           d="m 70.763398,12.602675 c -0.0074,0 -15.056829,-3.0265043 -17.440813,-3.4226018 C 52.388683,9.0303984 50.535675,8.5227561 48.689496,7.9695854 46.843886,7.4164146 44.98348,6.8188537 43.975024,6.4751138 42.562504,6.0118618 41.40665,5.8860894 41.288276,5.8667398 l -0.339187,-0.062602 -0.09049,0.3647968 -0.837155,2.9969105 0.320407,0.047805 c 0,0 0.240162,0.048374 0.494553,0.1081301 0.762032,0.1946341 2.435772,0.6425203 3.586504,1.0841468 2.645203,1.023252 6.792845,1.950325 9.714065,2.547317 2.934878,0.593577 10.69065,2.126748 12.615935,2.506911 -0.313009,1.153577 -1.183171,4.380975 -1.691383,6.527642 -0.425691,1.823414 -0.68691,3.108455 -0.837154,3.893252 -0.417724,2.226341 -1.232114,6.202114 -1.934959,9.332764 -0.276017,1.217886 -0.537805,2.323659 -0.73187,3.115854 -0.194065,0.799593 -0.253821,0.991951 -0.253821,0.991951 l 0.138292,0.160488 3.384472,0.472357 0.228211,-0.161056 c 0,-0.0068 0.156504,-0.7387 0.462683,-2.121627 0.29935,-1.382357 0.673252,-3.025935 0.934472,-4.057154 0.12691,-0.523008 0.433089,-1.979919 0.769431,-3.624065 0.336341,-1.650976 0.709674,-3.489187 0.971463,-4.752602 0.492845,-2.405609 0.926504,-4.004796 1.80065,-7.607235 0.530407,-2.188781 1.091545,-4.527236 1.091545,-4.527236 l 0.09675,-0.418862 -0.418293,-0.08195 z"
           id="Fill-9"
           inkscape:connector-curvature="0"
           style="fill:#9e0521" />
        <path
           d="m 64.670837,39.691992 c -0.0085,-0.0017 -0.805284,-0.213984 -1.433577,-0.301057 l -0.0017,0 c -0.612927,-0.08081 -1.511545,-0.07968 -1.591789,-0.08024 l -0.01878,5.69e-4 -0.320976,0.01024 -0.07,0.314146 c -5.69e-4,0.0023 -1.670894,7.47122 -2.38,11.271139 -0.688049,3.699756 -1.055122,5.441788 -1.47,8.060813 -0.330081,2.079512 -0.739268,5.139593 -0.893496,6.307967 C 54.72743,64.766789 48.40808,62.95874 45.675235,62.397602 42.600357,61.769309 40.95621,61.496707 37.060113,60.925894 l -0.0091,-0.0017 -6.32561,-0.68748 -0.264634,0.126911 c -0.0068,0.01878 -0.318699,0.779106 -0.40691,1.429593 l -0.09163,1.337968 0.224797,0.256666 c 0.0028,5.7e-4 0.650488,0.06203 2.11309,0.258374 1.46317,0.195773 3.292276,0.446179 4.75374,0.66244 2.92691,0.434227 5.391138,0.929349 7.318699,1.211056 1.880894,0.274309 4.723577,0.89122 6.800813,1.656098 2.687317,0.988537 7.947561,2.51374 7.953252,2.515447 l 0.481463,0.14 0.04724,-0.499105 c 0,-0.0011 0.04268,-0.453578 0.115528,-1.180326 0.217399,-2.179674 0.704553,-6.834959 1.090976,-9.047642 0.38813,-2.222927 1.031219,-5.681382 1.551951,-8.031789 l 5.69e-4,-0.004 5.69e-4,-0.0028 c 0.38244,-1.883171 0.544635,-2.417561 0.854228,-3.593902 0.309594,-1.174065 0.758618,-2.960488 1.701057,-7.290244 l 0.0848,-0.38813 -0.384147,-0.101301 z"
           id="Fill-11"
           inkscape:connector-curvature="0"
           style="fill:#005e2a" />
        <path
           d="m 30.14439,60.110423 c -0.01024,-0.0011 -2.598536,-0.60439 -4.183496,-0.779675 C 24.27065,59.14522 22.072195,58.637577 20.306829,58.17774 19.423577,57.947252 18.647317,57.727577 18.09187,57.56652 17.537561,57.406033 17.206911,57.303593 17.205772,57.303593 17.201219,57.301886 12.658618,55.893919 11.642764,55.623024 10.62748,55.351561 7.365935,54.620829 6.3261789,54.433593 l 0.00171,0 C 5.928374,54.360748 5.2636585,54.220748 4.7036585,54.100098 4.4521138,54.046033 4.2244715,53.995951 4.0463415,53.956683 4.0793496,53.656764 4.13,53.202049 4.1869106,52.696114 4.2882114,51.803187 4.4105691,50.75148 4.4942276,50.124325 4.6871545,48.866033 5.072439,47.737496 5.4810569,46.677252 6.0507317,45.194163 6.8560163,42.567171 7.1946341,41.483024 7.5457724,40.347089 8.1074797,37.611398 8.2321138,36.66213 c 0.073984,-0.565691 0.3039025,-2.776098 0.4103252,-3.707154 0.052927,-0.465529 0.1741464,-1.481952 0.2822765,-2.38 0.10813,-0.898049 0.2026016,-1.677724 0.2031707,-1.679431 L 9.1569106,28.653106 8.9594309,28.509691 C 8.9304065,28.495463 8.3413821,28.04587 7.5844715,27.943431 7.4649593,27.928634 7.35,27.922374 7.2418699,27.922374 c -0.549187,0.0011 -0.9361788,0.151382 -0.9663414,0.162764 l -0.2265041,0.08707 -0.034146,0.241301 c 0,0.0046 -0.7591869,5.349594 -0.8570731,6.266423 -0.043252,0.411463 -0.2117073,1.320894 -0.3881301,2.216667 -0.1758537,0.901463 -0.360813,1.798374 -0.441626,2.249674 -0.1542277,0.859919 -0.446748,2.011789 -0.775122,2.957074 -0.1656101,0.475206 -0.4638215,1.27423 -0.7415451,2.032848 C 2.5330894,44.899366 2.2786992,45.607333 2.1825203,45.970992 2.0112195,46.629447 1.3988618,49.118715 1.1495935,50.78335 1.028374,51.59774 0.81723577,52.989203 0.63682927,54.176927 0.45642276,55.36522 0.30617886,56.347496 0.30617886,56.349772 l -0.0620325,0.402927 3.20065044,0.546342 0.014228,0.0023 c 0,0 0.053496,0.0051 0.1695935,0.01992 0.3477236,0.0461 1.2235772,0.176992 2.5564228,0.482601 1.7983739,0.410895 4.7395119,1.028943 6.7843089,1.616261 2.067561,0.592439 1.724959,0.5213 2.724309,0.829756 l 0.0011,5.69e-4 c 0.967479,0.297073 1.226992,0.409187 2.190488,0.692032 l -0.0011,-5.69e-4 c 0.981708,0.291382 3.976911,0.968618 3.982602,0.970894 l 0.01024,0.0017 8.31065,1.473414 0.02049,-0.473496 c 0,0 0.0063,-0.146829 0.02049,-0.356829 0.01423,-0.209431 0.03699,-0.479756 0.06658,-0.715935 0.02675,-0.215691 0.0939,-0.500813 0.153659,-0.724471 0.03016,-0.112114 0.05805,-0.21 0.07911,-0.278293 l 0.03244,-0.10813 0.165041,-0.493984 -0.581057,-0.126341 z"
           id="Fill-13"
           inkscape:connector-curvature="0"
           style="fill:#ffcb04" />
        <path
           d="m 41.032919,33.168219 c -0.151952,0.307318 -0.814391,1.097236 -1.183171,1.273659 -0.22252,0.10813 -0.560569,0.05179 -0.801301,-0.01252 -0.243008,-0.06374 -1.159268,-0.497968 -1.210488,-1.220732 -0.03756,-0.548618 0.496261,-1.351057 0.726179,-1.567886 0.22935,-0.213984 0.43309,-0.317561 0.788781,-0.303903 0.35626,0.01252 0.57252,0.176423 0.815528,0.330651 0.241301,0.151951 0.686911,0.253821 0.801301,0.561138 0.116097,0.303902 0.206585,0.656748 0.06317,0.939593 m -1.794391,5.780407 c -0.153089,0.206016 -0.5213,0.388699 -0.952113,0.495691 -0.431952,0.10813 -2.167155,0.260651 -2.683334,0.241301 -0.516748,-0.01821 -2.084065,-0.110407 -2.962764,-0.302195 -0.841138,-0.182114 -2.344146,-0.855935 -2.921219,-1.195691 -0.577074,-0.340326 -1.543984,-1.237236 -1.867805,-1.580976 -0.325529,-0.34374 -0.830326,-1.053984 -1.150163,-2.235447 -0.176992,-0.656748 -0.287398,-1.721545 -0.287398,-2.074959 0,-0.303334 0.319268,-0.689757 0.692601,-0.729594 0.346586,-0.03699 0.80813,0.345447 0.90374,1.464309 0.06488,0.762033 0.159919,1.06878 0.505366,1.872927 0.437073,1.017561 1.98561,2.019756 2.720894,2.420406 0.702277,0.383578 2.62813,0.676667 3.160244,0.718781 0.530976,0.04211 2.234309,0.112114 2.95935,-0.008 0.32439,-0.05406 1.139919,-0.233902 1.343089,-0.207154 0.20374,0.02675 0.58561,0.05008 0.699431,0.36252 0.112114,0.30561 -0.0074,0.550325 -0.159919,0.758049 M 31.714382,27.452122 c 0.508781,-0.190651 1.005041,0.08138 1.246911,0.254959 0.243008,0.174147 0.630569,0.500813 0.776829,0.7 0.145691,0.200325 0.233902,0.427968 0.153659,0.73813 -0.08195,0.312439 -0.872439,1.127968 -1.418781,1.320326 -0.810407,0.285121 -1.566179,-0.427968 -1.662358,-0.887236 -0.166748,-0.788212 0.607805,-2.014065 0.90374,-2.126179 m 19.767886,-4.236423 c -0.07683,-0.562276 -0.395528,-0.907723 -0.773983,-1.085854 -0.224797,-0.103008 -1.129106,-0.08935 -1.613984,0.663578 -0.163333,0.253821 -1.153577,2.072683 -1.341951,2.389675 -0.188374,0.31756 -1.738049,2.497235 -1.89,2.620162 -0.151952,0.122358 -0.422277,0.154228 -0.590732,-0.03927 -0.169594,-0.194065 -0.07455,-0.409187 0.04041,-0.639675 0.166748,-0.331789 1.098943,-2.081219 1.394309,-2.887073 0.255529,-0.701707 1.237236,-3.742439 1.403415,-4.406016 0.16561,-0.658456 0.30561,-1.839919 0.313008,-2.506342 0.0461,-0.595284 -0.116098,-1.632764 -0.353984,-1.929837 -0.239593,-0.297642 -0.508211,-0.430244 -0.865609,-0.519594 -0.268049,-0.06658 -0.817805,0.0387 -1.175204,0.21626 -0.313577,0.158781 -1.035772,0.912277 -1.354471,1.444391 -0.357399,0.599837 -1.069919,2.414146 -1.238943,2.758455 -0.167317,0.34374 -1.07561,2.400488 -1.19626,2.757317 -0.120651,0.356829 -0.587318,1.50813 -0.82122,1.776179 -0.233902,0.270894 -0.450732,0.361382 -0.574228,0.281707 -0.125203,-0.07854 -0.217398,-0.561707 -0.141138,-0.983414 0.06146,-0.339757 1.164959,-5.034879 1.299269,-5.406504 0.174715,-0.475204 0.931626,-3.393578 0.98569,-4.057724 0.05464,-0.664146 0.03301,-1.170651 -0.274308,-1.654959 -0.310163,-0.48374 -0.6687,-0.606667 -0.986261,-0.748944 -0.31756,-0.141707 -0.677235,-0.159918 -0.984552,-0.117235 -0.306748,0.04211 -0.682358,0.259512 -0.86561,0.393821 -0.18496,0.132602 -0.428537,0.452439 -0.591301,0.669268 -0.165041,0.217968 -0.523008,1.030082 -0.631138,1.418781 -0.106992,0.385853 -1.227561,4.243821 -1.338537,4.608618 -0.111545,0.366504 -1.060813,3.584227 -1.182032,3.820406 -0.12122,0.236748 -0.434228,0.96122 -0.669269,0.985122 -0.236179,0.02447 -0.199187,-0.181545 -0.236179,-0.354553 -0.03756,-0.173577 0.0051,-0.450162 0.117805,-0.787642 0.111545,-0.336911 1.798943,-6.191301 1.972521,-6.99374 0.215691,-1.007886 0.22252,-2.114228 0.192927,-2.696992 -0.01081,-0.26065 -0.122927,-1.326016 -0.904309,-1.536016 -0.783659,-0.210569 -1.26,0.0085 -1.656098,0.39439 -0.394959,0.384147 -0.908862,1.169512 -1.45748,2.008374 -0.547479,0.837724 -1.750569,3.633171 -1.999837,4.550569 -0.307317,1.125691 -1.634472,5.461138 -1.780163,5.848699 -0.147398,0.3887 -0.543495,1.049431 -1.17065,1.830244 -0.392114,0.485448 -0.766585,0.815529 -1.075041,0.927643 -0.594715,0.215122 -1.035772,-0.236748 -1.224146,-0.573659 -0.172439,-0.30561 -0.331789,-1.327154 -0.484309,-1.813171 -0.07057,-0.220813 -0.520163,-1.547967 -0.715935,-1.940081 -0.195772,-0.390976 -0.847967,-1.389187 -1.08187,-1.621382 -0.233902,-0.231626 -0.736992,-0.760325 -1.204797,-0.958374 -0.421138,-0.180407 -0.867317,-0.158211 -1.197398,-0.06545 -0.33122,0.09276 -0.445041,0.165609 -0.670406,0.353983 -0.224797,0.187805 -0.432521,0.412602 -0.550895,0.944716 -0.118374,0.533821 0.09447,2.130163 0.297073,3.280894 0.150813,0.852521 0.931057,3.169919 1.019269,3.943903 0.105284,0.908861 0.299918,1.600894 0.334065,2.497235 0.03642,0.895773 0.392114,2.052765 0.571951,2.956505 0.178699,0.906585 0.102439,1.885447 0.284553,2.995772 0.108699,0.660732 0.799024,2.875122 1.034065,3.420325 0.427967,0.997642 1.319187,2.119919 1.854715,2.531951 0.537236,0.411464 1.258862,0.9487 2.127886,1.261139 0.867318,0.310162 1.279919,0.198048 1.969106,0.393821 0.689756,0.195203 1.75,0.768292 2.166585,1.023821 0.417724,0.255528 0.666423,0.379593 1.378375,0.471788 0.71252,0.0922 2.451138,-0.318699 3.151707,-0.590162 0.701138,-0.273171 1.69878,-0.922521 2.087479,-1.182033 0.85935,-0.570244 2.572927,-2.389105 3.230244,-3.386748 0.340895,-0.518455 1.360163,-2.422114 2.229187,-3.457317 0.572521,-0.681788 2.480732,-2.46878 2.809675,-2.784065 0.480894,-0.460406 1.707886,-2.010081 2.051626,-2.503496 0.343171,-0.495122 1.628212,-3.350325 1.812602,-3.821544 0.183821,-0.472358 0.514471,-1.821139 0.630569,-2.480732 0.113821,-0.66187 0.176992,-1.369268 0.104146,-1.909919"
           id="Fill-15"
           inkscape:connector-curvature="0"
           style="fill:#ffffff" />
        <path
           d="m 45.750805,52.191089 c 0,0.557155 -0.03073,1.174635 -0.39496,1.538862 -0.232764,0.232764 -0.556585,0.364797 -0.911138,0.364797 -0.354553,0 -0.668699,-0.132033 -0.901463,-0.364797 -0.364797,-0.364227 -0.405203,-0.981707 -0.405203,-1.538862 0,-0.556585 0.04041,-1.174634 0.405203,-1.538861 0.232764,-0.232765 0.54691,-0.364797 0.901463,-0.364797 0.354553,0 0.678374,0.132032 0.911138,0.364797 0.364228,0.364227 0.39496,0.982276 0.39496,1.538861 l 0,0 z m 0.728455,0 c 0,-0.769431 -0.100731,-1.468292 -0.607236,-1.984471 -0.344309,-0.344309 -0.820081,-0.567398 -1.427317,-0.567398 -0.607805,0 -1.084146,0.223089 -1.427886,0.567398 -0.506504,0.516179 -0.607805,1.21504 -0.607805,1.984471 0,0.769431 0.101301,1.468293 0.607805,1.984472 0.34374,0.344309 0.820081,0.567398 1.427886,0.567398 0.607236,0 1.083008,-0.223089 1.427317,-0.567398 0.506505,-0.516179 0.607236,-1.215041 0.607236,-1.984472 l 0,0 z m -5.051951,2.490976 0,-0.628293 -0.385285,0 c -0.465528,0 -0.677805,-0.27317 -0.677805,-0.728455 l 0,-3.037886 1.06309,0 0,-0.556586 -1.06309,0 0,-1.559349 -0.729024,0 0,1.559349 -0.628293,0 0,0.556586 0.628293,0 0,3.057805 c 0,0.739268 0.424553,1.336829 1.275366,1.336829 l 0.516748,0 z m -3.432846,0 0,-4.981382 -0.729024,0 0,3.068049 c 0,0.870162 -0.49626,1.326016 -1.245203,1.326016 -0.749512,0 -1.215041,-0.44561 -1.215041,-1.326016 l 0,-3.068049 -0.729024,0 0,3.179024 c 0,0.577073 0.151951,1.052846 0.505935,1.397155 0.303902,0.303902 0.749512,0.466097 1.286179,0.466097 0.556585,0 1.052845,-0.212845 1.407398,-0.618048 l 0,0.557154 0.71878,0 z m -4.910243,0 0,-0.628293 -0.385285,0 c -0.465529,0 -0.678374,-0.27317 -0.678374,-0.728455 l 0,-3.037886 1.063659,0 0,-0.556586 -1.063659,0 0,-1.559349 -0.729024,0 0,1.559349 -0.627724,0 0,0.556586 0.627724,0 0,3.057805 c 0,0.739268 0.425121,1.336829 1.275935,1.336829 l 0.516748,0 z m -4.273415,0 0.729024,0 0,-4.981382 -0.729024,0 0,4.981382 z m -0.04041,-6.399594 0.820082,0 0,-0.820081 -0.820082,0 0,0.820081 z m -1.204796,6.399594 0,-0.628293 -0.384716,0 c -0.465528,0 -0.678374,-0.27317 -0.678374,-0.728455 l 0,-3.037886 1.06309,0 0,-0.556586 -1.06309,0 0,-1.559349 -0.729024,0 0,1.559349 -0.627724,0 0,0.556586 0.627724,0 0,3.057805 c 0,0.739268 0.425122,1.336829 1.275935,1.336829 l 0.516179,0 z m -2.936586,-1.458049 c 0,-0.931626 -0.596992,-1.265691 -1.467723,-1.346504 l -0.799594,-0.07114 c -0.627723,-0.05065 -0.871301,-0.303903 -0.871301,-0.729024 0,-0.506505 0.385285,-0.820082 1.11374,-0.820082 0.516748,0 0.972602,0.12122 1.326586,0.39496 l 0.476341,-0.475773 c -0.44561,-0.364797 -1.083577,-0.537235 -1.792683,-0.537235 -1.063089,0 -1.83252,0.54691 -1.83252,1.458048 0,0.820651 0.516179,1.256017 1.488211,1.33683 l 0.820081,0.07057 c 0.577643,0.05122 0.830326,0.294227 0.830326,0.729593 0,0.586748 -0.505935,0.880976 -1.326017,0.880976 -0.618048,0 -1.154715,-0.162195 -1.549105,-0.577073 l -0.486586,0.485447 c 0.546911,0.526992 1.205366,0.719349 2.045366,0.719349 1.205366,0 2.024878,-0.557154 2.024878,-1.518943 l 0,0 z m -5.062195,1.458049 0,-3.189837 c 0,-0.577074 -0.162195,-1.042602 -0.516179,-1.386911 -0.303902,-0.303902 -0.739268,-0.466097 -1.275935,-0.466097 -0.557154,0 -1.04317,0.202601 -1.397723,0.607804 l 0,-0.546341 -0.729025,0 0,4.981382 0.729025,0 0,-3.068049 c 0,-0.870731 0.486585,-1.326585 1.235528,-1.326585 0.749512,0 1.225285,0.44561 1.225285,1.326585 l 0,3.068049 0.729024,0 z m -6.034797,0 0.769431,0 0,-7.209431 -0.769431,0 0,7.209431 z"
           id="Fill-17"
           inkscape:connector-curvature="0"
           style="fill:#042f5e" />
        <path
           d="m 60.589325,58.879219 c -5.915284,0 -9.866016,-3.053252 -9.866016,-6.957886 0,-3.905203 3.95187,-6.959024 9.866016,-6.959024 5.926098,0 9.866017,3.05439 9.866017,6.959024 0,3.904634 -3.954716,6.957886 -9.866017,6.957886"
           id="Fill-19"
           inkscape:connector-curvature="0"
           style="fill:#ffffff" />
        <path
           d="m 60.583179,42.678715 c -1.106911,0.04098 -1.29813,0.719919 -2.559268,0.956667 -1.065366,0.160488 -1.83309,-0.378455 -2.820488,-0.05862 -0.904309,0.331789 -1.135935,1.190569 -2.027724,1.794391 -0.847967,0.530406 -2.011219,0.489999 -2.59626,1.166097 -0.639675,0.764878 -0.421138,1.684553 -0.802439,2.774959 -0.437642,1.109756 -1.244634,1.496748 -1.244634,2.602521 0,1.128536 0.810975,1.499593 1.249756,2.613902 0.384715,1.109187 0.142845,1.977642 0.80187,2.78748 0.68065,0.705691 1.60374,0.561138 2.586585,1.147317 0.907724,0.608943 1.125691,1.459187 2.032846,1.801219 1.06252,0.322683 1.649268,-0.224227 2.820488,-0.05862 1.194552,0.201464 1.454065,0.91683 2.559268,0.956667 l 0.0063,0 0.0028,0 c 1.114308,-0.03984 1.284471,-0.72561 2.5513,-0.952683 1.130813,-0.16504 1.810326,0.375041 2.829025,0.05463 0.915122,-0.338618 1.127398,-1.196829 2.032845,-1.801219 0.950407,-0.56626 1.848456,-0.405772 2.582602,-1.141057 0.656748,-0.803577 0.434797,-1.743171 0.814959,-2.804553 0.409187,-1.071057 1.242358,-1.476829 1.242358,-2.603089 0,-1.113171 -0.797317,-1.491626 -1.252032,-2.601382 -0.376749,-1.145041 -0.167887,-2.04935 -0.812114,-2.797724 -0.688049,-0.703415 -1.685691,-0.593577 -2.575773,-1.137642 -0.908862,-0.615773 -1.125691,-1.46374 -2.032845,-1.80122 -1.012439,-0.313008 -1.664634,0.213984 -2.820488,0.05862 -1.244065,-0.219675 -1.452358,-0.915691 -2.559837,-0.956667 l -0.0091,0 z m 0.0063,16.200732 c -5.915285,0 -9.866585,-3.053821 -9.866585,-6.958455 0,-3.904634 3.952439,-6.958455 9.866585,-6.958455 5.926098,0 9.865447,3.053821 9.865447,6.958455 0,3.904634 -3.954146,6.958455 -9.865447,6.958455 l 0,0 z"
           id="Fill-21"
           inkscape:connector-curvature="0"
           style="fill:#9e0521" />
        <path
           d="m 68.242602,54.812333 -0.130895,-5.69e-4 c -0.308455,-0.0028 -0.385853,-0.0865 -0.47691,-0.340325 -0.008,-0.01992 -0.887236,-2.529106 -1.529187,-4.359919 -0.330651,-0.942439 -0.605529,-1.727235 -0.686342,-1.957723 -0.02447,-0.07114 -0.08024,-0.109269 -0.158211,-0.108699 l -0.84626,0 c -0.0774,-5.7e-4 -0.13374,0.03699 -0.159919,0.10756 l -2.65374,6.346667 c -0.05407,0.129756 -0.09846,0.198049 -0.217967,0.259512 -0.09219,0.0461 -0.247561,0.05236 -0.309025,0.05236 -0.0091,0 -0.01537,-5.69e-4 -0.02049,-5.69e-4 l -0.0046,0 -0.0023,0 -0.0011,0 -5.69e-4,0 -5.69e-4,0 -0.07,0.0017 c -0.07626,0 -0.128049,0.05293 -0.128618,0.130325 l 0,0.410326 c 5.69e-4,0.07797 0.05179,0.129187 0.129756,0.129187 l 2.065285,0 c 0.07683,0 0.129187,-0.05236 0.129187,-0.129756 l 0,-0.411464 c 5.69e-4,-0.07569 -0.05236,-0.128618 -0.128618,-0.128618 l -0.229919,-0.0023 c -0.207724,-0.0017 -0.365935,-0.01821 -0.366504,-0.196911 l 0,-0.0011 0,-5.69e-4 0,-0.0011 c 0,-0.0626 0.01992,-0.143415 0.05919,-0.238456 0.132602,-0.327235 0.265772,-0.653902 0.397805,-0.980569 l 2.387398,0 c 0.110407,0.310732 0.283415,0.864472 0.284553,0.870732 0.0011,0.0017 0.06317,0.193496 0.08309,0.272033 0.0091,0.03642 0.01366,0.06886 0.01366,0.09732 0,0.0023 -5.69e-4,0.0051 0,0.008 -0.004,0.108699 -0.07512,0.163903 -0.22935,0.168455 l -0.251544,0.0046 c -0.03642,0 -0.06943,0.01195 -0.09333,0.03585 -0.02333,0.02333 -0.03585,0.05691 -0.03585,0.09447 l 0,0.0017 0,0.409187 0,0 c 0,0.03642 0.01195,0.06943 0.03585,0.09276 0.0239,0.0239 0.05634,0.03585 0.0939,0.03585 l 3.051544,0 c 0.0774,0 0.129187,-0.05236 0.129757,-0.129756 l 0,-0.409757 c -5.7e-4,-0.0774 -0.05236,-0.130325 -0.129187,-0.130325 l 0,0 z m -3.102765,-2.009512 -2.026585,0 1.155285,-2.873415 0.8713,2.873415 z"
           id="Fill-23"
           inkscape:connector-curvature="0"
           style="fill:#042f5e" />
        <path
           d="m 58.725447,53.347797 -0.422276,0 c -0.06715,-5.69e-4 -0.113821,0.04098 -0.128049,0.111544 -0.117236,0.7387 -0.36935,1.412521 -1.459187,1.413659 -0.706829,-5.69e-4 -1.098943,-0.474634 -1.318618,-1.133089 -0.218536,-0.657887 -0.260081,-1.497887 -0.260081,-2.219513 0,-0.493983 0.08024,-1.20878 0.31187,-1.798374 0.232195,-0.590162 0.612926,-1.053414 1.214471,-1.053414 0.992521,0.0017 1.284472,0.530975 1.443252,1.398862 0.01537,0.07854 0.05748,0.117235 0.130326,0.116097 l 0.419999,0 c 0.0774,0 0.129187,-0.05293 0.130326,-0.129756 l 0,-1.878618 c -0.0011,-0.07683 -0.0535,-0.130325 -0.129756,-0.130325 l -0.429675,0 c -0.06545,-5.69e-4 -0.09447,0.03301 -0.124065,0.09789 -0.05463,0.117236 -0.09163,0.179838 -0.222521,0.180976 -0.07967,0 -0.14,-0.02902 -0.243577,-0.07968 -0.02732,-0.01195 -0.05691,-0.02732 -0.08992,-0.04211 -0.233333,-0.09732 -0.575365,-0.207724 -1.156422,-0.207724 -0.998212,0 -1.833659,0.380732 -2.419269,1.044879 -0.58504,0.664146 -0.920813,1.611138 -0.920813,2.743089 0,0.904309 0.261789,1.843902 0.812114,2.557561 0.550325,0.713658 1.389187,1.201382 2.540488,1.201382 0.637398,0 1.042033,-0.112114 1.308374,-0.186098 0.135447,-0.03756 0.233333,-0.06431 0.309024,-0.06431 0.06943,5.69e-4 0.117236,0.03472 0.151952,0.110406 0.03016,0.06943 0.0791,0.08195 0.12065,0.08138 l 0.0011,0 0,-0.0011 0.430813,0.0011 c 0.07683,0 0.129756,-0.05236 0.129756,-0.129187 l 0,-1.875203 c 0,-0.07683 -0.0535,-0.130325 -0.130325,-0.130325"
           id="Fill-25"
           inkscape:connector-curvature="0"
           style="fill:#042f5e" />
        <path
           d="m 62.437667,50.851813 c -0.01821,-0.02561 -0.05065,-0.02675 -0.07683,-0.02675 -0.0023,0 -0.0057,-5.69e-4 -0.0091,0 l -0.0068,0 -0.862764,0 c -0.08024,-0.0011 -0.111545,0.04154 -0.120081,0.07683 -0.06545,0.261789 -0.19122,0.529269 -0.375041,0.793903 -0.169024,-0.251545 -0.338049,-0.503659 -0.507073,-0.755773 0.542927,-0.240731 0.811545,-0.52813 0.811545,-0.876992 -5.69e-4,-0.492845 -0.400651,-0.823495 -0.990244,-0.824065 -0.557724,0.0011 -1.125122,0.295366 -1.12626,0.956098 0,0.27374 0.118374,0.478618 0.237886,0.641382 -0.458699,0.150244 -0.937317,0.545772 -0.938455,1.085854 0,0.0057 0,0.01138 5.69e-4,0.01707 0.01195,0.630569 0.548618,1.053415 1.327723,1.053415 l 0.0017,0 c 0.270894,0 0.660162,-0.05236 0.986829,-0.300488 0.216829,0.205447 0.540081,0.224797 0.65561,0.225366 0.0239,0 0.03984,-0.0011 0.04268,-0.0011 l 0.347723,0 5.69e-4,0 c 0.07968,0.0011 0.107561,-0.04268 0.122358,-0.08138 l 0.106423,-0.253821 c 0.008,-0.01878 0.01252,-0.03585 0.01252,-0.05122 0,-0.01309 -0.004,-0.02618 -0.01081,-0.03642 -0.01992,-0.02732 -0.05407,-0.02845 -0.07626,-0.02902 -0.004,0 -0.008,0 -0.01081,5.7e-4 l -0.0063,0 -0.155935,0 c -0.294228,0 -0.458699,-0.207155 -0.497968,-0.263496 0.179838,-0.180976 0.232195,-0.25496 0.332358,-0.397236 0.01707,-0.02333 0.03415,-0.04894 0.0535,-0.07626 0.08821,-0.123496 0.211707,-0.326098 0.213415,-0.328374 0.05407,-0.08309 0.0848,-0.131464 0.168455,-0.132033 l 0.118374,0 c 0.0552,5.69e-4 0.09561,-0.02732 0.121788,-0.08195 l 0.103009,-0.234472 c 0.01024,-0.02504 0.01593,-0.0461 0.01593,-0.06431 0,-0.01366 -0.0034,-0.02504 -0.01024,-0.03529 m -2.769269,0.35 0,0 0.797317,1.096667 c -0.14626,0.145691 -0.295365,0.27317 -0.547479,0.27374 -0.394391,-0.0011 -0.635691,-0.25496 -0.636829,-0.669838 0,-0.268049 0.159918,-0.557723 0.386991,-0.700569 m 0.508781,-0.604959 c -0.160488,-0.236179 -0.23561,-0.386423 -0.236179,-0.61748 0.0011,-0.187236 0.108699,-0.385285 0.346585,-0.385285 0.206586,5.7e-4 0.298781,0.187236 0.299919,0.377887 -5.69e-4,0.275447 -0.133171,0.478048 -0.410325,0.624878"
           id="Fill-27"
           inkscape:connector-curvature="0"
           style="fill:#042f5e" />
      </g>
    </g>
  </g>
</svg>
