<?xml version="1.0" encoding="UTF-8" standalone="no"?>
<!-- Created with Inkscape (http://www.inkscape.org/) -->

<svg
   xmlns:dc="http://purl.org/dc/elements/1.1/"
   xmlns:cc="http://creativecommons.org/ns#"
   xmlns:rdf="http://www.w3.org/1999/02/22-rdf-syntax-ns#"
   xmlns:svg="http://www.w3.org/2000/svg"
   xmlns="http://www.w3.org/2000/svg"
   xmlns:sodipodi="http://sodipodi.sourceforge.net/DTD/sodipodi-0.dtd"
   xmlns:inkscape="http://www.inkscape.org/namespaces/inkscape"
   id="svg2"
   version="1.1"
   inkscape:version="0.48.4 r9939"
   width="664.66064"
   height="109.77187"
   xml:space="preserve"
   sodipodi:docname="site-logo.svg"><metadata
     id="metadata8"><rdf:RDF><cc:Work
         rdf:about=""><dc:format>image/svg+xml</dc:format><dc:type
           rdf:resource="http://purl.org/dc/dcmitype/StillImage" /><dc:title></dc:title></cc:Work></rdf:RDF></metadata><defs
     id="defs6"><clipPath
       clipPathUnits="userSpaceOnUse"
       id="clipPath16"><path
         d="m 0,142.667 578.667,0 L 578.667,0 0,0 0,142.667 z"
         id="path18"
         inkscape:connector-curvature="0" /></clipPath></defs><sodipodi:namedview
     pagecolor="#ffffff"
     bordercolor="#666666"
     borderopacity="1"
     objecttolerance="10"
     gridtolerance="10"
     guidetolerance="10"
     inkscape:pageopacity="0"
     inkscape:pageshadow="2"
     inkscape:window-width="1301"
     inkscape:window-height="744"
     id="namedview4"
     showgrid="false"
     fit-margin-top="0"
     fit-margin-left="0"
     fit-margin-right="0"
     fit-margin-bottom="0"
     inkscape:zoom="0.64838673"
     inkscape:cx="331.91925"
     inkscape:cy="52.826122"
     inkscape:window-x="65"
     inkscape:window-y="336"
     inkscape:window-maximized="1"
     inkscape:current-layer="g10" /><g
     id="g10"
     inkscape:groupmode="layer"
     inkscape:label="lettering_paralapraca_2016 (1)"
     transform="matrix(1.25,0,0,-1.25,-29.747625,146.11262)"><g
       id="g20"
       transform="translate(57.5401,59.2376)"
       style="fill:#de6f10;fill-opacity:1"><path
         d="M 0,0 1.765,36.752 6.994,36.28 C 36.259,33.679 39.158,0 0,0 m -20.694,44.323 0.076,6.155 -13.124,-11.287 13.499,-9.247 0.012,7.92 12.392,-0.707 -0.456,-36.428 0.157,-25.291 7.585,0.237 0.588,17.032 c 14.576,1.557 37.106,3.03 39.894,20.065 1.485,9.092 1.777,16.62 -3.76,22.98 -7.393,8.501 -17.51,10.933 -27.948,10.465 l -28.915,-1.894 z"
         style="fill:#de6f10;fill-opacity:1;fill-rule:nonzero;stroke:none"
         id="path22"
         inkscape:connector-curvature="0" /></g><g
       id="g24"
       transform="translate(315.0628,59.0984)"
       style="fill:#de6f10;fill-opacity:1"><path
         d="m 0,0 0.461,37.435 5.004,0.023 C 35.36,37.59 39.821,1.415 0,0 m -9.513,46.293 1.049,-45.851 1.039,-24.869 7.745,0 -0.021,17.016 c 14.763,2.11 37.627,4.424 39.839,21.843 1.183,9.305 1.206,16.964 -4.66,23.235 -7.827,8.372 -18.181,10.287 -28.79,9.624 L -9.513,46.293 z"
         style="fill:#de6f10;fill-opacity:1;fill-rule:nonzero;stroke:none"
         id="path26"
         inkscape:connector-curvature="0" /></g><g
       id="g28"
       transform="translate(237.8412,115.2748)"
       style="fill:#de6f10;fill-opacity:1"><path
         d="M 0,0 -0.581,-55.969 -1.167,-80.6 10.324,-80.598 9.729,-34.089 9.453,0 0,0 z"
         style="fill:#de6f10;fill-opacity:1;fill-rule:nonzero;stroke:none"
         id="path30"
         inkscape:connector-curvature="0" /></g><g
       id="g32"
       transform="translate(159.3996,95.3355)"
       style="fill:#de6f10;fill-opacity:1"><path
         d="m 0,0 c 8.365,1.554 21.333,2.209 21.333,-10.148 0,-10.442 -10.824,-11.385 -20.036,-14.925 L 0.359,-7.01 0,0 z m -9.113,10.141 0.519,-16.651 2.054,-53.426 10.289,0 -1.989,28.466 c 24.323,-0.106 10.326,-28.114 32.329,-28.598 1.081,-0.023 2.251,0.026 3.515,0.132 l 30.548,2.61 -0.28,5.653 c -5.192,0 -26.535,-2.571 -33.79,-1.556 -3.798,0.53 -7.047,1.795 -8.884,4.411 -3.624,5.167 -3.286,19.129 -13.505,21.51 10.185,3.038 19.531,6.642 18.73,19.249 -0.882,13.918 -7.58,18.2 -22.616,18.2 -4.982,0 -11.98,0.412 -16.92,0"
         style="fill:#de6f10;fill-opacity:1;fill-rule:nonzero;stroke:none"
         id="path34"
         inkscape:connector-curvature="0" /></g><g
       id="g36"
       transform="translate(367.1138,95.3355)"
       style="fill:#de6f10;fill-opacity:1"><path
         d="m 0,0 c 8.36,1.554 21.338,2.209 21.338,-10.148 0,-10.442 -10.833,-11.385 -20.041,-14.925 L 0.361,-7.01 0,0 z m -9.117,10.141 0.521,-16.651 2.056,-53.426 10.292,0 -1.992,28.466 c 24.323,-0.106 10.326,-28.114 32.329,-28.598 1.079,-0.023 2.251,0.026 3.513,0.132 l 30.548,2.61 -0.278,5.653 c -5.194,0 -26.537,-2.571 -33.79,-1.556 -3.798,0.53 -7.047,1.795 -8.884,4.411 -3.621,5.167 -3.288,19.129 -13.503,21.51 10.185,3.038 19.527,6.642 18.73,19.249 -0.88,13.918 -7.582,18.2 -22.621,18.2 -4.981,0 -11.977,0.412 -16.921,0"
         style="fill:#de6f10;fill-opacity:1;fill-rule:nonzero;stroke:none"
         id="path38"
         inkscape:connector-curvature="0" /></g><g
       id="g40"
       transform="translate(442.5193,60.277)"
       style="fill:#de6f10;fill-opacity:1"><path
         d="m 0,0 c 0.699,-11.498 5.806,-25.953 20.215,-25.601 8.515,0.206 18.552,3.983 19.395,22.326 L 32.343,-4.294 C 31.697,-15.104 25.467,-16.648 19.62,-16.811 9.958,-17.082 7.304,-8.305 7.161,0.174 7.084,5.062 6.913,10.122 7.309,14.997 9.499,42.322 29.453,41.81 31.727,13.564 l 9.108,0.637 C 42.129,55.869 1.253,56.27 -0.264,15.227 -0.447,10.171 -0.306,5.042 0,0"
         style="fill:#de6f10;fill-opacity:1;fill-rule:nonzero;stroke:none"
         id="path42"
         inkscape:connector-curvature="0" /></g><g
       id="g44"
       transform="translate(107.5379,57.1332)"
       style="fill:#de6f10;fill-opacity:1"><path
         d="m 0,0 c 0,16.016 14.624,16.996 26.942,14.958 l -0.278,-30.263 -9.518,-0.352 C 7.304,-15.866 0,-9.425 0,0 m 27.257,28.07 -0.055,-6.197 c -18.138,3.735 -39.67,-3.469 -39.318,-23.269 0.229,-12.957 8.834,-21.065 23.35,-21.065 l 30.129,1.417 -0.269,6.853 -4.096,-0.281 -0.616,19.159 c -0.739,22.927 0.734,44.494 -21.23,44.693 -16.836,0 -19.179,-9.726 -19.807,-22.641 l 7.675,0.273 c 0.127,19.656 24.406,18.235 24.237,1.058"
         style="fill:#de6f10;fill-opacity:1;fill-rule:nonzero;stroke:none"
         id="path46"
         inkscape:connector-curvature="0" /></g><g
       id="g48"
       transform="translate(262.8882,57.1332)"
       style="fill:#de6f10;fill-opacity:1"><path
         d="m 0,0 c 0,16.016 14.629,16.996 26.942,14.958 l -0.275,-30.263 -9.521,-0.352 C 7.304,-15.866 0,-9.425 0,0 m 27.257,28.07 -0.06,-6.197 c -18.131,3.735 -39.661,-3.469 -39.311,-23.269 0.227,-12.957 8.835,-21.065 23.35,-21.065 l 30.122,1.417 -0.266,6.853 -4.094,-0.281 -0.619,19.159 C 35.645,27.614 37.12,49.181 15.152,49.38 -1.684,49.38 -4.03,39.654 -4.655,26.739 l 7.677,0.273 C 3.15,46.668 27.424,45.247 27.257,28.07"
         style="fill:#de6f10;fill-opacity:1;fill-rule:nonzero;stroke:none"
         id="path50"
         inkscape:connector-curvature="0" /></g><g
       id="g52"
       transform="translate(199.745,64.6027)"
       style="fill:#de6f10;fill-opacity:1"><path
         d="m 0,0 c 0,10.539 10.472,12.091 20.449,10.437 l -0.225,-21.923 -7.707,-0.285 C 4.544,-11.943 0,-7.64 0,0 m 20.706,22.734 -0.049,-5.023 c -14.682,3.03 -32.125,-2.811 -31.838,-18.85 0.183,-10.486 7.156,-17.054 18.909,-17.054 l 26.382,1.45 -0.223,6.009 -3.313,-0.229 -0.503,15.057 c -0.611,18.569 2.726,35.898 -19.168,35.898 -13.64,0 -15.537,-7.878 -16.04,-18.339 l 6.216,0.215 c 0.1,15.924 19.759,14.778 19.627,0.866"
         style="fill:#de6f10;fill-opacity:1;fill-rule:nonzero;stroke:none"
         id="path54"
         inkscape:connector-curvature="0" /></g><g
       id="g56"
       transform="translate(407.4552,64.6027)"
       style="fill:#de6f10;fill-opacity:1"><path
         d="m 0,0 c 0,10.539 10.477,12.091 20.451,10.437 l -0.218,-21.923 -7.711,-0.285 C 4.551,-11.943 0,-7.64 0,0 m 20.708,22.734 -0.046,-5.023 c -14.685,3.03 -32.128,-2.811 -31.838,-18.85 0.18,-10.486 7.151,-17.054 18.906,-17.054 l 26.382,1.45 -0.22,6.009 -3.316,-0.229 -0.503,15.057 c -0.609,18.569 2.726,35.898 -19.165,35.898 -13.638,0 -15.542,-7.878 -16.042,-18.339 l 6.213,0.215 c 0.104,15.924 19.761,14.778 19.629,0.866"
         style="fill:#de6f10;fill-opacity:1;fill-rule:nonzero;stroke:none"
         id="path58"
         inkscape:connector-curvature="0" /></g><g
       id="g60"
       transform="translate(495.5286,57.0566)"
       style="fill:#de6f10;fill-opacity:1"><path
         d="M 0,0 C 0,15.961 14.571,16.936 26.845,14.902 L 26.539,-16.405 16.88,-17.288 C 7.112,-18.182 0,-9.398 0,0 m 36.162,-15.53 0.092,20.196 c -0.736,22.846 0.73,44.337 -21.157,44.536 -16.776,0 -19.115,-9.689 -19.736,-22.561 l 7.647,0.271 c 0.125,19.59 24.316,18.172 24.154,1.056 l -0.06,-6.174 C 9.034,25.52 -12.424,18.327 -12.077,-1.399 c 0.229,-12.906 8.809,-20.891 23.269,-20.986 l 38.038,-0.241 0.118,-5.358 10.65,10.159 -10.687,9.856 0.097,-6.347 -13.246,-1.214 z"
         style="fill:#de6f10;fill-opacity:1;fill-rule:nonzero;stroke:none"
         id="path62"
         inkscape:connector-curvature="0" /></g><g
       id="g64"
       transform="translate(518.4114,116.8901)"
       style="fill:#de6f10;fill-opacity:1"><path
         d="M 0,0 -16.398,-3.004 -15.296,-9.036 1.077,-5.889 0,0 z"
         style="fill:#de6f10;fill-opacity:1;fill-rule:nonzero;stroke:none"
         id="path66"
         inkscape:connector-curvature="0" /></g></g></svg>