<?xml version="1.0" encoding="utf-8"?>
<!-- Generator: Adobe Illustrator 16.0.0, SVG Export Plug-In . SVG Version: 6.00 Build 0)  -->
<!DOCTYPE svg PUBLIC "-//W3C//DTD SVG 1.1//EN" "http://www.w3.org/Graphics/SVG/1.1/DTD/svg11.dtd">
<svg version="1.1" id="Layer_1" xmlns="http://www.w3.org/2000/svg" xmlns:xlink="http://www.w3.org/1999/xlink" x="0px" y="0px"
	 width="153.261px" height="67.391px" viewBox="0 0 153.261 67.391" enable-background="new 0 0 153.261 67.391"
	 xml:space="preserve">
<g>
	<g>
		<path fill="#45A2BC" d="M12.111,8.895c1.105-0.184,2.553-0.342,4.396-0.342c2.264,0,3.922,0.526,4.975,1.474
			c0.974,0.843,1.553,2.133,1.553,3.711c0,1.605-0.474,2.869-1.368,3.791c-1.212,1.29-3.186,1.948-5.423,1.948
			c-0.684,0-1.315-0.025-1.842-0.158v7.107h-2.29L12.111,8.895L12.111,8.895z M14.401,17.45c0.5,0.132,1.132,0.184,1.896,0.184
			c2.764,0,4.447-1.342,4.447-3.79c0-2.343-1.657-3.475-4.185-3.475c-1,0-1.764,0.078-2.158,0.185V17.45z"/>
		<path fill="#45A2BC" d="M26.113,8.921c1.158-0.237,2.816-0.368,4.396-0.368c2.448,0,4.026,0.447,5.133,1.447
			c0.895,0.79,1.395,2,1.395,3.369c0,2.343-1.474,3.896-3.343,4.526v0.079c1.369,0.475,2.186,1.737,2.606,3.58
			c0.579,2.475,1,4.186,1.369,4.87h-2.369c-0.29-0.5-0.685-2.027-1.186-4.238c-0.525-2.448-1.474-3.369-3.553-3.448h-2.158v7.687
			h-2.29L26.113,8.921L26.113,8.921z M28.403,17.002h2.342c2.448,0,4.001-1.343,4.001-3.369c0-2.29-1.657-3.291-4.079-3.317
			c-1.105,0-1.896,0.105-2.265,0.211L28.403,17.002L28.403,17.002z"/>
		<path fill="#45A2BC" d="M55.513,17.371c0,6.105-3.711,9.344-8.239,9.344c-4.685,0-7.975-3.632-7.975-9.002
			c0-5.633,3.5-9.318,8.237-9.318C52.381,8.395,55.513,12.106,55.513,17.371z M41.746,17.661c0,3.791,2.054,7.186,5.659,7.186
			c3.632,0,5.687-3.343,5.687-7.37c0-3.526-1.843-7.212-5.659-7.212C43.642,10.264,41.746,13.764,41.746,17.661z"/>
		<path fill="#45A2BC" d="M58.485,26.425V8.684h2.5l5.687,8.977c1.315,2.079,2.342,3.947,3.185,5.765l0.053-0.026
			c-0.21-2.369-0.263-4.526-0.263-7.291V8.684h2.158v17.741h-2.316l-5.633-9.002c-1.237-1.974-2.422-4.001-3.315-5.922l-0.079,0.025
			c0.131,2.237,0.184,4.37,0.184,7.317v7.581H58.485L58.485,26.425z"/>
		<path fill="#45A2BC" d="M78.673,20.845l-1.844,5.58h-2.368l6.026-17.741h2.765l6.054,17.741h-2.448l-1.896-5.58H78.673z
			 M84.489,19.055l-1.736-5.105c-0.396-1.158-0.658-2.212-0.922-3.237h-0.052c-0.263,1.053-0.553,2.132-0.895,3.211l-1.737,5.132
			H84.489z"/>
		<path fill="#45A2BC" d="M93.254,10.632h-5.396V8.684h13.134v1.948h-5.422v15.793h-2.315V10.632L93.254,10.632z"/>
		<path fill="#45A2BC" d="M112.151,18.107h-6.896v6.396h7.686v1.921h-9.976V8.684h9.581v1.921h-7.291v5.606h6.896V18.107z"/>
		<path fill="#45A2BC" d="M128.312,25.846c-0.842,0.421-2.527,0.842-4.686,0.842c-5.001,0-8.766-3.159-8.766-8.976
			c0-5.554,3.765-9.318,9.266-9.318c2.211,0,3.605,0.475,4.211,0.79l-0.554,1.869c-0.869-0.421-2.105-0.737-3.58-0.737
			c-4.158,0-6.922,2.659-6.922,7.317c0,4.343,2.5,7.133,6.817,7.133c1.395,0,2.815-0.29,3.737-0.737L128.312,25.846z"/>
	</g>
	<g>
		<path fill="#010101" d="M35.493,46.083H33.42l-0.527,1.97h2.312l-0.158,0.591h-3.002l1.464-5.463h2.883l-0.159,0.591h-2.193
			L33.575,45.5h2.074L35.493,46.083z"/>
		<path fill="#010101" d="M35.941,48.644l1.464-5.463h0.753l0.97,2.764c0.225,0.642,0.379,1.217,0.482,1.775l0.019-0.007
			c0.132-0.73,0.295-1.395,0.521-2.246l0.613-2.286h0.648l-1.464,5.463h-0.696L38.3,45.873c-0.21-0.608-0.398-1.232-0.509-1.824
			l-0.026,0.008c-0.146,0.688-0.306,1.346-0.549,2.253l-0.625,2.334L35.941,48.644L35.941,48.644z"/>
		<path fill="#010101" d="M41.291,47.786c0.257,0.193,0.664,0.355,1.14,0.355c0.705,0,1.219-0.381,1.366-0.932
			c0.137-0.512-0.069-0.804-0.714-1.086c-0.786-0.316-1.201-0.778-0.995-1.548c0.228-0.852,1.087-1.483,2.124-1.483
			c0.547,0,0.906,0.13,1.107,0.268l-0.343,0.576c-0.149-0.097-0.462-0.26-0.944-0.26c-0.729,0-1.125,0.446-1.226,0.819
			c-0.137,0.51,0.12,0.762,0.778,1.054c0.808,0.355,1.146,0.803,0.932,1.604c-0.226,0.844-1.031,1.573-2.291,1.573
			c-0.515,0-1.035-0.154-1.268-0.349L41.291,47.786z"/>
		<path fill="#010101" d="M47.214,43.18l-1.464,5.463h-0.689l1.464-5.463H47.214z"/>
		<path fill="#010101" d="M46.953,48.644l1.465-5.463h0.753l0.969,2.764c0.225,0.642,0.379,1.217,0.482,1.775l0.019-0.007
			c0.132-0.73,0.295-1.395,0.521-2.246l0.613-2.286h0.649l-1.464,5.463h-0.697l-0.952-2.771c-0.21-0.608-0.398-1.232-0.509-1.824
			l-0.026,0.008c-0.146,0.688-0.306,1.346-0.549,2.253l-0.625,2.334L46.953,48.644L46.953,48.644z"/>
		<path fill="#010101" d="M57.476,45.856c-0.503,1.88-1.887,2.878-3.25,2.878c-1.409,0-2.1-1.118-1.656-2.772
			c0.465-1.734,1.821-2.869,3.247-2.869C57.273,43.091,57.909,44.234,57.476,45.856z M53.31,45.944
			c-0.312,1.168,0.025,2.214,1.11,2.214c1.093,0,1.984-1.029,2.317-2.271c0.291-1.086,0.041-2.222-1.106-2.222
			C54.49,43.667,53.632,44.745,53.31,45.944z"/>
		<path fill="#010101" d="M61.298,43.78h-1.623l0.161-0.6h3.95l-0.16,0.6h-1.632l-1.303,4.863h-0.697L61.298,43.78z"/>
		<path fill="#010101" d="M66.367,46.083h-2.073l-0.527,1.97h2.312l-0.158,0.591h-3.002l1.464-5.463h2.883l-0.159,0.591h-2.193
			L64.449,45.5h2.074L66.367,46.083z M67.344,41.94l-1.26,0.948h-0.57l0.99-0.948H67.344z"/>
		<path fill="#010101" d="M70.594,48.465c-0.288,0.129-0.83,0.26-1.479,0.26c-1.504,0-2.376-0.973-1.896-2.765
			c0.458-1.71,1.9-2.869,3.556-2.869c0.666,0,1.046,0.146,1.202,0.243l-0.32,0.575c-0.227-0.13-0.572-0.227-1.017-0.227
			c-1.252,0-2.302,0.819-2.688,2.253c-0.357,1.337,0.164,2.197,1.462,2.197c0.421,0,0.872-0.089,1.187-0.228L70.594,48.465z"/>
		<path fill="#010101" d="M71.41,48.644l1.465-5.463h0.753l0.969,2.764c0.225,0.642,0.379,1.217,0.482,1.775l0.019-0.007
			c0.132-0.73,0.295-1.395,0.521-2.246l0.613-2.286h0.649l-1.464,5.463h-0.697l-0.952-2.771c-0.21-0.608-0.398-1.232-0.509-1.824
			l-0.026,0.008c-0.146,0.688-0.306,1.346-0.549,2.253l-0.625,2.334L71.41,48.644L71.41,48.644z"/>
		<path fill="#010101" d="M78.777,43.18l-1.464,5.463h-0.688l1.464-5.463H78.777z"/>
		<path fill="#010101" d="M82.296,48.465c-0.288,0.129-0.83,0.26-1.479,0.26c-1.504,0-2.376-0.973-1.896-2.765
			c0.458-1.71,1.9-2.869,3.556-2.869c0.666,0,1.046,0.146,1.202,0.243l-0.32,0.575c-0.227-0.13-0.573-0.227-1.017-0.227
			c-1.252,0-2.303,0.819-2.688,2.253c-0.357,1.337,0.164,2.197,1.462,2.197c0.42,0,0.872-0.089,1.187-0.228L82.296,48.465z"/>
		<path fill="#010101" d="M88.255,45.856c-0.503,1.88-1.888,2.878-3.25,2.878c-1.409,0-2.101-1.118-1.656-2.772
			c0.465-1.734,1.821-2.869,3.247-2.869C88.053,43.091,88.688,44.234,88.255,45.856z M84.09,45.944
			c-0.312,1.168,0.024,2.214,1.109,2.214c1.094,0,1.985-1.029,2.318-2.271c0.291-1.086,0.041-2.222-1.107-2.222
			C85.27,43.667,84.41,44.745,84.09,45.944z"/>
		<path fill="#010101" d="M93.534,46.083h-2.073l-0.527,1.97h2.312l-0.158,0.591h-3.002l1.464-5.463h2.883l-0.159,0.591h-2.193
			L91.616,45.5h2.074L93.534,46.083z"/>
		<path fill="#010101" d="M99.111,46.083h-2.074l-0.526,1.97h2.312l-0.159,0.591h-3.002l1.465-5.463h2.883l-0.159,0.591h-2.193
			L97.193,45.5h2.074L99.111,46.083z"/>
		<path fill="#010101" d="M104.7,46.245c0.165-0.763,0.362-1.679,0.554-2.359h-0.023c-0.354,0.641-0.758,1.322-1.229,2.075
			l-1.653,2.651h-0.523l-0.165-2.603c-0.047-0.771-0.071-1.476-0.049-2.125h-0.016c-0.198,0.681-0.483,1.597-0.751,2.416
			l-0.771,2.343h-0.656l1.836-5.463h0.88l0.202,2.642c0.042,0.675,0.062,1.273,0.046,1.841h0.022
			c0.283-0.552,0.632-1.151,1.057-1.841l1.657-2.642h0.879l-1.131,5.463h-0.674L104.7,46.245z"/>
		<path fill="#010101" d="M107.376,43.246c0.349-0.058,0.797-0.105,1.352-0.105c0.681,0,1.136,0.162,1.375,0.454
			c0.224,0.26,0.292,0.657,0.162,1.144c-0.132,0.494-0.379,0.885-0.726,1.167c-0.471,0.397-1.117,0.601-1.792,0.601
			c-0.204,0-0.394-0.007-0.541-0.048l-0.586,2.188h-0.688L107.376,43.246z M107.359,45.88c0.14,0.041,0.325,0.057,0.555,0.057
			c0.831,0,1.449-0.414,1.651-1.168c0.193-0.721-0.212-1.068-0.972-1.068c-0.301,0-0.538,0.023-0.665,0.057L107.359,45.88z"/>
		<path fill="#010101" d="M111.589,43.253c0.367-0.073,0.878-0.113,1.354-0.113c0.736,0,1.174,0.138,1.425,0.445
			c0.205,0.243,0.254,0.617,0.143,1.038c-0.193,0.722-0.766,1.199-1.38,1.395l-0.006,0.023c0.371,0.146,0.514,0.536,0.488,1.103
			c-0.029,0.762-0.045,1.29,0.009,1.5h-0.713c-0.046-0.152-0.038-0.624-0.006-1.305c0.043-0.754-0.167-1.038-0.785-1.062h-0.648
			l-0.634,2.367h-0.689L111.589,43.253z M111.611,45.742h0.705c0.736,0,1.313-0.413,1.481-1.038
			c0.188-0.705-0.229-1.014-0.954-1.021c-0.332,0-0.579,0.032-0.698,0.064L111.611,45.742z"/>
		<path fill="#010101" d="M117.855,46.083h-2.074l-0.526,1.97h2.312l-0.159,0.591h-3.002l1.464-5.463h2.884l-0.159,0.591H116.4
			l-0.463,1.729h2.074L117.855,46.083z"/>
		<path fill="#010101" d="M122.432,48.4c-0.339,0.114-0.998,0.301-1.719,0.301c-0.809,0-1.417-0.211-1.804-0.722
			c-0.338-0.454-0.427-1.183-0.198-2.035c0.443-1.629,1.855-2.819,3.646-2.819c0.617,0,1.063,0.138,1.263,0.251l-0.319,0.576
			c-0.25-0.13-0.578-0.235-1.116-0.235c-1.299,0-2.368,0.827-2.735,2.197c-0.371,1.386,0.226,2.205,1.469,2.205
			c0.451,0,0.777-0.064,0.958-0.146l0.437-1.63h-1.085l0.152-0.567h1.758L122.432,48.4z"/>
		<path fill="#010101" d="M128.731,45.856c-0.503,1.88-1.887,2.878-3.25,2.878c-1.409,0-2.1-1.118-1.656-2.772
			c0.466-1.734,1.821-2.869,3.247-2.869C128.529,43.091,129.166,44.234,128.731,45.856z M124.565,45.944
			c-0.312,1.168,0.025,2.214,1.11,2.214c1.093,0,1.984-1.029,2.317-2.271c0.291-1.086,0.041-2.222-1.106-2.222
			C125.746,43.667,124.887,44.745,124.565,45.944z"/>
	</g>
	<g>
		<path fill="#010101" d="M37.185,56.245c0.165-0.763,0.362-1.679,0.553-2.359h-0.022c-0.354,0.641-0.758,1.322-1.229,2.075
			l-1.652,2.651H34.31l-0.165-2.603c-0.047-0.771-0.072-1.476-0.049-2.125h-0.017c-0.197,0.681-0.482,1.597-0.751,2.416l-0.77,2.343
			h-0.657l1.836-5.463h0.88l0.202,2.642c0.042,0.675,0.063,1.273,0.046,1.841h0.023c0.283-0.552,0.632-1.151,1.056-1.841
			l1.658-2.642h0.879l-1.131,5.463h-0.674L37.185,56.245z"/>
		<path fill="#010101" d="M40.567,53.18l-1.464,5.463h-0.689l1.465-5.463H40.567z"/>
		<path fill="#010101" d="M40.308,58.644l1.464-5.463h0.753l0.969,2.764c0.226,0.642,0.379,1.217,0.483,1.775l0.018-0.007
			c0.133-0.73,0.295-1.395,0.522-2.246l0.613-2.286h0.648l-1.464,5.463h-0.697l-0.951-2.771c-0.211-0.608-0.398-1.232-0.51-1.824
			l-0.025,0.008c-0.146,0.688-0.307,1.346-0.549,2.253l-0.625,2.334L40.308,58.644L40.308,58.644z"/>
		<path fill="#010101" d="M47.674,53.18l-1.464,5.463h-0.689l1.464-5.463H47.674z"/>
		<path fill="#010101" d="M47.55,57.786c0.257,0.193,0.664,0.355,1.14,0.355c0.705,0,1.219-0.381,1.366-0.932
			c0.137-0.512-0.069-0.804-0.714-1.086c-0.786-0.316-1.201-0.778-0.995-1.548c0.228-0.852,1.087-1.483,2.124-1.483
			c0.547,0,0.907,0.13,1.107,0.268l-0.343,0.576c-0.148-0.097-0.462-0.26-0.943-0.26c-0.729,0-1.125,0.446-1.227,0.819
			c-0.137,0.51,0.12,0.762,0.778,1.054c0.808,0.355,1.146,0.803,0.932,1.604c-0.226,0.844-1.031,1.573-2.291,1.573
			c-0.515,0-1.035-0.154-1.268-0.349L47.55,57.786z"/>
		<path fill="#010101" d="M53.636,53.78h-1.623l0.161-0.6h3.951l-0.161,0.6h-1.631l-1.304,4.863h-0.696L53.636,53.78z"/>
		<path fill="#010101" d="M58.706,56.083h-2.073l-0.527,1.97h2.312l-0.159,0.591h-3.002l1.464-5.463h2.883l-0.159,0.591h-2.192
			L56.788,55.5h2.074L58.706,56.083z M59.683,51.94l-1.26,0.948h-0.57l0.99-0.948H59.683z"/>
		<path fill="#010101" d="M60.6,53.253c0.368-0.073,0.878-0.113,1.354-0.113c0.736,0,1.175,0.138,1.426,0.445
			c0.205,0.243,0.254,0.617,0.142,1.038c-0.193,0.722-0.765,1.199-1.38,1.395l-0.006,0.023c0.373,0.146,0.514,0.536,0.489,1.103
			c-0.03,0.762-0.046,1.29,0.009,1.5H61.92c-0.046-0.152-0.038-0.624-0.007-1.305c0.044-0.754-0.167-1.038-0.784-1.062h-0.649
			l-0.634,2.367h-0.689L60.6,53.253z M60.622,55.742h0.705c0.736,0,1.313-0.413,1.481-1.038c0.188-0.705-0.229-1.014-0.954-1.021
			c-0.332,0-0.579,0.032-0.698,0.064L60.622,55.742z"/>
		<path fill="#010101" d="M65.57,53.18l-1.464,5.463h-0.688l1.464-5.463H65.57z"/>
		<path fill="#010101" d="M70.618,55.856c-0.503,1.88-1.887,2.878-3.25,2.878c-1.408,0-2.1-1.118-1.655-2.772
			c0.465-1.734,1.82-2.869,3.247-2.869C70.418,53.091,71.053,54.234,70.618,55.856z M66.453,55.944
			c-0.312,1.168,0.025,2.214,1.11,2.214c1.093,0,1.985-1.029,2.318-2.271c0.291-1.086,0.041-2.222-1.107-2.222
			C67.635,53.667,66.774,54.745,66.453,55.944z"/>
		<path fill="#010101" d="M73.894,53.253c0.438-0.065,0.949-0.113,1.496-0.113c0.989,0,1.631,0.235,1.979,0.681
			c0.356,0.445,0.465,1.078,0.229,1.961c-0.239,0.894-0.704,1.622-1.338,2.125c-0.637,0.511-1.533,0.787-2.57,0.787
			c-0.491,0-0.896-0.023-1.234-0.064L73.894,53.253z M73.288,58.085c0.165,0.032,0.417,0.041,0.687,0.041
			c1.474,0,2.499-0.843,2.895-2.319c0.354-1.288-0.141-2.106-1.598-2.106c-0.355,0-0.635,0.031-0.827,0.071L73.288,58.085z"/>
		<path fill="#010101" d="M78.938,56.925l-1.014,1.718h-0.713l3.276-5.463h0.831l0.357,5.463h-0.736l-0.11-1.718H78.938z
			 M80.836,56.375l-0.102-1.572c-0.021-0.357-0.016-0.681-0.01-0.997h-0.016c-0.166,0.324-0.343,0.657-0.534,0.989l-0.946,1.581
			L80.836,56.375L80.836,56.375z"/>
		<path fill="#010101" d="M87.593,56.083h-2.074l-0.527,1.97h2.312l-0.159,0.591h-3.002l1.464-5.463h2.883l-0.159,0.591h-2.192
			L85.675,55.5h2.074L87.593,56.083z"/>
		<path fill="#010101" d="M89.484,53.253c0.438-0.065,0.949-0.113,1.496-0.113c0.989,0,1.631,0.235,1.979,0.681
			c0.355,0.445,0.464,1.078,0.228,1.961c-0.239,0.894-0.704,1.622-1.338,2.125c-0.636,0.511-1.533,0.787-2.57,0.787
			c-0.491,0-0.896-0.023-1.233-0.064L89.484,53.253z M88.88,58.085c0.165,0.032,0.417,0.041,0.686,0.041
			c1.474,0,2.499-0.843,2.896-2.319c0.353-1.288-0.142-2.106-1.599-2.106c-0.355,0-0.635,0.031-0.827,0.071L88.88,58.085z"/>
		<path fill="#010101" d="M95.47,53.18l-0.867,3.234c-0.328,1.224,0.063,1.742,0.776,1.742c0.792,0,1.441-0.534,1.766-1.742
			l0.867-3.234h0.697l-0.854,3.187c-0.45,1.678-1.498,2.367-2.654,2.367c-1.093,0-1.746-0.641-1.292-2.334l0.862-3.219L95.47,53.18
			L95.47,53.18z"/>
		<path fill="#010101" d="M102.22,58.465c-0.288,0.129-0.83,0.26-1.479,0.26c-1.504,0-2.376-0.973-1.896-2.765
			c0.458-1.71,1.9-2.869,3.556-2.869c0.666,0,1.046,0.146,1.202,0.243l-0.32,0.575c-0.227-0.13-0.572-0.227-1.017-0.227
			c-1.252,0-2.302,0.819-2.688,2.253c-0.357,1.337,0.164,2.197,1.463,2.197c0.42,0,0.871-0.089,1.186-0.228L102.22,58.465z"/>
		<path fill="#010101" d="M104.393,56.925l-1.014,1.718h-0.713l3.276-5.463h0.831l0.357,5.463h-0.736l-0.11-1.718H104.393z
			 M106.291,56.375l-0.102-1.572c-0.021-0.357-0.016-0.681-0.01-0.997h-0.017c-0.166,0.324-0.342,0.657-0.533,0.989l-0.946,1.581
			L106.291,56.375L106.291,56.375z"/>
		<path fill="#010101" d="M111.576,58.465c-0.279,0.129-0.795,0.251-1.463,0.26l-0.276,0.324c0.277,0.057,0.48,0.275,0.392,0.606
			c-0.126,0.472-0.581,0.657-0.993,0.657c-0.206,0-0.412-0.057-0.523-0.138l0.208-0.365c0.102,0.065,0.249,0.106,0.406,0.106
			c0.184,0,0.36-0.073,0.408-0.251c0.058-0.211-0.166-0.301-0.526-0.342l0.5-0.625c-1.259-0.153-1.948-1.094-1.508-2.739
			c0.458-1.71,1.901-2.869,3.557-2.869c0.666,0,1.046,0.146,1.202,0.243l-0.32,0.574c-0.228-0.129-0.573-0.226-1.018-0.226
			c-1.252,0-2.302,0.819-2.687,2.253c-0.358,1.337,0.164,2.197,1.462,2.197c0.42,0,0.872-0.089,1.187-0.228L111.576,58.465z"/>
		<path fill="#010101" d="M113.789,56.925l-1.014,1.718h-0.713l3.277-5.463h0.831l0.356,5.463h-0.735l-0.11-1.718H113.789z
			 M115.687,56.375l-0.101-1.572c-0.022-0.357-0.017-0.681-0.011-0.997h-0.016c-0.166,0.324-0.342,0.657-0.534,0.989l-0.946,1.581
			L115.687,56.375L115.687,56.375z M114.883,52.847c0.125-0.494,0.419-0.826,0.76-0.826c0.182,0,0.29,0.073,0.431,0.162
			c0.107,0.073,0.215,0.146,0.341,0.146c0.119,0,0.206-0.058,0.3-0.316h0.363c-0.128,0.512-0.377,0.787-0.74,0.787
			c-0.175,0-0.3-0.065-0.442-0.154c-0.128-0.081-0.219-0.154-0.338-0.154c-0.118,0-0.219,0.138-0.302,0.355H114.883z"/>
		<path fill="#010101" d="M122.504,55.856c-0.503,1.88-1.888,2.878-3.25,2.878c-1.409,0-2.101-1.118-1.656-2.772
			c0.465-1.734,1.821-2.869,3.247-2.869C122.302,53.091,122.938,54.234,122.504,55.856z M118.339,55.944
			c-0.312,1.168,0.024,2.214,1.109,2.214c1.094,0,1.985-1.029,2.318-2.271c0.291-1.086,0.041-2.222-1.107-2.222
			C119.519,53.667,118.659,54.745,118.339,55.944z"/>
	</g>
	<g>
		<path fill="#010101" d="M18.996,33.5c0.35-0.059,0.798-0.106,1.353-0.106c0.681,0,1.136,0.162,1.375,0.454
			c0.223,0.26,0.292,0.657,0.162,1.145c-0.133,0.493-0.38,0.884-0.726,1.167c-0.471,0.396-1.118,0.6-1.793,0.6
			c-0.205,0-0.394-0.007-0.541-0.048l-0.586,2.188h-0.688L18.996,33.5z M18.979,36.133c0.14,0.04,0.326,0.057,0.555,0.057
			c0.831,0,1.449-0.414,1.651-1.168c0.193-0.721-0.212-1.068-0.972-1.068c-0.302,0-0.538,0.023-0.665,0.057L18.979,36.133z"/>
		<path fill="#010101" d="M23.21,33.506c0.367-0.073,0.878-0.113,1.354-0.113c0.736,0,1.174,0.138,1.424,0.446
			c0.205,0.242,0.255,0.616,0.143,1.038c-0.193,0.721-0.766,1.199-1.38,1.394l-0.007,0.024c0.373,0.146,0.515,0.536,0.488,1.103
			c-0.03,0.763-0.044,1.29,0.01,1.5h-0.713c-0.046-0.153-0.038-0.625-0.006-1.306c0.043-0.754-0.166-1.038-0.785-1.062h-0.648
			l-0.635,2.367h-0.688L23.21,33.506z M23.231,35.995h0.705c0.736,0,1.314-0.413,1.481-1.038c0.188-0.705-0.229-1.014-0.954-1.021
			c-0.332,0-0.579,0.032-0.698,0.064L23.231,35.995z"/>
		<path fill="#010101" d="M31.359,36.108c-0.504,1.881-1.888,2.878-3.25,2.878c-1.409,0-2.1-1.118-1.656-2.772
			c0.466-1.734,1.822-2.869,3.248-2.869C31.157,33.344,31.795,34.487,31.359,36.108z M27.194,36.197
			c-0.312,1.167,0.025,2.214,1.11,2.214c1.093,0,1.986-1.029,2.317-2.271c0.291-1.086,0.042-2.222-1.106-2.222
			C28.375,33.919,27.516,34.998,27.194,36.197z"/>
		<path fill="#010101" d="M35.638,38.653c-0.339,0.113-0.999,0.301-1.719,0.301c-0.809,0-1.417-0.21-1.804-0.722
			c-0.337-0.454-0.427-1.183-0.198-2.035c0.443-1.629,1.855-2.82,3.646-2.82c0.617,0,1.063,0.138,1.263,0.251l-0.319,0.576
			c-0.251-0.129-0.579-0.235-1.117-0.235c-1.299,0-2.368,0.827-2.735,2.197c-0.371,1.386,0.226,2.205,1.468,2.205
			c0.452,0,0.778-0.064,0.958-0.146l0.438-1.63h-1.085l0.152-0.567h1.758L35.638,38.653z"/>
		<path fill="#010101" d="M38.071,33.506c0.368-0.073,0.878-0.113,1.354-0.113c0.735,0,1.174,0.138,1.424,0.446
			c0.205,0.242,0.255,0.616,0.142,1.038c-0.192,0.721-0.765,1.199-1.38,1.394l-0.006,0.024c0.372,0.146,0.514,0.536,0.488,1.103
			c-0.03,0.763-0.044,1.29,0.01,1.5h-0.713c-0.046-0.153-0.038-0.625-0.006-1.306c0.043-0.754-0.166-1.038-0.785-1.062H37.95
			l-0.634,2.367h-0.688L38.071,33.506z M38.094,35.995h0.705c0.735,0,1.313-0.413,1.48-1.038c0.188-0.705-0.228-1.014-0.954-1.021
			c-0.332,0-0.579,0.032-0.697,0.064L38.094,35.995z"/>
		<path fill="#010101" d="M42.254,37.178l-1.015,1.719h-0.713l3.277-5.464h0.831l0.356,5.464h-0.735l-0.11-1.719H42.254z
			 M44.151,36.627l-0.101-1.573c-0.022-0.357-0.017-0.681-0.01-0.997h-0.017c-0.166,0.324-0.342,0.657-0.535,0.989l-0.945,1.581
			H44.151z"/>
		<path fill="#010101" d="M50.887,36.498c0.165-0.763,0.363-1.679,0.553-2.359h-0.022c-0.354,0.641-0.759,1.322-1.229,2.075
			l-1.653,2.651h-0.522l-0.165-2.603c-0.048-0.77-0.073-1.476-0.049-2.125h-0.017c-0.197,0.681-0.483,1.597-0.75,2.416l-0.771,2.343
			h-0.657l1.836-5.464h0.88l0.202,2.643c0.041,0.674,0.063,1.272,0.046,1.84h0.023c0.281-0.552,0.633-1.15,1.056-1.84l1.658-2.643
			h0.879l-1.131,5.464h-0.674L50.887,36.498z"/>
		<path fill="#010101" d="M53.36,37.178l-1.014,1.719h-0.713l3.276-5.464h0.831l0.357,5.464h-0.736l-0.109-1.719H53.36z
			 M55.259,36.627l-0.102-1.573c-0.021-0.357-0.016-0.681-0.01-0.997h-0.016c-0.166,0.324-0.343,0.657-0.535,0.989l-0.946,1.581
			H55.259z"/>
		<path fill="#010101" d="M58.564,38.897l1.464-5.464h0.753l0.97,2.764c0.225,0.641,0.379,1.217,0.482,1.775l0.019-0.007
			c0.132-0.73,0.294-1.395,0.522-2.246l0.612-2.286h0.648l-1.464,5.464h-0.696l-0.952-2.771c-0.21-0.608-0.398-1.232-0.51-1.824
			l-0.024,0.008c-0.146,0.688-0.306,1.345-0.55,2.253l-0.625,2.335H58.564z"/>
		<path fill="#010101" d="M65.102,37.178l-1.014,1.719h-0.713l3.276-5.464h0.831l0.357,5.464h-0.736l-0.11-1.719H65.102z M67,36.627
			l-0.102-1.573c-0.021-0.357-0.016-0.681-0.01-0.997h-0.017c-0.166,0.324-0.342,0.657-0.534,0.989l-0.946,1.581H67z"/>
		<path fill="#010101" d="M72.286,38.718c-0.289,0.129-0.831,0.26-1.479,0.26c-1.504,0-2.376-0.973-1.896-2.765
			c0.458-1.71,1.902-2.869,3.557-2.869c0.666,0,1.045,0.146,1.203,0.243l-0.32,0.576c-0.229-0.129-0.573-0.228-1.017-0.228
			c-1.253,0-2.304,0.819-2.688,2.253c-0.358,1.338,0.164,2.197,1.462,2.197c0.42,0,0.872-0.089,1.187-0.227L72.286,38.718z"/>
		<path fill="#010101" d="M75.257,33.433l-1.464,5.464h-0.689l1.464-5.464H75.257z"/>
		<path fill="#010101" d="M80.305,36.108c-0.504,1.881-1.888,2.878-3.25,2.878c-1.409,0-2.101-1.118-1.656-2.772
			c0.465-1.734,1.822-2.869,3.248-2.869C80.104,33.344,80.739,34.487,80.305,36.108z M76.14,36.197
			c-0.313,1.167,0.024,2.214,1.11,2.214c1.093,0,1.985-1.029,2.317-2.271c0.291-1.086,0.042-2.222-1.106-2.222
			C77.32,33.919,76.462,34.998,76.14,36.197z"/>
		<path fill="#010101" d="M80.455,38.897l1.465-5.464h0.753l0.969,2.764c0.225,0.641,0.379,1.217,0.483,1.775l0.018-0.007
			c0.132-0.73,0.294-1.395,0.523-2.246l0.611-2.286h0.649l-1.464,5.464h-0.697l-0.952-2.771c-0.21-0.608-0.397-1.232-0.509-1.824
			l-0.025,0.008c-0.146,0.688-0.306,1.345-0.55,2.253l-0.625,2.335H80.455z"/>
		<path fill="#010101" d="M86.991,37.178l-1.014,1.719h-0.713l3.277-5.464h0.83l0.357,5.464h-0.736l-0.109-1.719H86.991z
			 M88.89,36.627l-0.102-1.573c-0.021-0.357-0.016-0.681-0.01-0.997h-0.016c-0.166,0.324-0.342,0.657-0.535,0.989l-0.946,1.581
			H88.89z"/>
		<path fill="#010101" d="M91.98,33.433h0.689l-1.307,4.872h2.28l-0.158,0.592h-2.97L91.98,33.433z"/>
		<path fill="#010101" d="M97.381,33.506c0.438-0.065,0.948-0.113,1.496-0.113c0.988,0,1.631,0.235,1.979,0.682
			c0.356,0.444,0.464,1.077,0.229,1.961c-0.239,0.893-0.704,1.622-1.339,2.125c-0.636,0.51-1.532,0.786-2.569,0.786
			c-0.491,0-0.896-0.023-1.234-0.064L97.381,33.506z M96.774,38.337c0.166,0.032,0.417,0.041,0.687,0.041
			c1.474,0,2.5-0.843,2.895-2.318c0.354-1.289-0.14-2.106-1.597-2.106c-0.356,0-0.634,0.031-0.827,0.072L96.774,38.337z"/>
		<path fill="#010101" d="M104.662,36.335h-2.073l-0.528,1.97h2.312l-0.157,0.592h-3.002l1.464-5.464h2.883l-0.159,0.592h-2.192
			l-0.463,1.728h2.074L104.662,36.335z"/>
		<path fill="#010101" d="M108.112,37.178l-1.014,1.719h-0.713l3.276-5.464h0.831l0.357,5.464h-0.736l-0.109-1.719H108.112z
			 M110.011,36.627l-0.102-1.573c-0.021-0.357-0.016-0.681-0.01-0.997h-0.016c-0.166,0.324-0.342,0.657-0.535,0.989l-0.946,1.581
			H110.011z"/>
		<path fill="#010101" d="M115.299,38.718c-0.289,0.129-0.831,0.26-1.48,0.26c-1.504,0-2.376-0.973-1.896-2.765
			c0.458-1.71,1.901-2.869,3.556-2.869c0.666,0,1.045,0.146,1.203,0.243l-0.32,0.576c-0.228-0.129-0.573-0.228-1.017-0.228
			c-1.252,0-2.303,0.819-2.688,2.253c-0.357,1.338,0.164,2.197,1.462,2.197c0.421,0,0.872-0.089,1.187-0.227L115.299,38.718z"/>
		<path fill="#010101" d="M119.564,36.335h-2.074l-0.527,1.97h2.312l-0.158,0.592h-3.002l1.464-5.464h2.884l-0.159,0.592h-2.193
			l-0.462,1.728h2.074L119.564,36.335z"/>
		<path fill="#010101" d="M120.147,38.039c0.256,0.193,0.665,0.355,1.14,0.355c0.705,0,1.219-0.381,1.366-0.932
			c0.138-0.51-0.068-0.803-0.714-1.086c-0.787-0.316-1.202-0.778-0.996-1.548c0.229-0.852,1.087-1.484,2.125-1.484
			c0.547,0,0.908,0.13,1.108,0.268l-0.344,0.576c-0.148-0.097-0.463-0.259-0.944-0.259c-0.729,0-1.125,0.446-1.226,0.818
			c-0.137,0.511,0.12,0.762,0.778,1.054c0.809,0.357,1.147,0.803,0.933,1.604c-0.227,0.843-1.031,1.573-2.291,1.573
			c-0.516,0-1.035-0.153-1.269-0.349L120.147,38.039z"/>
		<path fill="#010101" d="M124.054,38.039c0.256,0.193,0.665,0.355,1.14,0.355c0.705,0,1.218-0.381,1.366-0.932
			c0.137-0.51-0.069-0.803-0.714-1.086c-0.787-0.316-1.202-0.778-0.996-1.548c0.229-0.852,1.087-1.484,2.125-1.484
			c0.547,0,0.908,0.13,1.108,0.268l-0.345,0.576c-0.147-0.097-0.462-0.259-0.943-0.259c-0.729,0-1.125,0.446-1.226,0.818
			c-0.137,0.511,0.12,0.762,0.778,1.054c0.808,0.357,1.146,0.803,0.932,1.604c-0.226,0.843-1.031,1.573-2.291,1.573
			c-0.515,0-1.035-0.153-1.268-0.349L124.054,38.039z"/>
		<path fill="#010101" d="M133.133,36.108c-0.504,1.881-1.889,2.878-3.25,2.878c-1.409,0-2.101-1.118-1.656-2.772
			c0.465-1.734,1.822-2.869,3.248-2.869C132.931,33.344,133.566,34.487,133.133,36.108z M128.967,36.197
			c-0.313,1.167,0.024,2.214,1.109,2.214c1.094,0,1.986-1.029,2.318-2.271c0.291-1.086,0.042-2.222-1.107-2.222
			C130.147,33.919,129.288,34.998,128.967,36.197z"/>
		<path fill="#010101" d="M136.285,37.178l-1.014,1.719h-0.713l3.277-5.464h0.831l0.356,5.464h-0.736l-0.109-1.719H136.285z
			 M138.184,36.627l-0.101-1.573c-0.022-0.357-0.017-0.681-0.011-0.997h-0.016c-0.166,0.324-0.342,0.657-0.535,0.989l-0.946,1.581
			H138.184z"/>
		<path fill="#010101" d="M145.001,36.108c-0.505,1.881-1.889,2.878-3.25,2.878c-1.409,0-2.101-1.118-1.656-2.772
			c0.465-1.734,1.822-2.869,3.248-2.869C144.799,33.344,145.435,34.487,145.001,36.108z M140.835,36.197
			c-0.313,1.167,0.024,2.214,1.109,2.214c1.093,0,1.986-1.029,2.318-2.271c0.291-1.086,0.042-2.222-1.107-2.222
			C142.016,33.919,141.156,34.998,140.835,36.197z"/>
	</g>
</g>
</svg>
