<?xml version="1.0" encoding="UTF-8" standalone="no"?>
<!-- Generator: Adobe Illustrator 16.0.0, SVG Export Plug-In . SVG Version: 6.00 Build 0)  -->

<svg
   xmlns:dc="http://purl.org/dc/elements/1.1/"
   xmlns:cc="http://creativecommons.org/ns#"
   xmlns:rdf="http://www.w3.org/1999/02/22-rdf-syntax-ns#"
   xmlns:svg="http://www.w3.org/2000/svg"
   xmlns="http://www.w3.org/2000/svg"
   xmlns:sodipodi="http://sodipodi.sourceforge.net/DTD/sodipodi-0.dtd"
   xmlns:inkscape="http://www.inkscape.org/namespaces/inkscape"
   version="1.1"
   id="Layer_1"
   x="0px"
   y="0px"
   width="801.13599"
   height="193.28799"
   viewBox="0 0 801.13599 193.28799"
   enable-background="new 0 0 1024 768"
   xml:space="preserve"
   inkscape:version="0.48.4 r9939"
   sodipodi:docname="logo_paralapraca.svg"><metadata
     id="metadata59"><rdf:RDF><cc:Work
         rdf:about=""><dc:format>image/svg+xml</dc:format><dc:type
           rdf:resource="http://purl.org/dc/dcmitype/StillImage" /></cc:Work></rdf:RDF></metadata><defs
     id="defs57" /><sodipodi:namedview
     pagecolor="#ffffff"
     bordercolor="#666666"
     borderopacity="1"
     objecttolerance="10"
     gridtolerance="10"
     guidetolerance="10"
     inkscape:pageopacity="0"
     inkscape:pageshadow="2"
     inkscape:window-width="1301"
     inkscape:window-height="744"
     id="namedview55"
     showgrid="false"
     fit-margin-top="0"
     fit-margin-left="0"
     fit-margin-right="0"
     fit-margin-bottom="0"
     inkscape:zoom="0.30729167"
     inkscape:cx="400.138"
     inkscape:cy="97.124"
     inkscape:window-x="65"
     inkscape:window-y="336"
     inkscape:window-maximized="1"
     inkscape:current-layer="Layer_1" /><g
     id="g3"
     transform="translate(-111.862,-287.836)"><path
       d="m 873.206,306.102 c -4.032,-0.646 -15.134,-4.096 -19.319,-5.459 -2.791,-0.905 -5.295,-1.167 -5.295,-1.167 0,0 -24.517,-4.693 -32.596,-4.509 -8.087,0.188 -26.117,-6.009 -26.117,-6.009 0,0 -2.896,12.386 -3.758,15.962 -0.598,2.5 -3.94,14.874 -6.285,25.086 -1.734,7.485 -2.73,13.896 -2.73,13.896 0,0 0.933,-0.385 2.023,-0.233 -1.133,-0.077 -2.023,0.233 -2.023,0.233 0,0 -1.564,10.734 -1.763,12.527 -0.184,1.795 -1.382,7.239 -1.703,9.002 -0.322,1.779 -0.935,4.107 -1.622,6.057 -0.694,1.932 -2.459,6.393 -2.796,7.683 -0.352,1.289 -1.606,6.289 -2.099,9.552 -0.509,3.251 -1.732,11.149 -1.732,11.149 l 5.719,0.95 c 0,0 2.01,0.203 5.688,1.027 3.681,0.813 9.724,2.058 13.97,3.253 4.245,1.179 3.59,1.058 5.613,1.652 2.007,0.615 2.53,0.831 4.479,1.399 1.946,0.549 8.127,1.911 8.127,1.911 l 16.069,2.793 c 0,0 9.017,1.137 15.029,2.011 6.028,0.873 11.106,1.854 15.013,2.421 3.925,0.554 9.77,1.797 14.138,3.36 5.441,1.96 16.257,5.015 16.257,5.015 0,0 1.409,-14.552 2.483,-20.55 0.797,-4.459 2.111,-11.392 3.189,-16.118 1.579,-7.573 1.381,-4.475 5.243,-21.821 0,0 1.98,-8.997 3.051,-13.17 0.522,-2.025 2.503,-11.671 3.574,-16.745 1.013,-4.833 1.9,-8.05 3.695,-15.256 1.089,-4.375 2.237,-9.065 2.237,-9.065 0,0 -30.912,-6.073 -35.759,-6.837"
       id="path5"
       inkscape:connector-curvature="0"
       style="fill:#fbae25" /><path
       d="m 873.206,306.102 c -4.032,-0.646 -15.134,-4.096 -19.319,-5.459 -2.791,-0.905 -5.295,-1.167 -5.295,-1.167 0,0 -24.517,-4.693 -32.596,-4.509 -8.087,0.188 -26.117,-6.009 -26.117,-6.009 0,0 -2.896,12.386 -3.758,15.962 -0.598,2.5 -3.94,14.874 -6.285,25.086 -1.734,7.485 -2.73,13.896 -2.73,13.896 0,0 0.933,-0.385 2.023,-0.233 -1.133,-0.077 -2.023,0.233 -2.023,0.233 0,0 -1.564,10.734 -1.763,12.527 -0.184,1.795 -1.382,7.239 -1.703,9.002 -0.322,1.779 -0.935,4.107 -1.622,6.057 -0.694,1.932 -2.459,6.393 -2.796,7.683 -0.352,1.289 -1.606,6.289 -2.099,9.552 -0.509,3.251 -1.732,11.149 -1.732,11.149 l 5.719,0.95 c 0,0 2.01,0.203 5.688,1.027 3.681,0.813 9.724,2.058 13.97,3.253 4.245,1.179 3.59,1.058 5.613,1.652 2.007,0.615 2.53,0.831 4.479,1.399 1.946,0.549 8.127,1.911 8.127,1.911 l 16.069,2.793 c 0,0 9.017,1.137 15.029,2.011 6.028,0.873 11.106,1.854 15.013,2.421 3.925,0.554 9.77,1.797 14.138,3.36 5.441,1.96 16.257,5.015 16.257,5.015 0,0 1.409,-14.552 2.483,-20.55 0.797,-4.459 2.111,-11.392 3.189,-16.118 1.579,-7.573 1.381,-4.475 5.243,-21.821 0,0 1.98,-8.997 3.051,-13.17 0.522,-2.025 2.503,-11.671 3.574,-16.745 1.013,-4.833 1.9,-8.05 3.695,-15.256 1.089,-4.375 2.237,-9.065 2.237,-9.065 0,0 -30.912,-6.073 -35.759,-6.837"
       id="path7"
       inkscape:connector-curvature="0"
       style="fill:#f9a51a" /><path
       d="m 848.287,299.323 -0.336,-0.581 c 0,0 -5.09,-0.998 -12.07,-2.162 -6.977,-1.155 -14.993,-2.319 -19.381,-2.319 h -0.878 c -3.925,0.016 -10.364,-1.517 -15.73,-3.052 -2.683,-0.765 -5.123,-1.532 -6.883,-2.099 -1.766,-0.584 -2.834,-0.968 -2.834,-0.968 l -0.91,-0.306 -0.213,0.917 c 0,0.018 -0.723,3.178 -1.564,6.811 -0.828,3.635 -1.766,7.729 -2.192,9.555 -0.584,2.511 -3.943,15.241 -6.301,25.702 -1.737,7.709 -2.663,13.828 -2.663,13.828 l 0.379,0.323 c 0,0 1.881,-0.593 2.908,-0.456 0.806,0.105 2.639,1.267 2.639,1.267 l 0.451,-0.148 8.41,-36.347 3.017,-12.775 c 0.963,0.43 2.583,1.113 4.53,1.811 3.171,1.123 7.19,2.289 10.737,2.348 2.27,0.046 11.498,0.751 19.688,2.298 7.161,1.368 4.446,0.757 16.961,2.673 l 0.645,-0.317 1.59,-6.003 z"
       id="path9"
       inkscape:connector-curvature="0"
       style="fill:#042f5f" /><path
       d="m 909.137,312.694 c -0.015,0 -30.898,-6.21 -35.793,-7.02 -1.916,-0.31 -5.717,-1.35 -9.506,-2.487 -3.79,-1.134 -7.606,-2.361 -9.673,-3.071 -2.9,-0.945 -5.273,-1.206 -5.517,-1.246 l -0.697,-0.128 -0.186,0.749 -1.72,6.152 0.66,0.099 c 0,0 0.491,0.099 1.018,0.221 1.562,0.4 4.997,1.318 7.36,2.222 5.423,2.102 13.935,4.003 19.933,5.23 6.024,1.217 21.94,4.364 25.887,5.146 -0.639,2.369 -2.425,8.989 -3.47,13.396 -0.873,3.739 -1.409,6.378 -1.715,7.986 -0.86,4.571 -2.532,12.732 -3.975,19.155 -0.562,2.499 -1.101,4.768 -1.503,6.396 -0.394,1.638 -0.517,2.033 -0.517,2.033 l 0.282,0.33 6.945,0.968 0.467,-0.328 c 0,0 0.323,-1.516 0.95,-4.352 0.614,-2.839 1.382,-6.212 1.92,-8.329 0.259,-1.075 0.889,-4.064 1.58,-7.439 0.688,-3.386 1.455,-7.158 1.993,-9.752 1.012,-4.936 1.899,-8.215 3.694,-15.612 1.088,-4.488 2.242,-9.288 2.242,-9.288 l 0.192,-0.861 -0.851,-0.17 z"
       id="path11"
       inkscape:connector-curvature="0"
       style="fill:#9d0621" /><path
       d="m 896.632,368.288 c -0.018,-0.002 -1.65,-0.442 -2.941,-0.618 h -10e-4 c -1.261,-0.166 -3.102,-0.163 -3.27,-0.166 l -0.037,0.003 -0.658,0.019 -0.146,0.645 c 0,0 -3.426,15.334 -4.883,23.127 -1.411,7.597 -2.164,11.172 -3.015,16.546 -0.679,4.27 -1.519,10.547 -1.833,12.944 -3.621,-1.042 -16.59,-4.755 -22.199,-5.905 -6.31,-1.292 -9.682,-1.851 -17.678,-3.02 l -0.018,-0.005 -12.981,-1.409 -0.542,0.26 c -0.015,0.036 -0.655,1.599 -0.836,2.933 l -0.189,2.745 0.463,0.527 c 0.005,0 1.337,0.129 4.334,0.53 3.006,0.399 6.757,0.916 9.756,1.359 6.007,0.893 11.066,1.908 15.021,2.485 3.858,0.564 9.693,1.831 13.957,3.398 5.516,2.028 16.309,5.16 16.318,5.16 l 0.991,0.29 0.096,-1.022 c 0,0 0.089,-0.933 0.237,-2.425 0.444,-4.472 1.444,-14.027 2.236,-18.568 0.801,-4.559 2.117,-11.658 3.186,-16.48 l 0.003,-0.009 0.002,-0.004 c 0.784,-3.866 1.116,-4.964 1.752,-7.379 0.635,-2.409 1.558,-6.073 3.489,-14.96 l 0.173,-0.795 -0.787,-0.206 z"
       id="path13"
       inkscape:connector-curvature="0"
       style="fill:#005f2a" /><path
       d="m 825.782,410.188 c -0.022,0 -5.334,-1.236 -8.586,-1.597 -3.468,-0.384 -7.983,-1.424 -11.606,-2.367 -1.811,-0.475 -3.406,-0.925 -4.544,-1.257 -1.137,-0.326 -1.816,-0.541 -1.821,-0.541 -0.01,0 -9.33,-2.891 -11.414,-3.447 -2.084,-0.556 -8.776,-2.057 -10.911,-2.438 h 0.006 c -0.82,-0.15 -2.188,-0.441 -3.333,-0.685 -0.52,-0.112 -0.985,-0.215 -1.349,-0.291 0.069,-0.621 0.17,-1.555 0.288,-2.592 0.206,-1.829 0.459,-3.99 0.63,-5.278 0.396,-2.581 1.186,-4.897 2.021,-7.072 1.175,-3.042 2.823,-8.434 3.52,-10.662 0.721,-2.326 1.873,-7.943 2.129,-9.891 0.153,-1.16 0.624,-5.698 0.841,-7.607 0.112,-0.957 0.361,-3.042 0.581,-4.885 0.221,-1.842 0.414,-3.44 0.414,-3.44 l 0.061,-0.502 -0.402,-0.296 c -0.062,-0.027 -1.269,-0.95 -2.822,-1.163 -0.246,-0.032 -0.481,-0.042 -0.703,-0.042 -1.13,0.001 -1.921,0.309 -1.983,0.334 l -0.466,0.177 -0.07,0.499 c 0,0 -1.557,10.978 -1.758,12.854 -0.093,0.846 -0.435,2.714 -0.798,4.552 -0.358,1.851 -0.739,3.69 -0.905,4.618 -0.315,1.762 -0.917,4.126 -1.589,6.068 -0.342,0.972 -0.954,2.613 -1.522,4.171 -0.572,1.566 -1.097,3.02 -1.292,3.765 -0.351,1.348 -1.607,6.455 -2.121,9.877 -0.25,1.671 -0.679,4.524 -1.051,6.961 -0.373,2.436 -0.68,4.459 -0.68,4.461 l -0.127,0.825 6.567,1.123 0.032,0.006 c 0,0 0.107,0.01 0.346,0.037 0.717,0.098 2.513,0.364 5.248,0.993 3.691,0.843 9.728,2.109 13.923,3.313 4.24,1.216 3.54,1.072 5.591,1.707 h 0.003 c 1.983,0.607 2.515,0.84 4.494,1.42 l -10e-4,-0.001 c 2.017,0.598 8.16,1.988 8.171,1.993 l 0.022,0.005 17.053,3.021 0.043,-0.972 c 0,0 0.013,-0.3 0.043,-0.731 0.027,-0.427 0.075,-0.983 0.138,-1.47 0.056,-0.443 0.19,-1.026 0.312,-1.487 0.062,-0.229 0.119,-0.432 0.163,-0.569 l 0.07,-0.223 0.336,-1.013 -1.192,-0.261 z"
       id="path15"
       inkscape:connector-curvature="0"
       style="fill:#ffca05" /><path
       d="m 869.567,334.478 c -0.151,-1.155 -0.811,-1.865 -1.588,-2.234 -0.461,-0.206 -2.316,-0.181 -3.312,1.363 -0.335,0.523 -2.367,4.255 -2.754,4.906 -0.386,0.654 -3.566,5.125 -3.879,5.376 -0.312,0.254 -0.868,0.316 -1.212,-0.079 -0.349,-0.398 -0.15,-0.84 0.085,-1.313 0.34,-0.683 2.253,-4.271 2.861,-5.925 0.521,-1.439 2.535,-7.681 2.877,-9.045 0.339,-1.347 0.629,-3.774 0.644,-5.141 0.093,-1.222 -0.24,-3.353 -0.729,-3.963 -0.49,-0.608 -1.042,-0.88 -1.775,-1.064 -0.548,-0.136 -1.679,0.082 -2.408,0.446 -0.644,0.323 -2.129,1.872 -2.781,2.961 -0.733,1.231 -2.196,4.957 -2.544,5.662 -0.342,0.707 -2.21,4.926 -2.456,5.66 -0.248,0.733 -1.203,3.095 -1.683,3.644 -0.483,0.553 -0.93,0.744 -1.181,0.579 -0.256,-0.16 -0.445,-1.155 -0.288,-2.019 0.125,-0.697 2.39,-10.333 2.665,-11.097 0.358,-0.976 1.913,-6.961 2.024,-8.327 0.11,-1.363 0.067,-2.402 -0.566,-3.397 -0.635,-0.988 -1.369,-1.241 -2.021,-1.535 -0.649,-0.291 -1.392,-0.328 -2.019,-0.24 -0.632,0.085 -1.401,0.535 -1.778,0.808 -0.381,0.275 -0.88,0.931 -1.213,1.372 -0.341,0.45 -1.073,2.116 -1.295,2.911 -0.22,0.795 -2.52,8.709 -2.747,9.458 -0.229,0.753 -2.177,7.354 -2.426,7.844 -0.25,0.485 -0.891,1.969 -1.372,2.021 -0.486,0.051 -0.41,-0.373 -0.486,-0.731 -0.077,-0.355 0.009,-0.923 0.243,-1.616 0.229,-0.691 3.691,-12.708 4.046,-14.349 0.441,-2.071 0.458,-4.339 0.397,-5.538 -0.024,-0.536 -0.256,-2.721 -1.859,-3.149 -1.603,-0.433 -2.584,0.018 -3.396,0.806 -0.811,0.792 -1.866,2.401 -2.992,4.122 -1.121,1.718 -3.593,7.458 -4.103,9.339 -0.629,2.31 -3.356,11.209 -3.655,12 -0.301,0.802 -1.113,2.155 -2.4,3.757 -0.805,0.995 -1.572,1.675 -2.206,1.903 -1.221,0.441 -2.124,-0.483 -2.515,-1.174 -0.354,-0.627 -0.681,-2.722 -0.991,-3.722 -0.15,-0.454 -1.067,-3.178 -1.469,-3.981 -0.404,-0.805 -1.741,-2.85 -2.223,-3.329 -0.48,-0.473 -1.514,-1.562 -2.47,-1.967 -0.865,-0.37 -1.78,-0.325 -2.458,-0.136 -0.681,0.19 -0.915,0.344 -1.379,0.728 -0.459,0.387 -0.885,0.85 -1.13,1.937 -0.243,1.101 0.194,4.375 0.613,6.735 0.305,1.751 1.908,6.505 2.09,8.095 0.215,1.862 0.613,3.286 0.687,5.125 0.072,1.836 0.802,4.211 1.171,6.067 0.368,1.858 0.211,3.866 0.585,6.148 0.225,1.354 1.639,5.9 2.124,7.017 0.877,2.051 2.705,4.352 3.806,5.197 1.102,0.846 2.581,1.946 4.368,2.589 1.778,0.635 2.626,0.406 4.043,0.806 1.413,0.4 3.586,1.579 4.44,2.102 0.859,0.524 1.369,0.779 2.831,0.967 1.459,0.19 5.03,-0.652 6.465,-1.21 1.443,-0.562 3.489,-1.891 4.285,-2.425 1.765,-1.171 5.28,-4.902 6.63,-6.952 0.697,-1.06 2.793,-4.968 4.576,-7.095 1.174,-1.398 5.091,-5.065 5.763,-5.713 0.988,-0.942 3.506,-4.122 4.21,-5.136 0.707,-1.017 3.343,-6.877 3.721,-7.845 0.377,-0.968 1.059,-3.736 1.295,-5.085 0.236,-1.36 0.367,-2.814 0.214,-3.919 M 829,343.168 c 1.046,-0.392 2.066,0.166 2.561,0.526 0.499,0.357 1.291,1.027 1.595,1.437 0.295,0.409 0.476,0.876 0.313,1.511 -0.169,0.643 -1.791,2.318 -2.909,2.711 -1.663,0.583 -3.217,-0.88 -3.415,-1.82 -0.339,-1.617 1.251,-4.134 1.855,-4.365 m 15.441,23.594 c -0.315,0.424 -1.07,0.796 -1.954,1.017 -0.885,0.221 -4.447,0.534 -5.508,0.496 -1.062,-0.038 -4.275,-0.227 -6.079,-0.622 -1.725,-0.373 -4.81,-1.754 -5.995,-2.452 -1.18,-0.697 -3.17,-2.538 -3.832,-3.247 -0.669,-0.706 -1.705,-2.16 -2.361,-4.584 -0.361,-1.347 -0.587,-3.535 -0.587,-4.261 0,-0.621 0.653,-1.417 1.418,-1.497 0.711,-0.077 1.661,0.713 1.854,3.007 0.136,1.564 0.329,2.191 1.041,3.842 0.895,2.09 4.074,4.144 5.587,4.966 1.439,0.789 5.391,1.39 6.484,1.476 1.088,0.086 4.579,0.23 6.068,-0.016 0.669,-0.108 2.34,-0.478 2.758,-0.425 0.419,0.054 1.202,0.105 1.436,0.746 0.227,0.624 -0.016,1.126 -0.33,1.554 m 3.684,-11.866 c -0.312,0.634 -1.67,2.255 -2.431,2.615 -0.455,0.226 -1.147,0.107 -1.644,-0.022 -0.497,-0.134 -2.376,-1.025 -2.482,-2.506 -0.076,-1.126 1.018,-2.773 1.491,-3.218 0.467,-0.441 0.888,-0.652 1.617,-0.624 0.734,0.025 1.176,0.363 1.675,0.678 0.495,0.31 1.409,0.523 1.643,1.151 0.238,0.626 0.424,1.346 0.131,1.926"
       id="path17"
       inkscape:connector-curvature="0"
       style="fill:#ffffff" /><path
       d="m 793.27,384.255 h -1.583 v 14.794 h 1.583 v -14.794 z m 10.802,14.794 v -6.545 c 0,-1.186 -0.333,-2.141 -1.061,-2.848 -0.625,-0.624 -1.516,-0.956 -2.616,-0.956 -1.143,0 -2.142,0.414 -2.871,1.247 v -1.119 h -1.494 v 10.221 h 1.494 v -6.298 c 0,-1.783 0.999,-2.717 2.536,-2.717 1.539,0 2.517,0.911 2.517,2.717 v 6.298 h 1.495 z m 10.389,-2.991 c 0,-1.913 -1.224,-2.6 -3.017,-2.764 l -1.635,-0.147 c -1.289,-0.103 -1.79,-0.622 -1.79,-1.496 0,-1.037 0.791,-1.681 2.286,-1.681 1.059,0 1.996,0.248 2.726,0.808 l 0.976,-0.974 c -0.915,-0.749 -2.224,-1.104 -3.682,-1.104 -2.182,0 -3.759,1.122 -3.759,2.99 0,1.687 1.059,2.579 3.055,2.745 l 1.68,0.143 c 1.189,0.107 1.708,0.606 1.708,1.498 0,1.208 -1.041,1.808 -2.719,1.808 -1.275,0 -2.374,-0.329 -3.184,-1.182 l -0.998,0.996 c 1.12,1.08 2.473,1.477 4.197,1.477 2.473,0 4.156,-1.144 4.156,-3.117 m 6.025,2.991 v -1.289 h -0.792 c -0.953,0 -1.392,-0.559 -1.392,-1.493 v -6.232 h 2.184 v -1.146 h -2.184 v -3.202 h -1.492 v 3.202 h -1.291 v 1.146 h 1.291 v 6.27 c 0,1.52 0.872,2.745 2.615,2.745 h 1.061 z m 4.158,-14.82 h -1.685 v 1.685 h 1.685 v -1.685 z m -0.105,4.599 h -1.495 v 10.221 h 1.495 v -10.221 z m 7.273,10.221 v -1.289 h -0.792 c -0.953,0 -1.39,-0.559 -1.39,-1.493 v -6.232 h 2.182 v -1.146 h -2.182 v -3.202 h -1.501 v 3.202 h -1.286 v 1.146 h 1.286 v 6.27 c 0,1.52 0.877,2.745 2.62,2.745 h 1.063 z m 10.079,0 v -10.221 h -1.499 v 6.295 c 0,1.787 -1.019,2.718 -2.555,2.718 -1.537,0 -2.495,-0.91 -2.495,-2.718 v -6.295 h -1.495 v 6.522 c 0,1.185 0.312,2.162 1.04,2.866 0.62,0.625 1.538,0.958 2.637,0.958 1.147,0 2.161,-0.437 2.891,-1.27 v 1.144 h 1.476 z m 7.042,0 v -1.289 h -0.79 c -0.955,0 -1.392,-0.559 -1.392,-1.493 v -6.232 h 2.182 v -1.146 h -2.182 v -3.202 h -1.497 v 3.202 h -1.289 v 1.146 h 1.289 v 6.27 c 0,1.52 0.873,2.745 2.618,2.745 h 1.061 z m 10.368,-5.112 c 0,-1.577 -0.208,-3.014 -1.248,-4.07 -0.7,-0.709 -1.679,-1.166 -2.93,-1.166 -1.241,0 -2.224,0.457 -2.924,1.166 -1.045,1.057 -1.251,2.493 -1.251,4.07 0,1.577 0.206,3.014 1.251,4.07 0.7,0.712 1.683,1.168 2.924,1.168 1.251,0 2.229,-0.456 2.93,-1.168 1.04,-1.057 1.248,-2.493 1.248,-4.07 m -1.491,0 c 0,1.146 -0.066,2.412 -0.813,3.157 -0.476,0.479 -1.144,0.747 -1.873,0.747 -0.724,0 -1.369,-0.269 -1.845,-0.747 -0.752,-0.745 -0.833,-2.012 -0.833,-3.157 0,-1.141 0.081,-2.41 0.833,-3.159 0.476,-0.475 1.121,-0.743 1.845,-0.743 0.729,0 1.397,0.269 1.873,0.743 0.746,0.748 0.813,2.018 0.813,3.159"
       id="path19"
       inkscape:connector-curvature="0"
       style="fill:#042f5f" /><path
       d="m 888.256,407.663 c -12.139,0 -20.246,-6.265 -20.246,-14.28 0,-8.013 8.111,-14.281 20.246,-14.281 12.162,0 20.248,6.271 20.248,14.281 0,8.015 -8.116,14.28 -20.248,14.28"
       id="path21"
       inkscape:connector-curvature="0"
       style="fill:#ffffff" /><path
       d="m 888.256,407.663 c -12.139,0 -20.246,-6.265 -20.246,-14.28 0,-8.013 8.111,-14.28 20.246,-14.28 12.162,0 20.248,6.267 20.248,14.28 0,8.015 -8.116,14.28 -20.248,14.28 m -0.013,-33.246 c -2.27,0.086 -2.66,1.479 -5.255,1.964 -2.182,0.328 -3.758,-0.777 -5.785,-0.122 -1.851,0.68 -2.33,2.439 -4.158,3.682 -1.74,1.091 -4.128,1.006 -5.331,2.394 -1.31,1.569 -0.865,3.457 -1.646,5.694 -0.897,2.278 -2.555,3.069 -2.555,5.338 0,2.319 1.667,3.08 2.565,5.366 0.787,2.277 0.293,4.06 1.647,5.722 1.395,1.448 3.288,1.151 5.307,2.355 1.862,1.246 2.311,2.991 4.17,3.695 2.181,0.663 3.387,-0.461 5.785,-0.12 2.459,0.412 2.99,1.881 5.255,1.961 h 0.013 0.01 c 2.285,-0.08 2.633,-1.487 5.233,-1.955 2.319,-0.339 3.714,0.774 5.805,0.114 1.881,-0.694 2.312,-2.455 4.174,-3.695 1.95,-1.164 3.793,-0.833 5.3,-2.343 1.348,-1.651 0.891,-3.58 1.675,-5.757 0.836,-2.196 2.546,-3.029 2.546,-5.344 0,-2.281 -1.638,-3.06 -2.568,-5.334 -0.774,-2.354 -0.345,-4.208 -1.667,-5.742 -1.411,-1.444 -3.461,-1.221 -5.285,-2.335 -1.864,-1.264 -2.311,-3.005 -4.174,-3.696 -2.076,-0.645 -3.414,0.438 -5.787,0.122 -2.556,-0.451 -2.981,-1.878 -5.251,-1.964 h -0.023 z"
       id="path23"
       inkscape:connector-curvature="0"
       style="fill:#9d0621" /><path
       d="m 897.595,395.19 h -4.155 l 2.369,-5.896 1.786,5.896 z m 6.369,4.127 h -0.269 c -0.637,-0.008 -0.793,-0.18 -0.981,-0.702 -0.015,-0.04 -1.819,-5.189 -3.134,-8.947 -0.682,-1.931 -1.246,-3.543 -1.411,-4.015 -0.049,-0.147 -0.164,-0.226 -0.326,-0.226 h -1.736 c -0.159,0 -0.273,0.078 -0.325,0.221 l -5.447,13.025 c -0.112,0.266 -0.2,0.405 -0.445,0.531 -0.191,0.095 -0.509,0.109 -0.637,0.109 -0.019,0 -0.033,0 -0.041,0 h -0.01 -0.005 -0.005 l 0,0 0,0 -0.144,0.003 c -0.157,0 -0.263,0.108 -0.263,0.267 v 0.842 c 0,0.16 0.105,0.267 0.266,0.267 h 4.24 c 0.155,0 0.263,-0.106 0.263,-0.267 v -0.843 c 0,-0.157 -0.107,-0.266 -0.263,-0.266 l -0.474,-0.003 c -0.427,-0.005 -0.75,-0.04 -0.753,-0.41 l 0,0 0,0 v -0.001 c 0,-0.13 0.04,-0.296 0.126,-0.491 0.269,-0.674 0.544,-1.341 0.814,-2.009 h 4.897 c 0.227,0.633 0.58,1.769 0.585,1.783 0.002,0.005 0.13,0.399 0.17,0.56 0.02,0.072 0.028,0.14 0.028,0.198 0,0 -0.006,0.013 0,0.018 -0.009,0.224 -0.153,0.333 -0.47,0.348 l -0.517,0.008 c -0.075,0 -0.143,0.023 -0.193,0.071 -0.048,0.052 -0.074,0.119 -0.074,0.195 v 0.005 0.84 c 0,0.072 0.026,0.141 0.074,0.188 0.051,0.051 0.116,0.076 0.193,0.076 h 6.265 c 0.159,0 0.263,-0.106 0.263,-0.267 v -0.842 c 0.002,-0.157 -0.102,-0.266 -0.261,-0.266"
       id="path25"
       inkscape:connector-curvature="0"
       style="fill:#042f5f" /><path
       d="m 884.432,396.312 h -0.864 c -0.141,0 -0.236,0.083 -0.265,0.23 -0.237,1.515 -0.759,2.898 -2.995,2.898 -1.448,0 -2.255,-0.975 -2.706,-2.324 -0.444,-1.349 -0.534,-3.072 -0.534,-4.554 0,-1.016 0.166,-2.484 0.64,-3.691 0.48,-1.211 1.258,-2.159 2.495,-2.159 2.035,0 2.633,1.086 2.959,2.864 0.032,0.163 0.122,0.246 0.268,0.24 h 0.865 c 0.156,0 0.263,-0.109 0.268,-0.268 v -3.85 c -0.005,-0.158 -0.111,-0.271 -0.268,-0.271 h -0.881 c -0.137,0 -0.194,0.068 -0.257,0.203 -0.113,0.238 -0.188,0.369 -0.455,0.369 -0.16,0 -0.288,-0.06 -0.499,-0.163 -0.058,-0.022 -0.117,-0.058 -0.186,-0.083 -0.48,-0.203 -1.178,-0.431 -2.374,-0.431 -2.051,0 -3.761,0.782 -4.966,2.144 -1.201,1.364 -1.886,3.31 -1.886,5.632 0,1.855 0.535,3.784 1.665,5.248 1.13,1.463 2.849,2.466 5.212,2.466 1.309,0 2.142,-0.233 2.688,-0.384 0.276,-0.075 0.477,-0.13 0.63,-0.13 0.145,0 0.243,0.072 0.313,0.225 0.064,0.144 0.163,0.173 0.25,0.169 l 0,0 0,0 h 0.883 c 0.16,0 0.269,-0.106 0.269,-0.267 v -3.847 c -10e-4,-0.159 -0.109,-0.266 -0.269,-0.266"
       id="path27"
       inkscape:connector-curvature="0"
       style="fill:#042f5f" /><path
       d="m 887.41,390.666 c -0.33,-0.485 -0.483,-0.792 -0.483,-1.268 0,-0.384 0.221,-0.791 0.71,-0.791 0.426,10e-4 0.614,0.387 0.614,0.773 0,0.569 -0.272,0.983 -0.841,1.286 m -1.045,1.239 0,0 1.64,2.252 c -0.303,0.301 -0.608,0.562 -1.123,0.562 -0.812,0 -1.304,-0.523 -1.309,-1.374 0,-0.552 0.328,-1.144 0.792,-1.44 m 5.685,-0.717 c -0.037,-0.053 -0.103,-0.057 -0.157,-0.057 -0.004,0 -0.014,0 -0.018,0 h -0.019 -1.77 c -0.163,0 -0.227,0.087 -0.246,0.162 -0.131,0.535 -0.391,1.084 -0.768,1.63 -0.346,-0.519 -0.692,-1.037 -1.04,-1.554 1.113,-0.496 1.664,-1.079 1.664,-1.801 0,-1.013 -0.824,-1.688 -2.031,-1.69 -1.143,0.006 -2.309,0.606 -2.313,1.964 0,0.56 0.243,0.98 0.489,1.316 -0.94,0.306 -1.926,1.121 -1.926,2.229 0,0 0,0.021 0,0.035 0.026,1.29 1.127,2.162 2.729,2.162 h 10e-4 c 0.556,0 1.358,-0.105 2.023,-0.617 0.446,0.421 1.111,0.459 1.346,0.459 0.049,0 0.081,-0.002 0.088,-0.002 h 0.713 l 0,0 c 0.167,0.002 0.224,-0.086 0.255,-0.166 l 0.219,-0.519 c 0.018,-0.038 0.027,-0.075 0.027,-0.106 0,-0.027 -0.01,-0.055 -0.027,-0.071 -0.037,-0.061 -0.108,-0.062 -0.153,-0.063 -0.01,0 -0.017,0 -0.022,0.002 h -0.013 -0.32 c -0.603,0 -0.94,-0.426 -1.021,-0.543 0.369,-0.369 0.477,-0.521 0.68,-0.813 0.035,-0.048 0.071,-0.1 0.111,-0.157 0.186,-0.253 0.433,-0.668 0.437,-0.673 0.109,-0.17 0.178,-0.271 0.348,-0.271 h 0.243 c 0.111,0 0.195,-0.058 0.248,-0.168 l 0.216,-0.484 c 0.018,-0.049 0.03,-0.093 0.03,-0.13 -10e-4,-0.029 -0.009,-0.053 -0.023,-0.074"
       id="path29"
       inkscape:connector-curvature="0"
       style="fill:#042f5f" /><path
       d="m 152.936,444.404 2.149,-44.74 6.364,0.577 c 35.626,3.164 39.155,44.163 -8.513,44.163 m -25.19,-53.955 0.09,-7.495 -15.974,13.74 16.434,11.262 0.014,-9.642 15.083,0.857 -0.554,44.349 0.189,30.78 9.237,-0.287 0.713,-20.732 c 17.745,-1.894 45.172,-3.684 48.564,-24.422 1.807,-11.068 2.165,-20.233 -4.578,-27.975 -8.998,-10.349 -21.312,-13.31 -34.017,-12.741 l -35.201,2.306 z"
       id="path31"
       inkscape:connector-curvature="0"
       style="fill:#231f20" /><path
       d="m 466.422,444.576 0.562,-45.574 6.092,-0.027 c 36.392,-0.161 41.82,43.877 -6.654,45.601 m -11.581,-56.357 1.278,55.814 1.268,30.276 h 9.428 l -0.027,-20.713 c 17.968,-2.568 45.807,-5.384 48.499,-26.593 1.441,-11.324 1.469,-20.65 -5.673,-28.28 -9.53,-10.196 -22.13,-12.523 -35.048,-11.716 l -19.725,1.212 z"
       id="path33"
       inkscape:connector-curvature="0"
       style="fill:#231f20" /><polygon
       points="383.927,376.192 384.266,417.688 384.988,474.301 371.001,474.305 371.711,444.32 372.42,376.192 "
       id="polygon35"
       style="fill:#231f20" /><path
       d="m 276.931,400.463 c 10.184,-1.893 25.969,-2.69 25.969,12.354 0,12.711 -13.176,13.859 -24.389,18.17 l -1.141,-21.991 -0.439,-8.533 z m -11.092,-12.346 0.63,20.271 2.499,65.036 h 12.53 l -2.423,-34.654 c 29.609,0.131 12.568,34.226 39.357,34.812 1.31,0.032 2.737,-0.027 4.271,-0.158 l 37.19,-3.178 -0.339,-6.883 c -6.322,0 -32.302,3.129 -41.136,1.896 -4.622,-0.645 -8.577,-2.185 -10.812,-5.372 -4.415,-6.288 -4.003,-23.283 -16.442,-26.184 12.401,-3.696 23.774,-8.085 22.8,-23.431 -1.073,-16.941 -9.225,-22.156 -27.531,-22.156 -6.061,0.001 -14.581,-0.501 -20.594,0.001"
       id="path37"
       inkscape:connector-curvature="0"
       style="fill:#231f20" /><path
       d="m 529.784,400.463 c 10.181,-1.893 25.975,-2.69 25.975,12.354 0,12.711 -13.183,13.859 -24.395,18.17 l -1.139,-21.991 -0.441,-8.533 z m -11.097,-12.346 0.635,20.271 2.505,65.036 h 12.527 l -2.427,-34.654 c 29.613,0.131 12.572,34.226 39.356,34.812 1.315,0.032 2.738,-0.027 4.275,-0.158 l 37.187,-3.178 -0.339,-6.883 c -6.323,0 -32.3,3.129 -41.132,1.896 -4.624,-0.645 -8.58,-2.185 -10.812,-5.372 -4.41,-6.288 -4.005,-23.283 -16.441,-26.184 12.401,-3.696 23.77,-8.085 22.802,-23.431 -1.069,-16.941 -9.229,-22.156 -27.534,-22.156 -6.066,0.001 -14.58,-0.501 -20.602,0.001"
       id="path39"
       inkscape:connector-curvature="0"
       style="fill:#231f20" /><path
       d="m 621.577,443.141 c 0.852,13.997 7.066,31.592 24.613,31.164 10.361,-0.252 22.581,-4.85 23.608,-27.181 l -8.851,1.242 c -0.785,13.161 -8.366,15.043 -15.484,15.24 -11.764,0.326 -14.99,-10.356 -15.169,-20.677 -0.095,-5.951 -0.3,-12.112 0.184,-18.048 2.663,-33.262 26.956,-32.636 29.72,1.746 l 11.089,-0.777 c 1.581,-50.721 -48.184,-51.213 -50.031,-1.246 -0.223,6.152 -0.051,12.397 0.321,18.537"
       id="path41"
       inkscape:connector-curvature="0"
       style="fill:#231f20" /><path
       d="m 213.799,446.966 c 0,-19.498 17.802,-20.685 32.798,-18.21 l -0.338,36.839 -11.585,0.434 c -11.985,0.251 -20.875,-7.588 -20.875,-19.063 m 33.181,-34.168 -0.07,7.543 c -22.077,-4.549 -48.291,4.219 -47.862,28.326 0.277,15.772 10.756,25.643 28.422,25.643 l 36.679,-1.729 -0.324,-8.34 -4.99,0.341 -0.747,-23.32 c -0.902,-27.911 0.892,-54.163 -25.847,-54.404 -20.493,0 -23.347,11.839 -24.113,27.559 l 9.345,-0.329 c 0.159,-23.93 29.713,-22.202 29.507,-1.29"
       id="path43"
       inkscape:connector-curvature="0"
       style="fill:#231f20" /><path
       d="m 402.911,446.966 c 0,-19.498 17.806,-20.685 32.797,-18.21 l -0.337,36.839 -11.587,0.434 c -11.986,0.251 -20.873,-7.588 -20.873,-19.063 m 33.179,-34.168 -0.069,7.543 c -22.073,-4.549 -48.285,4.219 -47.857,28.326 0.278,15.772 10.754,25.643 28.423,25.643 l 36.67,-1.729 -0.324,-8.34 -4.985,0.341 -0.751,-23.32 c -0.896,-27.911 0.902,-54.163 -25.843,-54.404 -20.489,0 -23.348,11.839 -24.112,27.559 l 9.344,-0.329 c 0.16,-23.93 29.706,-22.202 29.504,-1.29"
       id="path45"
       inkscape:connector-curvature="0"
       style="fill:#231f20" /><path
       d="m 326.044,437.874 c 0,-12.828 12.747,-14.719 24.894,-12.706 l -0.272,26.691 -9.385,0.345 c -9.705,0.209 -15.237,-5.03 -15.237,-14.33 m 25.208,-27.676 -0.062,6.111 c -17.874,-3.682 -39.105,3.427 -38.758,22.949 0.22,12.765 8.711,20.765 23.021,20.765 l 32.113,-1.766 -0.27,-7.317 -4.038,0.279 -0.61,-18.33 c -0.74,-22.604 3.32,-43.7 -23.336,-43.7 -16.601,0 -18.908,9.592 -19.522,22.323 l 7.566,-0.257 c 0.123,-19.387 24.056,-17.99 23.896,-1.057"
       id="path47"
       inkscape:connector-curvature="0"
       style="fill:#231f20" /><path
       d="m 578.894,437.874 c 0,-12.828 12.755,-14.719 24.896,-12.706 l -0.266,26.691 -9.389,0.345 c -9.7,0.209 -15.241,-5.03 -15.241,-14.33 m 25.21,-27.676 -0.057,6.111 c -17.874,-3.682 -39.109,3.427 -38.758,22.949 0.224,12.765 8.707,20.765 23.018,20.765 l 32.116,-1.766 -0.272,-7.317 -4.037,0.279 -0.61,-18.33 c -0.739,-22.604 3.317,-43.7 -23.33,-43.7 -16.604,0 -18.92,9.592 -19.524,22.323 l 7.563,-0.257 c 0.122,-19.387 24.055,-17.99 23.891,-1.057"
       id="path49"
       inkscape:connector-curvature="0"
       style="fill:#231f20" /><path
       d="m 686.108,447.062 c 0,-19.431 17.739,-20.617 32.679,-18.14 l -0.374,38.109 -11.757,1.073 c -11.89,1.087 -20.548,-9.606 -20.548,-21.042 m 44.019,18.902 0.115,-24.584 c -0.896,-27.812 0.887,-53.973 -25.759,-54.212 -20.419,0 -23.267,11.794 -24.02,27.463 l 9.306,-0.328 c 0.153,-23.85 29.6,-22.127 29.401,-1.288 l -0.07,7.517 c -21.996,-4.538 -48.117,4.216 -47.696,28.232 0.285,15.706 10.725,25.428 28.326,25.546 l 46.312,0.293 0.141,6.521 12.962,-12.364 -13.01,-11.999 0.118,7.726 -16.126,1.477 z"
       id="path51"
       inkscape:connector-curvature="0"
       style="fill:#231f20" /><polygon
       points="715.276,381.394 713.961,374.225 694.002,377.878 695.345,385.226 "
       id="polygon53"
       style="fill:#231f20" /></g></svg>